<svg width="45" height="45" viewBox="0 0 45 45" fill="none" xmlns="http://www.w3.org/2000/svg">
<g clip-path="url(#clip0_648_188)">
<path d="M22.5 45C34.9264 45 45 34.9264 45 22.5C45 10.0736 34.9264 0 22.5 0C10.0736 0 0 10.0736 0 22.5C0 34.9264 10.0736 45 22.5 45Z" fill="#CA8A05"/>
<path d="M22.4999 36.018C19.7933 36.0183 17.1539 35.1746 14.9494 33.6042C12.7449 32.0339 11.085 29.8152 10.2008 27.2571C10.1258 27.0638 10.0906 26.8575 10.0972 26.6503C10.1038 26.4431 10.1521 26.2394 10.2392 26.0513C10.3262 25.8632 10.4503 25.6946 10.604 25.5555C10.7577 25.4164 10.9378 25.3097 11.1337 25.2418C11.3295 25.1738 11.537 25.1461 11.7438 25.1601C11.9506 25.1741 12.1525 25.2297 12.3373 25.3235C12.5222 25.4173 12.6863 25.5474 12.8197 25.7059C12.9532 25.8645 13.0533 26.0484 13.1142 26.2465C13.7854 28.2022 15.0508 29.8994 16.7335 31.1009C18.4162 32.3024 20.4322 32.9483 22.4999 32.9483C24.5676 32.9483 26.5836 32.3024 28.2663 31.1009C29.949 29.8994 31.2144 28.2022 31.8856 26.2465C31.9465 26.0484 32.0466 25.8645 32.1801 25.7059C32.3135 25.5474 32.4776 25.4173 32.6625 25.3235C32.8473 25.2297 33.0492 25.1741 33.256 25.1601C33.4628 25.1461 33.6703 25.1738 33.8661 25.2418C34.062 25.3097 34.2421 25.4164 34.3958 25.5555C34.5495 25.6946 34.6736 25.8632 34.7606 26.0513C34.8477 26.2394 34.896 26.4431 34.9026 26.6503C34.9092 26.8575 34.874 27.0638 34.799 27.2571C33.9149 29.8152 32.2549 32.0339 30.0504 33.6042C27.8459 35.1746 25.2065 36.0183 22.4999 36.018Z" fill="#FEF9C3"/>
<path d="M29.9571 19.9723C31.5903 19.9723 32.9143 18.6483 32.9143 17.0151C32.9143 15.3819 31.5903 14.058 29.9571 14.058C28.324 14.058 27 15.3819 27 17.0151C27 18.6483 28.324 19.9723 29.9571 19.9723Z" fill="#FEF9C3"/>
<path d="M15.0428 19.9723C16.676 19.9723 18 18.6483 18 17.0151C18 15.3819 16.676 14.058 15.0428 14.058C13.4097 14.058 12.0857 15.3819 12.0857 17.0151C12.0857 18.6483 13.4097 19.9723 15.0428 19.9723Z" fill="#FEF9C3"/>
</g>
<defs>
<clipPath id="clip0_648_188">
<rect width="45" height="45" fill="white"/>
</clipPath>
</defs>
</svg>
