<svg width="45" height="45" viewBox="0 0 45 45" fill="none" xmlns="http://www.w3.org/2000/svg">
<path d="M22.5 40.0355C21.8592 40.0355 21.2417 39.8034 20.7603 39.3818C18.9424 37.7922 17.1898 36.2984 15.6434 34.9808L15.6355 34.9739C11.102 31.1105 7.18707 27.7741 4.46316 24.4874C1.41829 20.8133 0 17.3295 0 13.5238C0 9.82624 1.26791 6.41495 3.56985 3.91798C5.8993 1.39148 9.09561 0 12.5711 0C15.1687 0 17.5475 0.821248 19.6415 2.44072C20.6982 3.2581 21.656 4.25856 22.5 5.42548C23.3441 4.25856 24.3017 3.2581 25.3588 2.44072C27.4528 0.821248 29.8316 0 32.4292 0C35.9043 0 39.101 1.39148 41.4304 3.91798C43.7324 6.41495 44.9999 9.82624 44.9999 13.5238C44.9999 17.3294 43.582 20.8133 40.5371 24.4871C37.8131 27.7741 33.8986 31.1101 29.3657 34.9732C27.8166 36.293 26.0613 37.7891 24.2392 39.3825C23.7577 39.8036 23.1397 40.0357 22.5 40.0355ZM12.5711 2.63601C9.84066 2.63601 7.33235 3.72576 5.50757 5.70462C3.65572 7.71344 2.63566 10.4903 2.63566 13.5238C2.63566 16.7246 3.82526 19.5872 6.49256 22.8055C9.07056 25.9163 12.9051 29.1841 17.345 32.9679L17.3532 32.9747C18.9053 34.2975 20.6649 35.7972 22.4962 37.3984C24.3384 35.7941 26.1007 34.292 27.656 32.9672C32.0955 29.1834 35.9297 25.9163 38.5077 22.8055C41.1747 19.5872 42.3643 16.7246 42.3643 13.5238C42.3643 10.4902 41.3442 7.71335 39.4923 5.70462C37.6679 3.72576 35.1593 2.63601 32.4292 2.63601C30.429 2.63601 28.5925 3.2719 26.971 4.52566C25.526 5.64353 24.5194 7.05664 23.9291 8.0454C23.6257 8.55385 23.0915 8.85734 22.5 8.85734C21.9084 8.85734 21.3742 8.55385 21.0707 8.0454C20.4809 7.05664 19.4742 5.64353 18.0288 4.52566C16.4074 3.2719 14.5709 2.63601 12.5711 2.63601Z" fill="#65BC68"/>
</svg>
