<svg width="45" height="45" viewBox="0 0 45 45" fill="none" xmlns="http://www.w3.org/2000/svg">
<path d="M14.5501 22.6594C20.8032 22.6594 25.8751 17.5875 25.8751 11.3344C25.8751 5.08125 20.8032 0 14.5501 0C8.29697 0 3.2251 5.07188 3.2251 11.325C3.2251 17.5781 8.29697 22.6594 14.5501 22.6594ZM10.5938 15.8063C10.697 15.4313 10.8001 15.0656 10.9126 14.6906C11.0438 14.2594 11.1657 14.2125 11.5595 14.4188C12.2345 14.7656 12.947 14.9625 13.697 15.0563C14.1751 15.1125 14.6532 15.0656 15.0938 14.8688C15.9282 14.5031 16.0595 13.5375 15.3563 12.9562C15.1126 12.7594 14.8407 12.6094 14.5595 12.4875C13.8282 12.1687 13.0688 11.925 12.3751 11.5125C11.2595 10.8469 10.547 9.91875 10.6313 8.55938C10.7251 7.02188 11.597 6.05625 13.0032 5.55C13.5845 5.33437 13.5845 5.34375 13.5938 4.73438V4.11563C13.6032 3.65625 13.6876 3.58125 14.1376 3.5625H14.5595C15.5345 3.5625 15.5345 3.5625 15.5345 4.5375C15.5345 5.22188 15.5345 5.23125 16.2188 5.33438C16.7438 5.41875 17.2407 5.56875 17.7282 5.78438C18.0001 5.90625 18.0938 6.09375 18.0188 6.375C17.897 6.79688 17.7845 7.21875 17.6438 7.63125C17.5126 8.025 17.3907 8.08125 17.0157 7.90313C16.2563 7.5375 15.4595 7.37812 14.6157 7.425C14.3907 7.43437 14.1845 7.4625 13.9782 7.55625C13.2563 7.875 13.1345 8.67188 13.7532 9.16875C14.0626 9.42188 14.4188 9.6 14.7938 9.75C15.4313 10.0125 16.0782 10.275 16.697 10.6125C18.6376 11.6906 19.1626 14.1281 17.7938 15.7875C17.297 16.3875 16.6595 16.7906 15.9001 16.9969C15.572 17.0906 15.422 17.2594 15.4407 17.5969C15.4595 17.9344 15.4407 18.2625 15.4407 18.6C15.4407 18.9 15.2907 19.0594 14.9907 19.0687C14.6345 19.0781 14.2688 19.0781 13.9126 19.0687C13.5938 19.0594 13.4438 18.8813 13.4438 18.5719C13.4438 18.3281 13.4438 18.0844 13.4345 17.8406C13.4251 17.3062 13.4157 17.2781 12.8907 17.1937C12.2251 17.0906 11.5782 16.9406 10.9688 16.6406C10.5095 16.425 10.4626 16.3031 10.5938 15.8063Z" fill="#6B21A8"/>
<path d="M39.9563 23.6062H38.6344C37.7625 20.9344 36.0563 18.5625 33.7782 16.725C33.7782 16.6406 33.7594 16.5469 33.7407 16.4625C33.2625 14.7844 33.8532 13.2562 34.5375 12.1594C35.0157 11.3906 34.3969 10.4062 33.4969 10.5187C31.4813 10.7719 30.0938 11.5125 29.1375 12.3469C28.4813 12.9187 28.0126 13.6875 27.8063 14.5406C26.3625 20.5219 20.9719 24.975 14.55 24.975C11.4282 24.975 8.55942 23.925 6.26255 22.1625C5.46567 23.8875 5.03442 25.7719 5.03442 27.75C5.03442 28.8187 5.16567 29.8594 5.40942 30.8625C5.40942 30.8625 5.40942 30.8812 5.4188 30.9094C5.67192 31.95 6.0563 32.9531 6.5438 33.9C7.19067 35.2969 8.12817 36.9281 9.42192 38.25C11.2875 40.1719 11.6063 42.5531 11.6532 43.5844V44.0906C11.6907 44.5969 12.1125 45 12.6282 45H18.5532C19.0875 45 19.5282 44.5687 19.5282 44.025V42.5625C20.3907 42.675 21.2719 42.7406 22.1625 42.7406C22.8657 42.7406 23.55 42.7031 24.2344 42.6281V44.025C24.2344 44.5594 24.6657 45 25.2094 45H31.1532C31.6875 45 32.1282 44.5687 32.1282 44.025V42.5625C32.1375 42.075 32.3063 40.1344 34.1438 38.475L34.3407 38.3062C34.3594 38.2875 34.3782 38.2781 34.3969 38.2594C36.4407 36.4406 37.95 34.1719 38.7282 31.6406H39.975C40.9688 31.6406 41.775 30.8344 41.775 29.8406V25.4062C41.7563 24.4125 40.9501 23.6062 39.9563 23.6062ZM32.5407 23.925C31.725 23.925 31.0688 23.2687 31.0688 22.4531C31.0688 21.6375 31.725 20.9812 32.5407 20.9812C33.3563 20.9812 34.0125 21.6375 34.0125 22.4531C34.0125 23.2687 33.3563 23.925 32.5407 23.925Z" fill="#6B21A8"/>
</svg>
