<svg width="45" height="45" viewBox="0 0 45 45" fill="none" xmlns="http://www.w3.org/2000/svg">
<path d="M40.573 5.94481L22.9642 0.0752132C22.6628 -0.0250711 22.337 -0.0250711 22.0356 0.0752132L4.42692 5.94481C4.13481 6.04224 3.88074 6.2291 3.70071 6.47892C3.52069 6.72875 3.42382 7.02889 3.42383 7.33682V19.1019C3.42374 35.9407 18.4123 45 22.5 45C25.4328 45 41.5761 37.028 41.5761 19.1018V7.33674C41.5761 7.02881 41.4792 6.72869 41.2992 6.47888C41.1192 6.22906 40.8651 6.04222 40.573 5.94481ZM35.7065 19.105C35.7065 31.8551 24.6699 38.7043 22.4999 38.7067V6.20154C22.9377 6.20242 34.2869 10.0321 34.7023 10.1702C34.9947 10.2675 35.2489 10.4543 35.4291 10.7042C35.6094 10.9541 35.7064 11.2544 35.7064 11.5625L35.7065 19.105Z" fill="#2563EA"/>
</svg>
