<svg width="45" height="41" viewBox="0 0 45 41" fill="none" xmlns="http://www.w3.org/2000/svg">
<path d="M33.0469 0.636719C30.605 0.636719 28.3663 1.41051 26.3929 2.93664C24.5011 4.39976 23.2415 6.2633 22.5 7.6184C21.7585 6.26321 20.4989 4.39976 18.6071 2.93664C16.6337 1.41051 14.395 0.636719 11.9531 0.636719C5.13879 0.636719 0 6.21048 0 13.6018C0 21.587 6.41101 27.0504 16.1164 35.3212C17.7645 36.7257 19.6327 38.3178 21.5743 40.0158C21.8303 40.2399 22.159 40.3633 22.5 40.3633C22.841 40.3633 23.1697 40.2399 23.4257 40.0159C25.3675 38.3176 27.2355 36.7257 28.8846 35.3203C38.589 27.0504 45 21.587 45 13.6018C45 6.21048 39.8612 0.636719 33.0469 0.636719Z" fill="#DC2525"/>
</svg>
