<svg width="45" height="45" viewBox="0 0 45 45" fill="none" xmlns="http://www.w3.org/2000/svg">
<path d="M15.474 39.9331C15.4749 40.4859 15.6384 41.0273 15.9451 41.4879L17.4472 43.7458C17.7038 44.1318 18.0518 44.4483 18.4603 44.6673C18.8688 44.8863 19.3251 45.0009 19.7886 45.0009H25.2123C25.6758 45.0009 26.1321 44.8863 26.5406 44.6673C26.9491 44.4483 27.2971 44.1318 27.5537 43.7458L29.0558 41.4879C29.3624 41.0273 29.5262 40.4864 29.5269 39.9331L29.5304 36.5625H15.4696L15.474 39.9331ZM7.03125 15.4687C7.03125 19.3685 8.47705 22.9263 10.8598 25.6447C12.3117 27.3015 14.5828 30.7626 15.4485 33.6823C15.4521 33.7052 15.4547 33.728 15.4582 33.7509H29.5418C29.5453 33.728 29.548 33.7061 29.5515 33.6823C30.4172 30.7626 32.6883 27.3015 34.1402 25.6447C36.5229 22.9263 37.9688 19.3685 37.9688 15.4687C37.9688 6.90908 31.0175 -0.0263685 22.4517 -1.36033e-06C13.4859 0.0272447 7.03125 7.29228 7.03125 15.4687ZM22.5 8.4375C18.6231 8.4375 15.4688 11.5919 15.4688 15.4687C15.4688 16.2457 14.8395 16.875 14.0625 16.875C13.2855 16.875 12.6562 16.2457 12.6562 15.4687C12.6562 10.0406 17.0719 5.625 22.5 5.625C23.277 5.625 23.9062 6.2543 23.9062 7.03125C23.9062 7.8082 23.277 8.4375 22.5 8.4375Z" fill="#0A91B1"/>
</svg>
