<svg width="45" height="45" viewBox="0 0 45 45" fill="none" xmlns="http://www.w3.org/2000/svg">
<path d="M43.9773 12.4627L39.2362 4.89449C38.8125 4.2151 38.0601 3.79871 37.2565 3.79871H7.74355C6.93997 3.79871 6.18754 4.2151 5.76384 4.89449L1.02277 12.4627C-1.42447 16.3709 0.745169 21.806 5.31822 22.427C5.64695 22.4708 5.98299 22.4927 6.31903 22.4927C8.48137 22.4927 10.3953 21.543 11.7103 20.0747C13.0252 21.543 14.9465 22.4927 17.1015 22.4927C19.2638 22.4927 21.1778 21.543 22.4927 20.0747C23.8077 21.543 25.7289 22.4927 27.884 22.4927C30.0463 22.4927 31.9603 21.543 33.2752 20.0747C34.5974 21.543 36.5114 22.4927 38.6664 22.4927C39.0098 22.4927 39.3385 22.4708 39.6672 22.427C44.2549 21.8133 46.4319 16.3783 43.9773 12.4627ZM38.681 24.8377C37.9505 24.8377 37.2273 24.7281 36.526 24.5601V31.8507H8.47406V24.5601C7.77277 24.7208 7.04955 24.8377 6.31903 24.8377C5.88072 24.8377 5.4351 24.8084 5.0041 24.75C4.59501 24.6916 4.19322 24.5966 3.80604 24.487V38.8636C3.80604 40.1567 4.85069 41.2013 6.14371 41.2013H38.871C40.164 41.2013 41.2086 40.1567 41.2086 38.8636V24.487C40.8142 24.6039 40.4197 24.6989 40.0106 24.75C39.565 24.8084 39.1267 24.8377 38.681 24.8377Z" fill="#E9580E"/>
</svg>
