<svg width="24" height="24" viewBox="0 0 24 24" fill="none" xmlns="http://www.w3.org/2000/svg">
<g clip-path="url(#clip0_648_215)">
<path d="M12 24C18.6274 24 24 18.6274 24 12C24 5.37258 18.6274 0 12 0C5.37258 0 0 5.37258 0 12C0 18.6274 5.37258 24 12 24Z" fill="white"/>
<path d="M11.9999 19.2095C10.5564 19.2097 9.14877 18.7597 7.97302 17.9222C6.79728 17.0847 5.91198 15.9014 5.4404 14.537C5.40044 14.434 5.38166 14.3239 5.38518 14.2134C5.3887 14.1029 5.41445 13.9943 5.46089 13.8939C5.50733 13.7936 5.57351 13.7037 5.65548 13.6295C5.73744 13.5553 5.83352 13.4984 5.93796 13.4622C6.04241 13.426 6.15308 13.4111 6.26338 13.4186C6.37367 13.4261 6.48133 13.4558 6.57992 13.5058C6.67851 13.5558 6.766 13.6252 6.83719 13.7098C6.90837 13.7943 6.96178 13.8924 6.99423 13.9981C7.35222 15.0411 8.02708 15.9463 8.92453 16.5871C9.82198 17.2279 10.8972 17.5724 11.9999 17.5724C13.1027 17.5724 14.1779 17.2279 15.0754 16.5871C15.9728 15.9463 16.6477 15.0411 17.0057 13.9981C17.0381 13.8924 17.0915 13.7943 17.1627 13.7098C17.2339 13.6252 17.3214 13.5558 17.42 13.5058C17.5186 13.4558 17.6262 13.4261 17.7365 13.4186C17.8468 13.4111 17.9575 13.426 18.0619 13.4622C18.1664 13.4984 18.2625 13.5553 18.3444 13.6295C18.4264 13.7037 18.4926 13.7936 18.539 13.8939C18.5854 13.9943 18.6112 14.1029 18.6147 14.2134C18.6182 14.3239 18.5995 14.434 18.5595 14.537C18.0879 15.9014 17.2026 17.0847 16.0269 17.9222C14.8511 18.7597 13.4435 19.2097 11.9999 19.2095Z" fill="#F59E0B"/>
<path d="M15.977 10.6518C16.8481 10.6518 17.5542 9.94573 17.5542 9.0747C17.5542 8.20367 16.8481 7.49756 15.977 7.49756C15.106 7.49756 14.3999 8.20367 14.3999 9.0747C14.3999 9.94573 15.106 10.6518 15.977 10.6518Z" fill="#F59E0B"/>
<path d="M8.02294 10.6518C8.89398 10.6518 9.60009 9.94573 9.60009 9.0747C9.60009 8.20367 8.89398 7.49756 8.02294 7.49756C7.15191 7.49756 6.4458 8.20367 6.4458 9.0747C6.4458 9.94573 7.15191 10.6518 8.02294 10.6518Z" fill="#F59E0B"/>
</g>
<defs>
<clipPath id="clip0_648_215">
<rect width="24" height="24" fill="white"/>
</clipPath>
</defs>
</svg>
