<svg width="16" height="17" viewBox="0 0 16 17" fill="none" xmlns="http://www.w3.org/2000/svg">
<g clip-path="url(#clip0_650_842)">
<path d="M10.1252 5.9208L8.85298 5.73605L8.28397 4.58294C8.25786 4.53005 8.21748 4.48552 8.16739 4.45438C8.1173 4.42324 8.0595 4.40674 8.00051 4.40674C7.94153 4.40674 7.88373 4.42324 7.83364 4.45438C7.78354 4.48552 7.74316 4.53005 7.71706 4.58294L7.14805 5.73605L5.8755 5.9208C5.8171 5.92922 5.76222 5.95381 5.71707 5.9918C5.67192 6.02979 5.63831 6.07966 5.62003 6.13577C5.60176 6.19187 5.59955 6.25197 5.61367 6.30927C5.62778 6.36656 5.65765 6.41876 5.69989 6.45996L6.62049 7.35737L6.40306 8.62463C6.39529 8.67 6.39752 8.71652 6.4096 8.76094C6.42168 8.80535 6.44331 8.8466 6.47298 8.88179C6.50265 8.91698 6.53965 8.94526 6.58139 8.96466C6.62313 8.98407 6.6686 8.99412 6.71463 8.99413C6.76602 8.99374 6.81654 8.98084 6.86181 8.95653L7.99984 8.35944L9.13786 8.95653C9.18999 8.98416 9.24882 8.99666 9.30768 8.99259C9.36655 8.98853 9.4231 8.96807 9.47095 8.93354C9.51879 8.899 9.55601 8.85177 9.5784 8.79718C9.60079 8.74259 9.60746 8.68282 9.59764 8.62463L9.38022 7.35737L10.3008 6.45996C10.3506 6.41136 10.383 6.34769 10.393 6.27881C10.4178 6.10598 10.298 5.9457 10.1252 5.9208ZM8.81927 7.01805C8.78238 7.05395 8.75481 7.0983 8.73895 7.14727C8.7231 7.19624 8.71944 7.24834 8.7283 7.29904L8.86529 8.09882L8.14702 7.72123C8.10143 7.69773 8.05082 7.68568 7.99953 7.68611C7.94825 7.68654 7.89784 7.69943 7.85265 7.72369L7.13439 8.10128L7.27172 7.30151C7.28058 7.2508 7.27693 7.1987 7.26107 7.14973C7.24522 7.10076 7.21765 7.05641 7.18076 7.02051L6.5998 6.45396L7.40271 6.33735C7.45344 6.33001 7.50163 6.31044 7.54311 6.28034C7.5846 6.25024 7.61815 6.2105 7.64086 6.16455L7.99984 5.4368L8.35881 6.16455C8.38152 6.21051 8.41506 6.25025 8.45655 6.28035C8.49804 6.31046 8.54623 6.33002 8.59696 6.33735L9.40023 6.45186L8.81927 7.01805Z" fill="#2563EB"/>
<path d="M7.99942 2.65674C5.72751 2.65674 3.88574 4.49851 3.88574 6.77042C3.88574 9.04233 5.72751 10.8841 7.99942 10.8841C10.2703 10.8816 12.1106 9.04129 12.1131 6.77042C12.1131 4.49851 10.2713 2.65674 7.99942 2.65674ZM7.99942 10.2519C6.07667 10.2519 4.51797 8.69316 4.51797 6.77042C4.51797 4.84767 6.07667 3.28896 7.99942 3.28896C9.92131 3.2911 11.4787 4.84856 11.4809 6.77042C11.4809 8.6932 9.92217 10.2519 7.99942 10.2519Z" fill="#2563EB"/>
<path d="M13.7896 7.62308L13.1981 7.84682C13.2902 8.09021 13.4047 8.393 13.3653 8.51418C13.3211 8.65045 13.0531 8.82503 12.8163 8.97921C12.5353 9.16256 12.2157 9.3705 11.9962 9.67254C11.7767 9.97461 11.6731 10.3487 11.5842 10.6753C11.5139 10.9321 11.4275 11.2517 11.3155 11.3332C11.2034 11.4147 10.8789 11.3968 10.613 11.3841C10.2734 11.368 9.88841 11.349 9.5263 11.4677C9.17507 11.5815 8.8832 11.8189 8.62468 12.0272C8.40305 12.2064 8.15156 12.4094 8.0002 12.4094C7.84884 12.4094 7.59731 12.2064 7.37536 12.0266C7.11684 11.8176 6.82393 11.5808 6.47409 11.4674C6.2739 11.4024 6.04945 11.3722 5.76742 11.3722C5.63711 11.3722 5.50962 11.3782 5.38669 11.3842C5.12293 11.3968 4.79485 11.4123 4.68633 11.3332C4.57781 11.2542 4.48753 10.9314 4.41729 10.6746C4.32843 10.3476 4.22797 9.97743 4.00563 9.67186C3.78328 9.36629 3.46683 9.16221 3.18512 8.97853C2.94876 8.82435 2.68075 8.64977 2.63648 8.5135C2.59714 8.39304 2.712 8.08993 2.80404 7.84614C2.92593 7.52405 3.06359 7.15912 3.06359 6.77065C3.06359 6.38218 2.92554 6.01725 2.80368 5.69516C2.71164 5.45177 2.59714 5.14862 2.63613 5.0278C2.6804 4.89153 2.94837 4.71695 3.18512 4.56242C3.46612 4.37906 3.78539 4.17113 4.00527 3.86944C4.22516 3.56773 4.32839 3.19331 4.41729 2.86666C4.48753 2.60988 4.57393 2.29026 4.68597 2.20878C4.79802 2.12731 5.12257 2.14521 5.38669 2.15784C5.72633 2.174 6.11166 2.19298 6.47552 2.07426C6.82675 1.96047 7.11827 1.72303 7.37714 1.51474C7.59703 1.33491 7.84852 1.13222 7.99988 1.13222C8.15123 1.13222 8.40276 1.33488 8.62436 1.5147C8.88288 1.72367 9.17578 1.96043 9.52598 2.07423C9.88845 2.19187 10.2737 2.17361 10.6148 2.15781C10.8786 2.1455 11.2067 2.13005 11.3152 2.20875C11.4237 2.28744 11.5122 2.60949 11.5825 2.86662C11.6713 3.19363 11.7718 3.56384 11.9941 3.86941C12.2165 4.17498 12.5329 4.37942 12.8146 4.56274C13.051 4.71692 13.319 4.8915 13.3636 5.02777C13.403 5.14859 13.2881 5.4517 13.1961 5.69513C13.0742 6.01721 12.9362 6.3825 12.9362 6.77062C12.9362 7.15873 13.0742 7.52402 13.1961 7.84611L13.4918 7.73442L13.7875 7.62272C13.6748 7.32489 13.5683 7.04355 13.5683 6.77062C13.5683 6.49769 13.6737 6.21637 13.7872 5.91851C13.9336 5.53214 14.0724 5.16439 13.9645 4.83249C13.8511 4.48372 13.4995 4.25471 13.1595 4.03307C12.9137 3.87187 12.6565 3.70539 12.5052 3.49745C12.3538 3.28952 12.2705 2.98851 12.1922 2.70085C12.0816 2.29411 11.9773 1.90985 11.6854 1.6977C11.3935 1.48556 11.0019 1.50664 10.5832 1.5263C10.2836 1.54035 9.97346 1.55509 9.72093 1.4729C9.4821 1.39527 9.24781 1.20596 9.02161 1.02296C8.7023 0.765903 8.37494 0.5 7.99984 0.5C7.62474 0.5 7.29738 0.765903 6.97775 1.02335C6.75155 1.20635 6.51729 1.39531 6.27843 1.47293C6.0259 1.55476 5.72943 1.54107 5.41615 1.52633C4.99747 1.50668 4.602 1.48806 4.31362 1.69774C4.02525 1.90742 3.91745 2.29483 3.80679 2.70121C3.72845 2.98887 3.64769 3.28638 3.49383 3.49781C3.33998 3.70924 3.0871 3.87223 2.83949 4.03343C2.4995 4.25506 2.14791 4.48408 2.03447 4.83285C1.92664 5.16478 2.06537 5.5311 2.21184 5.91922C2.32424 6.21709 2.43065 6.4984 2.43065 6.77097C2.43065 7.04355 2.32528 7.32486 2.21184 7.62308C2.06537 8.00945 1.92664 8.37755 2.03447 8.70909C2.14791 9.05822 2.4995 9.28724 2.83949 9.50887C3.08535 9.67008 3.34248 9.83656 3.49348 10.0445C3.64452 10.2524 3.7281 10.5534 3.80643 10.8411C3.87385 11.0898 3.93956 11.33 4.04704 11.5278L2.76644 14.8027C2.74658 14.8536 2.74024 14.9087 2.74804 14.9628C2.75583 15.0168 2.7775 15.068 2.81093 15.1111C2.84436 15.1543 2.88841 15.1881 2.93878 15.2092C2.98916 15.2303 3.04414 15.238 3.09837 15.2316L4.88966 15.0173L6.05965 16.3892C6.09521 16.4309 6.14097 16.4625 6.19246 16.4812C6.24394 16.4998 6.29938 16.5047 6.35335 16.4955C6.40731 16.4862 6.45795 16.4631 6.5003 16.4284C6.54265 16.3938 6.57527 16.3486 6.59495 16.2976L7.8717 13.0311C7.95671 13.0452 8.04347 13.0452 8.12847 13.0311L9.40487 16.2976C9.42477 16.3484 9.45753 16.3933 9.49994 16.4278C9.54235 16.4622 9.59297 16.4851 9.64685 16.4942C9.70074 16.5032 9.75605 16.4982 9.8074 16.4795C9.85875 16.4608 9.90437 16.4291 9.93982 16.3875L11.1098 15.0156L12.9011 15.2298C12.9551 15.2362 13.0099 15.2285 13.0601 15.2075C13.1104 15.1865 13.1543 15.1529 13.1877 15.11C13.2211 15.067 13.2429 15.0162 13.2509 14.9623C13.2589 14.9085 13.2529 14.8535 13.2334 14.8027L11.9523 11.5271C12.0598 11.3293 12.1251 11.0891 12.1929 10.8404C12.2709 10.5528 12.3516 10.2552 12.5058 10.0438C12.66 9.83239 12.9126 9.6694 13.1602 9.50819C13.5002 9.28656 13.8521 9.05754 13.9652 8.70877C14.073 8.37684 13.9347 8.01084 13.7896 7.62308ZM6.19692 15.5772L5.26016 14.4782C5.22632 14.4385 5.18322 14.4079 5.13469 14.389C5.08616 14.37 5.0337 14.3634 4.98198 14.3696L3.54752 14.5414L4.55523 11.964C4.80637 12.0441 5.10455 12.0301 5.41576 12.0153C5.53166 12.0097 5.65145 12.0041 5.76699 12.0041C5.98053 12.0041 6.14316 12.0245 6.27839 12.0684C6.51722 12.146 6.75116 12.335 6.97772 12.5183C7.08309 12.603 7.18847 12.6883 7.29663 12.7642L6.19692 15.5772ZM12.4521 14.5414L11.018 14.3696C10.9662 14.3635 10.9138 14.3702 10.8652 14.3891C10.8167 14.4081 10.7736 14.4388 10.7398 14.4785L9.80269 15.5775L8.70227 12.7648C8.81046 12.6883 8.91652 12.6029 9.02118 12.519C9.24738 12.336 9.48164 12.147 9.7205 12.0694C9.97271 11.9876 10.2688 12.0013 10.5831 12.016C10.8975 12.0308 11.1925 12.0444 11.4437 11.9647L12.4521 14.5414Z" fill="#2563EB"/>
</g>
<defs>
<clipPath id="clip0_650_842">
<rect width="16" height="16" fill="white" transform="translate(0 0.5)"/>
</clipPath>
</defs>
</svg>
