<svg width="24" height="24" viewBox="0 0 24 24" fill="none" xmlns="http://www.w3.org/2000/svg">
<path d="M21.6391 3.17057L12.2477 0.0401137C12.087 -0.0133712 11.9132 -0.0133712 11.7525 0.0401137L2.36116 3.17057C2.20536 3.22253 2.06986 3.32218 1.97384 3.45543C1.87783 3.58867 1.82617 3.74874 1.82617 3.91297V10.1877C1.82613 19.1684 9.82 24 12.0001 24C13.5643 24 22.174 19.7483 22.174 10.1876V3.91293C22.1741 3.7487 22.1224 3.58863 22.0264 3.4554C21.9304 3.32217 21.7949 3.22252 21.6391 3.17057ZM19.0436 10.1893C19.0436 16.9894 13.1574 20.6423 12.0001 20.6436V3.30749C12.2336 3.30796 18.2865 5.35044 18.508 5.42408C18.6639 5.476 18.7996 5.57565 18.8957 5.70893C18.9918 5.84221 19.0435 6.00236 19.0435 6.16668L19.0436 10.1893Z" fill="white"/>
</svg>
