<svg width="45" height="45" viewBox="0 0 45 45" fill="none" xmlns="http://www.w3.org/2000/svg">
<path d="M38.0898 8.58445C37.6807 8.18991 37.1968 7.88131 36.6665 7.67686C36.1362 7.47241 35.5704 7.37625 35.0023 7.39406C30.1508 7.55507 26.2027 8.60976 23.2602 10.5307C23.0339 10.6783 22.7696 10.757 22.4994 10.757C22.2292 10.757 21.9649 10.6783 21.7386 10.5307C18.7981 8.61046 14.848 7.55578 9.99641 7.39476C9.42835 7.37593 8.86232 7.47162 8.33202 7.67613C7.80172 7.88064 7.31801 8.18978 6.90969 8.58515C6.50181 8.97704 6.17766 9.44761 5.95686 9.96837C5.73606 10.4891 5.62319 11.0493 5.62508 11.6149V29.9334C5.61834 31.0267 6.03934 32.0793 6.79818 32.8664C7.55701 33.6535 8.59352 34.1127 9.68633 34.1459C13.9754 34.2865 17.5445 35.2357 20.2972 36.9745C20.9578 37.388 21.7214 37.6073 22.5008 37.6073C23.2801 37.6073 24.0438 37.388 24.7044 36.9745C27.4557 35.2357 31.0255 34.2844 35.3138 34.1459C36.4066 34.1127 37.4431 33.6535 38.202 32.8664C38.9608 32.0793 39.3818 31.0267 39.3751 29.9334V11.6149C39.377 11.0491 39.264 10.4888 39.0431 9.96791C38.8222 9.44701 38.4979 8.97636 38.0898 8.58445ZM9.77703 31.3341C9.41674 31.3169 9.07681 31.162 8.82751 30.9013C8.57821 30.6406 8.43862 30.2941 8.43758 29.9334V11.6149C8.43717 11.4264 8.47496 11.2397 8.54867 11.0662C8.62239 10.8926 8.7305 10.7358 8.86649 10.6052C9.1314 10.3473 9.48678 10.2035 9.85649 10.2044H9.9043C14.2327 10.3451 17.697 11.25 20.2009 12.8841C20.4803 13.0628 20.7801 13.2075 21.0938 13.3151V34.1902C17.6099 32.3322 13.7254 31.3519 9.77703 31.3341ZM36.5626 29.9334C36.5616 30.2936 36.4225 30.6396 36.1739 30.9002C35.9254 31.1608 35.5863 31.3161 35.2266 31.3341C31.277 31.3511 27.3911 32.3317 23.9063 34.1909V13.3158C24.22 13.2079 24.5197 13.0632 24.7993 12.8848C27.3031 11.2507 30.7674 10.3486 35.0952 10.2052C35.2865 10.1962 35.4777 10.2271 35.6565 10.296C35.8353 10.3649 35.9978 10.4702 36.1337 10.6052C36.2697 10.7358 36.3778 10.8926 36.4515 11.0662C36.5252 11.2397 36.563 11.4264 36.5626 11.6149V29.9334Z" fill="white"/>
</svg>
