<svg width="16" height="17" viewBox="0 0 16 17" fill="none" xmlns="http://www.w3.org/2000/svg">
<path d="M8.14667 1.8335H7.85333C7.49971 1.8335 7.16057 1.97397 6.91053 2.22402C6.66048 2.47407 6.52 2.81321 6.52 3.16683V3.28683C6.51976 3.52065 6.45804 3.75029 6.34103 3.95272C6.22401 4.15515 6.05583 4.32325 5.85333 4.44016L5.56667 4.60683C5.36398 4.72385 5.13405 4.78546 4.9 4.78546C4.66595 4.78546 4.43603 4.72385 4.23333 4.60683L4.13333 4.5535C3.82738 4.377 3.46389 4.32913 3.12267 4.42037C2.78145 4.51161 2.49037 4.73452 2.31333 5.04016L2.16667 5.2935C1.99018 5.59945 1.9423 5.96294 2.03354 6.30416C2.12478 6.64539 2.34769 6.93646 2.65333 7.1135L2.75333 7.18016C2.95485 7.2965 3.12241 7.46356 3.23937 7.66472C3.35632 7.86588 3.4186 8.09414 3.42 8.32683V8.66683C3.42093 8.90178 3.35977 9.1328 3.2427 9.3365C3.12563 9.54021 2.95681 9.70936 2.75333 9.82683L2.65333 9.88683C2.34769 10.0639 2.12478 10.3549 2.03354 10.6962C1.9423 11.0374 1.99018 11.4009 2.16667 11.7068L2.31333 11.9602C2.49037 12.2658 2.78145 12.4887 3.12267 12.58C3.46389 12.6712 3.82738 12.6233 4.13333 12.4468L4.23333 12.3935C4.43603 12.2765 4.66595 12.2149 4.9 12.2149C5.13405 12.2149 5.36398 12.2765 5.56667 12.3935L5.85333 12.5602C6.05583 12.6771 6.22401 12.8452 6.34103 13.0476C6.45804 13.25 6.51976 13.4797 6.52 13.7135V13.8335C6.52 14.1871 6.66048 14.5263 6.91053 14.7763C7.16057 15.0264 7.49971 15.1668 7.85333 15.1668H8.14667C8.50029 15.1668 8.83943 15.0264 9.08948 14.7763C9.33953 14.5263 9.48 14.1871 9.48 13.8335V13.7135C9.48024 13.4797 9.54196 13.25 9.65898 13.0476C9.77599 12.8452 9.94418 12.6771 10.1467 12.5602L10.4333 12.3935C10.636 12.2765 10.866 12.2149 11.1 12.2149C11.3341 12.2149 11.564 12.2765 11.7667 12.3935L11.8667 12.4468C12.1726 12.6233 12.5361 12.6712 12.8773 12.58C13.2186 12.4887 13.5096 12.2658 13.6867 11.9602L13.8333 11.7002C14.0098 11.3942 14.0577 11.0307 13.9665 10.6895C13.8752 10.3483 13.6523 10.0572 13.3467 9.88016L13.2467 9.82683C13.0432 9.70936 12.8744 9.54021 12.7573 9.3365C12.6402 9.1328 12.5791 8.90178 12.58 8.66683V8.3335C12.5791 8.09855 12.6402 7.86753 12.7573 7.66382C12.8744 7.46012 13.0432 7.29097 13.2467 7.1735L13.3467 7.1135C13.6523 6.93646 13.8752 6.64539 13.9665 6.30416C14.0577 5.96294 14.0098 5.59945 13.8333 5.2935L13.6867 5.04016C13.5096 4.73452 13.2186 4.51161 12.8773 4.42037C12.5361 4.32913 12.1726 4.377 11.8667 4.5535L11.7667 4.60683C11.564 4.72385 11.3341 4.78546 11.1 4.78546C10.866 4.78546 10.636 4.72385 10.4333 4.60683L10.1467 4.44016C9.94418 4.32325 9.77599 4.15515 9.65898 3.95272C9.54196 3.75029 9.48024 3.52065 9.48 3.28683V3.16683C9.48 2.81321 9.33953 2.47407 9.08948 2.22402C8.83943 1.97397 8.50029 1.8335 8.14667 1.8335Z" stroke="#4B5563" stroke-width="1.33333" stroke-linecap="round" stroke-linejoin="round"/>
<path d="M8 10.5C9.10457 10.5 10 9.60457 10 8.5C10 7.39543 9.10457 6.5 8 6.5C6.89543 6.5 6 7.39543 6 8.5C6 9.60457 6.89543 10.5 8 10.5Z" stroke="#4B5563" stroke-width="1.33333" stroke-linecap="round" stroke-linejoin="round"/>
</svg>
