<svg width="16" height="17" viewBox="0 0 16 17" fill="none" xmlns="http://www.w3.org/2000/svg">
<path d="M10.6663 14.5V13.1667C10.6663 12.4594 10.3854 11.7811 9.88529 11.281C9.3852 10.781 8.70692 10.5 7.99967 10.5H3.99967C3.29243 10.5 2.61415 10.781 2.11406 11.281C1.61396 11.7811 1.33301 12.4594 1.33301 13.1667V14.5" stroke="#4B5563" stroke-width="1.33333" stroke-linecap="round" stroke-linejoin="round"/>
<path d="M5.99967 7.83333C7.47243 7.83333 8.66634 6.63943 8.66634 5.16667C8.66634 3.69391 7.47243 2.5 5.99967 2.5C4.52692 2.5 3.33301 3.69391 3.33301 5.16667C3.33301 6.63943 4.52692 7.83333 5.99967 7.83333Z" stroke="#4B5563" stroke-width="1.33333" stroke-linecap="round" stroke-linejoin="round"/>
<path d="M14.667 14.5002V13.1669C14.6666 12.5761 14.4699 12.0021 14.1079 11.5351C13.7459 11.0682 13.2391 10.7346 12.667 10.5869" stroke="#4B5563" stroke-width="1.33333" stroke-linecap="round" stroke-linejoin="round"/>
<path d="M10.667 2.58691C11.2406 2.73378 11.749 3.06738 12.1121 3.53512C12.4752 4.00286 12.6722 4.57813 12.6722 5.17025C12.6722 5.76236 12.4752 6.33763 12.1121 6.80537C11.749 7.27311 11.2406 7.60671 10.667 7.75358" stroke="#4B5563" stroke-width="1.33333" stroke-linecap="round" stroke-linejoin="round"/>
</svg>
