<svg width="16" height="15" viewBox="0 0 16 15" fill="none" xmlns="http://www.w3.org/2000/svg">
<path d="M14.6663 7.49967H13.013C12.7217 7.49905 12.4381 7.59388 12.2058 7.76965C11.9734 7.94543 11.805 8.19247 11.7263 8.47301L10.1597 14.0463C10.1496 14.081 10.1285 14.1114 10.0997 14.133C10.0708 14.1546 10.0357 14.1663 9.99967 14.1663C9.96361 14.1663 9.92852 14.1546 9.89967 14.133C9.87083 14.1114 9.84977 14.081 9.83967 14.0463L6.15967 0.953008C6.14958 0.918389 6.12852 0.887978 6.09967 0.866341C6.07083 0.844704 6.03574 0.833008 5.99967 0.833008C5.96361 0.833008 5.92852 0.844704 5.89967 0.866341C5.87083 0.887978 5.84977 0.918389 5.83967 0.953008L4.27301 6.52634C4.19465 6.80578 4.02726 7.05202 3.79625 7.22768C3.56524 7.40335 3.28322 7.49884 2.99301 7.49967H1.33301" stroke="#56606D" stroke-width="1.33333" stroke-linecap="round" stroke-linejoin="round"/>
</svg>
