<svg width="370" height="337" viewBox="0 0 370 337" fill="none" xmlns="http://www.w3.org/2000/svg">
<g clip-path="url(#clip0_540_351)">
<path d="M48.3846 207.85L102.146 298.554L374.538 166.947L357.032 86.1186L258.056 64.2473L48.3846 207.85Z" fill="#BDFFEE"/>
<path d="M117.631 304.262L121.381 406.857L206.219 385.3L459.153 249.711L377.596 183.082L117.631 304.262Z" fill="#FFCCCC"/>
<path d="M164.229 349.054C168.085 349.692 184.819 347.23 198.72 336.508L203.261 338.006L237.511 324.926L242.872 318.348L250.731 315.989C250.731 315.989 280.425 304.677 283.032 303.205C285.639 301.732 291.705 292.759 291.705 292.759C291.705 292.759 291.755 297.488 298.083 297.011C304.411 296.533 307.263 289.01 307.263 289.01L312.206 286.781C312.206 286.781 324.733 293.457 349.645 283.412C374.558 273.365 376.646 261.51 376.646 261.51L380.283 256.382C380.283 256.382 386.462 259.535 391.899 257.083C397.336 254.631 397.224 248.446 396.26 248.287C395.296 248.127 384.376 248.314 380.435 252.763C380.435 252.763 374.312 251.056 350.637 260.55C320.153 272.774 313.961 279.461 313.961 279.461L305.199 283.113C305.199 283.113 297.401 280.988 288.948 285.986C288.948 285.986 264.202 296.402 250.362 302.643L243.388 311.579L240.175 313.028C240.175 313.028 233.079 313.778 219.176 318.561C205.274 323.345 198.61 330.989 198.61 330.989C198.61 330.989 190.868 332.29 179.204 338.738C167.54 345.185 164.229 349.054 164.229 349.054Z" fill="#CAD4D6"/>
<path d="M197.818 199.298C197.831 199.328 197.828 199.344 197.829 199.365C197.866 201.017 197.46 203.045 196.801 203.342C196.143 203.639 186.064 201.592 182.801 199.816C179.539 198.04 165.624 190.605 165.624 190.605C165.624 190.605 163.139 190.76 161.442 189.146C161.442 189.146 157.781 190.19 156.948 189.51C156.875 189.446 156.837 189.389 156.825 189.334C156.708 188.691 159.699 188.003 159.699 188.003C159.699 188.003 155.632 188.341 154.806 187.312C154.026 186.315 158.172 186.533 158.571 186.553C158.126 186.407 153.771 184.991 153.536 184.1C153.306 183.18 158.459 184.481 158.748 184.551C158.522 184.412 154.525 181.963 154.779 180.995C155.036 179.995 159.709 182.369 159.709 182.369L161.157 183.033C161.157 183.033 159.644 179.677 160.151 179.629C160.652 179.573 163.914 183.108 163.914 183.108C163.914 183.108 167.023 185.314 167.689 185.625C168.364 185.944 179.995 188.51 183.354 189.726C186.717 190.929 193.864 192.542 193.864 192.542C195.259 193.904 197.716 197.616 197.818 199.298Z" fill="url(#paint0_linear_540_351)"/>
<path opacity="0.2" d="M197.818 199.298C197.831 199.328 197.828 199.344 197.829 199.365C197.866 201.017 197.46 203.045 196.801 203.342C196.143 203.639 186.064 201.592 182.801 199.816C179.539 198.04 165.624 190.605 165.624 190.605C165.624 190.605 163.139 190.76 161.442 189.146C161.442 189.146 157.781 190.19 156.948 189.51C156.875 189.446 156.837 189.389 156.825 189.334C158.163 189.234 161.075 188.966 161.682 188.692C161.682 188.692 166.246 190.228 166.977 190.083C166.977 190.083 176.102 195.106 179.709 196.287C183.326 197.469 187.319 198.128 187.674 198.144C187.967 198.152 194.83 198.949 197.818 199.298Z" fill="#DE7553"/>
<path d="M268.683 266.677L280.965 291.721L285.71 290.24L273.159 265.183L268.683 266.677Z" fill="#98AF2F"/>
<path d="M285.71 290.24L286.715 288.073L274.736 264.738L273.153 265.322L285.71 290.24Z" fill="#6F850F"/>
<path d="M240.099 278.975L252.383 304.017L257.124 302.535L244.575 277.481L240.099 278.975Z" fill="#98AF2F"/>
<path d="M257.124 302.535L258.13 300.369L246.156 277.031L244.573 277.615L257.124 302.535Z" fill="#6F850F"/>
<path d="M233.539 286.084L247.265 315.356L251.851 313.811L238.861 285.003L233.539 286.084Z" fill="#98AF2F"/>
<path d="M251.851 313.811L253.212 312.142L242.505 287.376L240.022 288.168L251.851 313.811Z" fill="#6F850F"/>
<path d="M265.563 277.18L278.293 303.073L283.038 301.593L270.724 276.04L265.563 277.18Z" fill="#98AF2F"/>
<path d="M283.038 301.593L284.043 299.427L272.067 276.089L270.483 276.673L283.038 301.593Z" fill="#6F850F"/>
<path d="M271.402 272.567L273.127 260.585L274.955 264.639L273.268 277.086L271.402 272.567Z" fill="#6F850F"/>
<path d="M273.127 260.585L271.376 272.577L233.281 285.713C233.281 285.713 234.006 284.505 235.006 282.819C236.509 280.294 238.645 276.693 239.934 274.488C240.561 273.402 240.988 272.663 241.034 272.549L273.127 260.585Z" fill="#A2B439"/>
<path d="M233.286 285.711L235.105 289.857L273.318 277.109L271.427 272.517L233.286 285.711Z" fill="#819319"/>
<path opacity="0.4" d="M267.093 270.035C265.223 272.323 260.745 271.181 257.532 273.421C254.317 275.658 248.668 275.707 248.668 275.707C248.668 275.707 247.288 277.637 243.346 280.605C239.881 283.212 236.241 283.147 235.007 282.819C236.509 280.294 238.646 276.693 239.934 274.488C241.742 273.633 248.713 270.349 253.525 268.636C259.096 266.65 266.938 263.249 268.11 263.502C269.288 263.776 268.962 267.739 267.093 270.035Z" fill="#6F850F"/>
<path d="M141.519 197.077L144.07 203.31L175.082 195.389L174.884 189.676L141.519 197.077Z" fill="#B6102A"/>
<path d="M171.862 155.452L173.609 171.998L175.519 190.097L174.903 190.23L141.519 197.077L138.747 170.34L137.731 160.559L171.862 155.452Z" fill="#DD3C4A"/>
<path opacity="0.4" d="M171.861 155.452L173.609 171.999C171.036 168.561 167.033 162.898 167.033 162.898C167.033 162.898 158.003 159.853 151.761 162.406C147.455 164.168 141.941 167.972 138.747 170.34L137.731 160.559L171.861 155.452Z" fill="#DD3C4A"/>
<path d="M180.894 191.106L195.47 224.159L191.777 225.824C191.706 225.666 190.847 223.743 189.575 220.882L187.564 216.347C187.149 215.404 186.717 214.42 186.262 213.411L179.147 197.373L177.223 193.031C176.993 192.503 176.863 192.214 176.863 192.214L180.894 191.106Z" fill="#D1396B"/>
<path d="M176.864 192.213C176.864 192.213 176.994 192.501 177.223 193.03C177.619 193.907 178.295 195.436 179.147 197.372C181.037 201.632 183.806 207.864 186.263 213.41C186.718 214.419 187.15 215.402 187.565 216.346C188.304 218.004 188.985 219.541 189.576 220.881C190.847 223.742 191.706 225.665 191.777 225.823C192.073 226.479 159.844 239.961 159.844 239.961L158.739 237.621L144.504 207.594L168.785 196.056L176.864 192.213Z" fill="#E13B6D"/>
<path opacity="0.4" d="M180.894 191.106L195.47 224.159L191.777 225.824C192.073 226.48 159.843 239.963 159.843 239.963L158.739 237.622C163.335 234.862 172.735 229.223 173.173 229.025C173.764 228.759 179.596 214.362 179.397 213.919C179.2 213.483 175.514 203.367 175.514 203.367C175.514 203.367 171.165 198.199 168.785 196.057L176.864 192.214L180.894 191.106Z" fill="#D1396B"/>
<path d="M237.32 322.871L204.014 336.836L203.083 334.931L200.016 328.641L196.67 321.794L193.467 315.224L191.439 311.079L190.191 308.528L223.348 293.052L226.586 299.953L227.529 301.974L229.932 307.094L232.465 312.498L235.108 318.151L237.32 322.871Z" fill="#FD882E"/>
<path d="M240.367 316.75L237.32 322.871L235.108 318.151L232.465 312.498L229.932 307.094L227.529 301.974L226.586 299.953L223.348 293.052L227.581 289.561L230.162 295.049L231.213 297.286L233.549 302.255L236.675 308.89L238.481 312.727L240.367 316.75Z" fill="#F97F31"/>
<path opacity="0.4" d="M231.213 297.286L227.529 301.974L227.428 302.1L193.467 315.224L196.67 321.794L229.884 307.155L229.932 307.095L233.549 302.255L231.213 297.286Z" fill="#FD882E"/>
<path opacity="0.4" d="M236.676 308.89L232.609 312.422L232.465 312.498L200.016 328.641L203.083 334.931L235.109 318.151L235.178 318.12L238.481 312.727L236.676 308.89Z" fill="#FD882E"/>
<path d="M211.465 254.994L210.489 257.447L210.23 258.106L172.26 274.614L173.66 270.291L210.076 255.556L211.465 254.994Z" fill="#DD4B4B"/>
<path d="M226.837 292.004L187.78 309.615L186.577 306.9L172.26 274.614L210.23 258.106L210.901 259.474L226.837 292.004Z" fill="#FC5854"/>
<path d="M229.009 288.042L226.837 292.004L210.901 259.474L210.23 258.106L210.489 257.447L211.465 254.994L229.009 288.042Z" fill="#EA4747"/>
<path opacity="0.4" d="M229.009 288.042L226.837 292.004L187.781 309.615L186.577 306.9C193.036 301.224 208.791 287.382 209.101 286.821C209.483 286.119 213.274 272.284 213.159 271.628C213.084 271.211 211.887 264.473 210.901 259.476C210.755 258.765 210.628 258.071 210.489 257.447C210.345 256.723 210.203 256.081 210.076 255.556L211.465 254.994L229.009 288.042Z" fill="#FC5854"/>
<path opacity="0.3" d="M230.162 295.049L226.586 299.953L226.511 300.065C226.511 300.065 215.586 302.002 214.331 302.736C213.267 303.376 196.298 309.373 191.438 311.078L190.191 308.528L223.348 293.052L227.58 289.562L230.162 295.049Z" fill="#BA7749"/>
<path d="M195.454 224.166L208.036 259.095L181.518 270.627L175.144 273.395L168.144 259.817L158.274 240.669L177.572 232.102L185.139 228.746L195.454 224.166Z" fill="#30A1A7"/>
<path d="M198.455 221.845L211.013 255.559L208.037 259.095L195.454 224.166L198.455 221.845Z" fill="#248E8E"/>
<path d="M195.454 224.166L203.034 245.267L197.521 247.393L186.841 251.514L177.572 232.102L177.445 231.844L184.974 228.636L195.454 224.166Z" fill="#62A52E"/>
<path d="M186.839 251.515L193.126 265.553L175.144 273.395L168.102 259.832L186.839 251.515Z" fill="#62A52E"/>
<path opacity="0.3" d="M198.455 221.845L211.012 255.559L208.036 259.095L181.518 270.628L181.53 270.609L191.095 261.016L197.778 254.312L197.685 247.855L197.52 247.393L192.789 234.249C192.789 234.249 188.201 230.801 185.139 228.746C185.09 228.699 185.031 228.666 184.974 228.636L195.454 224.166L198.455 221.845Z" fill="#248E8E"/>
<path d="M246.957 275.426C246.957 275.426 245.708 277.599 243.148 279.419L243.141 279.422C242.77 279.684 242.378 279.934 241.96 280.177C238.597 282.084 235.832 282.678 235.286 281.467C234.744 280.266 236.688 278.725 237.483 277.842C238.271 276.957 238.624 274.823 238.684 273.481C238.684 273.481 240.151 273.217 241.287 272.833C241.828 272.652 242.544 272.246 243.13 271.867C243.8 271.449 244.325 271.066 244.325 271.066C245.621 272.463 246.957 275.426 246.957 275.426Z" fill="#D75D3B"/>
<path opacity="0.4" d="M246.957 275.426C246.957 275.426 245.708 277.598 243.148 279.419L243.799 274.781C243.799 274.781 243.531 273.13 243.13 271.867C243.8 271.449 244.325 271.066 244.325 271.066C245.621 272.463 246.957 275.426 246.957 275.426Z" fill="#D75D3B"/>
<path d="M267.076 268.007C266.858 268.507 266.503 269.034 265.984 269.61C263.503 272.308 260.349 270.301 259.393 268.763C258.429 267.212 256.888 265.273 255.653 263.986C255.653 263.986 258.043 263.433 258.704 263.134C258.919 263.038 259.228 262.667 259.557 262.215C260.195 261.291 260.871 260.048 260.871 260.048C260.871 260.048 263.444 260.474 265.282 262.804C266.738 264.638 267.875 266.128 267.076 268.007Z" fill="#D75D3B"/>
<path opacity="0.4" d="M267.077 268.008C265.861 266.646 264.085 264.697 263.649 264.334C263.015 263.826 260.762 262.596 259.557 262.215C260.194 261.291 260.871 260.048 260.871 260.048C260.871 260.048 263.444 260.473 265.282 262.803C266.738 264.638 267.875 266.129 267.077 268.008Z" fill="#D75D3B"/>
<path d="M243.637 260.176C244.978 264.317 245.703 269.133 244.325 271.066C244.027 271.481 243.605 271.831 243.109 272.117C241.322 273.186 238.684 273.481 238.684 273.481C238.653 272.841 236.385 268.986 234.403 266.049C232.846 263.744 228.766 258.393 226.106 255.141C225.478 254.376 224.933 253.729 224.51 253.266C225.004 253.182 225.498 253.083 225.993 252.967C229.447 252.179 233.598 250.444 237.247 248.558L239.12 250.74C239.12 250.74 242.296 256.037 243.637 260.176Z" fill="url(#paint1_linear_540_351)"/>
<path opacity="0.2" d="M243.637 260.176C244.978 264.317 245.703 269.133 244.325 271.065C244.027 271.481 243.605 271.831 243.109 272.116C243.027 270.752 242.672 266.253 241.418 261.968C239.89 256.856 235.978 252.555 235.978 252.555C235.978 252.555 235.171 252.52 233.31 253.359C231.895 253.998 228.501 254.924 226.107 255.142C225.478 254.376 224.933 253.73 224.51 253.267C225.004 253.182 225.498 253.084 225.993 252.967C229.447 252.18 233.598 250.444 237.247 248.558L239.12 250.74C239.12 250.74 242.296 256.037 243.637 260.176Z" fill="#DE7553"/>
<path d="M237.871 170.683C238.064 171.188 237.986 172.115 237.786 173.094C237.52 174.448 236.99 175.878 236.608 176.263C235.929 176.913 233.592 175.248 233.592 175.248C233.592 175.248 233.535 175.708 231.81 175.789C230.088 175.858 229.194 174.677 229.194 174.677C227.631 176.26 221.09 178.944 219.711 178.427C218.336 177.911 218.403 176.295 218.403 176.295C216.682 177.137 214.57 176.952 213.481 176.787C214.414 174.427 214.922 172.11 214.696 170.534C214.696 170.534 218.925 168.765 218.531 164.989C218.531 164.989 218.597 164.453 218.577 163.711C218.534 162.35 218.188 160.3 216.562 159.728C214.287 158.929 212.266 159.946 211.147 162.81C211.035 163.117 210.918 163.451 210.823 163.801C210.823 163.801 204.821 165.896 200.237 165.504C195.665 165.103 185.854 161.004 185.854 161.004C183.982 161.848 179.923 166.317 181.126 171.043C182.34 175.77 185.031 182.604 192.14 186.382C193.043 186.856 193.888 187.238 194.697 187.526C194.45 189.651 192.487 193.308 191.117 197.385C189.727 201.526 185.057 201.519 185.057 201.519C184.919 203.342 182.028 205.526 180.136 204.448C179.374 204.023 179.007 203.237 178.894 202.414C178.709 201.186 179.073 199.863 179.476 199.473C180.144 198.823 183.016 198.75 183.016 198.75C183.016 198.75 181.975 194.472 181.957 191.32C181.938 188.162 183.442 186.609 182.936 185.697C182.439 184.773 180.343 178.961 180.073 177.585C180.073 177.585 175.02 173.009 173.872 168.517C172.73 164.019 175.459 156.815 180.154 151.794C184.847 146.781 196.493 141.182 203.786 144.482C211.087 147.78 214.433 153.653 214.433 153.653C218.579 157.586 222.818 166.397 222.818 166.397C222.235 164.901 222.958 163.787 224.715 164.755C226.47 165.71 230.588 171.333 230.588 171.333C230.588 171.333 230.264 167.691 232.991 167.083C235.708 166.468 237.411 169.474 237.871 170.683Z" fill="url(#paint2_linear_540_351)"/>
<path opacity="0.4" d="M210.825 163.8C210.825 163.8 204.823 165.896 200.239 165.503C195.666 165.102 185.856 161.004 185.856 161.004C183.984 161.848 179.924 166.316 181.128 171.043C182.342 175.77 185.032 182.603 192.142 186.381C193.045 186.856 193.89 187.238 194.699 187.525C194.451 189.65 192.489 193.307 191.118 197.385C189.729 201.525 185.059 201.518 185.059 201.518C184.921 203.342 182.029 205.525 180.138 204.447C179.375 204.022 179.009 203.236 178.895 202.413C180.063 202.942 181.532 202.806 182.717 201.783C184.245 200.484 183.827 200.147 183.827 200.147C183.827 200.147 188.972 198.269 189.346 195.991C189.722 193.714 188.934 191.17 188.934 191.17C188.934 191.17 190.366 187.707 189.675 186.174C188.982 184.637 186.746 183.19 186.094 182.335C185.45 181.488 181.147 176.048 180.267 171.17C179.386 166.293 183.412 160.967 185.164 160.177C185.164 160.177 192.832 163.13 198.359 163.273C203.883 163.417 210.109 162.988 210.328 162.89C210.373 162.87 210.676 162.837 211.147 162.811C211.036 163.116 210.92 163.45 210.825 163.8Z" fill="url(#paint3_linear_540_351)"/>
<path d="M159.475 229.582C159.59 230.708 157.481 233.642 157.481 233.642L157.926 236.082L155.46 239.7C155.46 239.7 155.474 244.695 154.854 248.006C154.239 251.325 154.211 254.5 151.485 256.648C148.756 258.794 145.422 258.717 145.422 258.717L142.828 256.47C142.789 256.412 142.758 256.345 142.721 256.263C142.133 255.02 141.442 251.845 141.299 250.169C141.299 250.169 147.113 243.717 147.652 242.296C148.191 240.866 149.623 234.677 149.974 232.81C150.328 230.942 153.839 227.179 153.839 227.179L155.8 231.367C155.8 231.367 156.657 230.058 157.579 228.592C158.156 227.665 158.714 227.846 159.074 228.389C159.295 228.716 159.431 229.158 159.475 229.582Z" fill="url(#paint4_linear_540_351)"/>
<path opacity="0.2" d="M159.475 229.582C159.59 230.708 157.48 233.642 157.48 233.642L157.926 236.082L155.46 239.7C155.46 239.7 155.474 244.695 154.854 248.006C154.238 251.325 154.211 254.5 151.485 256.648C148.756 258.794 145.422 258.717 145.422 258.717L142.828 256.47C142.789 256.412 142.758 256.345 142.721 256.263L146.092 256.001L150.474 253.23C150.474 253.23 153.674 245.112 154.033 242.582C154.385 240.051 153.889 236.402 153.889 236.402C153.889 236.402 155.418 234.921 156.678 233.037C157.692 231.511 158.696 229.83 159.075 228.39C159.295 228.716 159.43 229.158 159.475 229.582Z" fill="#DE7553"/>
<path d="M166.364 284.074C166.364 284.074 165.687 284.949 164.386 286.191C162.534 287.959 159.407 290.513 155.086 292.461C153.822 293.032 152.623 293.474 151.494 293.818C146.106 295.467 142.554 294.811 142.554 294.811C142.554 294.811 142.538 294.776 142.517 294.699C142.313 294.188 141.405 291.997 139.722 290.56C137.787 288.921 129.126 279.386 125.015 270.829C120.885 262.275 122.747 253.528 123.352 250.745C123.352 250.745 126.771 250.928 129.735 251.133C131.235 251.228 132.623 251.327 133.385 251.406L133.307 250.682C133.295 250.636 133.286 250.588 133.275 250.526L133.244 250.244C133.233 250.199 133.234 250.154 133.232 250.106L133.187 249.744C133.187 249.744 133.218 249.744 133.258 249.744C133.313 249.738 133.386 249.74 133.475 249.744C133.906 249.761 134.79 249.814 135.814 250.003C135.896 250.021 135.987 250.033 136.08 250.044C137.692 250.253 141.31 250.079 141.31 250.079L141.755 251.955L142.651 255.717C143.324 256.28 144.049 256.902 144.804 257.553C149.187 261.324 154.7 266.375 157.905 269.706C163.376 275.404 166.364 284.074 166.364 284.074Z" fill="#57D9D8"/>
<path opacity="0.4" d="M151.494 293.818C146.106 295.467 142.554 294.811 142.554 294.811C142.554 294.811 142.538 294.776 142.517 294.699C142.313 294.188 141.405 291.997 139.722 290.56C137.787 288.921 129.126 279.386 125.015 270.829C120.885 262.275 122.747 253.528 123.352 250.745C123.352 250.745 126.771 250.928 129.735 251.133C128.699 253.328 128.45 254.254 128.542 254.949C128.655 255.786 130.581 260.454 130.685 261.46C130.79 262.466 132.646 267.962 135.129 269.739C137.602 271.524 142.037 273.565 142.037 273.565C142.037 273.565 145.32 277.706 146.872 280.959C148.102 283.544 150.545 290.892 151.494 293.818Z" fill="#57D9D8"/>
<path opacity="0.4" d="M144.804 257.551L144.871 257.783C144.871 257.783 141.559 256.11 138.599 254.02C135.631 251.93 133.403 251.09 133.403 251.09C133.403 251.09 133.349 250.926 133.306 250.682C133.294 250.636 133.284 250.588 133.274 250.526L133.243 250.244C133.232 250.198 133.233 250.154 133.231 250.105C133.229 249.978 133.239 249.862 133.257 249.744C133.312 249.737 133.384 249.74 133.474 249.743C133.905 249.761 134.789 249.813 135.813 250.003C135.895 250.02 135.986 250.032 136.079 250.044C136.956 250.607 137.991 251.246 138.49 251.434C139.05 251.646 140.573 251.832 141.755 251.954L142.65 255.716C143.323 256.279 144.048 256.901 144.804 257.551Z" fill="#57D9D8"/>
<path d="M226.797 200.278C226.989 202.174 228.6 208.959 228.6 208.959C228.6 208.959 227.616 209.749 225.872 210.873C224.249 211.933 221.967 213.264 219.21 214.508C218.34 214.9 217.446 215.254 216.538 215.562C212.822 216.735 210.124 217.351 208.47 217.663C207.27 217.89 206.523 217.984 206.523 217.984C206.523 217.984 200.946 209.698 199.366 206.193C199.366 206.193 193.639 204.03 190.209 202.276C186.776 200.522 188.002 200.9 188.002 200.9C188.002 200.9 191.544 195.874 192.073 193.262C192.073 193.262 198.488 195.771 199.757 195.071C200.501 194.66 202.081 193.992 203.509 193.347C204.495 192.903 205.396 192.465 205.918 192.123C206.334 192.441 206.713 192.65 207.038 192.662C208.398 192.756 212.099 190.819 212.099 190.819C212.099 190.819 212.05 190.593 211.974 190.215C214.698 189.834 218.286 188.728 221.863 190.503C225.604 192.377 226.602 198.385 226.797 200.278Z" fill="url(#paint5_linear_540_351)"/>
<path d="M206.28 185.716C203.97 186.844 201.538 187.501 201.538 187.501C201.664 187.63 201.796 187.768 201.934 187.908C203.851 187.361 205.543 186.358 207.263 185.359C208.478 184.655 209.681 183.394 210.752 181.873C210.716 181.236 210.704 180.65 210.741 180.19C210.741 180.19 208.583 184.59 206.28 185.716Z" fill="url(#paint6_linear_540_351)"/>
<path d="M218.532 164.989C218.925 168.765 214.697 170.533 214.697 170.533C214.923 172.11 214.414 174.427 213.481 176.786C212.775 178.548 211.836 180.343 210.747 181.879C209.681 183.395 208.484 184.654 207.262 185.36C205.928 186.132 204.602 186.913 203.178 187.474C202.774 187.634 202.356 187.783 201.936 187.908C199.879 188.497 197.575 188.568 194.699 187.525C193.89 187.237 193.045 186.856 192.143 186.381C185.033 182.604 182.343 175.769 181.128 171.042C180.884 170.049 180.863 169.064 181.009 168.125C181.539 164.594 184.381 161.669 185.855 161.004C185.855 161.004 195.666 165.103 200.239 165.503C204.823 165.896 210.825 163.8 210.825 163.8C211.832 160.183 214.048 158.834 216.563 159.728C219.073 160.608 218.532 164.989 218.532 164.989Z" fill="url(#paint7_linear_540_351)"/>
<path d="M140.533 226.788C140.961 228.037 138.807 230.591 138.807 230.591C139.292 231.457 139.65 232.279 139.91 233.065C139.975 233.228 140.029 233.39 140.074 233.56C141.129 237.114 140.154 239.813 138.795 241.67C138.706 241.791 138.601 241.923 138.493 242.037C136.733 244.054 133.839 244.314 132.954 244.83C132.435 245.152 132.818 247.192 133.261 248.932C133.325 249.216 133.397 249.493 133.473 249.744C133.298 249.737 133.185 249.744 133.185 249.744L133.383 251.406C132.841 251.355 131.989 251.284 130.995 251.206C127.852 250.99 123.351 250.744 123.351 250.744C123.351 250.744 123.005 249.977 122.412 248.663C122.172 248.13 121.71 246.968 121.188 245.812C122.523 245.04 122.589 243.924 122.58 243.183C122.561 242.273 120.99 241.134 120.99 241.134C120.99 241.134 119.647 242.532 118.232 242.904C116.814 243.281 113.533 240.405 112.972 237.104C112.499 234.335 113.679 232.766 114.552 232.354C114.767 232.297 114.977 232.269 115.176 232.259C116.14 232.501 118.533 234.206 118.533 234.206C118.533 234.206 119.271 223.856 119.498 221.115C119.711 218.382 121.342 212.628 121.815 212.816C122.297 213.002 122.875 216.029 122.875 216.029C122.875 216.029 123.951 216.074 124.155 215.055C124.355 214.047 124.046 211.022 124.677 211.525C125.297 212.036 125.725 214.744 126.018 214.215C126.308 213.691 126.865 209.357 127.168 209.748C127.444 210.1 128.766 212.985 129.818 212.361C129.906 212.556 130.018 212.784 130.142 213.058C131.196 215.325 133.443 220.218 134.324 222.993C135.351 226.181 135.997 226.985 138.04 225.939C140.066 224.886 140.098 225.539 140.533 226.788Z" fill="url(#paint8_linear_540_351)"/>
<path d="M166.364 284.074C167.272 286.967 170.482 299.361 171.826 308.502C173.186 317.652 177.378 340.409 177.378 340.409C177.378 340.409 176.865 342.486 175.508 343.887C174.944 344.48 174.226 344.921 173.576 345.245C172.884 345.585 172.29 345.794 172.051 345.857C171.976 345.879 171.927 345.892 171.927 345.892C171.927 345.892 169.812 342.373 167.909 340.195C165.999 338.019 161.615 332.09 160.506 328.768C159.401 325.453 159.314 321.133 159.314 321.133C159.314 321.133 154.547 315.24 150.066 308.825C145.741 302.62 142.919 296.478 142.545 294.856C142.529 294.801 142.52 294.752 142.507 294.704L142.518 294.699C142.539 294.775 142.555 294.811 142.555 294.811C142.555 294.811 142.589 294.816 142.651 294.83C143.223 294.91 146.667 295.329 151.638 293.772C152.717 293.432 153.88 293.005 155.087 292.461C159.408 290.513 162.535 287.96 164.387 286.191C165.766 284.967 166.364 284.074 166.364 284.074Z" fill="url(#paint9_linear_540_351)"/>
<path d="M130.09 212.123C130.003 212.233 129.909 212.307 129.818 212.361C128.765 212.985 127.443 210.1 127.168 209.749C126.866 209.358 126.307 213.692 126.017 214.215C125.724 214.744 125.296 212.036 124.676 211.526C124.046 211.022 124.353 214.047 124.154 215.055C123.95 216.073 122.874 216.029 122.874 216.029C122.874 216.029 122.296 213.003 121.814 212.816C121.341 212.63 119.709 218.383 119.497 221.116C119.36 222.803 119.024 227.405 118.783 230.667C118.64 232.692 118.532 234.205 118.532 234.205C118.532 234.205 116.138 232.501 115.175 232.259C115.106 232.247 115.045 232.237 115.004 232.234C114.864 232.231 114.716 232.269 114.551 232.353C113.678 232.766 112.499 234.334 112.97 237.104C113.532 240.404 116.813 243.28 118.231 242.904C119.646 242.531 120.988 241.134 120.988 241.134C120.988 241.134 122.56 242.272 122.579 243.182C122.588 243.923 122.521 245.041 121.187 245.812C120.88 245.99 120.52 246.162 120.067 246.295C117.608 247.003 114.79 245.247 112.798 244.039C110.801 242.83 107.018 241.758 103.278 241.084C99.535 240.391 96.1294 235.952 94.2494 230.606C92.94 226.89 94.719 223.062 95.9232 221.067C96.4545 220.19 96.8766 219.666 96.8766 219.666C96.1173 219.74 93.1449 218.889 93.7287 217.568C94.3221 216.25 97.4932 218.647 96.9512 217.966C94.8465 215.36 95.6549 211.302 96.4649 211.328C97.2695 211.355 98.9349 216.806 98.9349 216.806C98.9349 216.806 100.989 209.954 103.303 207.456C105.6 204.964 109.665 203.131 114.863 202.368C120.065 201.604 127.037 202.427 128.616 204.476C130.204 206.527 131.17 210.705 130.09 212.123Z" fill="url(#paint10_linear_540_351)"/>
<path d="M188.385 171.461C188.334 170.956 186.162 168.75 183.742 171.118C181.36 173.442 182.625 175.028 182.625 175.028C182.625 175.028 182.88 173.882 184.869 172.784C185.934 172.198 188.385 171.461 188.385 171.461Z" fill="#D85E21"/>
<path d="M251.091 238.36C251.091 238.36 249.612 239.585 247.536 241.398C247.1 241.762 246.647 242.166 246.175 242.582C245.858 242.851 245.54 243.131 245.21 243.428C245.142 243.488 245.076 243.549 245.01 243.611C244.377 244.158 243.556 244.795 242.563 245.452C241.083 246.449 239.235 247.525 237.247 248.559C236.969 248.706 236.672 248.845 236.374 248.99C235.791 249.287 235.195 249.578 234.589 249.851C232.24 250.945 229.814 251.91 227.577 252.55C227.038 252.71 226.512 252.853 225.993 252.967C225.499 253.085 225.004 253.183 224.511 253.267C223.862 253.378 223.233 253.474 222.619 253.543C219.032 253.975 216.069 253.75 214.671 253.58C214.125 253.512 213.817 253.462 213.817 253.462C213.817 253.462 210.76 237.035 210.055 231.956C209.342 226.87 207.53 219.914 206.525 217.985C206.525 217.985 207.19 217.917 208.473 217.664C210.386 217.317 213.461 216.649 216.54 215.563C217.448 215.255 218.342 214.901 219.212 214.509C221.854 213.317 224.059 212.043 225.673 211.005C227.539 209.812 228.602 208.959 228.602 208.959C228.602 208.959 236.804 216.33 241.659 221.521C246.501 226.719 251.091 238.36 251.091 238.36Z" fill="url(#paint11_linear_540_351)"/>
<path d="M206.525 217.985C206.525 217.985 207.189 217.915 208.467 217.669C207.274 217.887 206.525 217.985 206.525 217.985Z" fill="#612241"/>
<path opacity="0.5" d="M120.99 241.133C120.99 241.133 122.561 242.272 122.58 243.182C122.589 243.922 122.522 245.04 121.189 245.811C120.882 245.989 120.522 246.161 120.069 246.294C117.61 247.002 114.792 245.247 112.8 244.039C110.803 242.829 107.02 241.757 103.279 241.083C99.5364 240.39 96.1308 235.952 94.2509 230.605C92.9415 226.889 94.7205 223.061 95.9247 221.066C96.6395 222.47 98.8994 224.247 101.049 225.786C103.387 227.454 106.35 228.753 106.35 228.753C106.35 228.753 108.289 230.338 110.507 229.596C112.733 228.859 116.962 229.852 118.023 230.259C118.213 230.334 118.479 230.476 118.784 230.666C118.641 232.69 118.533 234.204 118.533 234.204C118.533 234.204 116.14 232.499 115.176 232.257C115.107 232.246 115.046 232.235 115.005 232.233C114.866 232.229 114.717 232.268 114.552 232.352C113.68 232.764 112.5 234.332 112.972 237.102C113.533 240.403 116.814 243.279 118.232 242.902C119.648 242.531 120.99 241.133 120.99 241.133Z" fill="#C98727"/>
<path opacity="0.2" d="M130.141 213.058C129.136 212.89 127.569 211.803 127.569 211.803C127.569 211.803 127.093 215.621 126.539 215.961C126.024 216.266 125.305 214.28 125.188 213.972C125.23 214.344 125.563 217.518 124.202 217.804C122.754 218.105 122.041 215.351 122.041 215.351C122.041 215.351 120.369 222.957 119.977 227.175C119.59 231.398 120.06 234.78 121.951 237.802C123.46 240.211 132.062 245.556 138.494 242.036C136.733 244.052 133.839 244.313 132.954 244.829C132.435 245.151 132.818 247.191 133.261 248.931C132.504 249.632 131.699 250.446 130.996 251.205C127.853 250.989 123.351 250.743 123.351 250.743C123.351 250.743 123.005 249.976 122.413 248.662C122.172 248.129 121.71 246.967 121.189 245.811C122.523 245.039 122.589 243.922 122.581 243.182C122.561 242.272 120.99 241.133 120.99 241.133C120.99 241.133 119.648 242.531 118.233 242.903C116.815 243.28 113.534 240.404 112.972 237.103C112.5 234.334 113.679 232.765 114.552 232.353C114.767 232.296 114.977 232.267 115.177 232.258C116.14 232.5 118.534 234.205 118.534 234.205C118.534 234.205 119.272 223.855 119.498 221.114C119.711 218.381 121.342 212.627 121.816 212.815C122.298 213.001 122.875 216.028 122.875 216.028C122.875 216.028 123.952 216.072 124.155 215.053C124.355 214.045 124.047 211.021 124.677 211.524C125.298 212.035 125.725 214.743 126.018 214.213C126.308 213.689 126.866 209.356 127.169 209.747C127.444 210.099 128.766 212.984 129.819 212.36C129.906 212.556 130.018 212.784 130.141 213.058Z" fill="#DE7553"/>
<path d="M168.712 251.517C168.901 252.736 166.163 252.265 165.644 252.162C166.223 252.301 169.665 253.162 169.564 254.296C169.492 255.194 168.224 255.099 167.516 254.986C168.305 255.159 169.866 255.562 170.041 256.008C170.058 256.075 170.051 256.131 170.027 256.195C169.67 256.881 165.91 256.732 165.91 256.732C165.754 258.122 162.841 259.299 162.841 259.299C162.841 259.299 163.145 261.145 161.442 266.131C159.724 271.121 155.998 275.437 151.836 277.051C147.684 278.66 144.206 275.357 143.112 274.658L141.544 273.521L143.4 271.575L147.278 267.506C147.278 267.506 148.885 266.392 152.065 263.5C155.259 260.607 158.515 254.67 158.515 254.67C158.515 254.67 158.002 250.018 159.705 249.388C161.394 248.755 164.211 249.463 164.211 249.463C164.211 249.463 168.5 250.167 168.712 251.517Z" fill="url(#paint12_linear_540_351)"/>
<path opacity="0.2" d="M170.04 256.008C170.057 256.075 170.051 256.131 170.027 256.195C169.67 256.881 165.909 256.732 165.909 256.732C165.754 258.122 162.84 259.299 162.84 259.299C162.84 259.299 163.145 261.145 161.442 266.131C159.724 271.122 155.997 275.437 151.835 277.051C147.684 278.661 144.206 275.357 143.112 274.658L141.544 273.521L143.4 271.575C145.391 272.437 148.971 273.829 150.302 273.344C152.193 272.672 154.897 270.84 156.899 269.054C158.915 267.269 160.593 258.69 160.593 258.69C161.483 258.906 164.904 255.954 164.904 255.954C164.904 255.954 168.098 256.062 170.04 256.008Z" fill="#DE7553"/>
<path opacity="0.4" d="M143.828 271.085C140.504 269.769 137.682 267.793 135.694 265.348C133.714 262.902 132.582 259.807 133.569 258.486C133.569 258.486 130.562 258.26 130.331 260.476C130.092 262.722 130.873 266.557 135.122 269.739C139.372 272.92 141.573 273.509 141.573 273.509L143.828 271.085Z" fill="#57D9D8"/>
<path opacity="0.4" d="M170.482 338.773C170.597 339.028 172.463 342.824 173.576 345.245C172.884 345.585 172.29 345.794 172.051 345.857C171.976 345.879 171.927 345.892 171.927 345.892C171.927 345.892 169.812 342.373 167.909 340.195C165.999 338.019 161.615 332.09 160.505 328.768C159.401 325.453 159.314 321.133 159.314 321.133C159.314 321.133 154.547 315.24 150.066 308.825C145.741 302.62 142.918 296.478 142.545 294.856L142.651 294.83C143.223 294.91 146.667 295.329 151.637 293.772C152.802 297.557 153.401 300.591 156.517 306.052C159.893 311.993 163.542 318.699 163.542 318.699C163.542 318.699 163.868 324.702 165.239 328.13C166.606 331.556 170.316 338.404 170.482 338.773Z" fill="#0B3531"/>
<path d="M185.802 340.154C185.875 340.92 185.503 341.829 184.496 342.734C182.498 344.531 173.487 345.863 172.051 345.857C172.525 345.718 174.346 345.098 175.508 343.887C175.922 343.469 176.247 342.975 176.522 342.502C177.129 341.414 177.377 340.408 177.377 340.408C178.66 339.163 182.977 337.701 184.455 338.353C185.215 338.687 185.755 339.341 185.802 340.154Z" fill="#ECBDAC"/>
<path opacity="0.2" d="M218.532 164.989C218.925 168.764 214.697 170.533 214.697 170.533C214.923 172.11 214.414 174.427 213.481 176.786C212.775 178.548 211.836 180.343 210.747 181.879C209.681 183.394 208.484 184.653 207.262 185.36C205.928 186.132 204.602 186.913 203.178 187.473C210.567 183.417 212.789 175.863 213.294 172.97C213.857 169.731 211.029 165.027 211.029 165.027C211.029 165.027 206.614 166.755 199.59 166.593C192.561 166.413 186.115 162.471 186.115 162.471C183.67 163.747 182.014 165.983 181.009 168.125C181.539 164.594 184.381 161.669 185.855 161.004C185.855 161.004 195.666 165.102 200.239 165.503C204.823 165.896 210.825 163.8 210.825 163.8C211.832 160.183 214.048 158.833 216.563 159.728C219.073 160.608 218.532 164.989 218.532 164.989Z" fill="#DE7553"/>
<path opacity="0.2" d="M214.117 161.527C213.852 161.913 213.018 164.748 214.203 167.377C214.203 167.377 215.747 167.295 216.186 166.309C216.616 165.322 214.662 164.89 214.662 164.89L214.117 161.527Z" fill="#DE7553"/>
<path d="M210.747 181.879C210.882 184.023 211.359 186.908 211.707 188.804C211.812 189.381 211.902 189.869 211.975 190.215C212.051 190.593 212.1 190.82 212.1 190.82C212.1 190.82 208.398 192.755 207.039 192.662C206.714 192.65 206.335 192.442 205.919 192.123C204.931 191.388 203.774 190.011 202.845 188.935C202.507 188.54 202.196 188.183 201.937 187.908C203.846 187.365 205.543 186.359 207.263 185.36C208.484 184.654 209.681 183.395 210.747 181.879Z" fill="url(#paint13_linear_540_351)"/>
<path opacity="0.2" d="M210.746 181.88C210.881 184.023 211.358 186.908 211.706 188.804C210.345 188.568 208.907 188.308 208.761 188.291C208.521 188.249 204.824 188.529 202.845 188.934C202.507 188.539 202.195 188.182 201.937 187.907C203.846 187.364 205.543 186.358 207.263 185.359C208.484 184.654 209.68 183.395 210.746 181.88Z" fill="#DE7553"/>
<path opacity="0.4" d="M237.785 173.094C237.519 174.448 236.99 175.878 236.607 176.264C235.928 176.914 233.591 175.248 233.591 175.248C233.591 175.248 233.534 175.708 231.809 175.789C230.087 175.858 229.193 174.677 229.193 174.677C227.63 176.26 221.089 178.944 219.711 178.428C218.335 177.911 218.402 176.296 218.402 176.296C216.681 177.137 214.569 176.953 213.48 176.787C214.413 174.427 214.921 172.111 214.695 170.534C214.695 170.534 218.925 168.766 218.53 164.99C218.53 164.99 218.596 164.454 218.576 163.711C218.639 163.78 218.685 163.854 218.72 163.931C219.338 165.499 218.226 169.871 216.419 171.129C216.419 171.129 216.897 174.339 219.03 173.811C219.03 173.811 220.452 174.402 222.89 174.537C225.32 174.666 227.564 174.179 228.852 173.334C228.852 173.334 232.19 174.297 232.863 173.634C232.863 173.634 235.893 174.454 237.785 173.094Z" fill="url(#paint14_linear_540_351)"/>
<path d="M209.291 160.19L208.282 162.049C208.282 162.049 207.717 160.025 204.524 156.459C203.156 154.917 200.847 153.496 198.294 152.4C194.885 150.93 191.022 150.048 188.364 150.298C183.717 150.715 178.425 154.78 176.437 156.813C176.437 156.813 178.12 153.332 180.728 150.926C183.337 148.514 187.152 146.622 187.152 146.622C191.063 146.066 194.334 146.506 197.321 147.744C199.13 148.5 200.838 149.546 202.524 150.852C206.981 154.291 209.291 160.19 209.291 160.19Z" fill="#ED3A51"/>
<path d="M193.955 167.368C193.009 167.566 192.864 165.925 194.118 164.219C195.373 162.509 197.74 161.709 199.269 162.949C199.269 162.949 197.171 163.369 196.283 164.914C195.394 166.457 194.682 167.215 193.955 167.368Z" fill="#D85E21"/>
<path opacity="0.3" d="M209.291 160.19L208.282 162.049C208.282 162.049 207.717 160.025 204.524 156.459C203.156 154.917 200.847 153.496 198.294 152.4L198.168 150.113C198.168 150.113 197.764 148.886 197.321 147.744C199.13 148.501 200.838 149.546 202.524 150.852C206.981 154.291 209.291 160.19 209.291 160.19Z" fill="#ED3A51"/>
<path opacity="0.3" d="M226.797 200.278C226.989 202.174 228.6 208.959 228.6 208.959C228.6 208.959 227.616 209.749 225.872 210.873C225.221 209.984 224.576 209.032 224.375 208.492C223.979 207.426 223.985 203.129 224 202.175C223.568 202.482 223.123 202.777 222.625 203.035C219.143 204.87 213.081 204.701 213.081 204.701C213.081 204.701 213.448 203.576 213.552 202.824C213.655 202.07 213.4 201.131 213.4 201.131C216.138 201.131 218.821 201.249 221.653 199.52C223.285 198.528 224.327 197.466 224.919 196.371C223.704 193.322 219.627 190.21 218.507 190.389C217.279 190.596 214.091 192.121 212.937 193.263C211.777 194.396 209.929 194.79 207.273 194.76C205.508 194.731 204.336 194.027 203.51 193.348C204.495 192.904 205.396 192.465 205.918 192.123C206.334 192.442 206.713 192.65 207.039 192.662C208.398 192.756 212.099 190.82 212.099 190.82C212.099 190.82 212.05 190.594 211.974 190.216C214.698 189.835 218.286 188.729 221.863 190.504C225.604 192.377 226.601 198.385 226.797 200.278Z" fill="#F49914"/>
<path d="M213.438 200.954C213.449 200.979 213.447 200.999 213.448 201.025C213.485 202.674 213.081 204.701 212.42 204.998C211.762 205.295 201.681 203.251 198.42 201.474C195.16 199.697 181.243 192.259 181.243 192.259C181.243 192.259 178.758 192.414 177.061 190.805C177.061 190.805 173.402 191.845 172.569 191.165C172.494 191.1 172.457 191.042 172.444 190.989C172.329 190.348 175.322 189.659 175.322 189.659C175.322 189.659 171.248 189.996 170.427 188.967C169.644 187.969 173.791 188.188 174.191 188.21C173.742 188.066 169.388 186.65 169.157 185.754C168.919 184.835 174.079 186.133 174.366 186.208C174.142 186.065 170.143 183.621 170.396 182.653C170.652 181.65 175.324 184.023 175.324 184.023L176.774 184.691C176.774 184.691 175.261 181.336 175.767 181.282C176.269 181.228 179.535 184.766 179.535 184.766C179.535 184.766 182.638 186.97 183.307 187.281C183.981 187.602 195.615 190.168 198.972 191.386C202.336 192.589 209.481 194.198 209.481 194.198C210.878 195.561 213.336 199.274 213.438 200.954Z" fill="url(#paint15_linear_540_351)"/>
<path opacity="0.2" d="M213.438 200.954C213.449 200.979 213.447 200.999 213.448 201.025C213.485 202.674 213.081 204.701 212.42 204.998C211.762 205.295 201.681 203.251 198.419 201.474C195.16 199.697 181.243 192.259 181.243 192.259C181.243 192.259 178.758 192.414 177.061 190.805C177.061 190.805 173.402 191.845 172.569 191.165C172.494 191.1 172.457 191.042 172.444 190.989C173.784 190.889 176.693 190.62 177.3 190.346C177.3 190.346 181.869 191.885 182.592 191.739C182.592 191.739 191.725 196.763 195.33 197.941C198.949 199.126 202.942 199.786 203.297 199.8C203.586 199.808 210.448 200.605 213.438 200.954Z" fill="#DE7553"/>
<path opacity="0.4" d="M251.091 238.36C251.091 238.36 249.612 239.585 247.536 241.398C247.1 241.762 246.647 242.166 246.175 242.582C245.858 242.851 245.54 243.131 245.21 243.428L242.372 234.846L242.02 233.752C242.02 233.752 239.661 227.347 236.471 223.597C233.559 220.166 229.513 214.883 225.672 211.005C227.538 209.812 228.601 208.958 228.601 208.958C228.601 208.958 236.803 216.329 241.658 221.521C246.501 226.719 251.091 238.36 251.091 238.36Z" fill="url(#paint16_linear_540_351)"/>
<path opacity="0.4" d="M216.101 235.598C219.063 242.964 222.616 252.78 222.715 253.001C222.737 253.05 222.7 253.252 222.619 253.542C219.032 253.974 216.07 253.749 214.672 253.579C215.04 249.078 215.441 244.63 214.677 238.7C213.837 232.141 210.116 221.954 210.116 221.954C210.116 221.954 213.129 228.236 216.101 235.598Z" fill="url(#paint17_linear_540_351)"/>
<path opacity="0.4" d="M234.589 249.85C232.239 250.944 229.814 251.91 227.577 252.549C228.628 248.897 226.805 243.618 224.544 236.175C222.173 228.382 218.93 219.032 218.93 219.032C218.93 219.032 222.212 225.728 224.381 229.579C226.559 233.424 230.398 241.544 230.398 241.544C230.398 241.544 233.377 247.518 234.589 249.85Z" fill="url(#paint18_linear_540_351)"/>
<path opacity="0.4" d="M247.536 241.398C247.1 241.762 246.647 242.166 246.175 242.582C245.858 242.851 245.54 243.131 245.21 243.428C245.142 243.488 245.076 243.549 245.01 243.611C244.377 244.158 243.556 244.795 242.563 245.452C241.526 241.576 239.823 236.652 236.731 231.393C233.649 226.146 227.949 217.678 226.931 216.166C227.659 217.153 230.596 221.162 232.34 222.827C233.623 224.052 238.803 230.414 242.372 234.847C244.387 237.335 245.885 239.211 245.885 239.211L247.536 241.398Z" fill="url(#paint19_linear_540_351)"/>
<path d="M260.76 260.278C260.76 260.278 260.755 261.106 259.941 262.073C259.645 262.415 259.249 262.785 258.703 263.135C256.653 264.448 255.652 263.986 255.652 263.986C255.652 263.986 249.719 258.75 245.946 256.234C243.647 254.698 240.274 252.084 238 250.283C237.352 249.776 236.796 249.329 236.372 248.989C236.67 248.845 236.967 248.705 237.245 248.558C240.552 246.846 243.447 244.998 245.008 243.61C245.407 243.252 245.789 242.912 246.173 242.582C248.807 243.786 252.428 245.412 255.189 248.903C258.876 253.566 260.76 260.278 260.76 260.278Z" fill="url(#paint20_linear_540_351)"/>
<path opacity="0.2" d="M260.76 260.277C260.76 260.277 260.755 261.106 259.942 262.073L258.029 258.433C258.029 258.433 256.278 253.948 253.395 250.504C250.529 247.048 245.915 245.312 245.915 245.312C245.915 245.312 245.181 246.034 243.56 247.43C242.312 248.499 239.912 249.622 238 250.284C237.352 249.776 236.796 249.33 236.372 248.989C236.669 248.845 236.967 248.705 237.245 248.558C240.552 246.846 243.446 244.999 245.008 243.61C245.407 243.252 245.788 242.913 246.173 242.582C248.806 243.786 252.428 245.412 255.189 248.903C258.877 253.566 260.76 260.277 260.76 260.277Z" fill="#DE7553"/>
<path opacity="0.2" d="M114.763 235.447C114.763 235.447 118.874 236.616 119.497 238.445C119.497 238.445 119.339 240.14 118.043 239.654C116.741 239.169 117.561 237.597 117.561 237.597L114.763 235.447Z" fill="#DE7553"/>
<path d="M131.884 225.542C131.843 225.612 131.796 225.676 131.741 225.741C130.418 227.305 127.452 227.939 126.079 227.242C124.803 226.593 126.012 223.58 127.424 221.623C127.471 221.562 127.512 221.512 127.558 221.446C128.897 219.715 130.003 220.317 130.456 221.134C130.904 221.941 132.889 223.997 131.884 225.542Z" fill="white"/>
<path d="M123.455 222.976C122.738 222.948 122.875 220.332 124.172 218.522C125.465 216.705 127.885 216.408 128.182 217.066C128.478 217.723 128.713 218.057 127.331 218.502C125.951 218.948 124.536 220.116 124.129 221.35C123.721 222.59 123.455 222.976 123.455 222.976Z" fill="#C98727"/>
<path d="M131.884 225.542C130.876 226.166 129.286 225.519 128.296 224.08C127.704 223.204 127.454 222.231 127.557 221.447C128.896 219.715 130.003 220.317 130.456 221.134C130.904 221.941 132.889 223.997 131.884 225.542Z" fill="#63462F"/>
<path d="M125.763 227.118C125.305 226.402 125.097 224.914 126.221 222.433C127.346 219.946 129.223 219.428 130.25 220.679C130.25 220.679 128.417 220.473 127.432 222.236C126.448 224.002 125.763 227.118 125.763 227.118Z" fill="#B76F58"/>
<path opacity="0.4" d="M125.763 227.118C125.848 226.73 127.228 223.341 127.999 222.418C128.773 221.502 130.503 221.337 130.731 221.539C130.731 221.539 130.297 219.801 128.656 220.366C127.017 220.929 126.642 222.636 126.3 223.625C125.954 224.616 125.763 227.118 125.763 227.118Z" fill="#AFA9A7"/>
<path d="M128.464 225.11C128.255 224.646 128.463 224.1 128.929 223.89C129.39 223.682 129.937 223.888 130.146 224.352C130.355 224.815 130.147 225.359 129.685 225.568C129.219 225.778 128.673 225.574 128.464 225.11Z" fill="white"/>
<path d="M139.91 233.065C139.975 233.228 140.029 233.39 140.074 233.56C139.06 234.408 138.257 234.813 137.358 235.251L137.281 235.285C136.147 235.797 134.702 235.464 134.641 235.455C134.511 235.415 134.435 235.294 134.459 235.168C134.49 235.036 134.617 234.957 134.746 234.985C134.759 234.989 136.173 235.311 137.144 234.819C138.067 234.362 138.873 233.968 139.91 233.065Z" fill="#DE7553"/>
<path d="M193.366 176.599C193.811 177.586 194.203 178.947 193.989 179.833C193.774 180.722 193.13 181.449 193.871 181.819C194.612 182.187 195.618 182.084 196.66 181.661C197.699 181.236 198.016 180.962 197.751 180.462C197.482 179.971 196.974 180.115 196.905 180.45C196.839 180.788 195.971 181.398 195.216 181.477C194.455 181.554 194.026 181.088 194.278 180.669C194.527 180.251 194.732 178.748 194.348 177.605C193.963 176.46 193.366 176.599 193.366 176.599Z" fill="#DE7553"/>
<path d="M200.644 183.034C201.457 182.483 203.27 181.087 203.559 179.798C203.792 178.763 203.555 177.673 202.746 177.92C201.939 178.168 201.665 179.411 201.277 180.777C200.99 181.79 200.644 183.034 200.644 183.034Z" fill="#C23F4C"/>
<path opacity="0.4" d="M101.439 216.116C101.439 216.116 101.033 213.665 102.295 212.745C102.295 212.745 102.157 215.175 101.439 216.116Z" fill="url(#paint21_linear_540_351)"/>
<path opacity="0.4" d="M105.823 223.107C105.823 223.107 107.862 224.117 108.943 223.193C108.943 223.193 106.878 222.715 105.823 223.107Z" fill="url(#paint22_linear_540_351)"/>
<path opacity="0.4" d="M110.2 214.275C110.2 214.275 110.047 211.006 112.641 209.923C112.641 209.923 111.338 213.676 110.2 214.275Z" fill="url(#paint23_linear_540_351)"/>
<path opacity="0.4" d="M98.4874 226.939C98.1626 226.833 98.8522 230.291 101.07 230.523C101.07 230.523 99.9365 227.427 98.4874 226.939Z" fill="url(#paint24_linear_540_351)"/>
<path opacity="0.4" d="M112.373 219.095C112.142 219.269 115.183 218.886 115.705 217.505C115.705 217.505 112.969 218.653 112.373 219.095Z" fill="url(#paint25_linear_540_351)"/>
<path opacity="0.4" d="M117.311 210.718C117.311 210.718 120.104 209.109 120.303 207.788C120.303 207.788 117.712 209.658 117.311 210.718Z" fill="url(#paint26_linear_540_351)"/>
<path opacity="0.4" d="M106.895 232.903C106.327 232.893 109.17 234.426 110.577 234.232C110.577 234.232 108.58 232.934 106.895 232.903Z" fill="url(#paint27_linear_540_351)"/>
<path opacity="0.4" d="M111.949 225.967C111.637 226.07 113.927 226.832 115.243 226.238C115.243 226.238 113.552 225.419 111.949 225.967Z" fill="url(#paint28_linear_540_351)"/>
<path opacity="0.4" d="M99.9046 222.079C99.9046 222.079 97.7193 221.134 98.2512 219.4C98.2512 219.4 100.007 221.335 99.9046 222.079Z" fill="url(#paint29_linear_540_351)"/>
<path opacity="0.4" d="M106.565 210.115C106.565 210.115 105.276 208.239 106.482 206.812C106.482 206.812 107.518 208.717 106.565 210.115Z" fill="url(#paint30_linear_540_351)"/>
<path d="M229.764 170.468C229.764 170.468 229.132 174.354 229.195 174.676C229.259 175.002 229.571 176.092 231.186 176.155C232.798 176.215 233.593 175.248 233.593 175.248C233.593 175.248 232.668 171.442 230.624 169.639C230.624 169.639 229.863 169.896 229.764 170.468Z" fill="url(#paint31_linear_540_351)"/>
<path d="M182.234 198.756C182.234 198.756 184.401 200.847 185.06 201.517C185.06 201.517 186.849 201.765 187.563 201.006C188.275 200.247 188.003 200.899 188.003 200.899C188.003 200.899 185.236 198.188 182.921 197.739L182.234 198.756Z" fill="url(#paint32_linear_540_351)"/>
<path d="M371.051 240.588C371.348 241.29 371.636 242.022 371.93 242.765C372.799 244.998 373.281 247.198 373.441 249.351C373.512 250.308 373.518 251.256 373.454 252.192C373.423 252.662 373.384 253.13 373.325 253.588C373.206 254.52 373.025 255.433 372.787 256.334C372.674 256.783 372.541 257.237 372.395 257.681C369.263 267.25 359.909 275.34 349.339 280.405C346.852 281.586 344.336 282.542 341.819 283.233C341.275 283.385 340.728 283.528 340.185 283.657C338.547 284.056 336.914 284.329 335.293 284.499C334.217 284.62 333.136 284.683 332.072 284.686C328.874 284.738 325.745 284.336 322.766 283.464C319.145 282.418 315.741 280.675 312.677 278.185C307.937 274.353 304.02 268.757 301.404 261.248C295.557 244.462 308.642 222.722 330.972 218.756C337.631 217.568 345.113 217.961 353.164 220.54C354.189 220.868 360.604 224.745 362.722 226.869C365.549 229.689 368.284 233.979 371.051 240.588Z" fill="#C170A4"/>
<path opacity="0.5" d="M371.051 240.588C371.348 241.29 371.636 242.023 371.93 242.765C372.799 244.998 373.281 247.198 373.441 249.351C373.512 250.308 373.518 251.256 373.454 252.192C373.423 252.662 373.384 253.13 373.325 253.588C373.206 254.52 373.025 255.433 372.787 256.334C372.665 256.787 372.541 257.237 372.395 257.681C369.263 267.25 359.909 275.34 349.339 280.405C346.852 281.586 344.336 282.542 341.819 283.233C341.275 283.385 340.728 283.528 340.185 283.657C338.543 284.048 336.914 284.329 335.293 284.499C334.212 284.61 333.138 284.669 332.072 284.686C328.874 284.738 325.745 284.336 322.766 283.464C346.325 284.514 370.636 264.915 364.267 243.808C360.803 232.304 348.244 223.89 338.671 220.518C336.286 219.673 333.64 219.118 330.971 218.756C337.63 217.568 345.112 217.961 353.163 220.54C354.188 220.869 360.603 224.746 362.722 226.87C365.549 229.689 368.284 233.979 371.051 240.588Z" fill="#C170A4"/>
<path opacity="0.2" d="M371.928 242.766C378.112 258.641 365.083 272.864 349.34 280.401C340.39 284.69 331.021 285.874 322.764 283.467C319.144 282.411 315.739 280.671 312.677 278.188C320.378 280.573 333.808 281.541 346.181 272.498C361.949 260.967 373.972 239.697 353.279 221.653C354.296 222.001 355.273 222.335 356.168 222.65C358.426 223.462 360.598 224.744 362.726 226.874C365.839 229.986 368.861 234.903 371.928 242.766Z" fill="#C170A4"/>
<path opacity="0.4" d="M316.579 232.456C311.882 232.239 306.836 238.16 307.732 242.861C308.625 247.564 313.646 253.318 320.589 247.86C327.53 242.404 323.678 232.786 316.579 232.456Z" fill="#C170A4"/>
<path d="M378.152 228.253C378.182 228.319 378.231 228.441 378.283 228.608C378.424 229.038 378.588 229.737 378.369 230.089C378.147 230.443 377.475 231.167 376.569 231.501C376.262 231.62 375.935 231.694 375.587 231.69C375.523 231.688 375.464 231.705 375.396 231.692C373.924 231.565 363.745 228.691 359.826 226.062C355.918 223.433 354.754 220.267 354.338 219.93C353.922 219.592 344.113 218.74 337.846 220.065C331.585 221.394 315.442 229.115 309.046 233.666C302.652 238.223 301.153 242.326 301.153 242.326C301.153 242.326 301.724 245.138 300.162 250.853C298.725 256.119 293.021 261.664 292.13 262.501C292.126 262.491 292.122 262.484 292.122 262.484C292.122 262.484 291.341 262.161 289.917 262.022C289.359 261.979 288.692 261.952 287.942 261.994C287.783 262.003 287.625 262.02 287.451 262.036C287.69 259.61 289.058 245.408 289.778 241.476C290.558 237.17 290.641 232.472 294.997 229.635C296.997 228.331 302.759 225.838 308.398 223.517C315.048 220.795 321.537 218.32 321.537 218.32C321.537 218.32 332.25 212.383 339.265 209.135C341.157 208.247 342.794 207.567 343.865 207.249C348.917 205.761 357.316 208.387 360.684 211.173C364.055 213.963 378.054 228.035 378.152 228.253Z" fill="url(#paint33_linear_540_351)"/>
<path opacity="0.5" d="M376.567 231.501C376.26 231.62 375.933 231.693 375.585 231.69C375.521 231.688 375.462 231.705 375.394 231.692C373.922 231.565 363.743 228.691 359.824 226.062C355.916 223.433 354.752 220.267 354.336 219.929C353.92 219.592 344.112 218.74 337.844 220.065C331.583 221.394 315.44 229.115 309.044 233.666C302.65 238.223 301.151 242.326 301.151 242.326C301.151 242.326 301.722 245.138 300.16 250.853C298.723 256.119 293.019 261.664 292.128 262.501C292.124 262.491 292.12 262.484 292.12 262.484C292.12 262.484 291.339 262.16 289.915 262.022C291.78 260.097 294.625 257.007 295.537 254.961C296.732 252.314 298.691 242.605 298.155 241.131C298.155 241.131 302.814 235.072 307.351 231.971C311.896 228.868 313.334 227.953 313.334 227.953C313.334 227.953 311.742 227.355 311.469 226.159C311.304 225.444 309.641 224.34 308.396 223.518C315.047 220.795 321.536 218.32 321.536 218.32C321.536 218.32 332.248 212.383 339.263 209.136L336.037 215.348C336.037 215.348 337.992 216.173 337.674 217.244C337.372 218.309 345.615 215.508 348.287 215.886C350.959 216.265 357.012 218.542 357.012 218.542C357.012 218.542 362.284 223.811 366.248 225.577C368.892 226.757 373.652 229.622 376.567 231.501Z" fill="url(#paint34_linear_540_351)"/>
<path d="M323.32 197.006C328.601 202.092 330.549 211.493 329.544 214.323C328.526 217.153 321.961 220.557 318.957 221.287C315.941 222.035 309.297 217.647 306.471 213.914C303.647 210.177 302.076 203.769 302.076 203.769C302.076 203.769 299.953 204.727 297.383 204.482C294.798 204.235 292.945 203.057 292.945 203.057C292.945 203.057 292.866 201.869 292.926 200.334C292.968 199.021 293.092 197.446 293.443 196.147C294.007 194.076 294.952 192.828 295.814 191.893C296.12 191.564 296.411 191.276 296.67 191.001C296.719 190.948 296.797 190.889 296.858 190.832C299.772 191.658 303.246 191.727 307.059 190.629C313.6 188.733 315.519 184.789 316.991 182.018C317.136 181.753 317.263 181.502 317.395 181.254C318.063 181.122 319.284 180.994 320.825 181.299C321.618 181.46 322.486 181.74 323.41 182.199C325.127 183.038 326.676 184.273 327.852 185.356C329.24 186.625 330.113 187.7 330.113 187.7L323.32 197.006Z" fill="url(#paint35_linear_540_351)"/>
<path opacity="0.4" d="M320.828 181.298C318.482 185.087 312.272 190.967 308.088 192.622C304.042 194.211 298.52 192.97 295.815 191.893C296.121 191.564 296.413 191.276 296.671 191.001C296.721 190.948 296.798 190.89 296.86 190.832C299.774 191.659 303.248 191.727 307.06 190.63C313.601 188.733 315.52 184.789 316.993 182.018C317.137 181.753 317.264 181.502 317.396 181.255C318.065 181.121 319.286 180.993 320.828 181.298Z" fill="url(#paint36_linear_540_351)"/>
<path opacity="0.4" d="M323.32 197.006C328.601 202.092 330.549 211.493 329.544 214.323C328.526 217.153 321.961 220.557 318.958 221.287C315.941 222.035 309.297 217.647 306.471 213.914C303.647 210.177 302.076 203.769 302.076 203.769C302.076 203.769 299.953 204.727 297.383 204.482C294.798 204.235 292.945 203.057 292.945 203.057C292.945 203.057 292.866 201.869 292.926 200.334C295.438 201.038 300.578 201.565 302.102 200.994C302.102 200.994 304.434 207.054 306.081 208.945C307.724 210.839 312.617 216.416 312.617 216.416C312.617 216.416 314.825 215.154 317.048 215.999C319.278 216.837 321.535 218.32 321.535 218.32C321.535 218.32 322.757 216.063 324.801 214.741C326.845 213.425 326.797 211.866 326.797 211.866C326.797 211.866 326.921 208.908 326.43 206.367C325.948 203.816 321.335 196.793 321.335 196.793L327.854 185.354C329.242 186.624 330.114 187.698 330.114 187.698L323.32 197.006Z" fill="url(#paint37_linear_540_351)"/>
<path d="M320.319 156.882C320.375 157.007 320.409 157.128 320.445 157.257C321.293 160.261 321.888 165.075 320.742 167.143C320.583 167.352 320.439 167.595 320.301 167.87C320.279 167.921 320.251 167.978 320.233 168.027C320.095 168.289 319.96 168.574 319.838 168.868C319.015 170.761 318.421 172.673 318.421 172.673C318.421 172.673 316.508 166.68 314.275 163.29C312.041 159.912 307.619 157.505 304.73 157.935C301.835 158.352 298.364 159.043 295.53 159.004C292.7 158.961 289.296 157.858 289.296 157.858C288.424 158.073 286.004 160.135 285.684 163.528C285.372 166.862 286.487 171.083 287.058 172.399C287.136 172.647 287.215 172.844 287.279 173.024C287.329 173.195 287.366 173.366 287.394 173.542C286.712 172.922 283.684 170.073 282.531 168.03C281.386 166.005 279.964 163.226 280.918 159.383C281.058 158.845 281.237 158.277 281.473 157.696C283.201 153.428 286.301 152.692 287.729 152.27C287.874 152.226 288.015 152.184 288.127 152.145C288.127 152.145 288.099 152.063 288.069 151.929C287.955 151.387 287.693 149.967 288.074 149.098C288.089 149.071 288.103 149.032 288.119 148.997C288.174 148.875 288.243 148.725 288.324 148.553C289.145 146.931 291.702 143.308 300.45 142.988C302.85 142.9 304.863 143.339 306.548 144.067C306.718 144.142 306.874 144.218 307.036 144.292C309.717 145.57 311.493 147.565 312.563 149.117C312.656 149.256 312.748 149.391 312.832 149.524C313.552 150.632 313.865 151.441 313.865 151.441C315.904 151.283 319.276 153.917 320.319 156.882Z" fill="#874F33"/>
<path d="M320.23 168.025C320.347 167.793 320.473 167.571 320.605 167.38C320.655 167.31 320.698 167.222 320.743 167.142C320.585 167.355 320.434 167.591 320.301 167.87C320.275 167.92 320.25 167.975 320.23 168.025Z" fill="#874F33"/>
<path d="M320.23 168.025C320.347 167.793 320.473 167.571 320.605 167.38C320.655 167.31 320.698 167.222 320.743 167.142C320.585 167.355 320.434 167.591 320.301 167.87C320.275 167.92 320.25 167.975 320.23 168.025Z" fill="url(#paint38_linear_540_351)"/>
<path d="M287.279 173.02C287.327 173.19 287.367 173.363 287.396 173.547C287.485 173.629 287.539 173.68 287.539 173.68C287.539 173.68 287.435 173.433 287.279 173.02Z" fill="#874F33"/>
<path d="M287.279 173.02C287.327 173.19 287.367 173.363 287.396 173.547C287.485 173.629 287.539 173.68 287.539 173.68C287.539 173.68 287.435 173.433 287.279 173.02Z" fill="url(#paint39_linear_540_351)"/>
<path d="M318.418 172.674C318.418 172.674 316.505 166.682 314.276 163.292C312.041 159.905 307.617 157.509 304.729 157.932C301.84 158.357 298.366 159.042 295.533 159.004C292.696 158.963 289.291 157.861 289.291 157.861C288.425 158.076 286.004 160.136 285.691 163.529C285.375 166.865 286.484 171.079 287.055 172.406C286.434 170.617 285.492 167.267 285.907 164.398C286.518 160.171 288.945 157.67 289.931 158.101C290.919 158.534 295.145 159.703 299.653 159.165C304.161 158.626 307.016 158.13 307.824 158.552C308.634 158.985 312.687 161.726 315.023 166.118C317.356 170.517 318.52 173.68 318.52 173.68C318.52 173.68 318.986 170.963 319.842 168.866C319.015 170.76 318.418 172.674 318.418 172.674Z" fill="#874F33"/>
<path d="M296.857 190.828C299.774 191.66 303.247 191.732 307.058 190.625C313.6 188.73 315.52 184.788 316.995 182.016C317.135 181.75 317.265 181.497 317.394 181.25C317.016 181.326 316.805 181.398 316.805 181.398C316.805 181.398 299.93 188.083 296.857 190.828Z" fill="#669905"/>
<path d="M325.92 174.3C324.628 177.074 319.23 177.402 319.23 177.402C319.23 177.402 318.603 178.916 317.398 181.254C317.266 181.501 317.138 181.752 316.994 182.017C315.522 184.788 313.603 188.733 307.061 190.629C306.989 190.648 306.912 190.673 306.837 190.689C303.112 191.723 299.716 191.64 296.86 190.832C294.783 190.239 292.979 189.259 291.553 188.037C288.115 185.103 286.277 180.05 286.945 177.819C287.437 176.156 287.583 174.696 287.395 173.544C287.485 173.63 287.54 173.681 287.54 173.681C287.54 173.681 287.435 173.43 287.279 173.025C287.23 172.826 287.16 172.651 287.085 172.486C287.072 172.456 287.069 172.423 287.059 172.4C286.487 171.084 285.374 166.863 285.686 163.529C285.723 163.078 285.809 162.648 285.93 162.238C286.624 159.614 288.535 158.046 289.297 157.859C289.297 157.859 292.701 158.961 295.531 159.005C298.365 159.043 301.835 158.353 304.732 157.935C307.619 157.505 312.042 159.911 314.276 163.29C316.509 166.681 318.422 172.673 318.422 172.673C318.422 172.673 319.016 170.761 319.839 168.868C319.964 168.581 320.091 168.301 320.234 168.027C320.349 167.797 320.471 167.574 320.609 167.386C320.658 167.311 320.696 167.227 320.744 167.144C321.812 165.724 323.368 165.779 325.303 166.669C327.527 167.691 327.224 171.518 325.92 174.3Z" fill="url(#paint40_linear_540_351)"/>
<path d="M288.279 168.688C287.529 168.586 288.348 166.11 290.473 164.179C292.598 162.258 294.461 163.266 294.387 164.087C294.32 164.91 291.823 165.419 290.444 166.657C289.064 167.894 288.279 168.688 288.279 168.688Z" fill="#874F33"/>
<path d="M302.858 163.341C302.632 162.365 305.948 161.423 308.225 161.978C310.499 162.534 311.597 163.795 310.936 165.06C310.274 166.326 308.666 164.325 306.778 164.038C304.887 163.747 302.947 163.743 302.858 163.341Z" fill="#874F33"/>
<path opacity="0.2" d="M325.92 174.3C324.628 177.074 319.23 177.402 319.23 177.402C319.23 177.402 318.603 178.916 317.398 181.254C317.266 181.501 317.138 181.752 316.994 182.017C315.522 184.788 313.603 188.733 307.061 190.629C306.989 190.648 306.912 190.673 306.837 190.689C309.331 188.993 312.671 186.277 315.069 182.621C319.375 176.058 315.831 167.911 312.902 164.349C309.977 160.79 305.567 159.487 300.706 161.025C295.858 162.546 290.198 159.964 289.403 159.659C288.801 159.424 287.1 160.687 285.93 162.238C286.624 159.614 288.535 158.046 289.297 157.859C289.297 157.859 292.701 158.961 295.531 159.005C298.364 159.043 301.835 158.353 304.731 157.935C307.619 157.505 312.042 159.911 314.276 163.29C316.509 166.681 318.422 172.673 318.422 172.673C318.422 172.673 319.016 170.761 319.839 168.868C319.963 168.581 320.09 168.301 320.234 168.027C320.348 167.797 320.471 167.574 320.608 167.386C320.658 167.311 320.696 167.227 320.744 167.144C321.812 165.724 323.368 165.779 325.303 166.669C327.527 167.691 327.224 171.518 325.92 174.3Z" fill="#DE7553"/>
<path opacity="0.2" d="M323.173 168.681C323.173 168.681 319.865 171.889 320.355 174.435C320.355 174.435 322.326 174.999 322.919 173.675C323.506 172.356 321.996 172.51 321.996 172.51L323.173 168.681Z" fill="#DE7553"/>
<path d="M337.164 202.532C337.973 209.993 333.439 216.335 333.439 216.335L328.845 214.276L328.37 214.061C328.37 214.061 328.55 207.647 327.681 205.323C326.807 202.985 324.197 198.364 322.702 197.021L324.39 194.899L330.115 187.7C332.656 190.592 336.352 195.082 337.164 202.532Z" fill="url(#paint41_linear_540_351)"/>
<path opacity="0.2" d="M329.596 204.015C330.116 205.868 329.451 210.745 328.845 214.275L328.37 214.06C328.37 214.06 328.55 207.645 327.682 205.322C326.807 202.984 324.197 198.363 322.702 197.02L324.39 194.898C326.857 197.712 328.838 201.305 329.596 204.015Z" fill="#DE7553"/>
<path d="M316.505 221.52L315.889 222.017L312.824 224.495C305.693 223.312 299.634 218.662 297.118 215.23C294.61 211.798 293.276 205.542 292.946 203.056C292.946 203.056 294.614 203.62 297.112 204.078C298.027 204.247 298.965 204.221 299.791 204.123C301.235 203.957 302.338 203.568 302.338 203.568C302.338 203.568 304.403 210.099 307.479 213.987C310.55 217.873 316.505 221.52 316.505 221.52Z" fill="url(#paint42_linear_540_351)"/>
<path opacity="0.2" d="M316.505 221.52L315.889 222.017C313.107 220.455 308.879 217.911 306.67 215.805C303.583 212.866 301.131 207.873 299.791 204.123C301.236 203.957 302.338 203.568 302.338 203.568C302.338 203.568 304.403 210.099 307.479 213.987C310.55 217.873 316.505 221.52 316.505 221.52Z" fill="#DE7553"/>
<path d="M291.162 267.976C291.115 268.02 291.071 268.039 291.025 268.069C287.204 270.319 281.692 268.849 280.477 268.689C279.27 268.54 277.786 267.004 277.971 266.048C278.074 265.505 279.066 264.842 280.425 264.213C282.579 263.201 285.644 262.271 287.449 262.036C287.623 262.02 287.78 262.002 287.939 261.994C290.596 261.847 292.119 262.484 292.119 262.484C292.119 262.484 292.123 262.492 292.127 262.501C292.285 262.691 294.681 265.799 291.162 267.976Z" fill="#FD8A2C"/>
<path d="M291.162 267.976C290.286 266.895 288.835 265.207 287.784 264.392C286.375 263.311 283.848 263.441 280.425 264.214C282.579 263.201 285.644 262.272 287.449 262.037C287.623 262.02 287.781 262.003 287.94 261.995C290.597 261.848 292.12 262.485 292.12 262.485C292.12 262.485 292.123 262.493 292.128 262.502C292.285 262.691 294.681 265.799 291.162 267.976Z" fill="#FD8A2C"/>
<path opacity="0.4" d="M320.319 156.882C320.375 157.007 320.409 157.128 320.445 157.257C321.293 160.261 321.888 165.075 320.742 167.143C320.583 167.352 320.439 167.595 320.301 167.87C320.279 167.921 320.251 167.978 320.233 168.027C320.095 168.289 319.96 168.574 319.838 168.868C319.015 170.761 318.421 172.673 318.421 172.673C318.421 172.673 316.508 166.68 314.275 163.29C312.041 159.912 307.619 157.505 304.73 157.935C301.835 158.352 298.364 159.043 295.53 159.004C292.7 158.961 289.296 157.858 289.296 157.858C288.424 158.073 286.004 160.135 285.684 163.528C285.372 166.862 286.487 171.083 287.058 172.399C287.136 172.647 287.215 172.844 287.279 173.024C287.329 173.195 287.366 173.366 287.394 173.542C286.712 172.922 283.684 170.073 282.531 168.03C281.386 166.005 279.964 163.226 280.918 159.383C281.947 161.11 284.111 162.538 284.504 162.258C285.006 161.901 286.571 155.136 289.214 156.314C291.86 157.495 301.345 158.627 303.53 156.45C305.719 154.273 311.658 152.522 314.631 154.999C316.37 156.46 318.695 156.889 320.319 156.882Z" fill="#874F33"/>
<path d="M296.817 173.447C296.312 174.606 294.009 175.178 292.442 175.218C292.431 175.223 292.431 175.223 292.431 175.223C292.333 175.227 292.235 175.227 292.141 175.226C290.316 175.199 289.16 174.464 289.034 172.611C288.974 171.838 289.243 171.086 289.749 170.513C290.452 169.719 291.611 169.245 293.029 169.49C295.473 169.894 297.353 172.212 296.817 173.447Z" fill="white"/>
<path d="M293.488 171.783C294.066 173.065 293.587 174.545 292.442 175.219C292.431 175.224 292.431 175.224 292.431 175.224C292.334 175.228 292.235 175.227 292.141 175.227C290.316 175.199 289.16 174.464 289.034 172.611C288.974 171.838 289.243 171.086 289.75 170.514C289.827 170.473 289.893 170.444 289.969 170.409C291.299 169.81 292.876 170.426 293.488 171.783Z" fill="#529799"/>
<path d="M289.365 173.93C289.143 173.153 289.827 170.953 291.62 170.629C293.405 170.309 296.6 171.195 297.026 172.717C297.026 172.717 296.398 170.365 293.834 169.545C291.271 168.723 289.195 170.315 289.014 171.631C288.832 172.94 289.365 173.93 289.365 173.93Z" fill="#9B6C48"/>
<path opacity="0.4" d="M289.365 173.93C289.306 173.699 290.04 171.608 292.341 171.095C294.65 170.582 296.664 171.915 296.911 172.55C296.911 172.55 296.162 170.607 293.628 169.943C291.096 169.284 289.586 170.89 289.331 171.749C289.073 172.612 289.365 173.93 289.365 173.93Z" fill="#A4A5A5"/>
<path d="M292.986 173.573C292.796 173.15 292.976 172.655 293.392 172.467C293.806 172.28 294.3 172.472 294.491 172.895C294.682 173.318 294.498 173.814 294.084 174.001C293.667 174.189 293.177 173.996 292.986 173.573Z" fill="white"/>
<path d="M311.381 169.742C311.713 171.487 311.02 171.928 308.784 172.666C308.196 172.855 307.604 173.023 307.035 173.151C305.415 173.525 303.968 173.57 303.404 172.874C302.766 172.054 303.251 169.848 304.861 168.399C305.389 167.924 306.04 167.532 306.814 167.306C309.923 166.376 311.053 168.015 311.381 169.742Z" fill="white"/>
<path d="M307.598 170.038C308.098 171.147 307.838 172.393 307.035 173.151C305.415 173.526 303.968 173.57 303.404 172.874C302.766 172.054 303.251 169.849 304.862 168.4C305.974 168.292 307.099 168.931 307.598 170.038Z" fill="#529799"/>
<path d="M303.075 172.415C303.115 172.853 304.053 168.882 307.377 168.279C310.703 167.674 311.312 169.776 311.465 170.694C311.465 170.694 311.691 167.769 309.396 167.057C307.105 166.341 305.472 167.597 304.683 168.192C303.214 169.302 303.016 171.816 303.075 172.415Z" fill="#9B6C48"/>
<path opacity="0.4" d="M303.075 172.415C303.239 172.207 305.049 169.195 307.574 168.907C310.102 168.621 311.342 169.94 311.466 170.695C311.466 170.695 311.174 167.869 309.317 167.541C307.454 167.215 304.987 167.92 304.049 169.734C303.111 171.546 303.075 172.415 303.075 172.415Z" fill="#A4A5A5"/>
<path d="M307.01 171.268C306.816 170.837 306.994 170.335 307.408 170.149C307.82 169.963 308.314 170.162 308.509 170.593C308.703 171.023 308.525 171.529 308.113 171.714C307.7 171.902 307.205 171.699 307.01 171.268Z" fill="white"/>
<path d="M297.818 174.91C297.29 174.711 295.699 174.896 295.627 175.81C295.558 176.72 295.919 177.523 297.649 177.755C299.38 177.983 300.026 177.561 300.003 177.222C299.981 176.879 299.389 177.365 298.199 177.262C296.846 177.147 296.056 176.714 296.143 175.927C296.23 175.141 297.368 175.576 297.803 175.462C298.239 175.358 298.241 175.069 297.818 174.91Z" fill="#DE7553"/>
<path d="M308.354 178.089C308.354 178.089 308.603 179.243 308.563 180.724C308.517 183.01 307.828 186.094 304.622 186.979C301.213 187.917 298.224 185.618 296.54 183.856C295.615 182.906 295.078 182.104 295.078 182.104C296.228 182.11 300.697 180.793 303.226 179.967C305.755 179.134 308.354 178.089 308.354 178.089Z" fill="#C23F4C"/>
<path d="M308.354 178.089C308.354 178.089 308.603 179.243 308.563 180.724C304.984 182.013 299.616 183.346 296.541 183.856C295.616 182.906 295.078 182.104 295.078 182.104C296.229 182.109 300.698 180.793 303.226 179.967C305.755 179.134 308.354 178.089 308.354 178.089Z" fill="white"/>
<path d="M318.77 215.423L318.389 228.178C318.389 228.178 317.833 228.565 317.329 228.835C317.036 229 316.754 229.127 316.622 229.111C316.622 229.111 316.602 216.329 317.138 215.758C317.251 215.636 317.394 215.549 317.54 215.506C318.092 215.272 318.77 215.423 318.77 215.423Z" fill="#C170A4"/>
<path opacity="0.5" d="M317.539 215.505C317.484 217.819 317.084 226.013 317.14 226.304C317.181 226.464 317.264 227.723 317.329 228.834C317.035 228.999 316.754 229.126 316.622 229.11C316.622 229.11 316.601 216.328 317.137 215.758C317.25 215.636 317.394 215.549 317.539 215.505Z" fill="#C170A4"/>
<path d="M333.524 221.488L331.92 222.262L331.563 222.435C331.563 222.435 322.692 213.717 322.528 212.938C322.446 212.52 322.755 211.92 323.119 211.503C323.445 211.112 323.816 210.879 323.95 211.106C324.23 211.58 333.524 221.488 333.524 221.488Z" fill="#C170A4"/>
<path opacity="0.5" d="M333.524 221.489L331.92 222.262C330.15 220.121 327.236 216.592 326.93 216.089C326.539 215.486 324.464 212.919 323.119 211.503C323.445 211.111 323.816 210.878 323.95 211.106C324.23 211.58 333.524 221.489 333.524 221.489Z" fill="#C170A4"/>
<path d="M320.934 222.633C320.933 222.656 320.919 222.678 320.909 222.695C320.634 223.264 319.648 222.82 319.648 222.82C319.648 222.82 319.673 222.906 319.72 223.031C319.782 223.234 319.873 223.556 319.899 223.822C319.911 224.043 319.902 224.237 319.801 224.333C319.496 224.651 318.327 224.386 318.327 224.386C318.327 224.386 318.343 224.402 318.366 224.432C318.57 224.654 319.557 225.763 319.127 226.304C319.127 226.304 319.122 226.316 319.114 226.32C318.583 226.906 317.671 226.264 317.671 226.264C317.671 226.264 317.701 226.353 317.74 226.478L317.743 226.485C317.841 226.801 317.982 227.369 317.874 227.672C317.865 227.697 317.856 227.722 317.838 227.731C317.391 228.594 315.321 227.729 314.066 226.835C313.496 226.439 313.078 226.026 312.801 225.654C312.441 225.154 312.327 224.709 312.44 224.408C312.614 223.927 313.536 224.114 313.713 224.16C313.571 224.054 312.641 223.389 312.83 222.732C313.039 222.028 314.141 222.322 314.141 222.322C314.141 222.322 313.419 221.508 313.554 220.824C313.694 220.151 315.005 220.351 315.005 220.351C315.005 220.351 313.902 219.443 314.275 218.919C314.654 218.399 318.716 219.206 319.58 219.949C320.412 220.684 321.126 222.029 320.934 222.633Z" fill="url(#paint43_linear_540_351)"/>
<path opacity="0.2" d="M317.836 227.73C317.389 228.594 315.319 227.728 314.064 226.835C313.494 226.439 313.076 226.026 312.799 225.654C313.595 226.237 314.673 226.782 315.774 227.119C316.521 227.34 317.253 227.559 317.836 227.73Z" fill="#DE7553"/>
<path opacity="0.2" d="M319.126 226.304C319.126 226.304 319.122 226.317 319.114 226.32C318.583 226.907 317.67 226.265 317.67 226.265C317.67 226.265 317.7 226.353 317.739 226.479L317.72 226.464C317.72 226.464 316.676 226.102 315.942 225.642C315.206 225.183 314.855 224.593 314.855 224.593C315.88 225.194 318.089 226.022 319.126 226.304Z" fill="#DE7553"/>
<path opacity="0.2" d="M319.899 223.821C319.91 224.042 319.902 224.236 319.8 224.332C319.495 224.65 318.327 224.386 318.327 224.386C318.327 224.386 318.342 224.401 318.365 224.431C317.438 223.986 315.946 223.075 315.583 222.85C316.911 223.556 318.962 223.753 319.899 223.821Z" fill="#DE7553"/>
<path opacity="0.2" d="M320.934 222.633C320.933 222.656 320.919 222.678 320.909 222.695C320.634 223.264 319.648 222.82 319.648 222.82C319.648 222.82 319.673 222.906 319.72 223.031C319.692 223.013 319.653 223 319.622 222.972C318.533 222.27 316.808 221.257 316.389 221.007C317.183 221.389 319.83 222.168 320.934 222.633Z" fill="#DE7553"/>
<path d="M334.734 217.454C334.765 217.824 334.622 218.397 334.222 219.244C333.357 221.071 332.323 222.642 331.466 222.679C331.286 222.688 331.129 222.688 331.002 222.67L330.996 222.672C330.498 222.622 330.408 222.443 330.454 222.265L330.449 222.254C330.46 222.195 330.487 222.131 330.519 222.085C330.302 222.333 329.854 222.721 329.315 222.594C329.252 222.584 329.203 222.563 329.16 222.537C328.642 222.256 329.012 221.279 329.074 221.131C329.063 221.136 329.057 221.139 329.053 221.154C329.042 221.159 329.042 221.159 329.042 221.159C328.885 221.302 328.301 221.808 327.706 221.517C327.695 221.51 327.678 221.499 327.665 221.492C326.959 221.105 327.289 220.262 327.289 220.262C327.289 220.262 327.262 220.274 327.227 220.29L327.218 220.294C327.023 220.381 326.516 220.566 326.11 220.321C326.034 220.28 325.984 220.228 325.926 220.171C325.41 219.609 326.789 215.827 327.68 214.285C328.561 212.737 329.561 213.787 329.764 214.042C329.764 214.042 330.509 213.536 331.279 213.887C332.052 214.244 331.968 215.602 331.968 215.602C331.968 215.602 332.196 215.149 333.161 215.325C334.118 215.505 333.995 216.793 333.995 216.793C334.392 216.808 334.697 216.974 334.734 217.454Z" fill="url(#paint44_linear_540_351)"/>
<path opacity="0.2" d="M329.039 216.856C328.937 217.144 328.158 219.256 327.228 220.289L327.22 220.293C327.025 220.381 326.517 220.565 326.111 220.321C326.659 219.87 327.55 219.089 328.083 218.321C328.671 217.474 328.975 216.971 329.039 216.856Z" fill="#DE7553"/>
<path opacity="0.2" d="M330.823 217.633C330.706 217.93 329.722 220.271 329.055 221.153C329.044 221.158 329.044 221.158 329.044 221.158C328.886 221.3 328.303 221.806 327.707 221.515C328.538 220.972 329.242 220.136 329.784 219.26C330.319 218.411 330.735 217.776 330.823 217.633Z" fill="#DE7553"/>
<path opacity="0.2" d="M332.379 218.641C332.245 218.952 331.133 221.501 330.497 222.2C330.485 222.215 330.463 222.236 330.45 222.253C330.46 222.194 330.488 222.13 330.52 222.083C330.302 222.332 329.854 222.72 329.315 222.592C329.253 222.583 329.204 222.562 329.161 222.536C329.889 221.978 330.709 221.313 331.18 220.394C331.692 219.414 332.258 218.759 332.379 218.641Z" fill="#DE7553"/>
<path opacity="0.2" d="M334.735 217.454C334.765 217.823 334.623 218.397 334.223 219.244C333.357 221.071 332.323 222.642 331.466 222.679C331.286 222.688 331.129 222.688 331.002 222.67C331.751 222.075 332.451 221.307 333.135 220.346C333.69 219.56 334.384 218.168 334.735 217.454Z" fill="#DE7553"/>
<g opacity="0.4">
<path d="M312.83 149.524C310.742 151.199 308.02 153.076 305.006 154.435C304.341 154.735 303.663 155.009 302.968 155.25C296.409 157.533 290.5 154.553 287.729 152.27C287.875 152.226 288.016 152.183 288.127 152.144C288.127 152.144 288.099 152.063 288.07 151.928C290.743 154.127 296.444 157.009 302.811 154.801C306.58 153.493 310.041 151.141 312.562 149.117C312.655 149.258 312.747 149.392 312.83 149.524Z" fill="#874F33"/>
</g>
<g opacity="0.4">
<path d="M307.034 144.293C305.669 145.34 304.123 146.259 302.436 147.019C301.068 147.636 299.608 148.158 298.09 148.552C294.441 149.505 290.784 149.661 288.118 148.997C288.172 148.874 288.242 148.725 288.322 148.553C292.946 149.651 300.877 148.317 306.546 144.067C306.717 144.143 306.874 144.219 307.034 144.293Z" fill="#874F33"/>
</g>
<path d="M196.644 172.97C196.644 172.97 198.16 174.349 200.31 173.443L200.32 173.439C200.421 173.398 200.522 173.343 200.631 173.294C202.949 172.097 203.648 168.737 203.648 168.737C203.333 168.114 200.646 165.865 198.409 167.894C198.407 167.897 198.399 167.904 198.395 167.909C196.172 169.929 196.418 172.309 196.644 172.97Z" fill="white"/>
<path d="M196.644 172.97C196.644 172.97 198.16 174.349 200.31 173.443L200.32 173.438C201.431 172.612 201.88 171.109 201.317 169.778C200.813 168.577 199.624 167.862 198.394 167.908C196.172 169.929 196.418 172.309 196.644 172.97Z" fill="#678244"/>
<path d="M196.644 172.97C196.644 172.97 194.07 169.487 197.392 167.153C200.115 165.25 202.703 166.24 203.66 168.766C203.66 168.766 201.081 165.809 198.385 168.162C196.213 170.05 196.644 172.97 196.644 172.97Z" fill="url(#paint45_linear_540_351)"/>
<path d="M200.472 169.868C200.641 170.273 201.111 170.461 201.521 170.289C201.923 170.12 202.114 169.649 201.944 169.245C201.771 168.838 201.299 168.647 200.898 168.819C200.488 168.991 200.299 169.462 200.472 169.868Z" fill="white"/>
<path opacity="0.5" d="M203.66 168.765C203.66 168.765 201.797 167.057 199.665 168.175C197.534 169.286 196.643 172.969 196.643 172.969C196.643 172.969 195.417 170.832 197.137 168.481C197.137 168.481 200.771 164.469 203.66 168.765Z" fill="#929292"/>
<path d="M192.145 177.064C192.145 177.064 192.077 179.045 189.997 179.93L189.99 179.933C189.887 179.971 189.791 180.014 189.676 180.043C188.925 180.301 188.142 180.291 187.41 180.169C185.808 179.913 184.484 179.066 184.484 179.066C184.278 178.492 184.476 175.649 186.683 174.996C186.905 174.927 187.156 174.873 187.43 174.856C187.441 174.851 187.452 174.855 187.452 174.855C190.356 174.685 191.841 176.46 192.145 177.064Z" fill="white"/>
<path d="M188.778 176.345L188.782 176.354C189.313 177.581 188.958 179.061 187.84 179.9C187.696 180.008 187.554 180.093 187.41 180.169C185.808 179.913 184.484 179.066 184.484 179.066C184.278 178.492 184.476 175.649 186.683 174.996C187.328 175.114 188.12 175.466 188.778 176.345Z" fill="#678244"/>
<path d="M192.149 177.066C192.149 177.066 191.475 172.919 187.611 173.652C184.447 174.252 183.388 176.721 184.489 179.087C184.489 179.087 184.179 175.303 187.637 175.021C190.413 174.791 192.149 177.066 192.149 177.066Z" fill="url(#paint46_linear_540_351)"/>
<path d="M189.865 177.499C190.032 177.889 189.848 178.345 189.455 178.506C189.06 178.678 188.606 178.491 188.439 178.1C188.274 177.705 188.457 177.253 188.852 177.087C189.247 176.918 189.701 177.1 189.865 177.499Z" fill="white"/>
<path opacity="0.5" d="M184.49 179.087C184.49 179.087 184.565 176.644 186.783 175.922C188.996 175.194 192.149 177.066 192.149 177.066C192.149 177.066 191.496 174.766 188.699 174.373C188.699 174.373 183.462 174.187 184.49 179.087Z" fill="#929292"/>
</g>
<defs>
<linearGradient id="paint0_linear_540_351" x1="205.843" y1="205.129" x2="154.252" y2="181.151" gradientUnits="userSpaceOnUse">
<stop stop-color="#F2C8A5"/>
<stop offset="1" stop-color="#F1AB8C"/>
</linearGradient>
<linearGradient id="paint1_linear_540_351" x1="251.378" y1="267.23" x2="223.517" y2="254.281" gradientUnits="userSpaceOnUse">
<stop stop-color="#F2C8A5"/>
<stop offset="1" stop-color="#F1AB8C"/>
</linearGradient>
<linearGradient id="paint2_linear_540_351" x1="169.043" y1="157.446" x2="208.34" y2="186.165" gradientUnits="userSpaceOnUse">
<stop stop-color="#F8905B"/>
<stop offset="1" stop-color="#F8734D"/>
</linearGradient>
<linearGradient id="paint3_linear_540_351" x1="175.143" y1="168.695" x2="193.161" y2="181.863" gradientUnits="userSpaceOnUse">
<stop stop-color="#F8905B"/>
<stop offset="1" stop-color="#F8734D"/>
</linearGradient>
<linearGradient id="paint4_linear_540_351" x1="159.449" y1="246.786" x2="145.719" y2="240.404" gradientUnits="userSpaceOnUse">
<stop stop-color="#F2C8A5"/>
<stop offset="1" stop-color="#F1AB8C"/>
</linearGradient>
<linearGradient id="paint5_linear_540_351" x1="191.929" y1="210.068" x2="225.491" y2="194.934" gradientUnits="userSpaceOnUse">
<stop offset="0.01" stop-color="#E7BA00"/>
<stop offset="1" stop-color="#E7AA00"/>
</linearGradient>
<linearGradient id="paint6_linear_540_351" x1="207.994" y1="195.562" x2="206.703" y2="187.447" gradientUnits="userSpaceOnUse">
<stop stop-color="#F2C8A5"/>
<stop offset="1" stop-color="#F1AB8C"/>
</linearGradient>
<linearGradient id="paint7_linear_540_351" x1="190.206" y1="188.217" x2="202.285" y2="161.204" gradientUnits="userSpaceOnUse">
<stop stop-color="#F2C8A5"/>
<stop offset="1" stop-color="#F1AB8C"/>
</linearGradient>
<linearGradient id="paint8_linear_540_351" x1="145.692" y1="239.701" x2="114.84" y2="225.362" gradientUnits="userSpaceOnUse">
<stop stop-color="#F2C8A5"/>
<stop offset="1" stop-color="#F1AB8C"/>
</linearGradient>
<linearGradient id="paint9_linear_540_351" x1="180.86" y1="347.137" x2="153.057" y2="286.646" gradientUnits="userSpaceOnUse">
<stop stop-color="#003E17"/>
<stop offset="1" stop-color="#0B3531"/>
</linearGradient>
<linearGradient id="paint10_linear_540_351" x1="113.558" y1="201.407" x2="109.303" y2="239.294" gradientUnits="userSpaceOnUse">
<stop offset="0.005" stop-color="#C98727"/>
<stop offset="1" stop-color="#C97E17"/>
</linearGradient>
<linearGradient id="paint11_linear_540_351" x1="208.358" y1="220.139" x2="237.259" y2="245.094" gradientUnits="userSpaceOnUse">
<stop offset="0.01" stop-color="#612241"/>
<stop offset="0.995" stop-color="#531D41"/>
</linearGradient>
<linearGradient id="paint12_linear_540_351" x1="167.975" y1="268.685" x2="147.944" y2="259.376" gradientUnits="userSpaceOnUse">
<stop stop-color="#F2C8A5"/>
<stop offset="1" stop-color="#F1AB8C"/>
</linearGradient>
<linearGradient id="paint13_linear_540_351" x1="210.323" y1="210.044" x2="202.655" y2="161.84" gradientUnits="userSpaceOnUse">
<stop stop-color="#F2C8A5"/>
<stop offset="1" stop-color="#F1AB8C"/>
</linearGradient>
<linearGradient id="paint14_linear_540_351" x1="214.067" y1="166.509" x2="228.409" y2="176.991" gradientUnits="userSpaceOnUse">
<stop stop-color="#F8905B"/>
<stop offset="1" stop-color="#F8734D"/>
</linearGradient>
<linearGradient id="paint15_linear_540_351" x1="221.463" y1="206.785" x2="169.872" y2="182.807" gradientUnits="userSpaceOnUse">
<stop stop-color="#F2C8A5"/>
<stop offset="1" stop-color="#F1AB8C"/>
</linearGradient>
<linearGradient id="paint16_linear_540_351" x1="224.614" y1="215.605" x2="247.415" y2="235.292" gradientUnits="userSpaceOnUse">
<stop offset="0.01" stop-color="#612241"/>
<stop offset="0.995" stop-color="#531D41"/>
</linearGradient>
<linearGradient id="paint17_linear_540_351" x1="204.613" y1="231.064" x2="223.108" y2="247.033" gradientUnits="userSpaceOnUse">
<stop offset="0.01" stop-color="#612241"/>
<stop offset="0.995" stop-color="#531D41"/>
</linearGradient>
<linearGradient id="paint18_linear_540_351" x1="213.917" y1="227.747" x2="233.57" y2="244.716" gradientUnits="userSpaceOnUse">
<stop offset="0.01" stop-color="#612241"/>
<stop offset="0.995" stop-color="#531D41"/>
</linearGradient>
<linearGradient id="paint19_linear_540_351" x1="224.459" y1="221.945" x2="244.169" y2="238.964" gradientUnits="userSpaceOnUse">
<stop offset="0.01" stop-color="#612241"/>
<stop offset="0.995" stop-color="#531D41"/>
</linearGradient>
<linearGradient id="paint20_linear_540_351" x1="266.522" y1="260.509" x2="236.121" y2="246.38" gradientUnits="userSpaceOnUse">
<stop stop-color="#F2C8A5"/>
<stop offset="1" stop-color="#F1AB8C"/>
</linearGradient>
<linearGradient id="paint21_linear_540_351" x1="101.968" y1="212.717" x2="101.637" y2="215.662" gradientUnits="userSpaceOnUse">
<stop offset="0.005" stop-color="#C98727"/>
<stop offset="1" stop-color="#C97E17"/>
</linearGradient>
<linearGradient id="paint22_linear_540_351" x1="107.405" y1="222.962" x2="107.347" y2="223.475" gradientUnits="userSpaceOnUse">
<stop offset="0.005" stop-color="#C98727"/>
<stop offset="1" stop-color="#C97E17"/>
</linearGradient>
<linearGradient id="paint23_linear_540_351" x1="111.656" y1="209.825" x2="111.214" y2="213.754" gradientUnits="userSpaceOnUse">
<stop offset="0.005" stop-color="#C98727"/>
<stop offset="1" stop-color="#C97E17"/>
</linearGradient>
<linearGradient id="paint24_linear_540_351" x1="99.9328" y1="227.109" x2="99.6186" y2="229.907" gradientUnits="userSpaceOnUse">
<stop offset="0.005" stop-color="#C98727"/>
<stop offset="1" stop-color="#C97E17"/>
</linearGradient>
<linearGradient id="paint25_linear_540_351" x1="114.144" y1="217.335" x2="113.953" y2="219.031" gradientUnits="userSpaceOnUse">
<stop offset="0.005" stop-color="#C98727"/>
<stop offset="1" stop-color="#C97E17"/>
</linearGradient>
<linearGradient id="paint26_linear_540_351" x1="118.989" y1="207.649" x2="118.677" y2="210.423" gradientUnits="userSpaceOnUse">
<stop offset="0.005" stop-color="#C98727"/>
<stop offset="1" stop-color="#C97E17"/>
</linearGradient>
<linearGradient id="paint27_linear_540_351" x1="108.754" y1="233.099" x2="108.659" y2="233.944" gradientUnits="userSpaceOnUse">
<stop offset="0.005" stop-color="#C98727"/>
<stop offset="1" stop-color="#C97E17"/>
</linearGradient>
<linearGradient id="paint28_linear_540_351" x1="113.617" y1="225.804" x2="113.555" y2="226.354" gradientUnits="userSpaceOnUse">
<stop offset="0.005" stop-color="#C98727"/>
<stop offset="1" stop-color="#C97E17"/>
</linearGradient>
<linearGradient id="paint29_linear_540_351" x1="99.2009" y1="219.513" x2="98.9629" y2="221.631" gradientUnits="userSpaceOnUse">
<stop offset="0.005" stop-color="#C98727"/>
<stop offset="1" stop-color="#C97E17"/>
</linearGradient>
<linearGradient id="paint30_linear_540_351" x1="106.655" y1="206.84" x2="106.341" y2="209.638" gradientUnits="userSpaceOnUse">
<stop offset="0.005" stop-color="#C98727"/>
<stop offset="1" stop-color="#C97E17"/>
</linearGradient>
<linearGradient id="paint31_linear_540_351" x1="231.965" y1="169.807" x2="231.349" y2="175.295" gradientUnits="userSpaceOnUse">
<stop offset="0.01" stop-color="#E7BA00"/>
<stop offset="1" stop-color="#E7AA00"/>
</linearGradient>
<linearGradient id="paint32_linear_540_351" x1="185.339" y1="198.02" x2="185.002" y2="201.025" gradientUnits="userSpaceOnUse">
<stop offset="0.01" stop-color="#E7BA00"/>
<stop offset="1" stop-color="#E7AA00"/>
</linearGradient>
<linearGradient id="paint33_linear_540_351" x1="321.993" y1="215.528" x2="329.847" y2="237.03" gradientUnits="userSpaceOnUse">
<stop offset="0.01" stop-color="#4290EE"/>
<stop offset="1" stop-color="#2E90C1"/>
</linearGradient>
<linearGradient id="paint34_linear_540_351" x1="321.933" y1="215.779" x2="329.736" y2="237.145" gradientUnits="userSpaceOnUse">
<stop offset="0.01" stop-color="#4290EE"/>
<stop offset="1" stop-color="#2E90C1"/>
</linearGradient>
<linearGradient id="paint35_linear_540_351" x1="304.928" y1="214.216" x2="328.783" y2="179.946" gradientUnits="userSpaceOnUse">
<stop offset="0.005" stop-color="#669905"/>
<stop offset="1" stop-color="#4D8D26"/>
</linearGradient>
<linearGradient id="paint36_linear_540_351" x1="301.677" y1="196.134" x2="316.577" y2="174.728" gradientUnits="userSpaceOnUse">
<stop offset="0.005" stop-color="#669905"/>
<stop offset="1" stop-color="#4D8D26"/>
</linearGradient>
<linearGradient id="paint37_linear_540_351" x1="305.985" y1="214.951" x2="329.695" y2="180.889" gradientUnits="userSpaceOnUse">
<stop offset="0.005" stop-color="#669905"/>
<stop offset="1" stop-color="#4D8D26"/>
</linearGradient>
<linearGradient id="paint38_linear_540_351" x1="334.258" y1="173.96" x2="290.016" y2="153.398" gradientUnits="userSpaceOnUse">
<stop stop-color="#F2C8A5"/>
<stop offset="1" stop-color="#F1AB8C"/>
</linearGradient>
<linearGradient id="paint39_linear_540_351" x1="326.595" y1="191.492" x2="281.51" y2="170.536" gradientUnits="userSpaceOnUse">
<stop stop-color="#F2C8A5"/>
<stop offset="1" stop-color="#F1AB8C"/>
</linearGradient>
<linearGradient id="paint40_linear_540_351" x1="379.281" y1="210.266" x2="226.013" y2="139.033" gradientUnits="userSpaceOnUse">
<stop stop-color="#F2C8A5"/>
<stop offset="1" stop-color="#F1AB8C"/>
</linearGradient>
<linearGradient id="paint41_linear_540_351" x1="341.867" y1="206.725" x2="322.257" y2="197.611" gradientUnits="userSpaceOnUse">
<stop stop-color="#F2C8A5"/>
<stop offset="1" stop-color="#F1AB8C"/>
</linearGradient>
<linearGradient id="paint42_linear_540_351" x1="322.469" y1="221.391" x2="290.958" y2="206.746" gradientUnits="userSpaceOnUse">
<stop stop-color="#F2C8A5"/>
<stop offset="1" stop-color="#F1AB8C"/>
</linearGradient>
<linearGradient id="paint43_linear_540_351" x1="321.173" y1="225.453" x2="312.936" y2="221.625" gradientUnits="userSpaceOnUse">
<stop stop-color="#F2C8A5"/>
<stop offset="1" stop-color="#F1AB8C"/>
</linearGradient>
<linearGradient id="paint44_linear_540_351" x1="335.252" y1="220.542" x2="326.537" y2="216.492" gradientUnits="userSpaceOnUse">
<stop stop-color="#F2C8A5"/>
<stop offset="1" stop-color="#F1AB8C"/>
</linearGradient>
<linearGradient id="paint45_linear_540_351" x1="194.828" y1="171.886" x2="202.423" y2="166.645" gradientUnits="userSpaceOnUse">
<stop offset="0.0051" stop-color="#BE744A"/>
<stop offset="0.1432" stop-color="#B67047"/>
<stop offset="0.3536" stop-color="#A1633F"/>
<stop offset="0.6102" stop-color="#7F5031"/>
<stop offset="0.9006" stop-color="#4F341F"/>
<stop offset="1" stop-color="#3D2A18"/>
</linearGradient>
<linearGradient id="paint46_linear_540_351" x1="193.506" y1="177.422" x2="183.155" y2="175.755" gradientUnits="userSpaceOnUse">
<stop offset="0.0051" stop-color="#BE744A"/>
<stop offset="0.1432" stop-color="#B67047"/>
<stop offset="0.3536" stop-color="#A1633F"/>
<stop offset="0.6102" stop-color="#7F5031"/>
<stop offset="0.9006" stop-color="#4F341F"/>
<stop offset="1" stop-color="#3D2A18"/>
</linearGradient>
<clipPath id="clip0_540_351">
<rect width="433.672" height="346.424" fill="white" transform="translate(-25 178.267) rotate(-24.2717)"/>
</clipPath>
</defs>
</svg>
