<svg width="60" height="199" viewBox="0 0 60 199" fill="none" xmlns="http://www.w3.org/2000/svg">
<path d="M58.5922 195.784C59.268 195.644 59.7018 194.982 59.5609 194.306L57.2661 183.292C57.1253 182.616 56.4633 182.183 55.7874 182.323C55.1116 182.464 54.6779 183.126 54.8187 183.802L56.8585 193.592L47.0688 195.632C46.3929 195.773 45.9592 196.435 46.1 197.11C46.2409 197.786 46.9029 198.22 47.5787 198.079L58.5922 195.784ZM36.105 1L35.0987 0.25844C12.7469 30.5891 2.91274 57.9903 0.803675 82.0616C-1.30543 106.133 4.31872 126.787 12.7436 143.608C21.1638 160.421 32.3826 173.41 41.4856 182.192C46.0393 186.585 50.0697 189.931 52.9662 192.182C54.4146 193.307 55.5801 194.16 56.3864 194.732C56.7895 195.019 57.1029 195.235 57.3171 195.381C57.4241 195.454 57.5064 195.509 57.5627 195.547C57.5908 195.566 57.6124 195.58 57.6274 195.59C57.6349 195.595 57.6407 195.599 57.6448 195.601C57.6469 195.603 57.6488 195.604 57.6498 195.605C57.6512 195.606 57.6522 195.606 58.3372 194.561C59.0222 193.515 59.0224 193.515 59.0221 193.515C59.0215 193.515 59.0208 193.514 59.0195 193.513C59.0169 193.512 59.0126 193.509 59.0066 193.505C58.9948 193.497 58.9763 193.485 58.9513 193.468C58.9013 193.435 58.8255 193.384 58.7249 193.315C58.5237 193.178 58.2236 192.971 57.834 192.694C57.055 192.141 55.9184 191.31 54.5002 190.208C51.6634 188.003 47.7019 184.715 43.2213 180.393C34.2559 171.744 23.2367 158.977 14.9789 142.489C6.72571 126.01 1.23182 105.818 3.29413 82.2798C5.3565 58.7414 14.9832 31.7686 37.1113 1.74156L36.105 1Z" fill="white"/>
</svg>
