<svg width="64" height="65" viewBox="0 0 64 65" fill="none" xmlns="http://www.w3.org/2000/svg">
<rect y="0.200012" width="64" height="64" rx="32" fill="#F59E0B"/>
<path d="M32 20.575C25.5781 20.575 20.375 25.7781 20.375 32.2C20.375 38.6219 25.5781 43.825 32 43.825C38.4219 43.825 43.625 38.6219 43.625 32.2C43.625 25.7781 38.4219 20.575 32 20.575ZM35.75 28.45C36.5797 28.45 37.25 29.1203 37.25 29.95C37.25 30.7797 36.5797 31.45 35.75 31.45C34.9203 31.45 34.25 30.7797 34.25 29.95C34.25 29.1203 34.9203 28.45 35.75 28.45ZM28.25 28.45C29.0797 28.45 29.75 29.1203 29.75 29.95C29.75 30.7797 29.0797 31.45 28.25 31.45C27.4203 31.45 26.75 30.7797 26.75 29.95C26.75 29.1203 27.4203 28.45 28.25 28.45ZM37.3812 36.4281C36.0453 38.0313 34.0859 38.95 32 38.95C29.9141 38.95 27.9547 38.0313 26.6187 36.4281C25.9812 35.6641 27.1344 34.7078 27.7719 35.4672C28.8219 36.7281 30.3594 37.4453 32 37.4453C33.6406 37.4453 35.1781 36.7234 36.2281 35.4672C36.8563 34.7078 38.0141 35.6641 37.3812 36.4281Z" fill="white"/>
</svg>
