<svg width="65" height="65" viewBox="0 0 65 65" fill="none" xmlns="http://www.w3.org/2000/svg">
<rect x="0.5" y="0.199951" width="64" height="64" rx="32" fill="#3B82F6"/>
<path d="M42.3672 24.1234L33.3672 20.3734C33.093 20.2597 32.7991 20.2011 32.5023 20.2011C32.2055 20.2011 31.9117 20.2597 31.6375 20.3734L22.6375 24.1234C21.7984 24.4703 21.25 25.2906 21.25 26.1999C21.25 35.5046 26.6172 41.9359 31.6328 44.0265C32.1859 44.2562 32.8094 44.2562 33.3625 44.0265C37.3797 42.3531 43.75 36.5734 43.75 26.1999C43.75 25.2906 43.2016 24.4703 42.3672 24.1234ZM32.5047 41.1203L32.5 23.2609L40.7453 26.6968C40.5906 33.7937 36.8969 38.9359 32.5047 41.1203Z" fill="white"/>
</svg>
