<svg width="64" height="65" viewBox="0 0 64 65" fill="none" xmlns="http://www.w3.org/2000/svg">
<rect y="0.199951" width="64" height="64" rx="32" fill="#F97316"/>
<path d="M43.4543 26.8467L40.9257 22.8103C40.6998 22.448 40.2985 22.2259 39.8699 22.2259H24.1296C23.7011 22.2259 23.2998 22.448 23.0738 22.8103L20.5452 26.8467C19.24 28.9311 20.3972 31.8298 22.8361 32.161C23.0114 32.1844 23.1907 32.1961 23.3699 32.1961C24.5231 32.1961 25.5439 31.6896 26.2452 30.9064C26.9465 31.6896 27.9712 32.1961 29.1205 32.1961C30.2738 32.1961 31.2946 31.6896 31.9959 30.9064C32.6972 31.6896 33.7218 32.1961 34.8712 32.1961C36.0244 32.1961 37.0452 31.6896 37.7465 30.9064C38.4517 31.6896 39.4725 32.1961 40.6218 32.1961C40.805 32.1961 40.9803 32.1844 41.1556 32.161C43.6024 31.8337 44.7634 28.935 43.4543 26.8467ZM40.6296 33.4467C40.24 33.4467 39.8543 33.3883 39.4803 33.2986V37.187H24.5192V33.2986C24.1452 33.3844 23.7595 33.4467 23.3699 33.4467C23.1361 33.4467 22.8985 33.4311 22.6686 33.3999C22.4504 33.3688 22.2361 33.3181 22.0296 33.2597V40.9272C22.0296 41.6168 22.5868 42.174 23.2764 42.174H40.7309C41.4205 42.174 41.9777 41.6168 41.9777 40.9272V33.2597C41.7673 33.322 41.5569 33.3727 41.3387 33.3999C41.1011 33.4311 40.8673 33.4467 40.6296 33.4467Z" fill="white"/>
</svg>
