<svg width="45" height="46" viewBox="0 0 45 46" fill="none" xmlns="http://www.w3.org/2000/svg">
<path d="M6.09375 32.6094C5.78303 32.6091 5.4851 32.4856 5.26538 32.2659C5.04567 32.0461 4.92212 31.7482 4.92188 31.4375V14.15C4.92188 13.8392 5.04534 13.5411 5.26511 13.3214C5.48488 13.1016 5.78295 12.9781 6.09375 12.9781C6.40455 12.9781 6.70262 13.1016 6.92239 13.3214C7.14216 13.5411 7.26562 13.8392 7.26562 14.15V31.4375C7.26538 31.7482 7.14183 32.0461 6.92212 32.2659C6.7024 32.4856 6.40447 32.6091 6.09375 32.6094ZM38.9062 32.6094C38.5955 32.6091 38.2976 32.4856 38.0779 32.2659C37.8582 32.0461 37.7346 31.7482 37.7344 31.4375V14.15C37.7344 13.8392 37.8578 13.5411 38.0776 13.3214C38.2974 13.1016 38.5954 12.9781 38.9062 12.9781C39.2171 12.9781 39.5151 13.1016 39.7349 13.3214C39.9547 13.5411 40.0781 13.8392 40.0781 14.15V31.4375C40.0779 31.7482 39.9543 32.0461 39.7346 32.2659C39.5149 32.4856 39.217 32.6091 38.9062 32.6094Z" fill="#E97A35"/>
<path d="M39.3103 31.4375H5.69063C5.17618 31.4377 4.68286 31.6421 4.319 32.0058C3.95514 32.3695 3.7505 32.8627 3.75 33.3772V40.7478C3.7505 41.2621 3.95502 41.7552 4.31867 42.1188C4.68232 42.4825 5.1754 42.687 5.68969 42.6875H39.3094C39.8238 42.6872 40.3171 42.4828 40.681 42.1192C41.0449 41.7555 41.2495 41.2623 41.25 40.7478V33.3781C41.2498 32.8637 41.0453 32.3703 40.6817 32.0065C40.318 31.6426 39.8248 31.438 39.3103 31.4375ZM36.0938 38H8.90625C8.65761 38 8.41915 37.9012 8.24334 37.7254C8.06752 37.5496 7.96875 37.3111 7.96875 37.0625C7.96875 36.8139 8.06752 36.5754 8.24334 36.3996C8.41915 36.2238 8.65761 36.125 8.90625 36.125H36.0938C36.3424 36.125 36.5809 36.2238 36.7567 36.3996C36.9325 36.5754 37.0313 36.8139 37.0313 37.0625C37.0313 37.3111 36.9325 37.5496 36.7567 37.7254C36.5809 37.9012 36.3424 38 36.0938 38ZM13.5938 9.58624H4.6875C4.43886 9.58624 4.2004 9.68501 4.02459 9.86083C3.84877 10.0366 3.75 10.2751 3.75 10.5237V10.9025C3.75 12.3322 4.31794 13.7033 5.32888 14.7142C6.33982 15.7252 7.71094 16.2931 9.14063 16.2931C10.5703 16.2931 11.9414 15.7252 12.9524 14.7142C13.9633 13.7033 14.5313 12.3322 14.5313 10.9025V10.5237C14.5313 10.2751 14.4325 10.0366 14.2567 9.86083C14.0808 9.68501 13.8424 9.58624 13.5938 9.58624ZM31.4063 9.58624H22.5C22.2514 9.58624 22.0129 9.68501 21.8371 9.86083C21.6613 10.0366 21.5625 10.2751 21.5625 10.5237V10.9025C21.5625 12.3322 22.1304 13.7033 23.1414 14.7142C24.1523 15.7252 25.5234 16.2931 26.9531 16.2931C28.3828 16.2931 29.7539 15.7252 30.7649 14.7142C31.7758 13.7033 32.3438 12.3322 32.3438 10.9025V10.5237C32.3438 10.2751 32.245 10.0366 32.0692 9.86083C31.8934 9.68501 31.6549 9.58624 31.4063 9.58624Z" fill="#E97A35"/>
<path d="M22.5 9.58624H13.5938C13.3451 9.58624 13.1067 9.68501 12.9308 9.86083C12.755 10.0366 12.6562 10.2751 12.6562 10.5237V10.9025C12.6563 12.3322 13.2242 13.7033 14.2351 14.7142C15.2461 15.7252 16.6172 16.2931 18.0469 16.2931C19.4766 16.2931 20.8477 15.7252 21.8586 14.7142C22.8696 13.7033 23.4375 12.3322 23.4375 10.9025V10.5237C23.4375 10.2751 23.3387 10.0366 23.1629 9.86083C22.9871 9.68501 22.7486 9.58624 22.5 9.58624ZM40.3125 9.58624H31.4063C31.1576 9.58624 30.9192 9.68501 30.7433 9.86083C30.5675 10.0366 30.4688 10.2751 30.4688 10.5237V10.9025C30.4688 12.3322 31.0367 13.7033 32.0476 14.7142C33.0586 15.7252 34.4297 16.2931 35.8594 16.2931C37.2891 16.2931 38.6602 15.7252 39.6711 14.7142C40.6821 13.7033 41.25 12.3322 41.25 10.9025V10.5237C41.25 10.2751 41.1512 10.0366 40.9754 9.86083C40.7996 9.68501 40.5611 9.58624 40.3125 9.58624Z" fill="#E97A35"/>
<path d="M15.6488 3.3125H8.25381L3.87194 10.0597C3.79066 10.2024 3.74828 10.3639 3.74903 10.5281C3.74979 10.6923 3.79365 10.8534 3.87624 10.9953C3.95883 11.1372 4.07724 11.2549 4.21962 11.3367C4.362 11.4185 4.52337 11.4614 4.68756 11.4613H13.5938C13.7977 11.4613 13.9961 11.3949 14.1588 11.2721C14.3216 11.1492 14.4398 10.9767 14.4957 10.7806L16.5507 4.50688C16.5904 4.36736 16.5973 4.22052 16.5706 4.07791C16.544 3.93531 16.4846 3.80083 16.3972 3.68506C16.3098 3.56929 16.1967 3.47538 16.0668 3.41074C15.937 3.34609 15.7939 3.31246 15.6488 3.3125ZM32.3082 10.2669L30.0582 3.3125H21.5626V10.5238C21.5626 10.7724 21.6613 11.0108 21.8371 11.1867C22.013 11.3625 22.2514 11.4613 22.5001 11.4613H31.4063C31.5514 11.4613 31.6945 11.4277 31.8243 11.363C31.9542 11.2984 32.0673 11.2045 32.1547 11.0887C32.2421 10.9729 32.3015 10.8384 32.3281 10.6958C32.3548 10.5532 32.3479 10.4064 32.3082 10.2669Z" fill="#E97A35"/>
<path d="M23.4375 3.3125H14.9419L12.6919 10.2669C12.6521 10.4064 12.6453 10.5532 12.6719 10.6958C12.6986 10.8384 12.7579 10.9729 12.8453 11.0887C12.9328 11.2045 13.0459 11.2984 13.1757 11.363C13.3056 11.4277 13.4487 11.4613 13.5938 11.4613H22.5C22.7486 11.4613 22.9871 11.3625 23.1629 11.1867C23.3387 11.0108 23.4375 10.7724 23.4375 10.5238V3.3125ZM41.1272 10.0597L36.7463 3.3125H29.3513C29.2062 3.31246 29.0631 3.34609 28.9332 3.41074C28.8034 3.47538 28.6903 3.56929 28.6028 3.68506C28.5154 3.80083 28.4561 3.93531 28.4294 4.07791C28.4028 4.22052 28.4096 4.36736 28.4494 4.50688L30.5044 10.7806C30.5602 10.9767 30.6785 11.1492 30.8413 11.2721C31.004 11.3949 31.2024 11.4613 31.4063 11.4613H40.3125C40.4766 11.4613 40.6379 11.4182 40.7801 11.3364C40.9224 11.2545 41.0407 11.1368 41.1231 10.9949C41.2056 10.853 41.2494 10.6919 41.2501 10.5278C41.2508 10.3637 41.2084 10.2023 41.1272 10.0597ZM17.5041 28.3738L19.9453 27.56C20.0193 27.5344 20.085 27.4892 20.1354 27.4292C20.1858 27.3692 20.2189 27.2967 20.2313 27.2193C20.2437 27.142 20.2349 27.0627 20.2059 26.99C20.1768 26.9172 20.1286 26.8537 20.0663 26.8063C19.4616 26.2758 18.9805 25.6194 18.6568 24.8831C18.333 24.1468 18.1744 23.3485 18.1922 22.5444C18.1922 19.6888 20.1206 17.375 22.5 17.375C24.8794 17.375 26.8078 19.6888 26.8078 22.5444C26.8256 23.3485 26.667 24.1468 26.3432 24.8831C26.0195 25.6194 25.5384 26.2758 24.9338 26.8063C24.8715 26.8537 24.8232 26.9172 24.7942 26.99C24.7651 27.0627 24.7563 27.142 24.7687 27.2193C24.7811 27.2967 24.8143 27.3692 24.8646 27.4292C24.915 27.4892 24.9807 27.5344 25.0547 27.56L27.4959 28.3738C28.09 28.5717 28.6338 28.8967 29.0894 29.3263C29.545 29.7558 29.9015 30.2795 30.1341 30.8609L30.6422 32.1313C30.6944 32.2619 30.7138 32.4034 30.6987 32.5434C30.6836 32.6833 30.6345 32.8174 30.5556 32.9339C30.4767 33.0505 30.3704 33.1459 30.2461 33.2119C30.1218 33.2779 29.9832 33.3124 29.8425 33.3125H15.1575C15.0168 33.3124 14.8782 33.2779 14.7539 33.2119C14.6296 33.1459 14.5233 33.0505 14.4444 32.9339C14.3655 32.8174 14.3164 32.6833 14.3013 32.5434C14.2862 32.4034 14.3056 32.2619 14.3578 32.1313L14.8659 30.8609C15.0985 30.2795 15.455 29.7558 15.9106 29.3263C16.3662 28.8967 16.91 28.5717 17.5041 28.3738Z" fill="#E97A35"/>
</svg>
