<svg width="20" height="20" viewBox="0 0 20 20" fill="none" xmlns="http://www.w3.org/2000/svg">
<g clip-path="url(#clip0_204_9)">
<path d="M9.9999 19.6C4.7065 19.6 0.399902 15.2934 0.399902 10C0.399902 4.70662 4.7065 0.400024 9.9999 0.400024C15.2933 0.400024 19.5999 4.70662 19.5999 10C19.5999 15.2934 15.2933 19.6 9.9999 19.6ZM9.9999 1.60002C5.3681 1.60002 1.5999 5.36822 1.5999 10C1.5999 14.6318 5.3681 18.4 9.9999 18.4C14.6317 18.4 18.3999 14.6318 18.3999 10C18.3999 5.36822 14.6317 1.60002 9.9999 1.60002ZM15.3367 12.0684C15.4073 11.9269 15.419 11.7632 15.3693 11.6131C15.3196 11.4629 15.2124 11.3386 15.0713 11.2672C14.9296 11.196 14.7656 11.1834 14.6148 11.2322C14.4639 11.2811 14.3384 11.3873 14.2653 11.528C14.2213 11.6124 13.1555 13.6 9.9999 13.6C6.8519 13.6 5.7837 11.6222 5.7349 11.5288C5.66354 11.3871 5.53881 11.2795 5.38815 11.2298C5.2375 11.18 5.07324 11.1921 4.9315 11.2634C4.86102 11.2987 4.79817 11.3474 4.74653 11.4069C4.6949 11.4665 4.65549 11.5356 4.63057 11.6103C4.60565 11.6851 4.59569 11.764 4.60127 11.8426C4.60686 11.9212 4.62787 11.9979 4.6631 12.0684C4.7191 12.18 6.0741 14.8 9.9999 14.8C13.9257 14.8 15.2807 12.18 15.3367 12.0684ZM12.9999 8.80002C12.3381 8.80002 11.7999 8.26182 11.7999 7.60002C11.7999 6.93822 12.3381 6.40002 12.9999 6.40002C13.6617 6.40002 14.1999 6.93822 14.1999 7.60002C14.1999 8.26182 13.6617 8.80002 12.9999 8.80002ZM6.9999 8.80002C6.3381 8.80002 5.7999 8.26182 5.7999 7.60002C5.7999 6.93822 6.3381 6.40002 6.9999 6.40002C7.6617 6.40002 8.1999 6.93822 8.1999 7.60002C8.1999 8.26182 7.6617 8.80002 6.9999 8.80002Z" fill="black"/>
</g>
<defs>
<clipPath id="clip0_204_9">
<rect width="20" height="20" fill="white"/>
</clipPath>
</defs>
</svg>
