<svg width="299" height="264" viewBox="0 0 299 264" fill="none" xmlns="http://www.w3.org/2000/svg">
<path d="M249.627 42.4432C311.351 40.9344 347.014 185.722 212.588 258.322C91.9782 323.461 -27.0931 159.817 44.1965 100.749C79.5607 71.4485 107.547 102.46 158.904 87.8831C210.262 73.3067 210.461 43.4005 249.627 42.4432Z" fill="#FFDBBC"/>
<path opacity="0.32" d="M284.837 184.459L132.309 257.596C131.381 258.041 130.403 257.085 130.826 256.147L137.526 242.931C137.688 242.572 137.972 242.283 138.328 242.115L268.927 180.407C269.136 180.308 269.37 180.277 269.598 180.319L284.62 182.83C285.146 182.927 286.078 184.014 284.837 184.459Z" fill="#FFAAA3"/>
<path d="M126.093 236.364L129.387 246.503L131.041 251.57L131.872 254.101L132.29 255.364L132.501 255.992L132.704 256.583L132.727 256.65C132.866 257.056 132.65 257.498 132.244 257.637C131.852 257.771 131.427 257.573 131.272 257.195L131.133 256.854L131.009 256.537L130.766 255.912L130.287 254.666L129.337 252.173L127.445 247.187L123.677 237.21C123.427 236.549 123.76 235.81 124.422 235.56C125.084 235.31 125.823 235.644 126.072 236.305C126.079 236.323 126.085 236.34 126.091 236.358L126.093 236.364Z" fill="#F5BC99"/>
<path d="M135.154 233.468L138.635 242.2C138.795 242.6 138.6 243.053 138.2 243.212C137.824 243.362 137.4 243.196 137.218 242.844L132.926 234.481C132.617 233.879 132.854 233.14 133.456 232.831C134.059 232.522 134.797 232.76 135.106 233.362C135.124 233.396 135.14 233.433 135.154 233.468Z" fill="#F5BC99"/>
<path d="M275.013 165.536L284.702 182.902C284.912 183.278 284.777 183.753 284.402 183.963C284.045 184.162 283.597 184.048 283.374 183.714L272.347 167.164C271.868 166.446 272.063 165.475 272.781 164.997C273.5 164.518 274.47 164.712 274.949 165.431C274.971 165.464 274.993 165.501 275.013 165.536Z" fill="#F5BC99"/>
<path d="M267.263 172.847L269.782 179.761C269.929 180.166 269.72 180.614 269.315 180.761C268.945 180.896 268.539 180.733 268.359 180.394L264.904 173.898C264.569 173.267 264.808 172.483 265.439 172.147C266.07 171.812 266.854 172.051 267.19 172.682C267.217 172.734 267.243 172.794 267.263 172.847Z" fill="#F5BC99"/>
<path d="M254.08 118.952C254.08 118.952 235.381 77.9076 220.212 69.4312C205.043 60.9547 177.499 72.2983 148.434 83.2929C119.555 94.217 86.1925 105.869 76.8275 121.257C67.9066 135.917 76.1554 153.479 85.5677 173.467C90.0781 183.045 93.9363 191.393 93.9363 191.393L254.08 118.952Z" fill="#FF948B"/>
<path d="M223.5 71.7123C222.391 70.8044 221.293 70.0352 220.212 69.4312C205.043 60.9547 177.499 72.2983 148.434 83.2929C119.555 94.217 86.1925 105.869 76.8275 121.257C74.2117 125.556 73.0721 130.104 73.0052 134.89L73.2425 133.587C74.2041 130.63 76.472 125.063 80.9098 120.786C95.5068 106.718 183.21 72.9266 208.031 70.6419C215.154 69.9861 223.148 71.8728 223.148 71.8728L223.5 71.7123Z" fill="#FFAFAA"/>
<path d="M261.827 115.186L92.0662 192.37L101.872 213.937L271.633 136.753L261.827 115.186Z" fill="#FF8080"/>
<path d="M101.785 214.077C101.785 214.077 106.241 237.631 122.533 237.123C132.759 236.804 169.506 218.887 205.535 201.924C238.308 186.495 270.789 172.145 276.367 166.989C286.101 157.992 272.211 134.479 272.211 134.479L101.785 214.077Z" fill="#FF948B"/>
<g opacity="0.3">
<path d="M246.418 103.959L245.969 102.877C245.969 102.877 238.981 103.44 236.331 109.96C232.091 120.388 239.112 125.411 239.112 125.411L246.418 103.959Z" fill="#E05E62"/>
<path d="M131.044 175.08C131.044 175.08 128.577 186.931 121.411 193.925C116.027 199.18 111.751 198.173 111.751 198.173L109.65 192.71L131.044 175.08Z" fill="#E05E62"/>
<path d="M102.758 217.284C102.758 217.284 105.841 218.005 108.602 216.253C113.65 213.049 112.155 208.181 112.155 208.181L102.758 217.284Z" fill="#E05E62"/>
<path d="M272.7 135.375C272.7 135.375 272.635 139.022 269.351 140.573C263.655 143.263 261.31 139.934 261.31 139.934L272.7 135.375Z" fill="#E05E62"/>
</g>
<path d="M247.032 103.352C237.146 105.817 236.566 120.308 238.707 124.846C240.647 128.959 257.153 139.522 261.53 139.98C269.377 140.802 279.65 131.46 276.526 120.829C273.753 111.396 260.604 99.9679 247.032 103.352Z" fill="#FF948B"/>
<path d="M87.2741 177.858C81.9185 181.87 80.7811 199.279 82.8503 206.63C87.7144 223.912 105.223 218.561 109.994 212.27C115.38 205.167 113.243 189.071 110.574 183.702C105.985 174.472 92.3961 174.021 87.2741 177.858Z" fill="#FF948B"/>
<path opacity="0.2" d="M270.832 119.488C274.31 122.509 273.771 127.926 270.911 130.849C269.2 132.598 266.335 134.363 264.537 134.603C259.792 135.236 254.436 128.97 258.757 122.753C261.092 119.393 267.235 116.365 270.832 119.488Z" fill="#E05E62"/>
<path d="M250.838 126.63C250.793 126.651 250.744 126.665 250.693 126.67C250.426 126.701 250.185 126.511 250.153 126.244C250.138 126.116 249.805 123.079 251.428 119.732C252.92 116.653 256.418 112.739 264.602 111.582C264.868 111.544 265.114 111.729 265.152 111.995C265.19 112.261 265.005 112.508 264.738 112.545C258.529 113.423 254.353 115.97 252.324 120.115C250.808 123.211 251.117 126.103 251.12 126.131C251.145 126.347 251.025 126.545 250.838 126.63Z" fill="#F87479"/>
<path opacity="0.2" d="M89.886 203.384C94.0412 196.075 104.053 200.681 105.873 203.864C108.289 208.088 105.515 215.948 97.297 215.512C93.1707 215.293 85.9228 210.354 89.886 203.384Z" fill="#E05E62"/>
<path d="M99.829 195.53C99.6874 195.594 99.5176 195.59 99.3748 195.503C99.3243 195.473 96.329 193.742 91.6309 195.348C87.5347 196.748 85.8648 200.674 85.8484 200.713C85.7453 200.961 85.4609 201.079 85.2129 200.977C84.9647 200.875 84.8466 200.591 84.9486 200.343C85.0218 200.165 86.7897 195.973 91.316 194.427C96.4871 192.659 99.7444 194.589 99.8804 194.672C100.11 194.812 100.183 195.111 100.043 195.341C99.9899 195.427 99.9146 195.491 99.829 195.53Z" fill="#F87479"/>
<path d="M266.602 134.457C265.894 134.778 265.209 135.004 264.602 135.085C262.068 135.423 259.342 133.974 257.819 131.479C256.119 128.694 256.316 125.412 258.357 122.475C260.036 120.061 263.242 118.121 266.153 117.757C268.114 117.513 269.842 117.984 271.151 119.121C272.726 120.488 273.642 122.443 273.731 124.625C273.83 127.052 272.905 129.506 271.259 131.19C270.088 132.386 268.283 133.692 266.602 134.457ZM263.541 119.53C261.789 120.326 260.15 121.6 259.157 123.03C257.345 125.637 257.16 128.532 258.65 130.972C259.975 133.143 262.315 134.408 264.473 134.12C266.067 133.908 268.856 132.254 270.563 130.509C272.025 129.014 272.846 126.829 272.758 124.665C272.68 122.753 271.883 121.046 270.512 119.856C269.418 118.905 267.952 118.514 266.274 118.723C265.382 118.835 264.446 119.118 263.541 119.53Z" fill="#F87479"/>
<path d="M102.15 215.17C100.883 215.746 99.2809 216.105 97.2712 215.998C94.598 215.856 90.8307 213.876 89.1533 210.809C88.2477 209.153 87.5665 206.479 89.4631 203.143C91.4114 199.717 94.4406 198.994 96.6388 198.991C100.647 198.986 105.043 201.432 106.296 203.622C107.639 205.972 107.472 209.286 105.88 211.87C105.26 212.876 104.104 214.281 102.15 215.17ZM93.5018 200.611C92.3375 201.14 91.1957 202.064 90.3088 203.624C88.9641 205.989 88.8627 208.249 90.0071 210.342C91.5214 213.111 94.9159 214.899 97.3226 215.026C101.931 215.271 104.143 212.834 105.051 211.359C106.462 209.07 106.623 206.155 105.451 204.105C104.483 202.414 100.57 199.96 96.6396 199.965C95.7017 199.966 94.592 200.115 93.5018 200.611Z" fill="#F87479"/>
<path d="M181.47 84.9463C178.493 85.0712 154.474 99.7258 154.474 99.7258L155.772 102.336C155.772 102.336 180.81 98.8746 187.632 92.7463C190.278 89.3998 184.446 84.8213 181.47 84.9463Z" fill="#6DBB67"/>
<path d="M239.398 126.059C239.213 126.143 238.988 126.105 238.841 125.948C238.717 125.814 235.807 122.556 238.155 112.42C238.721 109.98 239.817 107.88 241.414 106.178C243.648 103.797 246.053 103.061 246.155 103.031C246.412 102.954 246.683 103.1 246.76 103.358C246.837 103.615 246.69 103.887 246.433 103.963C246.395 103.975 244.162 104.672 242.123 106.845C240.646 108.42 239.63 110.369 239.103 112.64C236.871 122.276 239.525 125.255 239.552 125.284C239.736 125.48 239.725 125.788 239.529 125.972C239.489 126.009 239.445 126.038 239.398 126.059Z" fill="#F87479"/>
<path d="M110.813 184.085C110.561 184.196 110.274 184.085 110.166 183.839C110.141 183.784 107.6 178.248 100.128 176.637C91.8216 174.847 87.9172 178.05 87.879 178.083C87.6745 178.257 87.3675 178.232 87.1935 178.028C87.0198 177.824 87.0428 177.518 87.2462 177.343C87.4163 177.198 91.5156 173.786 100.333 175.686C108.311 177.406 110.948 183.201 111.056 183.446C111.164 183.69 111.055 183.975 110.813 184.085Z" fill="#F87479"/>
<path opacity="0.3" d="M206.878 148.564C206.601 148.811 206.308 149.107 206.304 149.478C206.299 149.934 206.765 150.283 207.22 150.319C207.675 150.355 208.114 150.163 208.53 149.977C211.578 148.608 214.626 147.238 217.675 145.869C220.159 144.753 222.702 143.598 224.628 141.672C224.831 141.47 225.032 141.248 225.106 140.971C225.436 139.727 223.561 139.348 222.705 139.437C221.738 139.536 220.848 140.238 219.991 140.648C217.001 142.077 214.013 143.505 211.22 145.3C209.695 146.28 208.231 147.358 206.878 148.564Z" fill="#E05E62"/>
<path d="M217.477 137.827C217.477 137.827 218.549 139.786 218.237 140.58C217.488 142.485 215.278 144.224 216.385 144.556C217.492 144.888 220.744 142.703 221.513 141.909C222.396 140.997 219.528 136.928 219.528 136.928L217.477 137.827Z" fill="white"/>
<path opacity="0.55" d="M209.788 141.323C209.788 141.323 210.859 143.282 210.547 144.076C209.798 145.981 207.588 147.72 208.695 148.052C209.802 148.384 213.054 146.199 213.823 145.405C214.706 144.493 211.839 140.425 211.839 140.425L209.788 141.323Z" fill="white"/>
<path d="M191.187 111.537C191.187 111.537 202.532 132.183 207.32 139.915C208.735 142.2 210.329 142.715 211.213 142.415C212.157 142.094 212.729 140.882 212.304 138.287C211.235 131.753 198.991 107.757 198.991 107.757L191.187 111.537Z" fill="#CA4350"/>
<path d="M203.67 100.012C203.67 100.012 206.311 101.638 207.594 104.408C208.755 106.915 207.998 108.789 207.998 108.789C207.998 108.789 219.419 132.285 220.112 134.35C220.804 136.415 221.357 138.647 219.434 139.544C217.615 140.394 215.862 138.349 214.915 137.498C213.63 136.341 200.786 121.107 200.786 121.107L191.678 111.027L203.67 100.012Z" fill="#D74F58"/>
<path opacity="0.39" d="M199.061 108.715C199.061 108.715 199.705 109.667 200.785 110.583C202.272 111.845 203.59 110.816 203.59 110.816C203.59 110.816 202.937 109.813 202.104 108.624C201.271 107.435 200.693 106.686 200.693 106.686L199.061 108.715Z" fill="#B53A47"/>
<path d="M210.746 132.715C210.669 132.75 210.576 132.732 210.518 132.665C210.453 132.59 203.971 125.076 200.634 121.322C200.563 121.242 200.57 121.119 200.65 121.047C200.731 120.976 200.854 120.983 200.925 121.064C204.263 124.82 210.747 132.335 210.813 132.411C210.883 132.492 210.874 132.615 210.792 132.685C210.778 132.698 210.763 132.708 210.746 132.715Z" fill="#B53A47"/>
<path d="M218.942 138.075C218.794 138.142 218.621 138.077 218.555 137.93C218.51 137.832 214.037 127.981 207.627 117.644C202.975 110.142 200.612 107.066 200.589 107.036C200.49 106.909 200.514 106.725 200.642 106.627C200.768 106.528 200.953 106.552 201.051 106.679C201.075 106.709 203.452 109.803 208.123 117.336C214.554 127.707 219.043 137.591 219.087 137.689C219.153 137.836 219.088 138.009 218.942 138.075Z" fill="#EC717D"/>
<path d="M203.297 111.329C202.764 111.571 201.827 111.731 200.669 110.807C199.545 109.91 198.826 109.008 198.796 108.97C198.696 108.844 198.718 108.661 198.844 108.561C198.97 108.46 199.154 108.481 199.254 108.608C199.261 108.617 199.964 109.497 201.033 110.35C202.436 111.47 203.332 110.64 203.369 110.604C203.485 110.494 203.669 110.495 203.781 110.61C203.893 110.725 203.892 110.908 203.778 111.02C203.773 111.025 203.601 111.19 203.297 111.329Z" fill="#EC717D"/>
<path opacity="0.39" d="M203.919 100.512C203.919 100.512 203.693 107.395 199.023 110.59C195.709 112.857 192.659 111.962 192.659 111.962L203.919 100.512Z" fill="#B53A47"/>
<path opacity="0.32" d="M201.316 234.35C194.369 236.186 190.153 238.024 183.255 239.996C181.066 240.621 178.787 240.972 176.617 241.676C174.147 242.477 171.766 243.569 169.296 244.344C167.168 245.012 164.922 245.639 162.982 246.767C159.174 248.982 155.343 250.733 152.551 254.295C151.461 255.685 150.43 258.378 151.128 260.185C152.852 264.649 157.699 263.068 161.207 261.846C163.16 261.166 165.158 260.563 167.094 259.822C171.642 258.081 176.476 257.174 181.132 255.775C191.531 252.65 197.064 250.953 206.422 245.309C224.179 234.598 204.374 233.542 201.316 234.35Z" fill="#FFAAA3"/>
<path d="M191.807 250.178C191.807 250.178 192.452 249.945 192.959 249.579C194.523 248.637 200.513 238.71 200.461 236.309C200.415 234.202 198.537 234.631 198.537 234.631L191.807 250.178Z" fill="#B35053"/>
<path d="M163.596 257.967C163.596 257.967 164.349 258.936 164.929 258.703C166.674 258.165 176.106 249.208 176.633 246.865C177.096 244.808 175.169 244.773 175.169 244.773L163.596 257.967Z" fill="#B35053"/>
<path d="M169.025 254.617C169.025 254.617 174.216 249.186 175.541 246.911C176.245 245.702 174.313 243.607 174.313 243.607L168.279 244.145L167.373 246.058C167.373 246.058 164.349 251.735 163.238 254.722C162.127 257.709 162.309 258.512 164.298 258.325C166.287 258.138 169.025 254.617 169.025 254.617Z" fill="#FFBF7E"/>
<path opacity="0.84" d="M167.513 246.133C167.513 246.133 167.954 248.13 171.25 247.371C173.584 246.834 174.66 244.435 174.66 244.435L167.513 246.133Z" fill="#EC9A6C"/>
<path d="M190.483 241.786C190.867 240.395 192.578 237.01 192.578 237.01L199.031 235.262C199.031 235.262 199.829 236.252 199.392 237.415C198.756 239.113 196.431 242.798 196.431 242.798C196.431 242.798 193.113 247.799 191.095 247.398C189.077 246.997 189.785 244.315 190.483 241.786Z" fill="#FFBF7E"/>
<path opacity="0.84" d="M192.707 236.936C192.707 236.936 192.928 238.887 194.499 238.91C197.341 238.95 198.96 235.338 198.96 235.338L192.707 236.936Z" fill="#EC9A6C"/>
<path d="M163.056 259.161C162.112 258.607 161.991 255.757 162.436 253.206C162.899 250.562 164.207 248.844 164.207 248.844C164.207 248.844 165.732 248.861 167.369 249.922C169.006 250.984 171.021 253.674 171.021 253.674C171.021 253.674 164.833 260.206 163.056 259.161Z" fill="#C85E61"/>
<path d="M189.609 241.012C189.609 241.012 190.935 240.656 192.997 240.862C195.059 241.069 198.099 242.104 198.099 242.104C198.099 242.104 194.357 250.425 191.058 250.374C186.109 250.296 189.609 241.012 189.609 241.012Z" fill="#C85E61"/>
<path opacity="0.3" d="M173.216 217.201C173.216 217.201 170.892 188.472 170.977 186.261C171.032 184.837 176.88 175.262 176.88 175.262L193.474 207.597L197.162 205.39C197.162 205.39 192.902 181.852 193.75 178.068C193.785 177.912 197.371 170.475 199.522 165.031C201.674 159.584 202.96 154.399 202.96 154.399C202.96 154.399 174.656 151.232 166.258 167.379C157.861 183.526 169.37 218.987 169.37 218.987L173.216 217.201Z" fill="#E05E62"/>
<path d="M157.682 159.057C157.682 159.057 149.201 179.964 149.813 184.581C150.777 191.857 166.74 245.884 166.74 245.884C166.74 245.884 168.406 246.858 170.424 246.389C173.097 245.769 174.359 244.903 174.775 244.233C175.318 243.357 167.427 188.074 167.074 185.734C166.788 183.833 185.185 149.755 185.185 149.755L157.682 159.057Z" fill="url(#paint0_linear_102_13)"/>
<path d="M133.771 114.936C133.771 114.936 140.881 105.998 148.74 101.599C158.657 96.0497 165.901 97.5894 165.901 97.5894C165.901 97.5894 198.129 132.142 197.493 141.512C197.077 147.634 185.855 154.274 178.384 157.924C171.648 161.215 156.773 169.192 151.652 161.228C143.245 148.15 133.771 114.936 133.771 114.936Z" fill="#FFCA60"/>
<path d="M147.228 102.467C151.208 99.9375 155.133 98.7903 155.133 98.7903C155.133 98.7903 156.377 103.961 151.016 107.638C143.683 112.667 139.193 109.017 139.193 109.017C139.193 109.017 143.248 104.996 147.228 102.467Z" fill="white"/>
<path opacity="0.43" d="M174.195 115.252C174.195 115.252 173.987 118.684 176.898 123.008C181.234 129.448 184.745 132.009 184.947 133.017C185.15 134.025 182.522 137.045 180.501 141.463C178.479 145.881 177.506 150.383 177.506 150.383C177.506 150.383 192.153 141.965 191.325 133.182C190.497 124.4 174.195 115.252 174.195 115.252Z" fill="#EEAA43"/>
<path d="M200.182 144.407C200.182 144.407 203.208 152.31 202.864 154.227C201.579 161.374 190.964 176.026 190.647 177.565C190.349 179.01 191.631 185.596 192.647 190.533C193.662 195.47 199.235 235.292 199.235 235.292C199.235 235.292 196.927 237.146 195.285 237.535C193.642 237.923 192.499 236.894 192.499 236.894C192.499 236.894 175.41 195.367 171.664 178.453C171.124 176.015 173.657 165.878 173.657 165.878L177.928 152.387L200.182 144.407Z" fill="#83CBF5"/>
<path d="M182.816 174.295C182.772 174.315 182.723 174.327 182.672 174.329C182.643 174.331 179.677 174.492 177.753 176.564C177.606 176.721 177.36 176.73 177.202 176.584C177.045 176.438 177.036 176.191 177.182 176.034C179.328 173.723 182.504 173.557 182.638 173.551C182.852 173.542 183.035 173.708 183.044 173.923C183.051 174.087 182.956 174.231 182.816 174.295Z" fill="#3FB9F9"/>
<path opacity="0.19" d="M197.016 147.13L190.6 163.488C190.385 164.035 189.962 164.473 189.423 164.707L150.042 181.788L151.362 175.274L158.513 161.276L197.016 147.13Z" fill="#3779A8"/>
<path d="M188.939 163.12L148.838 181.245L157.101 162.585L197.548 143.223L188.939 163.12Z" fill="#4392C2"/>
<path opacity="0.43" d="M142.285 131.085C142.285 131.085 146.244 135.815 148.34 142.81C152.65 157.199 150.118 157.204 150.118 157.204L141.449 143.711L142.285 131.085Z" fill="#EEAA43"/>
<path d="M154.353 186.354C154.192 186.428 153.996 186.383 153.883 186.237C153.753 186.066 153.785 185.822 153.955 185.691C154.043 185.624 156.135 184.036 158.643 183.541C158.854 183.5 159.058 183.637 159.1 183.848C159.141 184.059 159.004 184.264 158.793 184.305C156.462 184.765 154.449 186.294 154.429 186.309C154.405 186.327 154.38 186.342 154.353 186.354Z" fill="#3FB9F9"/>
<path d="M133.787 114.952C133.787 114.952 128.521 121.682 128.235 131.78C127.939 142.216 129.15 150.679 132.82 157.361C142.562 175.094 155.462 166.322 155.462 166.322C155.462 166.322 150.627 160.018 147.016 149.532C143.404 139.045 143.308 132.242 139.983 123.636C136.657 115.03 133.787 114.952 133.787 114.952Z" fill="#FFCA60"/>
<path d="M165.769 97.3918C165.769 97.3918 163.633 100.025 169.402 108.877C175.171 117.729 188.803 131.988 188.846 132.8C188.956 134.875 173.657 152.758 175.875 156.079C180.661 163.246 199.068 149.928 202.583 140.21C204.681 134.409 206.778 121.456 186.462 104.842C175.496 95.8733 165.769 97.3918 165.769 97.3918Z" fill="#FFCA60"/>
<path d="M177.699 150.562C177.618 150.599 177.522 150.599 177.439 150.553C177.297 150.476 177.245 150.299 177.321 150.157C177.338 150.127 178.978 147.127 182.358 142.25C182.942 141.407 183.512 140.592 184.055 139.815C186.329 136.562 188.301 133.74 188.557 132.805C188.264 132.304 186.043 129.764 183.892 127.305C181.718 124.819 179.254 122.001 177.364 119.708C173.204 114.662 171.627 112.437 171.612 112.415C171.519 112.283 171.55 112.101 171.682 112.008C171.815 111.915 171.996 111.946 172.089 112.078C172.104 112.1 173.672 114.312 177.815 119.337C179.699 121.623 182.16 124.437 184.332 126.921C189.049 132.315 189.202 132.562 189.148 132.841C188.961 133.814 187.104 136.471 184.533 140.15C183.991 140.926 183.421 141.741 182.838 142.583C179.477 147.431 177.85 150.407 177.834 150.436C177.803 150.494 177.755 150.537 177.699 150.562Z" fill="#EEAA43"/>
<g opacity="0.65">
<path d="M134.651 130.219C134.277 130.389 133.832 130.24 133.64 129.872C133.604 129.802 132.756 128.145 133.024 126.013C133.077 125.586 133.467 125.283 133.893 125.337C134.32 125.391 134.622 125.78 134.569 126.207C134.363 127.84 135.016 129.142 135.022 129.155C135.217 129.536 135.067 130.006 134.686 130.202C134.675 130.208 134.663 130.214 134.651 130.219Z" fill="#EEAA43"/>
<path d="M132.8 144.922C132.412 145.098 131.953 144.93 131.772 144.542C131.738 144.47 130.949 142.752 131.291 141.052C131.376 140.63 131.786 140.357 132.208 140.442C132.63 140.527 132.903 140.938 132.818 141.359C132.579 142.544 133.177 143.87 133.183 143.883C133.365 144.273 133.196 144.736 132.807 144.918C132.805 144.919 132.802 144.921 132.8 144.922Z" fill="#EEAA43"/>
<path d="M139.331 140.873C138.942 141.05 138.483 140.881 138.303 140.492C138.282 140.447 137.799 139.394 137.639 138.277C137.578 137.852 137.873 137.456 138.299 137.396C138.725 137.335 139.119 137.631 139.18 138.056C139.308 138.942 139.713 139.83 139.717 139.839C139.896 140.229 139.726 140.691 139.335 140.871C139.334 140.872 139.333 140.873 139.331 140.873Z" fill="#EEAA43"/>
<path d="M151.964 129.407C151.91 129.431 151.852 129.45 151.792 129.462C151.37 129.545 150.96 129.271 150.877 128.849C150.807 128.497 150.388 127.231 150.14 126.516C149.999 126.11 150.211 125.664 150.62 125.525C151.027 125.384 151.47 125.6 151.611 126.006C151.68 126.205 152.291 127.974 152.404 128.547C152.476 128.908 152.285 129.26 151.964 129.407Z" fill="#EEAA43"/>
<path d="M155.469 121.032C155.446 121.043 155.422 121.052 155.398 121.06C154.991 121.199 154.549 120.983 154.409 120.576L153.71 118.536C153.571 118.129 153.786 117.689 154.194 117.547C154.601 117.408 155.044 117.625 155.183 118.031L155.882 120.071C156.013 120.454 155.829 120.868 155.469 121.032Z" fill="#EEAA43"/>
<path d="M152.317 143.084C152.291 143.096 152.264 143.107 152.236 143.116C151.827 143.25 151.388 143.027 151.254 142.618C151.225 142.531 150.552 140.466 150.427 139.407C150.376 138.98 150.681 138.593 151.108 138.543C151.536 138.492 151.923 138.798 151.973 139.225C152.062 139.977 152.552 141.58 152.733 142.134C152.858 142.515 152.674 142.922 152.317 143.084Z" fill="#EEAA43"/>
<path d="M164.2 130.682C164.189 130.687 164.178 130.692 164.166 130.696C163.767 130.856 163.314 130.662 163.154 130.263C162.876 129.568 162.331 128.321 162.053 127.937C161.802 127.588 161.881 127.101 162.23 126.85C162.579 126.598 163.066 126.678 163.317 127.027C163.796 127.691 164.519 129.482 164.6 129.684C164.755 130.072 164.576 130.511 164.2 130.682Z" fill="#EEAA43"/>
<path d="M144.588 119.267C144.212 119.438 143.763 119.284 143.573 118.911C143.548 118.862 142.957 117.694 142.791 116.728C142.718 116.304 143.002 115.901 143.426 115.828C143.85 115.756 144.252 116.04 144.325 116.464C144.43 117.071 144.819 117.926 144.961 118.205C145.155 118.588 145.003 119.057 144.619 119.251C144.61 119.257 144.599 119.262 144.588 119.267Z" fill="#EEAA43"/>
<path d="M170.661 124.579C170.323 124.733 169.914 124.627 169.697 124.31L167.798 121.538C167.555 121.183 167.645 120.699 168 120.456C168.356 120.213 168.84 120.303 169.082 120.658L170.982 123.43C171.225 123.784 171.135 124.269 170.78 124.512C170.742 124.538 170.702 124.561 170.661 124.579Z" fill="#EEAA43"/>
<path d="M176.931 138.409C176.916 138.416 176.901 138.422 176.885 138.428C176.484 138.581 176.034 138.38 175.881 137.978C175.612 137.275 175.028 136.007 174.604 135.602C174.293 135.304 174.282 134.812 174.579 134.501C174.876 134.19 175.369 134.179 175.68 134.476C176.495 135.256 177.252 137.204 177.335 137.423C177.483 137.81 177.302 138.24 176.931 138.409Z" fill="#EEAA43"/>
<path d="M183.437 116.615C183.137 116.752 182.77 116.687 182.537 116.428L180.701 114.397C180.413 114.078 180.438 113.586 180.757 113.297C181.076 113.009 181.569 113.034 181.857 113.353L183.693 115.384C183.981 115.703 183.956 116.196 183.637 116.484C183.576 116.539 183.508 116.583 183.437 116.615Z" fill="#EEAA43"/>
<path d="M193.066 119.589C193.063 119.59 193.059 119.592 193.056 119.593C192.662 119.766 192.203 119.587 192.03 119.193C192.026 119.183 191.522 118.061 190.746 117.458C190.406 117.194 190.345 116.704 190.609 116.365C190.873 116.025 191.362 115.964 191.702 116.228C192.793 117.077 193.429 118.507 193.456 118.567C193.628 118.958 193.453 119.413 193.066 119.589Z" fill="#EEAA43"/>
<path d="M192.113 128.386C192.108 128.388 192.104 128.39 192.1 128.391C191.706 128.563 191.247 128.382 191.076 127.988C191.07 127.974 190.495 126.655 189.988 125.905C189.748 125.549 189.841 125.065 190.198 124.824C190.553 124.582 191.038 124.677 191.279 125.034C191.866 125.904 192.478 127.308 192.504 127.367C192.674 127.758 192.498 128.211 192.113 128.386Z" fill="#EEAA43"/>
<path d="M199.842 131.653C199.718 131.71 199.578 131.734 199.434 131.718C199.006 131.67 198.699 131.285 198.747 130.857C198.748 130.849 198.861 129.701 198.376 128.764C198.178 128.383 198.327 127.913 198.709 127.715C199.088 127.518 199.561 127.667 199.758 128.048C200.465 129.414 200.301 130.966 200.294 131.031C200.262 131.314 200.083 131.544 199.842 131.653Z" fill="#EEAA43"/>
<path d="M191.841 141.425C191.615 141.528 191.344 141.521 191.116 141.383C190.747 141.161 190.629 140.683 190.851 140.315C190.856 140.307 191.37 139.439 191.507 138.573C191.574 138.148 191.973 137.858 192.397 137.925C192.822 137.992 193.112 138.391 193.045 138.815C192.86 139.988 192.212 141.073 192.184 141.118C192.1 141.258 191.979 141.362 191.841 141.425Z" fill="#EEAA43"/>
</g>
<path d="M146.821 148.633C146.817 148.635 146.813 148.637 146.809 148.638C146.659 148.698 146.489 148.626 146.429 148.477C146.393 148.387 145.535 146.238 144.323 141.46C143.703 139.015 143.288 137.054 142.887 135.158C142.488 133.271 142.111 131.49 141.553 129.295C141.513 129.139 141.607 128.979 141.764 128.94C141.92 128.901 142.079 128.995 142.119 129.151C142.68 131.357 143.058 133.144 143.458 135.036C143.858 136.927 144.272 138.882 144.889 141.316C146.091 146.056 146.962 148.237 146.97 148.258C147.029 148.404 146.962 148.569 146.821 148.633Z" fill="#EEAA43"/>
<path d="M168.15 106.947C168.015 107.009 167.853 106.959 167.777 106.829C167.69 106.68 165.635 103.15 165.227 100.355C164.877 97.962 165.423 97.296 165.536 97.1867C165.653 97.0748 165.837 97.0779 165.949 97.1936C166.058 97.3067 166.058 97.4852 165.951 97.5978C165.928 97.6267 165.503 98.203 165.805 100.27C166.196 102.952 168.26 106.498 168.281 106.534C168.363 106.673 168.316 106.852 168.177 106.933C168.168 106.939 168.159 106.943 168.15 106.947Z" fill="#FFE4C0"/>
<path d="M139.865 123.307C139.858 123.31 139.85 123.313 139.843 123.316C139.691 123.37 139.524 123.291 139.469 123.14C139.453 123.095 137.822 118.604 135.525 116.352C134.565 115.41 133.721 115.138 133.712 115.136C133.559 115.087 133.473 114.924 133.52 114.77C133.568 114.617 133.73 114.53 133.884 114.578C133.924 114.59 134.864 114.886 135.934 115.935C138.327 118.281 139.951 122.753 140.019 122.942C140.071 123.086 140.002 123.244 139.865 123.307Z" fill="#FFE4C0"/>
<path d="M146.14 92.6868C146.388 93.4733 147.795 95.985 149.216 97.8395C150.637 99.6943 152.118 100.475 152.118 100.475C152.118 100.475 152.744 102.645 150.371 105.276C148.706 107.122 145.487 107.888 145.487 107.888L141.099 100.32C141.099 100.32 145.893 91.9004 146.14 92.6868Z" fill="#FCB072"/>
<path opacity="0.84" d="M147.099 97.043C147.099 97.043 150.085 100.942 149.093 103.999C148.34 106.323 144.979 107.105 144.979 107.105L147.099 97.043Z" fill="#EC9A6C"/>
<path d="M121.983 99.2902C121.983 99.2902 134.645 115.608 144.368 108.789C151.748 103.613 145.422 91.0846 145.422 91.0846C145.422 91.0846 148.258 87.9194 144.588 84.4198C142.096 82.0432 140.167 85.8414 140.167 85.8414C140.167 85.8414 134.794 78.8803 127.959 81.9387C119.165 85.8738 121.983 99.2902 121.983 99.2902Z" fill="#FFBF7E"/>
<path opacity="0.84" d="M142.466 87.2895C142.465 87.6163 143.786 89.1534 144.11 87.9169C144.502 86.4224 142.468 85.9737 142.466 87.2895Z" fill="#EC9A6C"/>
<path d="M133.62 100.871C133.377 101.304 134.893 102.62 135.122 102.91C135.859 103.841 135.122 104.143 135.376 104.844C135.731 105.824 136.943 105.321 137.265 104.598C137.886 103.206 136.137 102.012 135.276 101.27C135.016 101.046 133.98 100.231 133.62 100.871Z" fill="url(#paint1_linear_102_13)"/>
<path d="M135.775 90.3079C134.864 90.44 133.875 90.9777 133.294 91.7567C133.028 92.1134 133.157 92.836 133.941 92.6635C134.835 92.4664 135.222 91.4991 135.94 90.9831C136.404 90.6497 136.215 90.2437 135.775 90.3079Z" fill="#6B3D49"/>
<path d="M142.721 104.202C142.589 104.262 142.43 104.216 142.352 104.09C142.267 103.953 142.309 103.773 142.446 103.688C143.181 103.232 143.613 102.659 143.695 102.032C143.764 101.51 143.573 101.037 143.367 100.819C143.257 100.702 143.262 100.517 143.379 100.406C143.497 100.296 143.681 100.301 143.792 100.419C144.077 100.721 144.374 101.344 144.274 102.107C144.201 102.671 143.877 103.488 142.754 104.184C142.743 104.191 142.732 104.197 142.721 104.202Z" fill="#BF4146"/>
<path d="M124.004 102.562C123.323 102.071 125.006 99.7354 125.724 100.371C126.291 100.872 124.744 103.096 124.004 102.562Z" fill="#6B3D49"/>
<path opacity="0.84" d="M122.246 99.618L122.652 100.1C122.652 100.1 124.66 100.292 126.296 98.3035C128.502 95.6226 128.017 92.3661 128.017 92.3661C128.017 92.3661 128.334 95.3791 130.594 93.6189C132.853 91.8588 133.962 87.4836 133.962 87.4836C133.962 87.4836 134.225 88.4546 136.183 88.4743C138.142 88.4941 140.111 86.3321 140.111 86.3321C140.111 86.3321 133.219 78.5104 127.032 82.6896C120.844 86.8688 122.246 99.618 122.246 99.618Z" fill="#EC9A6C"/>
<path d="M149.208 97.7665C149.208 97.7665 156.357 89.7607 146.272 75.3281C140.058 66.4359 131.192 68.7941 131.192 68.7941C131.192 68.7941 136.024 66.7944 132.271 65.1018C128.519 63.409 126.007 69.2191 126.007 69.2191C126.007 69.2191 126.525 63.8009 123.904 64.116C120.459 64.5299 121.559 71.9634 121.559 71.9634C121.559 71.9634 118.56 68.1501 116.358 69.543C114.636 70.6318 117.75 73.8315 117.75 73.8315C117.75 73.8315 114.87 72.279 110.739 74.4881C106.172 76.9305 104.624 80.8131 106.081 82.554C107.539 84.2949 111.205 82.6571 111.205 82.6571C111.205 82.6571 107.835 87.1659 107.618 91.3427C107.4 95.5196 108.303 98.9887 110.335 99.3641C112.816 99.8223 114.768 95.4903 114.768 95.4903C114.768 95.4903 114.798 96.5091 115.334 97.9311C115.871 99.3535 117.897 101.715 120.563 100.649C125.969 98.4886 127.331 87.8511 127.331 87.8511C127.331 87.8511 127.9 91.633 130.319 90.485C133.237 89.0992 133.103 84.1949 133.103 84.1949C133.103 84.1949 134.191 85.295 135.866 86.0353C138.657 87.2684 140.111 86.3315 140.111 86.3315C140.111 86.3315 140.504 84.5139 141.959 83.9203C143.224 83.4039 145.268 84.3242 146.108 86.832C146.947 89.34 145.425 91.0277 145.425 91.0277C145.425 91.0277 146.107 92.7661 147.076 94.4341C148.046 96.103 149.208 97.7665 149.208 97.7665Z" fill="#6B3D49"/>
<path opacity="0.3" d="M119.367 90.646C118.261 91.6327 117.505 94.2196 117.762 95.6343C117.975 96.8022 119.312 97.8516 120.435 96.9819C121.768 95.9499 122.582 93.2601 122.208 91.6457C121.874 90.2045 120.462 89.6689 119.367 90.646Z" fill="#3D262A"/>
<path opacity="0.3" d="M110.58 88.9247C110.363 89.1366 109.546 90.333 109.416 90.8684C109.248 91.5584 109.334 93.1488 110.473 92.5161C111.222 92.0996 111.723 90.7725 111.921 89.9554C112.16 88.972 111.311 88.2142 110.58 88.9247Z" fill="#3D262A"/>
<path d="M124.644 86.3664C124.441 86.459 124.223 86.515 123.991 86.523C123.525 86.5391 123.146 86.3902 122.863 86.0802C122.474 85.6525 122.354 84.9983 122.327 84.4843C121.287 86.142 118.365 90.2793 115.385 89.7818C114.597 89.6501 114.049 89.2391 113.758 88.5598C113.109 87.047 113.953 84.4672 115.075 82.808C116.616 80.5315 119.049 79.835 119.152 79.8066C119.258 79.7771 119.368 79.8394 119.398 79.9455C119.427 80.0516 119.365 80.1598 119.259 80.1913C119.235 80.1977 116.862 80.8807 115.406 83.0318C114.342 84.6035 113.532 87.0199 114.125 88.4026C114.359 88.9489 114.805 89.2804 115.451 89.3881C118.814 89.9494 122.336 83.695 122.372 83.6318C122.418 83.5479 122.517 83.5096 122.608 83.5393C122.699 83.5692 122.756 83.6592 122.744 83.7542C122.742 83.7682 122.572 85.1693 123.159 85.812C123.362 86.0341 123.629 86.1361 123.977 86.1243C125.591 86.0676 126.499 82.9318 126.509 82.8999C126.539 82.7938 126.649 82.7323 126.755 82.7624C126.861 82.7926 126.923 82.9028 126.893 83.0088C126.858 83.1324 126.113 85.6983 124.644 86.3664Z" fill="#3B2127"/>
<path d="M114.928 96.1189C114.909 96.1273 114.889 96.133 114.868 96.1354C114.758 96.148 114.659 96.0693 114.647 95.9598C114.635 95.8581 114.376 93.4404 115.695 90.9791C115.747 90.8818 115.868 90.8452 115.966 90.8974C116.063 90.9494 116.099 91.0705 116.047 91.1676C114.787 93.5203 115.041 95.8909 115.044 95.9147C115.054 96.0026 115.004 96.084 114.928 96.1189Z" fill="#3B2127"/>
<path d="M127.41 88.0166C127.386 88.0277 127.359 88.034 127.33 88.0343C127.22 88.0357 127.13 87.9475 127.128 87.8371C127.127 87.748 127.108 85.6349 127.603 84.2891C127.641 84.1856 127.756 84.1326 127.859 84.1708C127.962 84.2087 128.015 84.3236 127.977 84.4269C127.507 85.7042 127.527 87.8113 127.527 87.8324C127.528 87.914 127.48 87.9848 127.41 88.0166Z" fill="#3B2127"/>
<path d="M111.429 82.7614C111.368 82.7889 111.296 82.7855 111.236 82.7466C111.144 82.6861 111.119 82.5623 111.179 82.4702C111.265 82.3395 113.337 79.2404 117.913 77.0049C118.016 76.9578 118.132 76.9992 118.18 77.0966C118.228 77.1957 118.187 77.3152 118.088 77.3635C113.616 79.5482 111.533 82.6583 111.513 82.6894C111.491 82.722 111.462 82.7463 111.429 82.7614Z" fill="#3B2127"/>
<path d="M125.213 71.6053C125.178 71.6212 125.138 71.6274 125.097 71.6204C124.988 71.6018 124.915 71.4992 124.933 71.3906C124.94 71.3512 125.104 70.4088 125.83 69.1684C125.886 69.0733 126.008 69.0412 126.103 69.097C126.199 69.1527 126.231 69.2748 126.175 69.37C125.489 70.5423 125.329 71.4479 125.327 71.457C125.316 71.5249 125.271 71.5788 125.213 71.6053Z" fill="#3B2127"/>
<path d="M131.432 68.8889C130.427 69.3458 129.173 69.7394 129.099 69.7628C128.993 69.7955 128.882 69.7369 128.849 69.6316C128.816 69.5265 128.873 69.4166 128.98 69.3817C129.005 69.3738 131.528 68.5821 132.217 67.9862C132.3 67.9137 132.426 67.9235 132.498 68.0067C132.57 68.09 132.561 68.2161 132.478 68.2881C132.252 68.4838 131.865 68.6921 131.432 68.8889Z" fill="#3B2127"/>
<path d="M133.799 73.988C133.743 74.0135 133.676 74.0128 133.618 73.9802C133.608 73.9747 132.582 73.412 131.687 73.9659C131.592 74.0222 131.47 73.9942 131.412 73.9007C131.354 73.8069 131.383 73.6839 131.477 73.626C132.579 72.9492 133.764 73.6048 133.814 73.6331C133.911 73.6875 133.944 73.8093 133.89 73.905C133.868 73.9427 133.836 73.9711 133.799 73.988Z" fill="#3B2127"/>
<path d="M138.937 79.5605C138.867 79.592 138.783 79.5824 138.722 79.529C138.715 79.5228 138.013 78.9141 137.309 78.8781C137.199 78.8726 137.114 78.7787 137.12 78.6688C137.126 78.5589 137.22 78.4735 137.329 78.4796C138.174 78.5225 138.953 79.2004 138.986 79.2292C139.069 79.3021 139.077 79.4279 139.004 79.5106C138.984 79.5326 138.961 79.5492 138.937 79.5605Z" fill="#3B2127"/>
<path d="M142.885 76.3961C142.792 76.4383 142.681 76.4037 142.629 76.3133C142.626 76.3081 142.295 75.7428 141.668 75.4908C141.566 75.4496 141.517 75.3335 141.558 75.2312C141.599 75.1293 141.715 75.0792 141.817 75.1207C142.576 75.426 142.96 76.0876 142.976 76.1157C143.031 76.2115 142.997 76.3332 142.901 76.3879C142.896 76.3906 142.891 76.3936 142.885 76.3961Z" fill="#3B2127"/>
<path d="M147.334 83.6233C147.329 83.6258 147.322 83.6283 147.316 83.6304C147.212 83.6664 147.099 83.6108 147.063 83.5069C147.059 83.4975 146.724 82.5538 145.792 81.9281C145.7 81.8665 145.676 81.7427 145.737 81.6512C145.799 81.5601 145.923 81.5352 146.014 81.5968C147.061 82.3002 147.425 83.3335 147.44 83.3772C147.474 83.4749 147.427 83.5812 147.334 83.6233Z" fill="#3B2127"/>
<path d="M122.603 84.3121C122.573 84.3258 122.539 84.3323 122.504 84.3293C122.394 84.3198 122.313 84.2233 122.322 84.1137C122.328 84.0384 122.49 82.2618 123.563 81.3257C123.645 81.2527 123.772 81.2619 123.844 81.3449C123.917 81.4277 123.908 81.5539 123.825 81.6265C122.872 82.4579 122.721 84.1306 122.72 84.1475C122.713 84.2217 122.667 84.2832 122.603 84.3121Z" fill="#3B2127"/>
<path d="M122.57 76.9473C122.498 76.98 122.41 76.968 122.349 76.9097C122.27 76.8334 122.267 76.707 122.343 76.6276C122.385 76.5841 123.38 75.5558 124.686 75.1241C124.79 75.0896 124.903 75.1463 124.938 75.2512C124.972 75.3555 124.917 75.4702 124.811 75.5032C123.603 75.9019 122.641 76.8938 122.632 76.9038C122.613 76.9224 122.593 76.9372 122.57 76.9473Z" fill="#3B2127"/>
<path d="M132.271 78.5307C132.254 78.5385 132.235 78.544 132.216 78.5468C131.366 78.6672 130.451 79.0661 130.441 79.0703C130.34 79.1144 130.223 79.0687 130.178 78.9678C130.135 78.8676 130.179 78.751 130.278 78.7058C130.32 78.6874 131.254 78.2799 132.16 78.1516C132.269 78.1361 132.37 78.2121 132.386 78.3212C132.398 78.4109 132.349 78.4951 132.271 78.5307Z" fill="#3B2127"/>
<path d="M110.257 78.7559C110.214 78.7751 110.165 78.7799 110.118 78.7655C110.014 78.7345 109.953 78.6272 109.982 78.5222C109.994 78.4798 110.297 77.4796 112.381 77.1586C112.49 77.1419 112.592 77.2167 112.608 77.3254C112.625 77.4341 112.551 77.5362 112.442 77.553C110.641 77.8307 110.368 78.6249 110.366 78.633C110.348 78.6897 110.307 78.733 110.257 78.7559Z" fill="#3B2127"/>
<path opacity="0.4" d="M141.905 90.8088C143.115 92.3871 142.205 95.2056 139.872 97.1044C137.539 99.0032 134.666 99.2627 133.456 97.6845C132.245 96.1062 133.155 93.2874 135.488 91.3889C137.821 89.4904 140.694 89.2306 141.905 90.8088Z" fill="#EC9A6C"/>
<path opacity="0.4" d="M131.63 100.568C132.883 102.012 132.305 104.619 130.338 106.39C128.37 108.162 125.759 108.426 124.505 106.982C123.252 105.537 123.83 102.93 125.798 101.159C127.765 99.3874 130.376 99.1227 131.63 100.568Z" fill="#EC9A6C"/>
<path d="M138.294 98.4307C137.286 98.8895 136.25 99.0889 135.328 98.9805C134.432 98.8756 133.705 98.4889 133.224 97.8622C131.92 96.1623 132.853 93.1569 135.304 91.1623C136.786 89.9562 138.554 89.3391 140.033 89.5128C140.928 89.6177 141.655 90.0045 142.136 90.6312C143.44 92.331 142.507 95.3363 140.056 97.3308C139.499 97.7843 138.901 98.1546 138.294 98.4307ZM137.313 90.5903C136.75 90.8462 136.194 91.1913 135.672 91.6155C133.464 93.4124 132.574 96.0552 133.688 97.5069C134.07 98.0055 134.661 98.3146 135.396 98.4009C136.721 98.5564 138.325 97.9869 139.688 96.8783C141.896 95.0814 142.786 92.4387 141.672 90.987C141.29 90.4885 140.7 90.1794 139.965 90.0932C139.146 89.997 138.221 90.1772 137.313 90.5903Z" fill="white"/>
<path d="M132.073 101.35C132.03 101.369 131.983 101.379 131.933 101.375C131.772 101.364 131.65 101.225 131.662 101.064C131.801 99.0425 134.232 98.1875 134.335 98.1526C134.488 98.1004 134.654 98.1816 134.706 98.3342C134.759 98.4867 134.675 98.6541 134.525 98.7051C134.503 98.7122 132.357 99.4716 132.244 101.104C132.236 101.215 132.168 101.307 132.073 101.35Z" fill="white"/>
<mask id="mask0_102_13" style="mask-type:luminance" maskUnits="userSpaceOnUse" x="135" y="92" width="6" height="6">
<path d="M139.877 92.7738C139.057 92.0103 137.62 91.9559 135.872 93.6041C134.767 94.6454 135.081 96.6099 135.929 97.1075C136.778 97.6053 137.834 97.0344 138.87 95.9241C140.233 94.462 140.698 93.5374 139.877 92.7738Z" fill="white"/>
</mask>
<g mask="url(#mask0_102_13)">
<path d="M139.877 92.7738C139.057 92.0103 137.62 91.9559 135.872 93.6041C134.767 94.6454 135.081 96.6099 135.929 97.1075C136.778 97.6053 137.834 97.0344 138.87 95.9241C140.233 94.462 140.698 93.5374 139.877 92.7738Z" fill="white"/>
</g>
<mask id="mask1_102_13" style="mask-type:luminance" maskUnits="userSpaceOnUse" x="135" y="92" width="6" height="6">
<path d="M139.877 92.7738C139.057 92.0103 137.62 91.9559 135.872 93.6041C134.767 94.6454 135.081 96.6099 135.929 97.1075C136.778 97.6053 137.834 97.0344 138.87 95.9241C140.233 94.462 140.698 93.5374 139.877 92.7738Z" fill="white"/>
</mask>
<g mask="url(#mask1_102_13)">
<path opacity="0.18" d="M135.435 96.4925C135.435 96.4925 135.531 95.2746 136.571 94.265C138.539 92.3551 139.918 92.8137 139.918 92.8137C139.918 92.8137 138.529 91.2595 136.184 93.3124C134.488 94.7982 135.435 96.4925 135.435 96.4925Z" fill="#3B2127"/>
</g>
<mask id="mask2_102_13" style="mask-type:luminance" maskUnits="userSpaceOnUse" x="135" y="92" width="6" height="6">
<path d="M139.877 92.7738C139.057 92.0103 137.62 91.9559 135.872 93.6041C134.767 94.6454 135.081 96.6099 135.929 97.1075C136.778 97.6053 137.834 97.0344 138.87 95.9241C140.233 94.462 140.698 93.5374 139.877 92.7738Z" fill="white"/>
</mask>
<g mask="url(#mask2_102_13)">
<path d="M138.126 97.0815C138.97 96.6975 139.361 95.7391 138.998 94.9407C138.635 94.1422 137.656 93.8062 136.811 94.1902C135.967 94.5741 135.577 95.5326 135.94 96.331C136.303 97.1294 137.282 97.4654 138.126 97.0815Z" fill="#6B3D49"/>
</g>
<mask id="mask3_102_13" style="mask-type:luminance" maskUnits="userSpaceOnUse" x="135" y="92" width="6" height="6">
<path d="M139.877 92.7738C139.057 92.0103 137.62 91.9559 135.872 93.6041C134.767 94.6454 135.081 96.6099 135.929 97.1075C136.778 97.6053 137.834 97.0344 138.87 95.9241C140.233 94.462 140.698 93.5374 139.877 92.7738Z" fill="white"/>
</mask>
<g mask="url(#mask3_102_13)">
<path opacity="0.15" d="M138.282 93.8525C138.504 94.3404 138.266 94.9262 137.75 95.1608C137.233 95.3955 136.635 95.1901 136.413 94.7022C136.191 94.214 136.43 93.6284 136.946 93.3938C137.462 93.1593 138.06 93.3645 138.282 93.8525Z" fill="white"/>
</g>
<mask id="mask4_102_13" style="mask-type:luminance" maskUnits="userSpaceOnUse" x="135" y="92" width="6" height="6">
<path d="M139.877 92.7738C139.057 92.0103 137.62 91.9559 135.872 93.6041C134.767 94.6454 135.081 96.6099 135.929 97.1075C136.778 97.6053 137.834 97.0344 138.87 95.9241C140.233 94.462 140.698 93.5374 139.877 92.7738Z" fill="white"/>
</mask>
<g mask="url(#mask4_102_13)">
<path opacity="0.25" d="M137.973 95.9666C138.114 96.2756 137.963 96.6466 137.636 96.7952C137.309 96.9437 136.93 96.8137 136.79 96.5046C136.649 96.1956 136.8 95.8246 137.127 95.676C137.454 95.5274 137.833 95.6575 137.973 95.9666Z" fill="white"/>
</g>
<path d="M139.795 92.8625C139.296 92.4751 138.656 92.3732 138.073 92.5227C137.78 92.5933 137.498 92.7189 137.23 92.8705C137.1 92.9567 136.965 93.0317 136.843 93.1317L136.654 93.2722L136.474 93.4261C136.351 93.5245 136.244 93.6434 136.128 93.7521C136.018 93.8647 135.916 93.9697 135.83 94.092C135.654 94.3312 135.516 94.5951 135.44 94.88C135.282 95.4482 135.365 96.0862 135.645 96.6483C135.68 96.7166 135.653 96.7961 135.588 96.8287C135.532 96.8567 135.466 96.8413 135.427 96.7952C134.975 96.2536 134.781 95.4855 134.928 94.7601C135.004 94.3995 135.158 94.0542 135.375 93.7599C135.429 93.6861 135.482 93.6115 135.544 93.5458C135.604 93.4793 135.663 93.4057 135.727 93.3501C135.854 93.2332 135.972 93.1083 136.11 93.001C136.369 92.7711 136.664 92.5778 136.972 92.4061C137.285 92.2418 137.625 92.1173 137.982 92.0573C138.337 91.9977 138.713 92.0114 139.059 92.1211C139.405 92.2312 139.723 92.4238 139.96 92.6851C140.005 92.7348 140.002 92.8117 139.952 92.857C139.908 92.8972 139.841 92.8981 139.795 92.8625Z" fill="#5F3441"/>
<mask id="mask5_102_13" style="mask-type:luminance" maskUnits="userSpaceOnUse" x="125" y="102" width="6" height="4">
<path d="M125.773 103.441C125.773 103.441 127.987 101.217 129.54 102.417C131.42 103.871 128.766 105.907 128.766 105.907C128.766 105.907 127.983 106.099 126.944 105.131C126.234 104.471 125.773 103.441 125.773 103.441Z" fill="white"/>
</mask>
<g mask="url(#mask5_102_13)">
<path d="M125.773 103.441C125.773 103.441 127.987 101.217 129.54 102.417C131.42 103.871 128.766 105.907 128.766 105.907C128.766 105.907 127.983 106.099 126.944 105.131C126.234 104.471 125.773 103.441 125.773 103.441Z" fill="white"/>
</g>
<mask id="mask6_102_13" style="mask-type:luminance" maskUnits="userSpaceOnUse" x="125" y="102" width="6" height="4">
<path d="M125.773 103.441C125.773 103.441 127.987 101.217 129.54 102.417C131.42 103.871 128.766 105.907 128.766 105.907C128.766 105.907 127.983 106.099 126.944 105.131C126.234 104.471 125.773 103.441 125.773 103.441Z" fill="white"/>
</mask>
<g mask="url(#mask6_102_13)">
<path opacity="0.18" d="M126.253 104.289C126.253 104.289 126.988 103.31 127.778 102.837C128.778 102.24 129.351 102.296 129.351 102.296C129.351 102.296 128.536 101.7 127.279 102.363C126.434 102.808 125.771 103.435 125.771 103.435C125.771 103.435 125.84 103.598 125.962 103.827C126.083 104.056 126.253 104.289 126.253 104.289Z" fill="#3B2127"/>
</g>
<mask id="mask7_102_13" style="mask-type:luminance" maskUnits="userSpaceOnUse" x="125" y="102" width="6" height="4">
<path d="M125.773 103.441C125.773 103.441 127.987 101.217 129.54 102.417C131.42 103.871 128.766 105.907 128.766 105.907C128.766 105.907 127.983 106.099 126.944 105.131C126.234 104.471 125.773 103.441 125.773 103.441Z" fill="white"/>
</mask>
<g mask="url(#mask7_102_13)">
<path d="M129.825 104.236C130.188 105.035 129.798 105.993 128.954 106.377C128.109 106.761 127.13 106.425 126.767 105.627C126.404 104.828 126.795 103.87 127.639 103.486C128.483 103.102 129.462 103.438 129.825 104.236Z" fill="#6B3D49"/>
</g>
<mask id="mask8_102_13" style="mask-type:luminance" maskUnits="userSpaceOnUse" x="125" y="102" width="6" height="4">
<path d="M125.773 103.441C125.773 103.441 127.987 101.217 129.54 102.417C131.42 103.871 128.766 105.907 128.766 105.907C128.766 105.907 127.983 106.099 126.944 105.131C126.234 104.471 125.773 103.441 125.773 103.441Z" fill="white"/>
</mask>
<g mask="url(#mask8_102_13)">
<path opacity="0.15" d="M128.978 102.732C129.2 103.22 128.961 103.805 128.445 104.04C127.929 104.275 127.331 104.069 127.109 103.581C126.887 103.093 127.126 102.507 127.642 102.273C128.158 102.038 128.756 102.244 128.978 102.732Z" fill="white"/>
</g>
<mask id="mask9_102_13" style="mask-type:luminance" maskUnits="userSpaceOnUse" x="125" y="102" width="6" height="4">
<path d="M125.773 103.441C125.773 103.441 127.987 101.217 129.54 102.417C131.42 103.871 128.766 105.907 128.766 105.907C128.766 105.907 127.983 106.099 126.944 105.131C126.234 104.471 125.773 103.441 125.773 103.441Z" fill="white"/>
</mask>
<g mask="url(#mask9_102_13)">
<path opacity="0.25" d="M128.733 104.86C128.874 105.169 128.722 105.54 128.396 105.688C128.069 105.837 127.69 105.707 127.55 105.398C127.409 105.089 127.56 104.718 127.887 104.569C128.214 104.421 128.593 104.55 128.733 104.86Z" fill="white"/>
</g>
<path d="M125.571 103.239C125.832 102.956 126.108 102.724 126.414 102.508C126.719 102.294 127.049 102.11 127.408 101.972C127.587 101.903 127.776 101.851 127.97 101.816C128.164 101.78 128.366 101.763 128.569 101.784C128.771 101.802 128.973 101.856 129.155 101.948C129.335 102.043 129.493 102.169 129.614 102.322C129.656 102.376 129.647 102.454 129.593 102.496C129.558 102.523 129.514 102.529 129.475 102.516L129.466 102.512C129.303 102.454 129.152 102.405 129 102.376C128.849 102.347 128.698 102.342 128.548 102.345C128.246 102.351 127.939 102.437 127.642 102.56C127.345 102.688 127.055 102.852 126.777 103.038C126.501 103.223 126.223 103.434 125.975 103.642L125.964 103.651C125.844 103.753 125.663 103.737 125.562 103.616C125.469 103.505 125.475 103.343 125.571 103.239Z" fill="#5F3441"/>
<path d="M140.002 89.9966C139.971 90.0103 139.939 90.0189 139.904 90.0216C139.743 90.0342 139.602 89.9143 139.59 89.7537C139.576 89.5835 139.271 85.5745 140.206 84.158C140.558 83.6251 140.968 83.317 141.424 83.2429C141.992 83.1503 142.407 83.4691 142.424 83.4826C142.551 83.5821 142.574 83.7655 142.475 83.8926C142.375 84.0193 142.192 84.0418 142.065 83.9428C142.057 83.9373 141.824 83.766 141.51 83.8206C141.225 83.8705 140.95 84.0924 140.694 84.4799C140.009 85.5171 140.085 88.6052 140.172 89.7077C140.182 89.8335 140.11 89.9472 140.002 89.9966Z" fill="white"/>
<path d="M130.223 106.669C131.367 107.482 132.561 108.225 133.82 108.834C135.077 109.442 136.404 109.917 137.777 110.125C138.463 110.229 139.158 110.267 139.847 110.222C140.536 110.175 141.218 110.044 141.874 109.831C142.531 109.619 143.161 109.324 143.75 108.963C144.341 108.6 144.892 108.18 145.374 107.687C146.344 106.706 147.013 105.452 147.354 104.112C147.705 102.771 147.755 101.36 147.643 99.9715C147.526 98.5801 147.243 97.2019 146.859 95.8547C146.473 94.507 145.986 93.1875 145.419 91.904C145.375 91.8059 145.42 91.6908 145.518 91.6473C145.616 91.6037 145.731 91.6479 145.774 91.7464C146.349 93.0455 146.841 94.3811 147.232 95.7483C147.622 97.1153 147.909 98.5165 148.029 99.9398C148.143 101.36 148.093 102.813 147.728 104.209C147.549 104.907 147.285 105.585 146.939 106.22C146.591 106.853 146.156 107.441 145.648 107.956C145.143 108.474 144.563 108.915 143.951 109.29C143.337 109.666 142.679 109.975 141.993 110.197C141.306 110.419 140.591 110.555 139.872 110.605C139.152 110.651 138.429 110.611 137.72 110.503C136.297 110.287 134.936 109.797 133.654 109.178C132.37 108.556 131.16 107.801 130.002 106.979C129.917 106.919 129.897 106.8 129.957 106.714C130.018 106.629 130.137 106.609 130.223 106.669Z" fill="#FFDDC3"/>
<path d="M128.852 107.715C128.067 108.072 127.249 108.245 126.488 108.197C125.58 108.142 124.818 107.787 124.285 107.173C122.93 105.611 123.52 102.816 125.602 100.941C126.799 99.8636 128.311 99.2686 129.646 99.3511C130.555 99.4074 131.317 99.7614 131.85 100.376C133.205 101.937 132.614 104.733 130.533 106.607C130.018 107.071 129.444 107.446 128.852 107.715ZM127.528 100.363C126.989 100.608 126.466 100.95 125.993 101.375C124.146 103.038 123.578 105.467 124.726 106.79C125.154 107.284 125.776 107.569 126.525 107.615C127.707 107.688 129.059 107.149 130.142 106.173C131.989 104.511 132.557 102.082 131.409 100.759C130.981 100.266 130.359 99.9807 129.611 99.9345C128.944 99.8932 128.224 100.046 127.528 100.363Z" fill="white"/>
<path d="M176.344 155.627C176.344 155.627 171.214 154.426 169.426 156.529C167.638 158.632 165.971 163.907 168.154 163.894C169.367 163.887 170.003 161.428 172.123 160.423C174.244 159.419 175.685 160.53 177.284 159.654C178.882 158.778 178.518 156.921 178.518 156.921L176.344 155.627Z" fill="#FFBF7E"/>
<path d="M189.314 161.733L146.474 181.211L125.781 160.522C124.857 159.134 126.123 158.215 126.809 157.903L165.141 140.475C165.752 140.197 166.469 140.315 166.958 140.774L189.314 161.733Z" fill="#4891BF"/>
<path d="M188.939 163.12L146.099 182.598L126.082 161.045C125.569 160.494 125.748 159.602 126.434 159.29L164.766 141.862C165.376 141.584 166.094 141.702 166.583 142.161L188.939 163.12Z" fill="#3779A8"/>
<path d="M89.8582 182.002C88.2516 174.474 101.532 159.705 105.878 158.361C114.533 155.687 129.47 168.282 131.204 172.265C132.939 176.247 121.142 194.796 113.249 195.373C108.565 195.716 104.356 193.395 100.27 191.181C95.1166 188.39 90.5507 185.248 89.8582 182.002Z" fill="#FFDFB7"/>
<path d="M95.2557 185.451C95.0935 185.525 94.9 185.524 94.7319 185.431C94.4495 185.276 94.3465 184.92 94.5022 184.638C94.9529 183.82 105.639 164.55 114.179 160.235C114.465 160.089 114.818 160.205 114.963 160.493C115.109 160.781 114.993 161.132 114.706 161.277C106.487 165.43 95.6339 185.004 95.5253 185.201C95.462 185.316 95.366 185.401 95.2557 185.451Z" fill="#FF87A7"/>
<path d="M103.142 190.389C102.993 190.456 102.818 190.462 102.658 190.389C102.364 190.255 102.235 189.909 102.369 189.615C102.72 188.843 111.09 170.615 119.929 163.345C120.179 163.14 120.546 163.176 120.751 163.424C120.956 163.673 120.92 164.042 120.671 164.246C112.038 171.346 103.516 189.913 103.431 190.1C103.371 190.233 103.266 190.333 103.142 190.389Z" fill="#FF87A7"/>
<path d="M111.578 193.298C111.424 193.369 111.24 193.371 111.076 193.29C110.787 193.146 110.67 192.796 110.813 192.507C111.116 191.898 118.327 177.504 126.553 170.394C126.797 170.183 127.166 170.21 127.377 170.453C127.588 170.697 127.561 171.066 127.317 171.277C119.27 178.233 111.932 192.88 111.859 193.027C111.797 193.152 111.696 193.245 111.578 193.298Z" fill="#FF87A7"/>
<path d="M113.637 196.252C113.577 196.279 113.511 196.295 113.441 196.295C113.349 196.296 111.138 196.304 106.712 194.81C100.336 192.658 90.801 186.204 89.707 183.3C88.111 179.064 89.884 175.821 89.9604 175.685C90.0917 175.45 90.3885 175.367 90.623 175.498C90.8571 175.629 90.9407 175.925 90.8098 176.16C90.7829 176.209 89.1926 179.174 90.6182 182.957C91.5162 185.341 100.633 191.73 107.023 193.887C111.266 195.319 113.411 195.322 113.432 195.322C113.7 195.32 113.92 195.536 113.922 195.804C113.924 196.003 113.807 196.175 113.637 196.252Z" fill="#F87479"/>
<path d="M202.019 95.308C196.907 88.1305 183.378 83.9525 180.983 84.2268C180.369 84.2973 179.449 84.5559 178.192 86.5406C176.935 88.525 176.806 90.0837 176.806 90.0837C176.806 90.0837 176.71 93.436 178.254 96.9348C179.797 100.433 185.667 107.325 189.008 110.063C192.849 113.21 195.823 112.482 200.663 106.934C204.092 103.004 205.275 99.8802 202.019 95.308Z" fill="white"/>
<path d="M178.178 86.5091C177.368 87.6978 176.949 89.3225 176.949 89.3225C176.949 89.3225 178.319 90.1114 179.865 87.7383C181.297 85.5401 180.185 84.454 180.185 84.454C180.185 84.454 179.456 84.6367 178.178 86.5091Z" fill="#76D372"/>
<path opacity="0.35" d="M183.317 96.1487C183.317 96.1487 184.912 98.0498 184.412 99.6972C183.654 102.19 182.296 102.961 182.296 102.961L180.497 100.658L183.317 96.1487Z" fill="#6DBB67"/>
<path d="M176.655 81.3518C176.655 81.3518 177.056 83.2782 178.091 84.2668C179.126 85.2556 179.61 85.2003 179.61 85.2003C179.61 85.2003 179.879 85.8054 179.192 87.0275C178.517 88.2297 177.731 88.5069 177.731 88.5069C177.731 88.5069 177.423 88.1485 176.915 88.0675C176.408 87.9866 175.624 88.1278 175.624 88.1278L176.655 81.3518Z" fill="#FCB072"/>
<path opacity="0.84" d="M176.952 83.8844C176.952 83.8844 178.055 85.5275 177.65 86.7116C177.312 87.7011 176.562 88.0363 176.562 88.0363L175.879 88.0308L176.952 83.8844Z" fill="#EC9A6C"/>
<path d="M155.223 88.6001C155.223 88.6001 157.281 90.2696 158.435 91.2615C159.452 92.1358 164.388 100.179 173.529 91.3053C179.688 85.3276 176.155 79.2563 176.155 79.2563C176.155 79.2563 177.187 74.8348 174.571 73.7809C172.469 72.9343 172.073 75.4621 172.073 75.4621C172.073 75.4621 163.59 70.7434 157.949 74.9348C153.698 78.0933 155.223 88.6001 155.223 88.6001Z" fill="#FFBF7E"/>
<path d="M166.973 84.2903C166.951 84.0198 166.954 83.7658 166.972 83.5014C166.991 83.239 167.024 82.9733 167.098 82.7059C167.169 82.4422 167.278 82.1576 167.473 81.9115C167.662 81.6707 167.882 81.4874 168.108 81.3328C168.56 81.0248 169.039 80.8116 169.486 80.6066C169.597 80.5552 169.704 80.5039 169.798 80.4535L169.862 80.4167L169.907 80.3881C169.936 80.3662 169.966 80.3427 169.998 80.3149C170.126 80.206 170.265 80.0271 170.406 79.8731L170.444 79.8312C170.554 79.7102 170.742 79.7016 170.863 79.8119C170.935 79.8779 170.967 79.9735 170.958 80.0641C170.939 80.2282 170.902 80.3583 170.841 80.4981C170.779 80.6339 170.7 80.768 170.589 80.8906C170.534 80.9521 170.47 81.0102 170.4 81.0637C170.363 81.0888 170.323 81.1161 170.288 81.1376L170.188 81.1913C170.061 81.256 169.941 81.3097 169.825 81.36C169.362 81.5621 168.918 81.7429 168.532 81.9808C168.342 82.0998 168.166 82.2285 168.038 82.3737C167.913 82.5128 167.818 82.6941 167.741 82.9051C167.588 83.323 167.514 83.8136 167.477 84.2783L167.476 84.2901C167.465 84.4295 167.344 84.5333 167.204 84.5222C167.079 84.5124 166.982 84.412 166.973 84.2903Z" fill="#BD5556"/>
<path d="M161.493 89.6909C161.225 89.824 160.954 89.9815 160.71 90.1531C160.588 90.239 160.47 90.3288 160.368 90.4223L160.295 90.4927L160.233 90.563L160.185 90.629L160.138 90.7151C160.014 90.9488 159.955 91.2334 159.921 91.5186C159.887 91.8009 159.866 92.1081 159.856 92.3782L159.855 92.4135L159.85 92.4524L159.845 92.478C159.842 92.494 159.839 92.509 159.835 92.5226C159.828 92.5514 159.819 92.5767 159.81 92.6028C159.789 92.6528 159.767 92.7013 159.739 92.7454C159.684 92.834 159.615 92.9117 159.535 92.9706C159.456 93.0298 159.369 93.0731 159.283 93.0989C159.196 93.1235 159.111 93.1337 159.027 93.1256C158.89 93.1126 158.79 92.9916 158.803 92.8552C158.808 92.81 158.824 92.7691 158.849 92.7346L158.887 92.6823C158.922 92.6331 158.955 92.5973 158.977 92.5584C159.003 92.5235 159.016 92.488 159.03 92.4606C159.039 92.43 159.047 92.4053 159.051 92.3824C159.053 92.3709 159.055 92.3605 159.055 92.351C159.055 92.3468 159.057 92.3422 159.056 92.34C159.054 92.3427 159.054 92.3407 159.053 92.3557L159.052 92.3908C159.046 92.0293 159.089 91.7049 159.18 91.3683C159.272 91.0365 159.402 90.7079 159.6 90.3965L159.678 90.2812C159.71 90.2407 159.743 90.199 159.776 90.1613L159.878 90.0602L159.981 89.9718C160.119 89.8606 160.259 89.7666 160.401 89.679C160.687 89.5064 160.97 89.3591 161.271 89.2169C161.402 89.1551 161.558 89.211 161.62 89.3417C161.681 89.4707 161.627 89.6246 161.5 89.6881L161.493 89.6909Z" fill="#BD5556"/>
<path opacity="0.32" d="M172.231 80.8564C171.776 80.9279 171.405 81.5782 171.293 82.01C171.22 82.2922 171.442 82.7591 171.786 82.7065C172.521 82.5945 173.33 80.6834 172.231 80.8564Z" fill="#EE547D"/>
<path d="M165.054 88.2303C164.542 88.5682 165.19 89.0129 165.312 89.4666C165.427 89.8968 164.719 90.5621 165.539 90.7873C165.724 90.838 165.931 90.8046 166.094 90.7006C167.524 89.7869 165.532 87.9141 165.054 88.2303Z" fill="url(#paint2_linear_102_13)"/>
<path d="M173.155 86.8869C173.056 86.9318 172.936 86.9195 172.847 86.8454C172.723 86.7422 172.706 86.5581 172.809 86.4342C173.5 85.6041 172.985 84.3692 172.98 84.3569C172.916 84.2083 172.985 84.0449 173.134 83.9737C173.282 83.9104 173.453 83.9793 173.517 84.1276C173.544 84.1915 174.175 85.7064 173.258 86.8077C173.229 86.8428 173.193 86.8694 173.155 86.8869Z" fill="#BF4146"/>
<path opacity="0.84" d="M173.772 75.6007C173.06 76.1613 173.841 77.9217 174.723 77.2596C175.479 76.6926 174.628 74.9277 173.772 75.6007Z" fill="#EC9A6C"/>
<path opacity="0.84" d="M155.568 88.9027L156.185 89.3553C156.185 89.3553 157.069 88.9547 157.434 88.2054C157.799 87.4563 157.899 86.5276 157.899 86.5276C157.899 86.5276 158.936 86.9533 160.226 85.7179C161.937 84.0778 162.188 81.5227 162.188 81.5227C162.188 81.5227 163.173 82.0227 164.774 81.0492C166.811 79.8111 167.628 76.3628 167.628 76.3628C167.628 76.3628 168.271 77.1932 169.432 77.0222C171.141 76.7701 172.212 75.3664 172.212 75.3664C172.212 75.3664 166.189 70.129 158.842 75.8477C151.144 81.8392 155.568 88.9027 155.568 88.9027Z" fill="#EC9A6C"/>
<path opacity="0.32" d="M160.802 93.6605C160.789 93.427 161.297 93.2597 161.466 93.2751C162.06 93.3295 162.519 93.9161 162.169 94.5707C162.169 94.5707 161.83 94.3921 161.487 94.1655C161.146 93.9411 160.802 93.6605 160.802 93.6605Z" fill="#EE547D"/>
<path d="M166.73 79.865C166.232 79.7895 165.54 80.1198 165.257 80.5341C165.103 80.7611 164.923 81.3879 165.388 81.4026C165.941 81.4198 167.76 80.0211 166.73 79.865Z" fill="#4A4F64"/>
<path d="M158.618 88.2889C158.073 88.4926 157.757 89.116 157.697 89.7299C157.662 90.0907 157.823 90.5323 158.26 90.3389C158.649 90.1665 159.025 89.291 159.055 88.8833C159.075 88.6126 158.945 88.1665 158.618 88.2889Z" fill="#4A4F64"/>
<path d="M178.247 84.3977C178.247 84.3977 180.251 84.0483 180.767 82.0477C181.523 79.1196 179.245 76.204 179.245 76.204C179.245 76.204 180.368 76.4442 180.732 74.7074C180.959 73.6212 180.619 70.2885 177.198 66.4522C174.378 63.2893 169.543 61.9748 169.543 61.9748C169.543 61.9748 171.238 60.7082 169.264 59.8001C167.055 58.783 165.358 61.1614 165.358 61.1614C165.358 61.1614 163.484 56.9634 161.862 57.6644C160.555 58.2294 161.823 61.007 161.823 61.007C161.823 61.007 158.428 59.0844 155.654 60.5662C153.331 61.8072 156.399 63.4033 156.399 63.4033C156.399 63.4033 152.132 63.3817 148.21 65.7449C143.543 68.5564 143.811 71.2799 144.85 71.9407C146.207 72.8039 147.966 72.1329 147.966 72.1329C147.966 72.1329 142.116 77.3393 144.948 80.5155C145.98 81.6732 148.131 79.9443 148.131 79.9443C148.131 79.9443 147.92 81.1914 147.824 83.0001C147.728 84.8089 149.245 90.0838 152.555 90.3915C156.809 90.7867 156.984 84.7755 156.984 84.7755C156.984 84.7755 157.829 85.9801 159.16 84.6836C161.091 82.804 161.77 79.7293 161.77 79.7293C161.77 79.7293 162.636 80.9195 164.12 79.7623C166.341 78.03 166.795 74.1266 166.795 74.1266C166.795 74.1266 167.317 75.2553 168.59 75.6788C169.863 76.1022 172.242 75.4494 172.242 75.4494C172.242 75.4494 172.588 72.7947 174.637 73.9181C176.964 75.1944 176.139 79.1767 176.139 79.1767C176.139 79.1767 176.644 80.1512 176.884 81.3311C177.081 82.2924 177.159 82.9707 177.159 82.9707C177.159 82.9707 177.337 83.3095 177.627 83.7334C177.88 84.1039 178.247 84.3977 178.247 84.3977Z" fill="#4A4F64"/>
<path d="M158.96 75.5658C158.824 75.6275 158.683 75.6739 158.539 75.703C158.083 75.794 157.694 75.7008 157.384 75.4255C156.852 74.9541 156.672 74.0264 156.617 73.2893C155.968 74.8407 154.492 77.6449 152.324 77.6195C151.69 77.6125 150.879 76.6113 150.516 75.388C150.172 74.2285 149.778 71.2607 153.533 68.7588C153.623 68.6993 153.743 68.7233 153.803 68.8129C153.862 68.9025 153.838 69.0231 153.749 69.0828C150.209 71.4409 150.57 74.2005 150.889 75.2774C151.241 76.4638 151.976 77.2265 152.328 77.2304C154.976 77.2605 156.603 72.2278 156.619 72.1769C156.649 72.0831 156.744 72.0259 156.842 72.0447C156.938 72.0634 157.006 72.152 156.999 72.2507C156.997 72.2723 156.843 74.4265 157.642 75.1347C157.859 75.3271 158.128 75.3884 158.462 75.3215C160.528 74.9086 161.622 70.0962 161.633 70.0478C161.656 69.9429 161.76 69.8764 161.865 69.9C161.97 69.9234 162.036 70.0274 162.013 70.1323C161.97 70.3275 160.985 74.6447 158.96 75.5658Z" fill="#383D4D"/>
<path d="M161.908 80.0539C161.829 80.0895 161.734 80.0699 161.677 80.0001C161.61 79.9188 160.054 77.9787 161.088 75.7468C161.134 75.6489 161.249 75.6071 161.347 75.6518C161.444 75.6971 161.487 75.8129 161.442 75.9105C160.511 77.9172 161.964 79.7353 161.978 79.7535C162.046 79.8368 162.034 79.9593 161.951 80.0273C161.937 80.0382 161.923 80.047 161.908 80.0539Z" fill="#383D4D"/>
<path d="M157.059 84.8399C156.976 84.8778 156.874 84.8524 156.82 84.775C156.795 84.7406 154.414 81.2984 157.06 78.3493C157.132 78.2687 157.255 78.2625 157.335 78.3345C157.415 78.4061 157.421 78.5292 157.35 78.6092C154.914 81.3249 157.046 84.4199 157.138 84.5502C157.2 84.6379 157.179 84.7596 157.091 84.8215C157.081 84.8288 157.07 84.8349 157.059 84.8399Z" fill="#383D4D"/>
<path d="M148.075 80.6499C148.035 80.6679 147.99 80.673 147.945 80.6609C147.841 80.6334 147.779 80.5268 147.806 80.423C147.835 80.3143 148.534 77.7455 150.521 76.3209C150.609 76.2574 150.73 76.2783 150.792 76.3657C150.855 76.4531 150.835 76.5746 150.748 76.6373C148.877 77.9788 148.189 80.4975 148.183 80.523C148.167 80.5815 148.126 80.6266 148.075 80.6499Z" fill="#383D4D"/>
<path d="M147.688 72.6507C147.608 72.687 147.511 72.6657 147.454 72.5938C147.388 72.5093 147.403 72.3871 147.487 72.3205C147.524 72.2914 148.409 71.5974 149.117 71.1817C149.214 71.1253 149.329 71.1585 149.383 71.2512C149.438 71.3439 149.407 71.4633 149.314 71.5177C148.629 71.9196 147.737 72.6197 147.728 72.6266C147.715 72.6361 147.702 72.6443 147.688 72.6507Z" fill="#383D4D"/>
<path d="M163.306 62.3692C163.223 62.4072 163.121 62.3817 163.067 62.3037C163.062 62.2976 162.619 61.6753 161.701 61.1164C161.61 61.0604 161.581 60.9406 161.637 60.8487C161.693 60.7574 161.812 60.7279 161.904 60.7838C162.896 61.3884 163.366 62.0525 163.386 62.0805C163.447 62.1685 163.426 62.2897 163.338 62.3511C163.327 62.3584 163.317 62.3643 163.306 62.3692Z" fill="#383D4D"/>
<path d="M158.79 63.9819C158.738 64.0053 158.677 64.0062 158.622 63.979C157.68 63.5091 156.396 63.5702 156.384 63.5708C156.276 63.5766 156.185 63.4941 156.179 63.3867C156.174 63.2794 156.257 63.1883 156.364 63.1822C156.42 63.1791 157.763 63.1155 158.796 63.6308C158.892 63.6787 158.931 63.7956 158.883 63.8919C158.862 63.9332 158.829 63.9641 158.79 63.9819Z" fill="#383D4D"/>
<path opacity="0.5" d="M149.734 82.0926C149.468 83.0328 149.573 84.1278 149.935 84.9954C150.002 85.1572 150.083 85.3197 150.215 85.4352C150.379 85.5787 150.604 85.6326 150.822 85.6402C151.294 85.6564 151.77 85.4677 152.103 85.132C153.077 84.1498 153.578 81.169 152.218 80.3228C151.283 79.7412 150.325 80.7617 149.943 81.542C149.857 81.717 149.788 81.9016 149.734 82.0926Z" fill="#383D4D"/>
<path opacity="0.5" d="M164.485 70.2084C164.497 70.2845 164.513 70.3582 164.532 70.4292C164.676 70.9513 165.148 71.1547 165.653 71.0106C166.537 70.7581 166.889 69.896 166.921 69.0514C166.946 68.3901 166.744 67.39 165.861 67.6022C164.833 67.849 164.331 69.2127 164.485 70.2084Z" fill="#383D4D"/>
<path opacity="0.5" d="M157.738 66.5972C157.549 66.7857 157.38 66.994 157.241 67.2293C157.033 67.5802 156.918 68.0039 157.011 68.4009C157.116 68.8484 157.489 69.1923 157.959 69.1735C158.208 69.1635 158.446 69.0704 158.669 68.9607C159.172 68.7141 159.628 68.376 160.011 67.9679C160.355 67.6004 160.647 67.1568 160.711 66.6573C160.833 65.6997 160.062 65.0348 159.204 65.5433C158.688 65.8485 158.163 66.1731 157.738 66.5972Z" fill="#383D4D"/>
<path d="M162.512 94.5989C163.425 95.0773 164.445 95.3442 165.469 95.348C166.494 95.3537 167.511 95.1141 168.456 94.7149C170.354 93.9067 171.995 92.5859 173.47 91.1448C174.201 90.4196 174.876 89.6331 175.418 88.76C175.969 87.8936 176.386 86.945 176.651 85.9561C177.176 83.9726 176.985 81.8243 176.197 79.9241C176.173 79.865 176.201 79.7969 176.26 79.7724C176.319 79.748 176.386 79.7755 176.411 79.8337C176.829 80.8003 177.096 81.8329 177.195 82.8848C177.291 83.9371 177.204 85.0062 176.945 86.0318C176.815 86.5449 176.638 87.0453 176.425 87.5286C176.212 88.0123 175.964 88.4806 175.68 88.9249C175.123 89.8222 174.432 90.6267 173.687 91.3664C172.935 92.0955 172.141 92.7826 171.292 93.3998C170.441 94.0129 169.534 94.561 168.555 94.956C167.579 95.3516 166.525 95.586 165.465 95.5638C164.406 95.5361 163.362 95.2358 162.443 94.727C162.408 94.7079 162.395 94.6638 162.414 94.6286C162.433 94.5937 162.477 94.5809 162.512 94.5989Z" fill="#FFDDC3"/>
<path opacity="0.43" d="M157.36 109.462C157.36 109.462 156.816 112.004 154.149 112.216C150.912 112.473 150.273 108.291 150.273 108.291L157.36 109.462Z" fill="#EEAA43"/>
<path d="M156.645 106.961C156.645 106.961 155.851 106.011 154.787 105.572C153.723 105.132 152.39 104.75 152.307 105.051C152.149 105.624 153.884 106.247 153.636 106.507C153.128 107.043 150.376 105.935 150.12 106.645C149.923 107.19 152.597 107.774 152.597 107.774C152.597 107.774 151.846 107.841 151.31 107.829C150.775 107.817 149.875 107.639 149.767 107.922C149.596 108.368 150.143 108.771 151.114 108.922C151.848 109.036 152.611 109.088 152.611 109.088C152.611 109.088 152.128 109.182 151.747 109.274C151.263 109.391 150.601 109.374 150.548 109.659C150.499 109.919 150.812 110.182 151.85 110.19C152.455 110.195 153.088 110.059 153.088 110.059C153.088 110.059 152.658 110.241 152.298 110.39C151.984 110.52 151.621 110.489 151.662 110.698C151.725 111.026 152.389 111.171 153.656 111.146C154.923 111.12 156.73 110.596 156.73 110.596C156.73 110.596 157.528 109.633 157.487 108.686C157.445 107.739 156.645 106.961 156.645 106.961Z" fill="#FFBF7E"/>
<path opacity="0.9" d="M156.297 110.698C156.297 110.698 156.731 110.368 156.907 109.392C157.188 107.838 156.48 106.733 156.48 106.733C156.48 106.733 157.571 107.501 157.342 109.132C157.162 110.421 156.297 110.698 156.297 110.698Z" fill="#F59B76"/>
<path d="M156.77 110.685C156.766 110.687 156.761 110.688 156.757 110.69C156.683 110.711 154.923 111.218 153.658 111.244C152.287 111.271 151.642 111.109 151.566 110.717C151.521 110.487 151.762 110.432 151.956 110.388C152.052 110.367 152.161 110.342 152.261 110.301C152.289 110.289 152.317 110.278 152.345 110.266C152.187 110.28 152.018 110.289 151.849 110.288C151.158 110.282 150.716 110.167 150.534 109.946C150.459 109.857 150.431 109.751 150.452 109.642C150.502 109.371 150.883 109.315 151.286 109.257C151.434 109.235 151.588 109.212 151.724 109.179C151.797 109.162 151.873 109.144 151.95 109.127C151.695 109.1 151.394 109.064 151.099 109.018C150.401 108.909 149.896 108.667 149.714 108.354C149.629 108.206 149.615 108.045 149.676 107.887C149.783 107.608 150.304 107.653 150.857 107.701C151.022 107.715 151.179 107.729 151.313 107.731C151.515 107.736 151.749 107.729 151.962 107.719C151.275 107.535 150.251 107.208 150.052 106.849C150.009 106.771 150 106.689 150.028 106.612C150.19 106.163 151.028 106.294 151.916 106.433C152.592 106.538 153.358 106.657 153.565 106.44C153.551 106.379 153.269 106.191 153.082 106.066C152.625 105.76 152.106 105.412 152.213 105.024C152.224 104.984 152.254 104.927 152.331 104.89C152.73 104.708 154.083 105.175 154.824 105.481C155.875 105.915 156.652 106.818 156.716 106.894C156.783 106.961 157.542 107.73 157.584 108.682C157.626 109.655 156.838 110.618 156.804 110.658C156.795 110.67 156.783 110.679 156.77 110.685ZM151.796 110.635C151.764 110.65 151.754 110.664 151.757 110.68C151.787 110.832 152.072 111.081 153.654 111.049C154.806 111.026 156.435 110.578 156.673 110.511C156.79 110.362 157.425 109.51 157.39 108.69C157.351 107.794 156.585 107.038 156.577 107.031C156.575 107.028 156.572 107.026 156.57 107.023C156.563 107.014 155.779 106.086 154.75 105.662C153.675 105.218 152.655 104.956 152.421 105.063C152.407 105.07 152.401 105.074 152.401 105.077C152.331 105.329 152.828 105.662 153.191 105.904C153.541 106.138 153.739 106.278 153.756 106.431C153.762 106.484 153.745 106.534 153.707 106.575C153.431 106.866 152.68 106.749 151.886 106.625C151.152 106.511 150.319 106.381 150.212 106.679C150.206 106.695 150.202 106.718 150.223 106.756C150.407 107.09 151.756 107.491 152.618 107.68C152.665 107.69 152.697 107.733 152.695 107.781C152.692 107.829 152.654 107.868 152.606 107.872C152.598 107.872 151.843 107.938 151.308 107.926C151.169 107.923 151.009 107.91 150.84 107.895C150.493 107.865 149.912 107.815 149.858 107.957C149.818 108.061 149.826 108.159 149.883 108.257C150.032 108.515 150.498 108.728 151.129 108.826C151.85 108.939 152.61 108.991 152.617 108.991C152.666 108.995 152.705 109.034 152.708 109.082C152.711 109.131 152.677 109.174 152.629 109.184C152.625 109.185 152.144 109.278 151.769 109.369C151.625 109.404 151.466 109.427 151.314 109.449C151.011 109.493 150.668 109.543 150.643 109.677C150.633 109.73 150.647 109.777 150.684 109.823C150.765 109.921 151.024 110.086 151.851 110.093C152.438 110.098 153.062 109.965 153.068 109.964C153.117 109.953 153.166 109.982 153.181 110.03C153.196 110.078 153.172 110.131 153.126 110.149C153.126 110.149 152.695 110.331 152.335 110.481C152.22 110.528 152.103 110.554 151.999 110.578C151.895 110.602 151.832 110.619 151.796 110.635Z" fill="#EC9A6C"/>
<path opacity="0.43" d="M182.296 102.961C182.296 102.961 178.491 107.38 172.426 109.525C163.275 112.762 159.647 111.102 159.647 111.102L180.37 100.473L181.62 102.095L182.296 102.961Z" fill="#EEAA43"/>
<path d="M180.311 89.9672C176.357 89.221 174.358 96.1162 169.897 100.192C164.216 105.381 156.992 105.526 156.4 107.467C154.397 114.031 166.047 111.79 173.584 107.074C177.71 104.492 181.481 100.951 183.136 96.6447C183.965 94.4878 184.152 90.6917 180.311 89.9672Z" fill="#76D372"/>
<path d="M168.003 106.453C162.2 109.091 156.492 109.734 156.435 109.741C156.328 109.752 156.232 109.675 156.22 109.568C156.209 109.461 156.286 109.365 156.393 109.353C156.45 109.347 162.177 108.694 167.967 106.042C173.281 103.6 179.732 98.9074 180.291 90.422C180.298 90.3148 180.391 90.2335 180.498 90.2405C180.605 90.2477 180.686 90.3402 180.679 90.4475C180.427 94.2825 178.99 97.6854 176.407 100.562C174.347 102.856 171.559 104.82 168.12 106.399C168.081 106.417 168.042 106.436 168.003 106.453Z" fill="white"/>
<path d="M180.861 101.335C180.737 101.391 180.587 101.381 180.469 101.294C180.296 101.167 180.258 100.924 180.385 100.75C180.408 100.719 182.704 97.5675 183.128 95.5128C183.171 95.3024 183.377 95.167 183.588 95.2101C183.798 95.2538 183.934 95.4596 183.891 95.6702C183.432 97.8912 181.112 101.076 181.013 101.211C180.973 101.266 180.92 101.308 180.861 101.335Z" fill="#6DBB67"/>
<defs>
<linearGradient id="paint0_linear_102_13" x1="190.077" y1="172.189" x2="169.081" y2="198.131" gradientUnits="userSpaceOnUse">
<stop offset="0.3042" stop-color="#55BCFF"/>
<stop offset="1" stop-color="#83CBF5"/>
</linearGradient>
<linearGradient id="paint1_linear_102_13" x1="137.128" y1="104.939" x2="133.089" y2="100.541" gradientUnits="userSpaceOnUse">
<stop stop-color="#EC9A6C"/>
<stop offset="0.3146" stop-color="#EFA06F"/>
<stop offset="0.7149" stop-color="#F7AF76"/>
<stop offset="1" stop-color="#FFBF7E"/>
</linearGradient>
<linearGradient id="paint2_linear_102_13" x1="166.658" y1="91.5986" x2="164.721" y2="87.7326" gradientUnits="userSpaceOnUse">
<stop offset="0.2701" stop-color="#EC9A6C"/>
<stop offset="0.4998" stop-color="#EFA06F"/>
<stop offset="0.7919" stop-color="#F7AF76"/>
<stop offset="1" stop-color="#FFBF7E"/>
</linearGradient>
</defs>
</svg>
