<svg width="54" height="50" viewBox="0 0 54 50" fill="none" xmlns="http://www.w3.org/2000/svg">
<path d="M48.5306 15.8659L49.32 15.0766L49.3434 15.1C49.4802 15.2371 49.6427 15.3458 49.8216 15.4201C50.0005 15.4943 50.1923 15.5325 50.3859 15.5325C50.5796 15.5325 50.7714 15.4943 50.9502 15.4201C51.1291 15.3458 51.2916 15.2371 51.4284 15.1L52.6481 13.8794C52.7851 13.7425 52.8937 13.58 52.9679 13.4011C53.042 13.2222 53.0802 13.0305 53.0802 12.8369C53.0802 12.6433 53.042 12.4515 52.9679 12.2726C52.8937 12.0938 52.7851 11.9312 52.6481 11.7944L49.4484 8.59376C49.1677 8.32583 48.7945 8.17635 48.4064 8.17635C48.0183 8.17635 47.6451 8.32583 47.3644 8.59376L46.1437 9.81438C46.0068 9.95125 45.8981 10.1138 45.824 10.2926C45.7498 10.4715 45.7117 10.6633 45.7117 10.8569C45.7117 11.0505 45.7498 11.2422 45.824 11.4211C45.8981 11.6 46.0068 11.7625 46.1437 11.8994L46.1672 11.9228L45.3328 12.7572C42.4822 10.5186 39.0867 9.07993 35.4956 8.58907V6.16282H37.0753C37.5469 6.16257 37.9991 5.97512 38.3326 5.64166C38.666 5.30819 38.8535 4.85598 38.8537 4.38439V2.37345C38.8532 1.90201 38.6657 1.45005 38.3322 1.11678C37.9988 0.783517 37.5467 0.596195 37.0753 0.595947H28.35C27.8787 0.596444 27.4269 0.783875 27.0937 1.11711C26.7604 1.45035 26.573 1.90218 26.5725 2.37345V4.38439C26.5727 4.85582 26.7601 5.30788 27.0933 5.64132C27.4266 5.97477 27.8786 6.16233 28.35 6.16282H29.9306V8.59095C28.8456 8.7352 27.7741 8.96657 26.7262 9.28282C26.4884 9.35542 26.2892 9.51953 26.1723 9.73904C26.0555 9.95854 26.0307 10.2155 26.1033 10.4533C26.1759 10.6911 26.34 10.8904 26.5595 11.0072C26.779 11.124 27.0359 11.1489 27.2737 11.0763C30.428 10.1131 33.7813 10.0045 36.9913 10.7614C40.2013 11.5182 43.1528 13.1136 45.5445 15.3844C47.9362 17.6552 49.6824 20.5201 50.6046 23.6865C51.5268 26.853 51.5921 30.2074 50.7937 33.4073C49.9954 36.6073 48.362 39.5379 46.0604 41.9001C43.7589 44.2622 40.8716 45.9711 37.6935 46.8523C34.5154 47.7334 31.1604 47.7553 27.9711 46.9156C24.7817 46.0759 21.8724 44.4048 19.5403 42.0728C19.4538 41.9833 19.3504 41.9119 19.236 41.8627C19.1216 41.8136 18.9986 41.7877 18.8741 41.7867C18.7496 41.7856 18.6262 41.8093 18.511 41.8564C18.3958 41.9036 18.2911 41.9732 18.2031 42.0612C18.115 42.1492 18.0454 42.2539 17.9983 42.3691C17.9511 42.4843 17.9274 42.6078 17.9285 42.7323C17.9296 42.8567 17.9554 42.9798 18.0046 43.0941C18.0537 43.2085 18.1251 43.312 18.2147 43.3984C21.9373 47.1276 26.953 49.28 32.2207 49.409C37.4884 49.538 42.6034 47.6336 46.5041 44.0912C50.4049 40.5487 52.7917 35.6402 53.1692 30.3845C53.5467 25.1288 51.885 19.9296 48.5306 15.8659ZM48.4059 10.2034L51.0403 12.8369L50.3859 13.4913L47.7515 10.8569L48.4059 10.2034ZM47.4919 13.2484L47.9944 13.75L47.2697 14.4756C47.1028 14.3069 46.9312 14.1447 46.7587 13.9825L47.4919 13.2484ZM28.4465 4.28782V2.47095H36.9778V4.28782H28.4465ZM31.8047 8.42876V6.16282H33.6206V8.41845C33.3183 8.404 33.0157 8.39619 32.7131 8.39501C32.4094 8.39501 32.1075 8.41564 31.8047 8.42876Z" fill="#1F1F1F"/>
<path d="M44.8911 41.005C48.0953 37.7909 49.8946 33.4376 49.8946 28.8991C49.8946 24.3606 48.0953 20.0073 44.8911 16.7932C44.8789 16.78 44.8742 16.7632 44.862 16.75C44.8498 16.7369 44.832 16.7332 44.8189 16.7219C41.6063 13.5153 37.252 11.7153 32.7129 11.7175C31.6812 11.7172 30.6514 11.8091 29.6361 11.9922C29.5141 12.0133 29.3976 12.0583 29.2932 12.1246C29.1887 12.191 29.0984 12.2773 29.0275 12.3787C28.9566 12.4801 28.9065 12.5945 28.88 12.7154C28.8535 12.8362 28.8512 12.9611 28.8733 13.0829C28.8953 13.2046 28.9412 13.3208 29.0083 13.4248C29.0755 13.5287 29.1625 13.6183 29.2645 13.6884C29.3664 13.7585 29.4812 13.8078 29.6023 13.8333C29.7233 13.8589 29.8482 13.8602 29.9698 13.8372C30.5672 13.7342 31.1701 13.6666 31.7754 13.6347V15.101C31.7754 15.3496 31.8742 15.5881 32.05 15.7639C32.2258 15.9397 32.4643 16.0385 32.7129 16.0385C32.9616 16.0385 33.2 15.9397 33.3758 15.7639C33.5517 15.5881 33.6504 15.3496 33.6504 15.101V13.6403C37.0527 13.8456 40.2877 15.187 42.837 17.4494L41.8067 18.4797C41.7171 18.5662 41.6457 18.6696 41.5966 18.784C41.5475 18.8984 41.5216 19.0214 41.5205 19.1459C41.5194 19.2704 41.5432 19.3938 41.5903 19.5091C41.6374 19.6243 41.707 19.7289 41.7951 19.817C41.8831 19.905 41.9878 19.9746 42.103 20.0217C42.2182 20.0689 42.3416 20.0926 42.4661 20.0915C42.5906 20.0904 42.7136 20.0646 42.828 20.0154C42.9424 19.9663 43.0458 19.8949 43.1323 19.8053L44.1626 18.775C46.4252 21.3247 47.7665 24.5599 47.9717 27.9625H46.5111C46.2624 27.9625 46.024 28.0613 45.8481 28.2371C45.6723 28.4129 45.5736 28.6514 45.5736 28.9C45.5736 29.1487 45.6723 29.3871 45.8481 29.5629C46.024 29.7388 46.2624 29.8375 46.5111 29.8375H47.9717C47.7664 33.2398 46.4251 36.4748 44.1626 39.0241L43.1323 37.9928C42.9564 37.8171 42.7179 37.7183 42.4692 37.7184C42.2205 37.7185 41.982 37.8174 41.8062 37.9933C41.6304 38.1692 41.5317 38.4078 41.5318 38.6565C41.5319 38.9051 41.6308 39.1436 41.8067 39.3194L42.837 40.3497C40.2874 42.6123 37.0521 43.9536 33.6495 44.1588V42.6982C33.6495 42.4495 33.5507 42.2111 33.3749 42.0352C33.1991 41.8594 32.9606 41.7607 32.712 41.7607C32.4634 41.7607 32.2249 41.8594 32.0491 42.0352C31.8733 42.2111 31.7745 42.4495 31.7745 42.6982V44.1682C28.6548 43.9916 25.6663 42.8532 23.2198 40.9094C23.1238 40.8285 23.0125 40.7678 22.8925 40.7308C22.7726 40.6937 22.6464 40.6812 22.5215 40.6938C22.3966 40.7065 22.2755 40.7441 22.1654 40.8044C22.0553 40.8647 21.9585 40.9465 21.8806 41.045C21.8027 41.1435 21.7454 41.2566 21.7121 41.3776C21.6788 41.4987 21.6701 41.6252 21.6866 41.7496C21.7031 41.8741 21.7444 41.9939 21.808 42.1021C21.8717 42.2103 21.9565 42.3046 22.0573 42.3794C25.3527 44.9857 29.4896 46.2929 33.6842 46.0532C37.8788 45.8136 41.8399 44.0438 44.817 41.0791C44.8311 41.0669 44.8489 41.0622 44.862 41.0491C44.8751 41.036 44.8789 41.0182 44.8911 41.005Z" fill="#1F1F1F"/>
<path d="M40.7136 20.8985C40.5378 20.7227 40.2994 20.624 40.0508 20.624C39.8022 20.624 39.5638 20.7227 39.388 20.8985L34.1333 26.1541C33.696 25.9211 33.2086 25.7975 32.713 25.7941C32.0987 25.7939 31.4981 25.9759 30.9872 26.3171C30.4763 26.6583 30.0781 27.1433 29.8428 27.7108C29.6076 28.2783 29.546 28.9028 29.6657 29.5054C29.7855 30.1079 30.0812 30.6615 30.5155 31.0959C30.9499 31.5304 31.5033 31.8263 32.1058 31.9462C32.7083 32.0661 33.3329 32.0047 33.9005 31.7696C34.4681 31.5346 34.9532 31.1365 35.2945 30.6257C35.6358 30.1149 35.818 29.5144 35.818 28.9C35.8146 28.4045 35.6911 27.9171 35.458 27.4797L40.7136 22.225C40.8008 22.138 40.87 22.0346 40.9171 21.9208C40.9643 21.8069 40.9886 21.6849 40.9886 21.5617C40.9886 21.4385 40.9643 21.3166 40.9171 21.2027C40.87 21.0889 40.8008 20.9855 40.7136 20.8985ZM32.713 30.13C32.5104 30.1305 32.3108 30.0809 32.1319 29.9857C31.9531 29.8905 31.8005 29.7526 31.6877 29.5842C31.5749 29.4159 31.5055 29.2223 31.4854 29.0207C31.4654 28.8191 31.4955 28.6156 31.573 28.4284C31.6504 28.2412 31.7729 28.076 31.9296 27.9475C32.0862 27.8189 32.2722 27.7311 32.4709 27.6917C32.6697 27.6523 32.8751 27.6625 33.0689 27.7215C33.2628 27.7806 33.439 27.8865 33.5821 28.03C33.7542 28.202 33.8714 28.4211 33.9189 28.6597C33.9664 28.8983 33.9422 29.1456 33.8491 29.3704C33.7561 29.5951 33.5985 29.7873 33.3963 29.9225C33.1941 30.0577 32.9563 30.1299 32.713 30.13ZM21.9599 13.5925H16.0415C15.7928 13.5925 15.5544 13.4938 15.3786 13.3179C15.2027 13.1421 15.104 12.9037 15.104 12.655C15.104 12.4064 15.2027 12.1679 15.3786 11.9921C15.5544 11.8163 15.7928 11.7175 16.0415 11.7175H21.9599C22.2085 11.7175 22.447 11.8163 22.6228 11.9921C22.7986 12.1679 22.8974 12.4064 22.8974 12.655C22.8974 12.9037 22.7986 13.1421 22.6228 13.3179C22.447 13.4938 22.2085 13.5925 21.9599 13.5925ZM13.0143 13.5925H11.1177C10.8691 13.5925 10.6306 13.4938 10.4548 13.3179C10.279 13.1421 10.1802 12.9037 10.1802 12.655C10.1802 12.4064 10.279 12.1679 10.4548 11.9921C10.6306 11.8163 10.8691 11.7175 11.1177 11.7175H13.0143C13.2629 11.7175 13.5014 11.8163 13.6772 11.9921C13.853 12.1679 13.9518 12.4064 13.9518 12.655C13.9518 12.9037 13.853 13.1421 13.6772 13.3179C13.5014 13.4938 13.2629 13.5925 13.0143 13.5925ZM24.8512 19.765H9.17428C8.92564 19.765 8.68718 19.6663 8.51136 19.4904C8.33555 19.3146 8.23678 19.0762 8.23678 18.8275C8.23678 18.5789 8.33555 18.3404 8.51136 18.1646C8.68718 17.9888 8.92564 17.89 9.17428 17.89H24.8512C25.0998 17.89 25.3383 17.9888 25.5141 18.1646C25.6899 18.3404 25.7887 18.5789 25.7887 18.8275C25.7887 19.0762 25.6899 19.3146 25.5141 19.4904C25.3383 19.6663 25.0998 19.765 24.8512 19.765ZM18.1012 25.9375H1.72021C1.47157 25.9375 1.23312 25.8388 1.0573 25.6629C0.881487 25.4871 0.782715 25.2487 0.782715 25C0.782715 24.7514 0.881487 24.5129 1.0573 24.3371C1.23312 24.1613 1.47157 24.0625 1.72021 24.0625H18.1012C18.3498 24.0625 18.5882 24.1613 18.7641 24.3371C18.9399 24.5129 19.0387 24.7514 19.0387 25C19.0387 25.2487 18.9399 25.4871 18.7641 25.6629C18.5882 25.8388 18.3498 25.9375 18.1012 25.9375ZM22.9537 25.9375H21.1912C20.9425 25.9375 20.7041 25.8388 20.5282 25.6629C20.3524 25.4871 20.2537 25.2487 20.2537 25C20.2537 24.7514 20.3524 24.5129 20.5282 24.3371C20.7041 24.1613 20.9425 24.0625 21.1912 24.0625H22.9537C23.2023 24.0625 23.4408 24.1613 23.6166 24.3371C23.7924 24.5129 23.8912 24.7514 23.8912 25C23.8912 25.2487 23.7924 25.4871 23.6166 25.6629C23.4408 25.8388 23.2023 25.9375 22.9537 25.9375ZM26.5687 32.11H12.6749C12.4263 32.11 12.1878 32.0113 12.012 31.8354C11.8362 31.6596 11.7374 31.4212 11.7374 31.1725C11.7374 30.9239 11.8362 30.6854 12.012 30.5096C12.1878 30.3338 12.4263 30.235 12.6749 30.235H26.5687C26.8173 30.235 27.0558 30.3338 27.2316 30.5096C27.4074 30.6854 27.5062 30.9239 27.5062 31.1725C27.5062 31.4212 27.4074 31.6596 27.2316 31.8354C27.0558 32.0113 26.8173 32.11 26.5687 32.11ZM8.7224 38.2825H7.0499C6.80126 38.2825 6.56281 38.1838 6.38699 38.0079C6.21117 37.8321 6.1124 37.5937 6.1124 37.345C6.1124 37.0964 6.21117 36.8579 6.38699 36.6821C6.56281 36.5063 6.80126 36.4075 7.0499 36.4075H8.72147C8.97011 36.4075 9.20856 36.5063 9.38438 36.6821C9.56019 36.8579 9.65897 37.0964 9.65897 37.345C9.65897 37.5937 9.56019 37.8321 9.38438 38.0079C9.20856 38.1838 8.97104 38.2825 8.7224 38.2825ZM22.9537 38.2825H11.7055C11.4569 38.2825 11.2184 38.1838 11.0426 38.0079C10.8668 37.8321 10.768 37.5937 10.768 37.345C10.768 37.0964 10.8668 36.8579 11.0426 36.6821C11.2184 36.5063 11.4569 36.4075 11.7055 36.4075H22.9537C23.2023 36.4075 23.4408 36.5063 23.6166 36.6821C23.7924 36.8579 23.8912 37.0964 23.8912 37.345C23.8912 37.5937 23.7924 37.8321 23.6166 38.0079C23.4408 38.1838 23.2023 38.2825 22.9537 38.2825Z" fill="#1F1F1F"/>
</svg>
