<svg width="45" height="41" viewBox="0 0 45 41" fill="none" xmlns="http://www.w3.org/2000/svg">
<path d="M42.8136 19.2763C44.3592 17.085 45.1237 14.4365 44.9837 11.7571C44.7982 8.3267 43.2124 5.24175 40.5183 3.0705C35.7849 -0.743102 28.8666 -0.264968 24.4257 4.18315L22.5 6.11287L20.5734 4.18315C16.1326 -0.264968 9.21429 -0.743101 4.48165 3.07132C1.78757 5.24175 0.201847 8.3267 0.0163011 11.7571C-0.123679 14.4366 0.641052 17.0853 2.18727 19.2763C1.89791 19.7937 1.6723 20.3443 1.51538 20.9162C1.19087 22.0758 1.29566 23.3139 1.81045 24.4023C2.78559 26.4483 4.40727 28.789 6.28234 30.8792C5.89245 33.6121 6.71065 35.9479 8.6928 37.6451C10.8867 39.5241 14.4243 40.5 18.3469 40.5C19.7103 40.5 21.1203 40.3805 22.5368 40.1422C23.9827 40.3805 25.3976 40.5 26.7487 40.5C31.0318 40.5 34.6937 39.33 36.8091 37.1784C38.4267 35.5336 39.074 33.3607 38.7193 30.8817C40.8755 28.4828 42.3787 26.1085 43.1936 24.4023C43.7102 23.3149 43.8145 22.0765 43.4871 20.9178C43.3303 20.3452 43.1041 19.7939 42.8136 19.2763ZM3.08965 21.3542C3.49017 19.9149 4.19148 19.0159 5.23446 18.6049C6.54717 18.0826 8.17213 18.6819 9.00749 19.9902C9.80526 21.2592 10.93 22.9957 11.476 23.717C11.5742 23.8477 11.7092 23.9458 11.8637 23.9987C12.0181 24.0516 12.1849 24.0569 12.3424 24.0139C12.4999 23.9709 12.6408 23.8815 12.7471 23.7573C12.8533 23.6332 12.9199 23.48 12.9383 23.3175L13.2407 20.7451C13.2637 20.5399 13.361 20.3504 13.5142 20.2123C13.6675 20.0742 13.8659 19.9973 14.072 19.9959L14.1202 19.9951C14.5273 20.0123 14.8624 20.3071 14.9327 20.7025L15.1787 22.1991C15.3798 23.3672 15.3465 24.5638 15.0806 25.7188L14.7619 27.1352C14.703 27.3988 14.7774 27.6747 14.9605 27.8729C16.2029 29.2123 17.8491 30.3569 19.7887 31.2542C15.5547 32.0721 10.9725 31.7143 7.63756 29.9434C5.80254 27.9261 4.21927 25.6574 3.28419 23.6957C2.93991 22.9642 2.87083 22.1327 3.08965 21.3542ZM35.6435 36.029C33.9466 37.754 30.9027 38.7406 27.3266 38.8429C31.3073 37.3463 34.6005 34.9802 37.1761 32.4757C37.1099 33.8602 36.6023 35.053 35.6435 36.029ZM41.7183 23.6949C40.9246 25.3577 39.4353 27.6919 37.2913 30.0302C37.2856 30.0351 37.2782 30.0384 37.2733 30.0441L37.2758 30.0466C34.6193 32.9399 30.9574 35.8366 26.3376 37.474C20.1558 39.6649 13.0274 39.2023 9.75458 36.3998C8.37974 35.2225 7.72993 33.6956 7.81412 31.851C14.7153 34.877 25.1696 33.1012 30.0395 27.8778C30.1307 27.78 30.1966 27.6614 30.2314 27.5322C30.2662 27.403 30.2688 27.2672 30.239 27.1368L29.9153 25.7172C29.6505 24.5617 29.6169 23.3652 29.8164 22.1967L30.0689 20.7033C30.1352 20.3079 30.4744 20.0082 30.8749 19.9918C31.2942 19.9747 31.7062 20.3046 31.7577 20.7459L32.0601 23.3199C32.079 23.4822 32.146 23.635 32.2524 23.7588C32.3587 23.8826 32.4996 23.9717 32.6569 24.0147C32.8142 24.0576 32.9808 24.0525 33.1352 23.9999C33.2895 23.9473 33.4247 23.8496 33.5232 23.7195C34.0635 23.0056 35.1645 21.2993 35.9925 19.9951C36.8271 18.6811 38.452 18.0842 39.7615 18.6033C40.8052 19.0151 41.509 19.9165 41.912 21.3583C42.1327 22.1434 42.0632 22.9728 41.7183 23.6949Z" fill="#55B685"/>
</svg>
