<svg width="12" height="16" viewBox="0 0 12 16" fill="none" xmlns="http://www.w3.org/2000/svg">
<path d="M11.3337 8.67641C11.3337 12.0097 9.00033 13.6764 6.22699 14.6431C6.08177 14.6923 5.92402 14.6899 5.78033 14.6364C3.00033 13.6764 0.666992 12.0097 0.666992 8.67641V4.00974C0.666992 3.83293 0.73723 3.66336 0.862254 3.53834C0.987279 3.41331 1.15685 3.34307 1.33366 3.34307C2.66699 3.34307 4.33366 2.54307 5.49366 1.52974C5.63489 1.40907 5.81456 1.34277 6.00033 1.34277C6.18609 1.34277 6.36576 1.40907 6.50699 1.52974C7.67366 2.54974 9.33366 3.34307 10.667 3.34307C10.8438 3.34307 11.0134 3.41331 11.1384 3.53834C11.2634 3.66336 11.3337 3.83293 11.3337 4.00974V8.67641Z" stroke="white" stroke-width="1.33301" stroke-linecap="round" stroke-linejoin="round"/>
</svg>
