<svg width="16" height="17" viewBox="0 0 16 17" fill="none" xmlns="http://www.w3.org/2000/svg">
<path d="M13.3337 9.16664C13.3337 12.5 11.0003 14.1666 8.22699 15.1333C8.08177 15.1825 7.92402 15.1802 7.78033 15.1266C5.00033 14.1666 2.66699 12.5 2.66699 9.16664V4.49997C2.66699 4.32316 2.73723 4.15359 2.86225 4.02857C2.98728 3.90355 3.15685 3.83331 3.33366 3.83331C4.66699 3.83331 6.33366 3.03331 7.49366 2.01997C7.6349 1.89931 7.81456 1.83301 8.00033 1.83301C8.18609 1.83301 8.36576 1.89931 8.50699 2.01997C9.67366 3.03997 11.3337 3.83331 12.667 3.83331C12.8438 3.83331 13.0134 3.90355 13.1384 4.02857C13.2634 4.15359 13.3337 4.32316 13.3337 4.49997V9.16664Z" stroke="#4B5563" stroke-width="1.33333" stroke-linecap="round" stroke-linejoin="round"/>
</svg>
