<svg width="75" height="75" viewBox="0 0 75 75" fill="none" xmlns="http://www.w3.org/2000/svg">
<g clip-path="url(#clip0_622_1482)">
<path d="M72.8379 28.1543C72.6122 28.2086 72.4171 28.3499 72.2953 28.5475C72.1734 28.7451 72.1347 28.9829 72.1875 29.209C72.8282 31.9282 73.1526 34.7122 73.1543 37.5059C73.143 46.9585 69.383 56.0207 62.6989 62.7048C56.0149 69.3888 46.9527 73.1488 37.5 73.1602C29.7363 73.1874 22.181 70.6497 16.0078 65.9414C16.8367 64.7056 17.1679 63.2021 16.935 61.7324C16.7021 60.2626 15.9224 58.9352 14.7521 58.0161C13.5818 57.097 12.1074 56.6541 10.6243 56.7763C9.14124 56.8984 7.75913 57.5765 6.75495 58.6747C5.75076 59.7728 5.1987 61.2099 5.2094 62.698C5.22009 64.186 5.79275 65.615 6.81262 66.6987C7.83249 67.7823 9.2242 68.4404 10.7089 68.5412C12.1935 68.642 13.6614 68.178 14.8184 67.2422C21.3181 72.246 29.2973 74.9463 37.5 74.918C43.151 74.9119 48.7272 73.6272 53.8111 71.16C58.8951 68.6929 63.3548 65.1073 66.8562 60.6719C70.3576 56.2365 72.81 51.0662 74.0296 45.5485C75.2492 40.0307 75.2043 34.3085 73.8985 28.8106C73.8723 28.6976 73.824 28.591 73.7564 28.4968C73.6889 28.4026 73.6033 28.3227 73.5048 28.2617C73.4062 28.2007 73.2965 28.1598 73.1821 28.1414C73.0676 28.123 72.9507 28.1274 72.8379 28.1543ZM1.84574 37.5059C1.84612 31.1638 3.53804 24.9366 6.74706 19.4662C9.95608 13.9959 14.5661 9.48049 20.1017 6.3855C25.6373 3.29051 31.8983 1.72798 38.239 1.859C44.5798 1.99002 50.7708 3.80986 56.1739 7.13088C55.6162 8.324 55.5269 9.68306 55.9238 10.9389C56.3206 12.1947 57.1746 13.2556 58.3167 13.9116C59.4587 14.5676 60.8055 14.7708 62.0902 14.4809C63.3749 14.191 64.5039 13.4292 65.2536 12.3464C66.0032 11.2635 66.3189 9.93861 66.138 8.63406C65.9571 7.32952 65.2929 6.14048 64.2769 5.30245C63.2609 4.46443 61.9672 4.03853 60.6521 4.10912C59.3369 4.17971 58.0963 4.74164 57.1758 5.68361C51.5084 2.18011 45.0083 0.253594 38.3471 0.103167C31.6859 -0.0472603 25.1054 1.58386 19.2856 4.82795C13.4659 8.07204 8.61797 12.8114 5.24297 18.5563C1.86797 24.3011 0.0883192 30.843 0.0879259 37.5059C0.084775 39.7897 0.29269 42.0689 0.70902 44.3145C0.744755 44.5168 0.850739 44.7 1.0083 44.8318C1.16587 44.9637 1.3649 45.0357 1.57035 45.0352C1.62357 45.0351 1.67662 45.0292 1.72855 45.0176C1.95766 44.9762 2.161 44.8456 2.29392 44.6545C2.42684 44.4633 2.47849 44.2272 2.43754 43.9981C2.04256 41.8566 1.84447 39.6835 1.84574 37.5059Z" fill="#FC5854"/>
<path d="M32.2266 31.6992V32.2266H42.7734V31.6992C42.6914 24.5742 32.3086 24.5742 32.2266 31.6992Z" fill="#FC5854"/>
<path d="M62.0801 19.2422C52.1894 19.3419 42.6738 13.2305 39.0352 10.5938C38.5884 10.271 38.0512 10.0973 37.5 10.0973C36.9488 10.0973 36.4116 10.271 35.9648 10.5938C32.3262 13.2305 22.7871 19.3184 12.9199 19.2422C12.5695 19.2388 12.2218 19.3046 11.897 19.4361C11.5721 19.5675 11.2765 19.7619 11.027 20.0081C10.7776 20.2542 10.5793 20.5473 10.4436 20.8704C10.3079 21.1935 10.2375 21.5402 10.2363 21.8907C10.2422 35.42 12.9492 54.7735 36.3105 66.5977C36.6789 66.7855 37.0865 66.8834 37.5 66.8834C37.9135 66.8834 38.3211 66.7855 38.6895 66.5977C62.0508 54.7735 64.7578 35.42 64.7637 21.8907C64.7584 21.1838 64.4729 20.5079 63.9697 20.0113C63.4666 19.5148 62.787 19.2382 62.0801 19.2422ZM47.168 45.9962C47.168 47.1617 46.705 48.2794 45.8808 49.1036C45.0567 49.9277 43.9389 50.3907 42.7734 50.3907H32.2266C31.0611 50.3907 29.9433 49.9277 29.1192 49.1036C28.295 48.2794 27.832 47.1617 27.832 45.9962V36.6212C27.8325 35.7665 28.0821 34.9305 28.5505 34.2155C29.0188 33.5005 29.6854 32.9376 30.4688 32.5958V31.6876C30.5742 22.2833 44.4258 22.2833 44.5312 31.6876V32.5958C45.3146 32.9376 45.9812 33.5005 46.4495 34.2155C46.9179 34.9305 47.1675 35.7665 47.168 36.6212V45.9962Z" fill="#FC5854"/>
<path d="M38.9394 40.2996C38.9264 40.221 38.9301 40.1404 38.9503 40.0633C38.9705 39.9862 39.0067 39.9142 39.0566 39.852C39.2529 39.5681 39.3678 39.236 39.3888 38.8916C39.4099 38.5472 39.3363 38.2035 39.1761 37.8979C39.0158 37.5923 38.7751 37.3363 38.4798 37.1578C38.1845 36.9792 37.846 36.8848 37.5009 36.8848C37.1559 36.8848 36.8174 36.9792 36.5221 37.1578C36.2268 37.3363 35.986 37.5923 35.8258 37.8979C35.6656 38.2035 35.592 38.5472 35.6131 38.8916C35.6341 39.236 35.749 39.5681 35.9453 39.852C35.9949 39.9135 36.0311 39.9848 36.0513 40.0612C36.0714 40.1377 36.0753 40.2175 36.0625 40.2955C35.9248 40.9817 35.5351 42.9434 35.2603 44.3051C35.2269 44.4749 35.2315 44.6501 35.2739 44.8179C35.3162 44.9857 35.3952 45.1421 35.5052 45.2758C35.6152 45.4095 35.7534 45.5171 35.9099 45.591C36.0665 45.6649 36.2374 45.7032 36.4105 45.7031H38.5902C38.7636 45.7032 38.9349 45.6648 39.0916 45.5907C39.2484 45.5165 39.3868 45.4085 39.4967 45.2745C39.6067 45.1404 39.6856 44.9836 39.7276 44.8153C39.7696 44.6471 39.7738 44.4716 39.7398 44.3016L38.9394 40.2996Z" fill="#FC5854"/>
</g>
<defs>
<clipPath id="clip0_622_1482">
<rect width="75" height="75" fill="white"/>
</clipPath>
</defs>
</svg>
