<svg width="75" height="75" viewBox="0 0 75 75" fill="none" xmlns="http://www.w3.org/2000/svg">
<path fill-rule="evenodd" clip-rule="evenodd" d="M37.4992 14.4639C31.3513 14.4639 26.3679 19.4473 26.3679 25.5952C26.3679 31.7432 31.3513 36.7251 37.4992 36.7251C43.6472 36.7251 48.6291 31.7417 48.6291 25.5952C48.6291 19.4487 43.6457 14.4639 37.4992 14.4639ZM59.0779 2.18848L60.1355 5.46387C60.1677 5.56201 60.2556 5.62647 60.3581 5.62647L63.8005 5.61914C63.903 5.61914 63.9909 5.68213 64.0232 5.78027C64.0554 5.87842 64.0217 5.98096 63.9382 6.04248L61.1491 8.06104C61.0656 8.12109 61.032 8.2251 61.0642 8.32324L62.1335 11.5957C62.1657 11.6938 62.1335 11.7964 62.0486 11.8579C61.9651 11.918 61.8567 11.918 61.7732 11.8579L58.9914 9.8291C58.9518 9.79916 58.9034 9.78296 58.8537 9.78296C58.804 9.78296 58.7557 9.79916 58.716 9.8291L55.9343 11.8579C55.8508 11.918 55.7424 11.9194 55.6589 11.8579C55.5754 11.7979 55.5417 11.6938 55.5739 11.5957L56.6433 8.32324C56.6591 8.2762 56.6594 8.22532 56.6441 8.17811C56.6288 8.1309 56.5987 8.08986 56.5583 8.06104L53.7693 6.04248C53.6858 5.98242 53.6521 5.87842 53.6843 5.78027C53.7165 5.68213 53.8044 5.61914 53.907 5.61914L57.3493 5.62647C57.4519 5.62647 57.5398 5.56348 57.572 5.46387L58.6296 2.18848C58.6618 2.09033 58.7483 2.02588 58.8523 2.02588C58.9563 2.02588 59.0427 2.09033 59.0749 2.18848H59.0779ZM16.3659 2.18848L17.4236 5.46387C17.4558 5.56201 17.5437 5.62647 17.6462 5.62647L21.0886 5.61914C21.1911 5.61914 21.279 5.68213 21.3112 5.78027C21.3435 5.87842 21.3098 5.98096 21.2263 6.04248L18.4372 8.06104C18.3537 8.12109 18.32 8.2251 18.3523 8.32324L19.4216 11.5957C19.4538 11.6938 19.4216 11.7964 19.3366 11.8579C19.2531 11.918 19.1447 11.918 19.0612 11.8579L16.2795 9.8291C16.2398 9.79916 16.1915 9.78296 16.1418 9.78296C16.0921 9.78296 16.0438 9.79916 16.0041 9.8291L13.2224 11.8579C13.1389 11.918 13.0305 11.9194 12.947 11.8579C12.8635 11.7979 12.8298 11.6938 12.862 11.5957L13.9314 8.32324C13.9472 8.2762 13.9475 8.22532 13.9322 8.17811C13.9169 8.1309 13.8868 8.08986 13.8464 8.06104L11.0573 6.04248C10.9738 5.98242 10.9402 5.87842 10.9724 5.78027C11.0046 5.68213 11.0925 5.61914 11.195 5.61914L14.6374 5.62647C14.74 5.62647 14.8278 5.56348 14.8601 5.46387L15.9177 2.18848C15.9499 2.09033 16.0363 2.02588 16.1403 2.02588C16.2444 2.02588 16.3308 2.09033 16.363 2.18848H16.3659ZM65.3166 21.5361L66.9499 26.5957C66.9726 26.669 67.0184 26.733 67.0804 26.7782C67.1424 26.8233 67.2174 26.8472 67.2942 26.8462L72.6101 26.8359C72.7697 26.8359 72.9045 26.9341 72.9543 27.085C73.0041 27.2358 72.9514 27.3955 72.8225 27.4893L68.5158 30.6064C68.3869 30.7002 68.3342 30.8599 68.384 31.0107L70.0363 36.063C70.0862 36.2139 70.0349 36.3735 69.906 36.4673C69.7771 36.561 69.6101 36.561 69.4812 36.4673L65.1862 33.334C65.1248 33.2883 65.0504 33.2637 64.9738 33.2637C64.8973 33.2637 64.8228 33.2883 64.7614 33.334L60.4665 36.4673C60.3376 36.561 60.1706 36.561 60.0417 36.4673C59.9128 36.3735 59.8615 36.2139 59.9113 36.063L61.5637 31.0107C61.6135 30.8599 61.5608 30.7002 61.4319 30.6064L57.1252 27.4893C57.0629 27.4448 57.0165 27.3816 56.9927 27.3088C56.969 27.236 56.9692 27.1576 56.9934 27.085C57.0166 27.0121 57.0625 26.9486 57.1245 26.9037C57.1864 26.8589 57.2611 26.8352 57.3376 26.8359L62.6535 26.8462C62.8132 26.8462 62.948 26.748 62.9978 26.5957L64.6311 21.5361C64.6794 21.3853 64.8156 21.2856 64.9738 21.2856C65.132 21.2856 65.2683 21.3838 65.3181 21.5361H65.3166ZM10.3689 21.5361L12.0022 26.5957C12.0248 26.669 12.0706 26.733 12.1326 26.7782C12.1947 26.8233 12.2697 26.8472 12.3464 26.8462L17.6623 26.8359C17.822 26.8359 17.9568 26.9341 18.0066 27.085C18.0564 27.2358 18.0036 27.3955 17.8747 27.4893L13.5681 30.6064C13.4392 30.7002 13.3864 30.8599 13.4362 31.0107L15.0886 36.063C15.1384 36.2139 15.0871 36.3735 14.9582 36.4673C14.8293 36.561 14.6623 36.561 14.5334 36.4673L10.2385 33.334C10.1771 33.2883 10.1026 33.2637 10.0261 33.2637C9.94957 33.2637 9.87509 33.2883 9.81369 33.334L5.51877 36.4673C5.38986 36.561 5.22287 36.561 5.09396 36.4673C4.96506 36.3735 4.91379 36.2139 4.96359 36.063L6.61593 31.0107C6.66574 30.8599 6.61301 30.7002 6.4841 30.6064L2.17746 27.4893C2.11514 27.4448 2.0687 27.3816 2.04498 27.3088C2.02125 27.236 2.02147 27.1576 2.04562 27.085C2.06881 27.0121 2.11476 26.9486 2.17672 26.9037C2.23869 26.8589 2.31339 26.8352 2.38986 26.8359L7.70578 26.8462C7.86545 26.8462 8.00021 26.748 8.05002 26.5957L9.68332 21.5361C9.73166 21.3853 9.86789 21.2856 10.0261 21.2856C10.1843 21.2856 10.3205 21.3838 10.3703 21.5361H10.3689ZM37.4992 40.4458C36.7522 40.4575 36.0124 40.5029 35.2829 40.5806L36.0241 42.8862H38.9729L39.7141 40.5806C38.9846 40.5015 38.2448 40.4561 37.4978 40.4458H37.4992ZM36.1413 44.6602L33.8195 59.77L37.4978 63.4805L41.176 59.77L38.8542 44.6602H36.1384H36.1413ZM33.509 40.8398L34.4743 43.8413L32.0002 59.9429C31.9592 60.2197 32.0529 60.501 32.2492 60.6987L36.8752 65.3643C37.0416 65.5295 37.2668 65.6221 37.5013 65.6215C37.7358 65.621 37.9606 65.5274 38.1262 65.3613L42.7068 60.7412C42.8181 60.6434 42.903 60.5191 42.9537 60.3799C43.0044 60.2406 43.0192 60.0908 42.9968 59.9443L40.5227 43.8428L41.488 40.8413C51.5984 42.7002 59.5612 50.8989 61.0612 61.1265C61.3996 63.4395 60.4519 65.6016 58.5227 66.9199C52.133 71.2837 42.7141 72.9741 37.4978 72.9741C32.2815 72.9741 22.8625 71.2837 16.4729 66.9199C14.5422 65.6016 13.5945 63.4395 13.9343 61.1265C15.4343 50.8989 23.3972 42.7002 33.5075 40.8413L33.509 40.8398Z" fill="#98AF2F"/>
</svg>
