<svg width="75" height="76" viewBox="0 0 75 76" fill="none" xmlns="http://www.w3.org/2000/svg">
<g clip-path="url(#clip0_604_1375)">
<path d="M46.6109 35.0952H28.3882L12.1135 66.0501C11.6275 66.9748 12.19 68.1039 13.2208 68.2726L19.7657 69.3441C20.4193 69.4511 21.0206 69.7672 21.4791 70.245L26.0722 75.0292C26.7956 75.7827 28.0447 75.6061 28.5308 74.6814L37.4996 57.6225L46.4683 74.6816C46.9544 75.6062 48.2035 75.7829 48.9269 75.0293L53.52 70.2452C53.9786 69.7675 54.5798 69.4514 55.2334 69.3443L61.7783 68.2728C62.8091 68.104 63.3718 66.9749 62.8856 66.0503L46.6109 35.0952Z" fill="#AD7FDD"/>
<path d="M57.7657 56.311L46.6114 35.0952H28.3887L17.2344 56.3111C18.1224 56.9864 19.2132 57.363 20.3396 57.363C20.8125 57.363 21.2831 57.2975 21.738 57.1682C22.309 59.4364 24.3411 61.0418 26.7188 61.0416C27.6425 61.0426 28.5491 60.7922 29.3415 60.3173C30.2423 61.9262 31.9591 62.9448 33.8245 62.9447C34.1368 62.9447 34.445 62.9149 34.7464 62.8602L37.5 57.6225L40.2537 62.86C40.5553 62.9149 40.8636 62.9445 41.1761 62.9445C43.0414 62.9444 44.7579 61.9257 45.6586 60.3172C46.4511 60.7922 47.3578 61.0426 48.2817 61.0414C50.6589 61.0414 52.6908 59.4362 53.2619 57.1681C53.717 57.2974 54.1878 57.363 54.6608 57.3629C55.7872 57.3629 56.8779 56.9861 57.7657 56.311Z" fill="#9D66D6"/>
<path d="M38.5973 2.81457L40.0808 1.01764C40.7499 0.206999 42.0368 0.376481 42.4733 1.33258L43.4411 3.45221C43.8126 4.26579 44.8333 4.53927 45.5618 4.02043L47.4598 2.66867C48.316 2.05885 49.5151 2.55558 49.6893 3.59211L50.0756 5.89001C50.2238 6.77199 51.139 7.30036 51.9769 6.98776L54.1601 6.17331C55.1449 5.80592 56.1747 6.59606 56.0747 7.6424L55.853 9.96198C55.7679 10.8522 56.5151 11.5995 57.4055 11.5144L59.7251 11.2928C60.7714 11.1927 61.5615 12.2225 61.1942 13.2073L60.3797 15.3905C60.0671 16.2284 60.5955 17.1437 61.4775 17.2919L63.7754 17.6782C64.812 17.8524 65.3086 19.0515 64.6988 19.9077L63.347 21.8057C62.8282 22.5341 63.1018 23.5549 63.9152 23.9263L66.0349 24.8942C66.9911 25.3307 67.1605 26.6175 66.3498 27.2867L64.5529 28.7701C63.8632 29.3395 63.8632 30.3963 64.5529 30.9656L66.3498 32.4491C67.1605 33.1182 66.991 34.4051 66.0349 34.8416L63.9152 35.8094C63.1017 36.1809 62.8282 37.2016 63.347 37.9301L64.6988 39.8281C65.3086 40.6843 64.8119 41.8834 63.7754 42.0576L61.4775 42.4439C60.5955 42.5921 60.0671 43.5073 60.3797 44.3452L61.1942 46.5284C61.5615 47.5133 60.7714 48.543 59.7251 48.443L57.4055 48.2214C56.5153 48.1362 55.7679 48.8835 55.853 49.7738L56.0747 52.0934C56.1747 53.1397 55.1449 53.9299 54.1601 53.5625L51.9769 52.748C51.139 52.4354 50.2238 52.9638 50.0756 53.8458L49.6893 56.1437C49.5151 57.1803 48.316 57.6769 47.4598 57.0671L45.5618 55.7154C44.8333 55.1965 43.8126 55.4701 43.4411 56.2836L42.4733 58.4032C42.0368 59.3594 40.7499 59.5288 40.0808 58.7181L38.5973 56.9212C38.0279 56.2316 36.9712 56.2316 36.4018 56.9212L34.9184 58.7181C34.2492 59.5288 32.9624 59.3593 32.5258 58.4032L31.558 56.2836C31.1865 55.47 30.1658 55.1965 29.4374 55.7154L27.5394 57.0671C26.6832 57.6769 25.4841 57.1802 25.3099 56.1437L24.9236 53.8458C24.7754 52.9638 23.8601 52.4354 23.0222 52.748L20.839 53.5625C19.8542 53.9299 18.8244 53.1397 18.9245 52.0934L19.1461 49.7738C19.2312 48.8836 18.484 48.1362 17.5937 48.2214L15.2741 48.443C14.2278 48.543 13.4376 47.5133 13.805 46.5284L14.6195 44.3452C14.932 43.5073 14.4037 42.5921 13.5217 42.4439L11.2238 42.0576C10.1871 41.8834 9.69054 40.6843 10.3004 39.8281L11.6521 37.9301C12.171 37.2016 11.8973 36.1809 11.0839 35.8094L8.96427 34.8416C8.00802 34.4051 7.83869 33.1182 8.64933 32.4491L10.4463 30.9656C11.1359 30.3963 11.1359 29.3395 10.4463 28.7701L8.64948 27.2865C7.83883 26.6174 8.00832 25.3305 8.96442 24.894L11.084 23.9262C11.8976 23.5547 12.1711 22.534 11.6523 21.8055L10.3005 19.9075C9.69069 19.0513 10.1874 17.8522 11.2239 17.678L13.5218 17.2918C14.4038 17.1435 14.9322 16.2283 14.6196 15.3904L13.8051 13.2072C13.4378 12.2224 14.2279 11.1926 15.2742 11.2926L17.5938 11.5143C18.484 11.5994 19.2314 10.8522 19.1463 9.96183L18.9246 7.64225C18.8246 6.59591 19.8544 5.80578 20.8392 6.17316L23.0224 6.98761C23.8603 7.30021 24.7755 6.77184 24.9237 5.88986L25.31 3.59196C25.4842 2.55529 26.6833 2.05871 27.5395 2.66852L29.4375 4.02028C30.166 4.53913 31.1867 4.2655 31.5582 3.45207L32.526 1.33244C32.9625 0.376188 34.2494 0.206852 34.9185 1.0175L36.4018 2.81457C36.9712 3.50422 38.0279 3.50422 38.5973 2.81457Z" fill="#F7E365"/>
<path d="M66.3497 32.4486L64.5528 30.9652C63.8631 30.3958 63.8631 29.339 64.5528 28.7698L66.3497 27.2864C67.1603 26.6172 66.9908 25.3304 66.0347 24.8938L63.9151 23.926C63.1015 23.5545 62.8281 22.5338 63.3469 21.8054L64.6987 19.9074C65.3085 19.0512 64.8117 17.852 63.7752 17.6779L61.4773 17.2916C60.5953 17.1433 60.067 16.2281 60.3796 15.3902L61.194 13.207C61.5614 12.2222 60.7713 11.1924 59.7249 11.2925L57.4054 11.5141C56.5152 11.5992 55.7679 10.8518 55.8529 9.96165L56.0745 7.64207C56.1746 6.59573 55.1448 5.8056 54.16 6.17298L52.9177 6.63646C55.7083 10.9884 57.3267 16.1641 57.3267 21.7179C57.3267 37.1689 44.8013 49.6944 29.3502 49.6944C23.7966 49.6944 18.6207 48.076 14.2688 45.2853L13.8053 46.5277C13.4379 47.5125 14.2281 48.5423 15.2744 48.4422L17.594 48.2206C18.4842 48.1355 19.2315 48.8828 19.1464 49.773L18.9248 52.0926C18.8247 53.1389 19.8545 53.9291 20.8393 53.5617L23.0225 52.7472C23.8604 52.4346 24.7757 52.963 24.9239 53.845L25.3102 56.1429C25.4844 57.1796 26.6835 57.6762 27.5397 57.0663L29.4377 55.7146C30.1661 55.1957 31.1868 55.4694 31.5583 56.2828L32.5262 58.4024C32.9627 59.3587 34.2495 59.528 34.9187 58.7174L36.4021 56.9204C36.9715 56.2308 38.0283 56.2308 38.5976 56.9204L40.0811 58.7174C40.7502 59.528 42.0371 59.3585 42.4736 58.4024L43.4414 56.2828C43.8129 55.4692 44.8336 55.1957 45.5621 55.7146L47.4601 57.0663C48.3163 57.6762 49.5154 57.1794 49.6896 56.1429L50.0759 53.845C50.2241 52.963 51.1393 52.4346 51.9772 52.7472L54.1604 53.5617C55.1452 53.9291 56.175 53.1389 56.075 52.0926L55.8534 49.773C55.7682 48.8828 56.5156 48.1355 57.4058 48.2206L59.7254 48.4422C60.7717 48.5423 61.5618 47.5125 61.1945 46.5277L60.38 44.3445C60.0674 43.5066 60.5958 42.5913 61.4778 42.4431L63.7757 42.0568C64.8123 41.8826 65.3089 40.6835 64.6991 39.8273L63.3473 37.9293C62.8285 37.2009 63.1021 36.1802 63.9156 35.8087L66.0352 34.8409C66.9909 34.4046 67.1603 33.1179 66.3497 32.4486Z" fill="#F3D332"/>
<path d="M37.4996 51.507C49.4506 51.507 59.1389 41.8188 59.1389 29.8678C59.1389 17.9167 49.4506 8.22852 37.4996 8.22852C25.5486 8.22852 15.8604 17.9167 15.8604 29.8678C15.8604 41.8188 25.5486 51.507 37.4996 51.507Z" fill="#E69642"/>
<path d="M57.327 21.7181C57.327 37.1691 44.8016 49.6945 29.3505 49.6945C29.1698 49.6945 28.9895 49.6926 28.8096 49.6893C31.4696 50.8572 34.4086 51.5068 37.4999 51.5068C49.451 51.5068 59.1392 41.8187 59.1392 29.8676C59.1392 26.7763 58.4895 23.8373 57.3216 21.1772C57.3251 21.357 57.327 21.5373 57.327 21.7181Z" fill="#E38523"/>
<path d="M37.4997 46.5604C46.719 46.5604 54.1928 39.0867 54.1928 29.8674C54.1928 20.6481 46.719 13.1743 37.4997 13.1743C28.2804 13.1743 20.8066 20.6481 20.8066 29.8674C20.8066 39.0867 28.2804 46.5604 37.4997 46.5604Z" fill="#F7E365"/>
<path d="M46.6097 15.8784C48.319 18.4981 49.3135 21.6268 49.3135 24.9881C49.3135 34.2074 41.8397 41.6812 32.6205 41.6812C29.2591 41.6812 26.1305 40.6869 23.5107 38.9775C26.4898 43.5429 31.6421 46.561 37.5001 46.561C46.7194 46.561 54.1932 39.0873 54.1932 29.868C54.1931 24.0099 51.175 18.8575 46.6097 15.8784Z" fill="#F3D332"/>
<path d="M36.6717 37.9457L32.8867 39.5779C31.4286 40.2066 29.8293 39.0447 29.9768 37.4637L30.3594 33.3596C30.3858 33.0761 30.3541 32.7902 30.2661 32.5194C30.1781 32.2486 30.0358 31.9986 29.8477 31.7848L27.1259 28.6894C26.0774 27.497 26.6882 25.6169 28.2374 25.2685L32.2589 24.3641C32.5367 24.3016 32.7988 24.1831 33.0292 24.0157C33.2595 23.8483 33.4533 23.6357 33.5986 23.3908L35.7014 19.8455C36.5114 18.4799 38.4882 18.4799 39.2983 19.8455L41.4011 23.3908C41.5464 23.6357 41.7401 23.8483 41.9705 24.0157C42.2009 24.1831 42.463 24.3017 42.7408 24.3641L46.7623 25.2685C48.3115 25.6169 48.9223 27.497 47.8738 28.6894L45.152 31.7848C44.9639 31.9986 44.8216 32.2486 44.7336 32.5194C44.6456 32.7902 44.6139 33.0761 44.6403 33.3596L45.0229 37.4637C45.1703 39.0447 43.5711 40.2066 42.113 39.5779L38.328 37.9457C38.0665 37.833 37.7847 37.7748 37.4998 37.7748C37.215 37.7748 36.9332 37.833 36.6717 37.9457Z" fill="#E69642"/>
<path d="M46.7623 25.2681L44.9317 24.8564C43.3019 31.8326 37.2978 37.1266 29.9688 37.6877C29.984 39.1516 31.4988 40.1761 32.8869 39.5775L36.6719 37.9454C36.9334 37.8326 37.2151 37.7745 37.4999 37.7745C37.7846 37.7745 38.0664 37.8326 38.3279 37.9454L42.1129 39.5775C43.571 40.2062 45.1702 39.0443 45.0228 37.4633L44.6402 33.3591C44.6137 33.0756 44.6455 32.7897 44.7335 32.5189C44.8215 32.2481 44.9638 31.9981 45.1519 31.7843L47.8738 28.6889C48.9224 27.4965 48.3115 25.6164 46.7623 25.2681Z" fill="#E38523"/>
</g>
<defs>
<clipPath id="clip0_604_1375">
<rect width="75" height="75" fill="white" transform="translate(0 0.5)"/>
</clipPath>
</defs>
</svg>
