<svg width="75" height="75" viewBox="0 0 75 75" fill="none" xmlns="http://www.w3.org/2000/svg">
<g clip-path="url(#clip0_603_862)">
<path d="M37.9565 10.043C38.7768 10.043 39.4565 9.375 39.4565 8.54297V2.01562C39.4565 1.19531 38.7885 0.515625 37.9565 0.515625C37.1362 0.515625 36.4565 1.18359 36.4565 2.01562V8.55469C36.4565 9.375 37.1362 10.043 37.9565 10.043ZM40.1948 61.1484H35.226C35.1323 61.1602 35.0385 61.1602 34.933 61.1484H29.4838V66.1758C29.4838 66.9961 29.9643 67.6758 30.6557 67.9805C30.6674 67.9805 30.6674 67.9922 30.6674 67.9922C30.8198 68.0039 30.9487 68.0508 31.0659 68.1328C31.2065 68.1562 31.3354 68.168 31.4643 68.168H43.9213C44.062 68.168 44.1909 68.1562 44.3198 68.1328C44.3315 68.1211 44.3432 68.1211 44.3549 68.1211C44.4721 68.0508 44.5893 68.0039 44.7182 67.9922C44.7182 67.9922 44.7299 67.9805 44.7416 67.9805C45.4213 67.6641 45.9018 66.9961 45.9018 66.1758V61.1484H40.4526H40.1948ZM51.8901 20.0273C47.9877 16.1953 42.7846 14.1445 37.3002 14.2383C26.7182 14.4492 18.0463 22.8047 17.5659 33.2695C17.2963 38.8242 19.4174 44.2852 23.3666 48.2344C27.1635 52.043 27.9838 53.3789 27.9838 58.8398V58.8516H33.6674L29.5776 42.6094C29.4487 42.1406 29.6479 41.6484 30.0463 41.3789C30.4565 41.0977 30.9956 41.1211 31.3823 41.4141L34.0073 43.4063L36.7963 41.4023C37.183 41.1094 37.7104 41.1094 38.1088 41.3789L41.1791 43.4414L44.0854 41.3906C44.4838 41.1094 45.0112 41.1094 45.3979 41.3906C45.7963 41.6602 45.9838 42.1523 45.8666 42.6094L41.7768 58.8516H47.4487C47.4721 53.6953 48.1518 52.1602 52.0776 48.2344C55.8276 44.4727 57.9018 39.4922 57.9018 34.207C57.8666 28.8398 55.7455 23.8008 51.8901 20.0273Z" fill="#DB2777"/>
<path d="M39.3867 58.8516L42.8555 45.0469L41.8242 45.7734C41.4375 46.043 40.9219 46.0547 40.5234 45.7852L37.4648 43.7344L34.6523 45.7617C34.4555 45.9083 34.2161 45.9865 33.9707 45.9844C33.7253 45.9823 33.4873 45.9 33.293 45.75L32.5898 45.2227L36.0234 58.8516H39.3867ZM33.4453 72.5273C33.8789 72.9609 34.3711 73.3594 34.9219 73.6875C35.7422 74.168 36.6914 74.4844 37.6992 74.4844C40.0664 74.4844 42.0469 72.7969 43.043 71.1562C43.1836 70.9219 43.3125 70.6875 43.418 70.4648H31.9922C32.2969 71.1445 32.8008 71.8828 33.4453 72.5273ZM16.3242 14.2852C16.6055 14.5664 16.9805 14.7188 17.3789 14.7188C17.7773 14.7188 18.1641 14.5664 18.4453 14.2734C18.7266 13.9922 18.8789 13.6172 18.8789 13.2187C18.8789 12.8203 18.7148 12.4453 18.4336 12.1641L13.4414 7.23047C13.1602 6.94922 12.7852 6.79688 12.3867 6.79688C11.9883 6.79688 11.6016 6.94922 11.3203 7.24219C11.0391 7.52344 10.8867 7.89844 10.8867 8.29687C10.8867 8.69531 11.0508 9.07031 11.332 9.35156L16.3242 14.2852ZM8.55469 31.8281H1.5C0.679688 31.8281 0 32.4961 0 33.3281C0 34.1602 0.667969 34.8281 1.5 34.8281H8.55469C9.375 34.8281 10.0547 34.1602 10.0547 33.3281C10.0547 32.4961 9.375 31.8281 8.55469 31.8281ZM16.6875 52.2188C16.2891 52.2188 15.9141 52.3711 15.6328 52.6523L10.6406 57.5859C10.3594 57.8672 10.1953 58.2422 10.1953 58.6406C10.1953 59.0391 10.3477 59.4141 10.6289 59.6953C10.7673 59.8356 10.9319 59.9472 11.1135 60.0238C11.2951 60.1003 11.49 60.1403 11.687 60.1414C11.8841 60.1425 12.0794 60.1047 12.2618 60.0301C12.4442 59.9556 12.6101 59.8458 12.75 59.707L17.7422 54.7734C18.0234 54.4922 18.1875 54.1172 18.1875 53.7188C18.1875 53.3203 18.0352 52.9453 17.7539 52.6641C17.4727 52.3828 17.0859 52.2188 16.6875 52.2188ZM58.6758 53.3438C58.3945 53.0625 58.0195 52.9102 57.6211 52.9102C57.2227 52.9102 56.8359 53.0625 56.5547 53.3555C56.2734 53.6367 56.1211 54.0117 56.1211 54.4102C56.1211 54.8086 56.2852 55.1836 56.5664 55.4648L61.5586 60.3984C61.8398 60.6797 62.2148 60.832 62.6133 60.832C63.0117 60.832 63.3984 60.6797 63.6797 60.3867C63.9609 60.1055 64.1133 59.7305 64.1133 59.332C64.1133 58.9336 63.9492 58.5586 63.668 58.2773L58.6758 53.3438ZM73.5 32.8008H66.4453C65.625 32.8008 64.9453 33.4688 64.9453 34.3008C64.9453 35.1328 65.6133 35.8008 66.4453 35.8008H73.5C74.3203 35.8008 75 35.1328 75 34.3008C75 33.4688 74.332 32.8008 73.5 32.8008ZM63.3047 7.47656C62.9062 7.47656 62.5312 7.62891 62.25 7.91016L57.2578 12.8438C56.9913 13.1265 56.8452 13.5018 56.8504 13.8902C56.8557 14.2787 57.0117 14.6499 57.2857 14.9254C57.5597 15.2009 57.93 15.359 58.3185 15.3664C58.7069 15.3738 59.083 15.2298 59.3672 14.9648L64.3594 10.0313C64.6406 9.75 64.8047 9.375 64.8047 8.97656C64.8047 8.57812 64.6523 8.20312 64.3711 7.92188C64.0898 7.62891 63.7031 7.47656 63.3047 7.47656Z" fill="#DB2777"/>
</g>
<defs>
<clipPath id="clip0_603_862">
<rect width="75" height="75" fill="white"/>
</clipPath>
</defs>
</svg>
