<svg width="75" height="75" viewBox="0 0 75 75" fill="none" xmlns="http://www.w3.org/2000/svg">
<g clip-path="url(#clip0_622_1466)">
<path d="M20.1944 42.2592L25.8768 45.6138L18.4814 30.9373L1.92509 31.4305L7.27151 34.6017L0 48.0607C0 48.0607 5.83961 58.6439 9.82083 64.9624C11.4481 67.5451 13.6258 69.0079 15.7152 69.0079H36.977V53.6787L13.8831 53.6715L20.1944 42.2592ZM39.767 24.9357L55.8801 25.9006L63.6067 11.2552L58.2126 14.3453L50.081 1.38668C50.081 1.38668 37.9944 1.24849 30.5394 1.60826C27.4898 1.75597 25.1406 2.92818 24.1137 4.7413L13.6377 23.2465L26.9775 30.7991L38.3613 10.7024L45.1825 21.817L39.767 24.9357ZM74.4067 43.6339L64.2929 24.9309L50.8101 32.2263L61.7864 52.5422L48.7468 52.4159L48.9422 46.5096L39.6026 59.311L47.9105 73.6396L48.1559 67.4307L63.4566 67.4236C63.4566 67.4236 69.9895 57.2501 73.6467 50.7458C75.1501 48.0845 75.4003 45.4756 74.4067 43.6339Z" fill="#FFC107"/>
</g>
<defs>
<clipPath id="clip0_622_1466">
<rect width="75" height="75" fill="white"/>
</clipPath>
</defs>
</svg>
