<svg width="75" height="75" viewBox="0 0 75 75" fill="none" xmlns="http://www.w3.org/2000/svg">
<g clip-path="url(#clip0_622_1474)">
<path d="M43.672 20.0193C34.5805 18.1134 27.4744 11.0073 25.5688 1.9156C25.4551 1.37404 25.1587 0.888064 24.7291 0.53927C24.2995 0.190476 23.763 0.000104892 23.2096 0.000122071C22.6563 0.000139251 22.1198 0.190544 21.6903 0.539364C21.2607 0.888185 20.9642 1.37418 20.8506 1.91575C18.9449 11.0073 11.8388 18.1133 2.74723 20.0189C2.20575 20.1325 1.71985 20.429 1.37111 20.8586C1.02238 21.2881 0.832031 21.8246 0.832031 22.3779C0.832031 22.9311 1.02238 23.4676 1.37111 23.8971C1.71985 24.3267 2.20575 24.6232 2.74723 24.7368C11.8386 26.6427 18.9444 33.7487 20.8502 42.8403C20.9637 43.3819 21.2602 43.8679 21.6897 44.2168C22.1193 44.5656 22.6558 44.756 23.2092 44.756C23.7626 44.756 24.2991 44.5656 24.7286 44.2168C25.1582 43.8679 25.4546 43.3819 25.5682 42.8403C27.4741 33.7487 34.5803 26.6427 43.6719 24.7373C44.2135 24.6238 44.6995 24.3273 45.0484 23.8978C45.3973 23.4682 45.5877 22.9317 45.5877 22.3784C45.5877 21.825 45.3973 21.2885 45.0485 20.8589C44.6997 20.4293 44.2136 20.1329 43.672 20.0193ZM39.6877 59.8365C35.4042 58.9387 32.0561 55.5907 31.158 51.3069C31.0445 50.7653 30.7481 50.2793 30.3185 49.9304C29.889 49.5815 29.3525 49.3911 28.7991 49.3911C28.2457 49.391 27.7092 49.5815 27.2796 49.9303C26.8501 50.2791 26.5536 50.7652 26.4401 51.3068C25.542 55.5904 22.1938 58.9384 17.9103 59.8364C17.3688 59.9501 16.8829 60.2466 16.5342 60.6761C16.1854 61.1057 15.9951 61.6421 15.9951 62.1954C15.9951 62.7487 16.1854 63.2851 16.5342 63.7147C16.8829 64.1442 17.3688 64.4407 17.9103 64.5544C22.1936 65.4523 25.5418 68.8005 26.4398 73.0842C26.5533 73.6258 26.8497 74.1118 27.2793 74.4607C27.7089 74.8095 28.2454 74.9999 28.7987 74.9999C29.3521 74.9999 29.8886 74.8095 30.3182 74.4607C30.7478 74.1118 31.0442 73.6258 31.1577 73.0842C32.0558 68.8005 35.404 65.4525 39.6877 64.5545C40.2291 64.4408 40.715 64.1444 41.0638 63.7148C41.4125 63.2853 41.6029 62.7488 41.6029 62.1955C41.6029 61.6422 41.4125 61.1058 41.0638 60.6763C40.715 60.2467 40.2291 59.9502 39.6877 59.8365ZM72.2519 37.5198C66.4619 36.306 61.9366 31.7805 60.723 25.9907C60.6095 25.4491 60.313 24.9631 59.8835 24.6142C59.4539 24.2654 58.9174 24.0749 58.364 24.0749C57.8107 24.0749 57.2741 24.2653 56.8446 24.6141C56.415 24.963 56.1185 25.449 56.005 25.9906C54.7912 31.7805 50.2659 36.3059 44.4759 37.5195C43.9345 37.6332 43.4486 37.9297 43.0998 38.3592C42.7511 38.7888 42.5607 39.3252 42.5607 39.8785C42.5607 40.4318 42.7511 40.9682 43.0998 41.3978C43.4486 41.8273 43.9345 42.1238 44.4759 42.2375C50.2657 43.4512 54.7911 47.9766 56.0047 53.7665C56.1182 54.3081 56.4147 54.7942 56.8442 55.143C57.2738 55.4919 57.8103 55.6823 58.3637 55.6823C58.9171 55.6823 59.4536 55.4919 59.8831 55.143C60.3127 54.7942 60.6091 54.3081 60.7227 53.7665C61.9366 47.9766 66.4619 43.4512 72.2517 42.2378C72.7933 42.1243 73.2794 41.8278 73.6283 41.3983C73.9771 40.9687 74.1675 40.4322 74.1676 39.8788C74.1676 39.3255 73.9772 38.7889 73.6283 38.3594C73.2795 37.9298 72.7935 37.6333 72.2519 37.5198Z" fill="#6B21A8"/>
</g>
<defs>
<clipPath id="clip0_622_1474">
<rect width="75" height="75" fill="white"/>
</clipPath>
</defs>
</svg>
