<svg width="75" height="75" viewBox="0 0 75 75" fill="none" xmlns="http://www.w3.org/2000/svg">
<path d="M71.4266 38.7188C70.536 37.7461 69.2821 37.2422 67.9461 37.2305C66.4344 37.2539 65.0516 38.0274 64.2313 39.2227V29.7422C64.2313 27.9727 63.2703 26.3789 61.7938 25.5117C62.0516 24.8906 62.2977 24.2696 62.4969 23.6602C64.4657 17.5078 63.0594 11.6367 58.7352 7.98049C55.536 5.27346 52.0907 4.10158 48.5282 4.51174C43.3016 5.09768 39.2469 8.88283 37.5008 10.8047C35.7547 8.88283 31.7 5.09768 26.4735 4.51174C22.911 4.10158 19.4657 5.27346 16.2664 7.98049C11.9422 11.6367 10.536 17.5078 12.5047 23.6602C12.7039 24.2696 12.95 24.8906 13.2078 25.5117C11.7313 26.3789 10.7703 27.9727 10.7703 29.7422V39.2227C10.3541 38.6192 9.79994 38.1237 9.15388 37.7773C8.50783 37.4308 7.78848 37.2434 7.0555 37.2305C5.75472 37.2422 4.46566 37.7461 3.57503 38.7188C2.67269 39.6914 2.2391 41.0156 2.368 42.3399L2.43831 43.0664C2.75472 46.3711 3.23519 51.375 6.18831 55.4531C6.52816 55.9336 6.85628 56.3789 7.18441 56.8008C9.25863 59.5899 10.6297 61.418 10.6532 65.0625V69.3985C10.6532 70.043 11.1805 70.5703 11.825 70.5703C12.4696 70.5703 12.9969 70.043 12.9969 69.3985V65.0508C12.9618 60.6328 11.2391 58.3242 9.05941 55.4063C8.743 54.9844 8.4266 54.5508 8.08675 54.0821C5.50863 50.5196 5.07503 46.0781 4.77035 42.8438L4.70003 42.1055C4.62972 41.4375 4.84066 40.793 5.29769 40.3125C5.743 39.8203 6.34066 39.5508 7.00863 39.5742C8.01644 39.586 8.90706 40.2656 9.16488 41.2266C9.72738 43.2774 10.325 44.8711 10.8641 46.0547H10.8758C11.7196 47.9297 12.3875 48.7852 12.4344 48.8438C12.6688 49.1367 13.0203 49.3008 13.4071 49.2774C13.8289 49.2656 23.6024 48.8789 24.4578 56.9531C24.474 57.1063 24.5202 57.2547 24.5937 57.39C24.6672 57.5253 24.7667 57.6448 24.8864 57.7416C25.0061 57.8385 25.1437 57.9108 25.2913 57.9544C25.439 57.9981 25.5938 58.0123 25.7469 57.9961C25.9 57.98 26.0485 57.9338 26.1838 57.8603C26.319 57.7867 26.4385 57.6873 26.5354 57.5676C26.6322 57.4479 26.7045 57.3103 26.7482 57.1626C26.7919 57.015 26.806 56.8602 26.7899 56.7071C25.9578 48.9141 18.4344 46.9219 13.993 46.9219H13.9578C13.7586 46.5938 13.4539 46.0664 13.1141 45.3399V29.7422C13.1141 28.875 13.5594 28.0899 14.2625 27.6328C15.2821 29.4492 16.5946 31.2422 18.1883 32.8946V43.875C18.1883 44.5313 18.7157 45.0469 19.3602 45.0469C20.0047 45.0469 20.5321 44.5313 20.5321 43.875V35.0508C22.0438 36.293 23.743 37.418 25.6063 38.3789V43.875C25.6063 44.5313 26.1336 45.0469 26.7782 45.0469C27.4227 45.0469 27.95 44.5313 27.95 43.875V39.4688C29.5321 40.1133 31.2313 40.6406 33.0243 41.0274V48.8789C33.0243 52.5 32.1922 56.1446 30.6336 59.4024C30.5516 59.5664 30.5164 59.7422 30.5164 59.918V69.3985C30.5164 70.043 31.0438 70.5703 31.6883 70.5703C32.3328 70.5703 32.8602 70.043 32.8602 69.3985V60.1758C34.5008 56.6602 35.368 52.7578 35.368 48.8789V41.461C36.036 41.5547 36.7039 41.6485 37.4071 41.6953C37.4305 41.7071 37.4657 41.7071 37.5008 41.7071C37.536 41.7071 37.5711 41.7071 37.5946 41.6953C38.2977 41.6485 38.9657 41.5547 39.6336 41.461V48.8789C39.6336 52.7578 40.5008 56.6602 42.1414 60.1758V69.3985C42.1414 70.043 42.6688 70.5703 43.3133 70.5703C43.9578 70.5703 44.4852 70.043 44.4852 69.3985V59.918C44.4852 59.7422 44.45 59.5664 44.368 59.4024C42.8007 56.1152 41.9841 52.5206 41.9774 48.8789V41.0274C43.7703 40.6406 45.4696 40.1133 47.0516 39.4688V43.875C47.0516 44.5313 47.5789 45.0469 48.2235 45.0469C48.868 45.0469 49.3953 44.5313 49.3953 43.875V38.3789C51.2586 37.418 52.9578 36.293 54.4696 35.0508V43.875C54.4696 44.5313 54.9969 45.0469 55.6414 45.0469C56.286 45.0469 56.8133 44.5313 56.8133 43.875V32.8946C58.4071 31.2422 59.7196 29.4492 60.7391 27.6328C61.4422 28.0899 61.8875 28.875 61.8875 29.7422V45.3399C61.5477 46.0664 61.243 46.5938 61.0438 46.9219C56.5672 46.9453 49.0438 48.8906 48.2118 56.7071C48.1791 57.0163 48.2707 57.3258 48.4663 57.5676C48.6619 57.8093 48.9455 57.9635 49.2547 57.9961C49.564 58.0288 49.8735 57.9372 50.1153 57.7416C50.357 57.546 50.5112 57.2624 50.5438 56.9531C51.3993 48.8789 61.1727 49.2656 61.5946 49.2774C61.9696 49.3008 62.3328 49.1367 62.5672 48.8438C62.6141 48.7852 63.2821 47.9297 64.1258 46.0664C64.1375 46.0664 64.1375 46.0547 64.1375 46.0547C64.6766 44.8711 65.2743 43.2774 65.8368 41.2266C66.0946 40.2656 66.9852 39.586 67.993 39.5742C68.6844 39.5391 69.2586 39.8203 69.7039 40.3125C70.161 40.793 70.3719 41.4375 70.3016 42.1055L70.2313 42.8438C69.9266 46.0781 69.493 50.5196 66.9149 54.0821C66.575 54.5508 66.2586 54.9844 65.9422 55.4063C63.7625 58.3242 62.0399 60.6328 62.0047 65.0625V69.3985C62.0047 70.043 62.5321 70.5703 63.1766 70.5703C63.8211 70.5703 64.3485 70.043 64.3485 69.3985V65.0742C64.3719 61.418 65.743 59.5899 67.8172 56.8008C68.1453 56.3789 68.4735 55.9336 68.8133 55.4531C71.7664 51.375 72.2469 46.3711 72.5633 43.0664L72.6336 42.3399C72.7625 41.0156 72.3289 39.6914 71.4266 38.7188ZM54.5047 21.0938C55.0321 19.418 55.5946 16.3242 53.3094 14.4024C52.0672 13.3477 50.9422 12.8321 49.8758 12.8321C49.2313 12.8321 48.7039 12.3047 48.7039 11.6602C48.7039 11.0156 49.2313 10.4883 49.8758 10.4883C51.5164 10.4883 53.1336 11.1797 54.8211 12.6094C58.1493 15.4219 57.4461 19.5703 56.7313 21.7969C56.5789 22.3008 56.1102 22.6172 55.618 22.6172C55.5008 22.6172 55.3836 22.5938 55.2664 22.5586C55.1199 22.513 54.9838 22.4388 54.866 22.3404C54.7483 22.2419 54.6512 22.1211 54.5804 21.9849C54.5095 21.8487 54.4664 21.6999 54.4534 21.5469C54.4404 21.394 54.4579 21.2399 54.5047 21.0938Z" fill="#F59E0B"/>
</svg>
