<svg width="75" height="76" viewBox="0 0 75 76" fill="none" xmlns="http://www.w3.org/2000/svg">
<path d="M10.9391 14.6501L13.7177 19.1733L18.8888 20.4235C19.5327 20.5772 19.9272 21.2251 19.7694 21.8689C19.7276 22.0534 19.6405 22.2247 19.516 22.3672L16.0686 26.4169L16.4798 31.7292C16.5296 32.3897 16.0311 32.967 15.3709 33.0168C15.1563 33.0329 14.9412 32.9913 14.7479 32.8964L9.90078 30.8942L4.9789 32.9295C4.36821 33.1786 3.66626 32.8879 3.41298 32.2732C3.34238 32.103 3.30898 31.9161 3.32553 31.7292L3.73686 26.4169L0.289645 22.3672C-0.142337 21.8646 -0.0843294 21.1045 0.418259 20.6769C0.572693 20.5414 0.76059 20.4496 0.962448 20.4112L6.08779 19.1734L8.8789 14.6337C9.22373 14.0689 9.96714 13.8902 10.532 14.2391C10.6982 14.342 10.8377 14.4829 10.9391 14.6501ZM64.0615 14.6585L61.2828 19.1816L56.1116 20.4319C55.4678 20.5855 55.0733 21.2334 55.227 21.8772C55.2715 22.0608 55.3582 22.2315 55.4803 22.3757L58.9319 26.4253L58.5207 31.7375C58.5085 31.895 58.5276 32.0533 58.5768 32.2033C58.626 32.3534 58.7044 32.4922 58.8074 32.6119C58.9105 32.7316 59.0362 32.8297 59.1773 32.9006C59.3184 32.9715 59.4721 33.0138 59.6296 33.0251C59.8429 33.0408 60.0566 32.9993 60.2485 32.9047L65.0955 30.9027L70.0174 32.938C70.6322 33.1871 71.3341 32.8964 71.5832 32.2858C71.6547 32.1124 71.686 31.925 71.6746 31.7377L71.2634 26.4254L74.7106 22.3759C74.8134 22.2564 74.8916 22.1178 74.9406 21.968C74.9896 21.8182 75.0085 21.6602 74.9962 21.503C74.9838 21.3459 74.9405 21.1927 74.8687 21.0524C74.7969 20.9121 74.6981 20.7874 74.5779 20.6854C74.4214 20.553 74.2343 20.4617 74.0337 20.4197L68.9083 19.1819L66.1215 14.6463C65.9551 14.3743 65.6875 14.1795 65.3775 14.1047C65.0675 14.0299 64.7405 14.0813 64.4684 14.2476C64.3013 14.3493 64.1615 14.4904 64.0615 14.6585Z" fill="#EBB044"/>
<path d="M16.2553 28.8551L16.4795 31.7293C16.5293 32.3898 16.0308 32.9671 15.3706 33.0169C15.1559 33.033 14.9408 32.9915 14.7476 32.8965L9.90071 30.8945L4.97883 32.9297C4.36814 33.1789 3.66619 32.8881 3.41291 32.2735C3.34231 32.1033 3.30891 31.9164 3.32546 31.7295L3.54988 28.8553C3.86555 29.2955 4.4553 29.4824 4.97869 29.2665L9.1362 27.547C9.647 27.3351 10.162 27.3393 10.6687 27.547L14.7476 29.2332C14.9408 29.3282 15.1559 29.3698 15.3706 29.3536C15.546 29.3421 15.7165 29.2913 15.8696 29.205C16.0228 29.1187 16.1546 28.9992 16.2553 28.8551ZM58.7408 28.8676L58.5208 31.7377C58.5086 31.8951 58.5277 32.0534 58.5769 32.2035C58.6261 32.3535 58.7045 32.4924 58.8075 32.612C58.9106 32.7317 59.0362 32.8298 59.1773 32.9007C59.3184 32.9716 59.4722 33.0139 59.6297 33.0253C59.843 33.041 60.0567 32.9994 60.2486 32.9048L65.0956 30.9028L70.0175 32.9381C70.6322 33.1873 71.3342 32.8965 71.5832 32.2859C71.6548 32.1125 71.6861 31.9251 71.6746 31.7378L71.4504 28.8636C71.2931 29.0839 71.0658 29.2444 70.8056 29.3191C70.5454 29.3938 70.2676 29.3782 70.0175 29.2748L66.0011 27.6134C65.4155 27.3724 64.7925 27.3683 64.1943 27.6134L60.2486 29.2416C60.0618 29.3371 59.8497 29.3787 59.6297 29.362C59.2601 29.3369 58.9444 29.1459 58.7408 28.8676Z" fill="#FF9838"/>
<path d="M23.2496 12.5568L26.8258 18.3799L33.4795 19.9831C34.3061 20.1825 34.8169 21.0173 34.6177 21.848C34.5593 22.0837 34.447 22.3027 34.2896 22.4876L29.8537 27.696L30.3814 34.5325C30.4436 35.3839 29.808 36.1275 28.9565 36.1897C28.6804 36.2097 28.4039 36.1568 28.1548 36.0361L21.9206 33.4609L15.5866 36.0734C14.7973 36.3974 13.896 36.0236 13.5721 35.2344C13.4801 35.0124 13.4403 34.7722 13.456 34.5324L13.9876 27.6958L9.54734 22.4874C8.9951 21.8395 9.06966 20.8634 9.7177 20.3111C9.91805 20.1384 10.16 20.021 10.4197 19.9705L17.011 18.3797L20.5997 12.5359C21.0481 11.809 22.0036 11.5806 22.7303 12.0292C22.9428 12.1614 23.1208 12.3422 23.2496 12.5568ZM51.7463 12.5693L48.1742 18.3882L41.5205 19.9915C41.1223 20.088 40.7788 20.3386 40.5654 20.6883C40.3519 21.038 40.2861 21.4582 40.3823 21.8564C40.4405 22.0931 40.5486 22.3133 40.7104 22.4959L45.1463 27.7045L44.6145 34.541C44.5523 35.3924 45.192 36.136 46.0435 36.1982C46.3196 36.2182 46.5961 36.1652 46.8452 36.0446L53.0794 33.4694L59.4134 36.0819C60.2027 36.4058 61.104 36.0321 61.4279 35.2429C61.5209 35.0212 61.5593 34.7805 61.5399 34.5409L61.0124 27.7043L65.4483 22.4958C65.5806 22.3421 65.6812 22.1638 65.7445 21.9712C65.8077 21.7786 65.8323 21.5753 65.8169 21.3731C65.8015 21.171 65.7463 20.9738 65.6545 20.793C65.5628 20.6122 65.4362 20.4513 65.2822 20.3195C65.0808 20.1483 64.8393 20.0311 64.5802 19.9789L57.9847 18.3881L54.396 12.5486C53.9516 11.8175 52.9962 11.5934 52.2695 12.0378C52.0538 12.1689 51.874 12.3515 51.7463 12.5693Z" fill="#FFD064"/>
<path d="M30.1689 31.775L30.3809 34.533C30.4431 35.3844 29.8075 36.128 28.956 36.1902C28.6799 36.2102 28.4034 36.1572 28.1543 36.0366L21.9201 33.4614L15.5861 36.0739C14.7968 36.3979 13.8955 36.0241 13.5716 35.2348C13.4796 35.0129 13.4398 34.7727 13.4555 34.5329L13.6714 31.7708C14.0534 32.4187 14.8676 32.7054 15.5861 32.4105L21.1351 30.1218C21.6626 29.9018 22.2025 29.9142 22.7008 30.1218L28.1543 32.3731C28.4035 32.4937 28.6799 32.5467 28.956 32.5268C29.4753 32.4894 29.9199 32.1946 30.1689 31.775ZM44.8307 31.7875L44.6145 34.5412C44.5522 35.3926 45.1919 36.1362 46.0434 36.1984C46.3195 36.2184 46.596 36.1654 46.8451 36.0448L53.0794 33.4696L59.4133 36.0821C60.2026 36.406 61.1039 36.0323 61.4278 35.243C61.5209 35.0214 61.5593 34.7807 61.5399 34.5411L61.3282 31.7791C60.9418 32.4311 60.132 32.7178 59.4135 32.4229L53.8396 30.122C53.3578 29.9185 52.8261 29.9101 52.3194 30.122L46.8453 32.3815C46.5961 32.5021 46.3197 32.5551 46.0436 32.5351C45.52 32.4976 45.0797 32.2029 44.8307 31.7875Z" fill="#FFC250"/>
<path fill-rule="evenodd" clip-rule="evenodd" d="M54.9321 57.7378C61.2869 55.2624 67.6707 53.6758 74.0628 52.9822C74.5736 52.9323 74.8146 52.517 74.6111 52.0476L72.0027 46.1083C71.7786 45.6014 71.7494 45.0782 72.0027 44.505L74.6067 38.5697C74.831 38.0588 74.5944 37.7556 74.0502 37.8137C67.6789 38.5116 61.3033 40.0939 54.932 42.5653V57.7378H54.9321ZM20.0267 57.7378C13.6719 55.2624 7.28809 53.6758 0.895806 52.9822C0.385015 52.9323 0.144048 52.517 0.351763 52.0476L2.95596 46.1083C3.18008 45.6014 3.20923 45.0782 2.95596 44.5009L0.351763 38.5697C0.127495 38.0588 0.364214 37.7556 0.908403 37.8137C7.28384 38.5116 13.6553 40.0939 20.0267 42.5653V57.7378Z" fill="#D82E3D"/>
<path fill-rule="evenodd" clip-rule="evenodd" d="M54.9322 57.7376C61.287 55.2622 67.6708 53.6756 74.0629 52.982C74.5737 52.932 74.8147 52.5167 74.6112 52.0474L73.444 49.3892C67.2554 50.116 61.0835 51.6777 54.9322 54.0742V57.7376ZM20.0268 57.7376C13.672 55.2622 7.28818 53.6756 0.895895 52.982C0.385104 52.932 0.144137 52.5167 0.351852 52.0474L1.51479 49.3892C7.70332 50.116 13.8794 51.6777 20.0266 54.0742V57.7376H20.0268Z" fill="#C32430"/>
<path fill-rule="evenodd" clip-rule="evenodd" d="M54.9319 49.8048V42.5654C57.9722 43.338 61.0125 44.2228 64.0569 46.8643C61.0207 48.048 57.9765 49.0282 54.9319 49.8048ZM20.0265 49.8048V42.5654C16.986 43.338 13.9459 44.2228 10.9014 46.8643C13.9375 48.048 16.9818 49.0282 20.0265 49.8048Z" fill="#A71F29"/>
<path fill-rule="evenodd" clip-rule="evenodd" d="M10.9014 46.8643C28.5202 53.7339 46.3384 53.7506 64.0569 46.8643V61.1562C64.0654 61.8748 63.5212 62.2486 63.1932 62.369C46.0519 68.8152 28.9065 68.7985 11.7653 62.369C11.4082 62.2362 10.9346 61.9081 10.9015 61.1604L10.9014 46.8643Z" fill="#DD636E"/>
<path fill-rule="evenodd" clip-rule="evenodd" d="M64.0567 57.5261V61.1561C64.0652 61.8748 63.521 62.2486 63.1931 62.369C46.0518 68.8152 28.9063 68.7985 11.7652 62.369C11.4081 62.2361 10.9345 61.908 10.9014 61.1604V57.4971C10.9346 58.2446 11.4081 58.5727 11.7652 58.7057C28.9065 65.1352 46.0519 65.1518 63.1931 58.7057C63.5168 58.5894 64.0484 58.2238 64.0567 57.5261Z" fill="#DA4A54"/>
<path d="M10.9015 50.8224C13.6469 51.8939 16.7952 52.9448 19.5532 53.6757C22.275 54.4031 25.0378 54.9675 27.8268 55.3662C28.1152 55.4072 28.3757 55.561 28.5509 55.7938C28.7261 56.0266 28.8018 56.3195 28.7613 56.6081C28.674 57.2062 28.1174 57.6257 27.5193 57.5385C24.6466 57.1263 21.8007 56.5453 18.9964 55.7983C16.4254 55.113 13.5306 54.1659 10.9014 53.1692L10.9015 50.8224ZM64.057 53.1525C61.4281 54.1493 58.5331 55.1129 55.9622 55.7983C53.1579 56.5458 50.3119 57.1269 47.4391 57.5385C46.8412 57.6257 46.2845 57.2063 46.2013 56.6081C46.1805 56.4654 46.188 56.32 46.2235 56.1802C46.2591 56.0404 46.3219 55.9091 46.4083 55.7936C46.4948 55.6782 46.6032 55.5811 46.7274 55.5077C46.8515 55.4343 46.989 55.3862 47.1318 55.3662C49.9208 54.9675 52.6836 54.403 55.4055 53.6757C58.1634 52.9448 61.3116 51.8773 64.057 50.8057V53.1525ZM64.057 58.2944C62.267 58.9713 60.2525 59.6734 58.5248 60.1966C56.5187 60.8031 54.5332 61.3222 52.5771 61.7458C51.9831 61.8746 51.4015 61.4967 51.2729 60.9027C51.1441 60.3129 51.5221 59.7273 52.1121 59.5985C54.0576 59.178 55.9849 58.6778 57.8893 58.0991C59.8083 57.5177 62.1259 56.6995 64.057 55.9477V58.2944ZM10.9015 55.9685C12.8329 56.7203 15.1504 57.5177 17.0692 58.0991C18.9737 58.6778 20.9011 59.178 22.8466 59.5985C23.4363 59.7273 23.8143 60.3129 23.6856 60.9027C23.557 61.4967 22.9755 61.8746 22.3815 61.7458C20.4252 61.3222 18.44 60.8029 16.4338 60.1966C14.7059 59.6734 12.6916 58.988 10.9014 58.3152L10.9015 55.9685Z" fill="#E28086"/>
<path d="M39.2074 9.78647L43.8508 17.3458L52.4941 19.4309C53.5699 19.6925 54.2304 20.7724 53.9687 21.8481C53.8938 22.1555 53.7526 22.4421 53.5449 22.683L47.78 29.4448L48.4695 38.3248C48.5525 39.4296 47.7218 40.3934 46.617 40.4764C46.2593 40.5047 45.9005 40.4359 45.5786 40.2772L37.4795 36.9294L29.2556 40.327C28.2297 40.7465 27.0584 40.2605 26.6391 39.2347C26.5228 38.948 26.4646 38.6366 26.4896 38.325L27.1792 29.445L21.4143 22.6831C20.6956 21.8401 20.7911 20.5733 21.6343 19.8546C21.8945 19.6312 22.2077 19.4781 22.5439 19.4102L31.1083 17.3459L35.7684 9.76171C36.3499 8.81484 37.5876 8.51982 38.5346 9.10136C38.8121 9.27061 39.0432 9.506 39.2074 9.78647Z" fill="#FFF0AF"/>
<path d="M48.2663 35.7039L48.47 38.3248C48.553 39.4296 47.7223 40.3933 46.6175 40.4764C46.2597 40.5047 45.901 40.4359 45.5791 40.2772L37.48 36.9294L29.256 40.327C28.2302 40.7465 27.0589 40.2605 26.6395 39.2347C26.5232 38.948 26.4651 38.6366 26.4901 38.325L26.6937 35.6959C27.1546 36.6346 28.272 37.0665 29.2562 36.6637L36.5621 33.6483C37.2142 33.3784 37.8123 33.4033 38.4021 33.6483L45.5791 36.6139C45.9009 36.7727 46.2597 36.8416 46.6175 36.8133C46.9653 36.7885 47.3005 36.673 47.5898 36.4784C47.8791 36.2837 48.1123 36.0167 48.2663 35.7039Z" fill="#FFE07D"/>
</svg>
