<svg width="75" height="75" viewBox="0 0 75 75" fill="none" xmlns="http://www.w3.org/2000/svg">
<path d="M39.594 26.6562C38.9065 26.5938 38.1878 26.5625 37.5003 26.5625C37.0628 26.5625 36.6565 26.5625 36.219 26.5938C31.0979 26.8363 26.1578 28.5626 22.0003 31.5625L6.53151 3.46875C6.34401 3.1111 6.24867 2.71233 6.25413 2.30854C6.25958 1.90476 6.36566 1.50871 6.56276 1.15625C7.00026 0.4375 7.75026 0 8.59401 0H22.6565C23.5003 0 24.2503 0.4375 24.6878 1.15625L37.844 23.6562L39.594 26.6562ZM68.469 3.46875L53.0003 31.5625C50.8128 29.9688 48.3753 28.7188 45.7503 27.875L40.5003 18.875L50.2815 1.21875C50.4889 0.853164 50.7884 0.54828 51.1503 0.334453C51.5122 0.120626 51.9237 0.00531474 52.344 0L66.4065 0C67.2503 0 68.0003 0.4375 68.4378 1.15625C68.844 1.875 68.844 2.75 68.469 3.46875ZM37.5003 31.25C25.4378 31.25 15.6253 41.0625 15.6253 53.125C15.6253 65.1875 25.4378 75 37.5003 75C49.5628 75 59.3753 65.1875 59.3753 53.125C59.3753 41.0625 49.5628 31.25 37.5003 31.25ZM49.3346 52.3656L45.0815 56.725L46.0909 62.9062C46.1609 63.3401 46.1075 63.7849 45.9368 64.1898C45.7662 64.5948 45.4851 64.9436 45.1257 65.1965C44.7662 65.4493 44.343 65.596 43.9042 65.6199C43.4654 65.6437 43.0287 65.5437 42.644 65.3313L37.5003 62.4906L32.3565 65.3344C31.9716 65.5493 31.5339 65.6512 31.0937 65.6283C30.6535 65.6053 30.2287 65.4586 29.8682 65.2049C29.5077 64.9512 29.2262 64.6008 29.0561 64.1942C28.8859 63.7875 28.8341 63.3411 28.9065 62.9062L29.9159 56.725L25.6628 52.3656C25.362 52.0571 25.1521 51.6717 25.0561 51.2516C24.9601 50.8316 24.9817 50.3932 25.1187 49.9846C25.2556 49.5761 25.5025 49.2132 25.8322 48.9359C26.162 48.6585 26.5618 48.4774 26.9878 48.4125L32.7721 47.5281L35.3784 41.975C36.1471 40.3281 38.8503 40.3281 39.619 41.975L42.2253 47.5281L48.0096 48.4125C48.4356 48.4774 48.8354 48.6585 49.1651 48.9359C49.4949 49.2132 49.7418 49.5761 49.8787 49.9846C50.0156 50.3932 50.0373 50.8316 49.9413 51.2516C49.8453 51.6717 49.6354 52.0571 49.3346 52.3656Z" fill="#FFC107"/>
</svg>
