<svg width="75" height="75" viewBox="0 0 75 75" fill="none" xmlns="http://www.w3.org/2000/svg">
<g clip-path="url(#clip0_603_916)">
<path d="M37.5001 74.9999C40.7401 74.9999 43.5376 73.0764 44.8157 70.3124H30.1846C31.4627 73.0764 34.2602 74.9999 37.5001 74.9999ZM35.3029 55.664V37.8944C30.2943 37.0098 26.5139 33.1627 26.5139 28.5646C26.5139 27.3511 27.4977 26.3673 28.7111 26.3673C29.9246 26.3673 30.9084 27.3511 30.9084 28.5646C30.9084 30.7925 32.7454 32.6921 35.3029 33.3975V1.50205C33.7729 0.521041 31.9935 -0.000180646 30.176 0.000299403C25.5551 0.000299403 21.6136 3.33675 20.8107 7.8398C15.5193 9.38726 11.8655 14.2269 11.8655 19.7756C11.8655 22.7425 12.9158 25.5778 14.8368 27.8322C12.916 30.0865 11.8655 32.9219 11.8655 35.8888C11.8655 41.4376 15.5193 46.2771 20.8107 47.8245C21.6134 52.3274 25.5551 55.664 30.176 55.664H35.3029ZM26.5139 62.2558C26.5139 64.2783 28.1535 65.9179 30.176 65.9179H44.8243C46.8468 65.9179 48.4864 64.2783 48.4864 62.2558V60.0585H26.5139V62.2558ZM54.1894 7.83966C53.3867 3.33675 49.4451 0.000152919 44.8242 0.000152919C43.0067 -0.000327129 41.2272 0.520895 39.6973 1.5019V17.7699C44.7058 18.6545 48.4863 22.5016 48.4863 27.0998C48.4863 28.3132 47.5025 29.297 46.289 29.297C45.0755 29.297 44.0918 28.3132 44.0918 27.0998C44.0918 24.8719 42.2547 22.9723 39.6973 22.2668V55.664H44.8242C49.445 55.664 53.3867 52.3276 54.1894 47.8245C59.4809 46.2771 63.1346 41.4374 63.1346 35.8888C63.1346 32.9219 62.0843 30.0865 60.1635 27.8322C62.0843 25.5778 63.1346 22.7425 63.1346 19.7756C63.1348 14.2268 59.4809 9.38726 54.1894 7.83966ZM68.4101 12.4517C67.7001 12.4517 67.0032 12.108 66.5798 11.4729C65.9067 10.4632 66.1796 9.09898 67.1893 8.42588L71.5838 5.49621C72.5933 4.82283 73.9577 5.09587 74.6308 6.10559C75.3039 7.1153 75.031 8.4795 74.0213 9.15259L69.6268 12.0823C69.2668 12.3232 68.8433 12.4518 68.4101 12.4517ZM72.8006 49.0726C72.3674 49.0727 71.9439 48.9442 71.5838 48.7033L67.1893 45.7736C66.1796 45.1005 65.9067 43.7363 66.5798 42.7266C67.253 41.7168 68.6173 41.4441 69.6268 42.1172L74.0213 45.0469C75.031 45.72 75.3039 47.0842 74.6308 48.0939C74.2074 48.7289 73.5106 49.0726 72.8006 49.0726ZM6.59007 12.4517C6.15684 12.4518 5.73332 12.3233 5.37323 12.0824L0.978729 9.15274C-0.0309814 8.47964 -0.30388 7.11544 0.369211 6.10573C1.04245 5.09587 2.4068 4.82312 3.41621 5.49636L7.81072 8.42603C8.82043 9.09912 9.09333 10.4633 8.42024 11.473C7.9969 12.108 7.30008 12.4517 6.59007 12.4517ZM2.19952 49.0726C1.48952 49.0726 0.792695 48.7289 0.369211 48.0938C-0.30388 47.0841 -0.0309814 45.7199 0.978729 45.0468L5.37323 42.1171C6.3828 41.4437 7.74715 41.7168 8.42024 42.7265C9.09333 43.7362 8.82043 45.1004 7.81072 45.7735L3.41621 48.7031C3.05621 48.9441 2.63273 49.0727 2.19952 49.0726ZM6.59212 29.297H2.19762C0.984149 29.297 0.000366019 28.3132 0.000366019 27.0998C0.000366019 25.8863 0.984149 24.9025 2.19762 24.9025H6.59212C7.80559 24.9025 8.78938 25.8863 8.78938 27.0998C8.78938 28.3132 7.80559 29.297 6.59212 29.297ZM72.8027 29.297H68.4082C67.1947 29.297 66.2109 28.3132 66.2109 27.0998C66.2109 25.8863 67.1947 24.9025 68.4082 24.9025H72.8027C74.0161 24.9025 74.9999 25.8863 74.9999 27.0998C74.9999 28.3132 74.0161 29.297 72.8027 29.297Z" fill="#DE7553"/>
</g>
<defs>
<clipPath id="clip0_603_916">
<rect width="75" height="75" fill="white"/>
</clipPath>
</defs>
</svg>
