<svg width="75" height="75" viewBox="0 0 75 75" fill="none" xmlns="http://www.w3.org/2000/svg">
<path d="M63.1238 53.1879C62.9375 53.0555 55.6543 37.2246 55.2418 36.5203C55.361 36.1446 55.3815 35.7444 55.3015 35.3584C55.2215 34.9724 55.0435 34.6135 54.7848 34.316C51.9254 31.7848 44.9562 38.3239 42.1988 40.8246C40.9848 42.1137 32.5742 49.8645 35.1617 53.1176C35.4439 53.383 35.7893 53.5719 36.1651 53.6662C36.5408 53.7606 36.9345 53.7573 37.3086 53.6567L48.1461 59.3567L42.8914 64.4004C42.6078 64.6653 42.3807 64.9847 42.2236 65.3395C42.0665 65.6944 41.9828 66.0773 41.9773 66.4653C42.0127 67.042 42.1749 67.6039 42.4524 68.1107C42.7299 68.6175 43.1159 69.0568 43.5828 69.3973C43.8515 69.6785 44.173 69.9041 44.5289 70.061C44.8848 70.2179 45.2681 70.3032 45.6569 70.3119C46.0458 70.3206 46.4326 70.2526 46.7951 70.1117C47.1577 69.9709 47.4889 69.76 47.7699 69.491L54.8082 62.7469C60.3582 64.6383 65.7652 58.4614 63.1238 53.1879ZM37.0848 51.334C37.0719 50.2946 39.4109 46.7871 43.8172 42.5145C48.2879 38.2641 51.8117 36.2063 52.9309 36.1336C52.3027 37.936 50.4277 40.7414 46.1281 44.9297C41.7887 48.9914 38.8883 50.8137 37.0848 51.334ZM43.7551 28.0043C43.6012 28.0104 43.4501 28.0466 43.3103 28.1111C43.1705 28.1756 43.0448 28.267 42.9403 28.38C42.8358 28.4931 42.7547 28.6256 42.7014 28.7701C42.6482 28.9145 42.624 29.0681 42.6301 29.2219L42.8082 33.7688C42.8205 34.0796 42.9557 34.3728 43.1842 34.5839C43.4126 34.7949 43.7156 34.9066 44.0264 34.8944C44.3372 34.8821 44.6304 34.7468 44.8414 34.5184C45.0525 34.2899 45.1642 33.987 45.152 33.6762L44.9727 29.1293C44.9687 28.9747 44.9337 28.8225 44.8698 28.6817C44.806 28.5409 44.7146 28.4143 44.6009 28.3094C44.4873 28.2045 44.3538 28.1234 44.2083 28.0711C44.0628 28.0187 43.9083 27.996 43.7539 28.0043H43.7551ZM30.5879 40.7567C30.2803 40.7355 29.9767 40.8362 29.7428 41.0371C29.509 41.2381 29.3636 41.523 29.3382 41.8302C29.3128 42.1375 29.4094 42.4425 29.607 42.6791C29.8047 42.9157 30.0876 43.0649 30.3945 43.0946L34.9297 43.4696C35.2399 43.4952 35.5475 43.3966 35.785 43.1954C36.0224 42.9942 36.1703 42.7069 36.1959 42.3967C36.2215 42.0865 36.1229 41.7789 35.9217 41.5414C35.7205 41.3039 35.4332 41.1561 35.123 41.1305L30.5879 40.7567ZM37.9063 38.0403C38.0128 38.1515 38.1403 38.2407 38.2813 38.3027C38.4223 38.3647 38.5742 38.3984 38.7282 38.4017C38.8823 38.405 39.0355 38.3779 39.179 38.3221C39.3226 38.2662 39.4538 38.1826 39.565 38.076C39.6763 37.9694 39.7655 37.842 39.8275 37.701C39.8895 37.5599 39.9231 37.408 39.9265 37.254C39.9298 37.1 39.9027 36.9468 39.8468 36.8032C39.791 36.6596 39.7074 36.5285 39.6008 36.4172L36.8785 33.5754C36.6616 33.3584 36.3683 33.235 36.0614 33.2317C35.7546 33.2284 35.4587 33.3455 35.2371 33.5578C35.0156 33.7701 34.8861 34.0608 34.8764 34.3675C34.8666 34.6742 34.9775 34.9725 35.1852 35.1985L37.9063 38.0403ZM22.3531 45.1524C19.3907 45.1561 16.5509 46.3354 14.4574 48.4314C12.3639 50.5273 11.1878 53.3685 11.1875 56.3309C11.7992 71.1504 32.9246 71.134 33.5316 56.3309C33.5301 53.3667 32.3518 50.5245 30.2557 48.4286C28.1597 46.3328 25.3173 45.1536 22.3531 45.1524ZM24.5938 54.1606V58.6653C24.6229 59.5989 24.2818 60.5062 23.6447 61.1894C23.0077 61.8725 22.1264 62.2761 21.193 62.3121H20.184C19.4019 62.2593 18.6692 61.9114 18.1339 61.3388C17.5987 60.7661 17.301 60.0116 17.301 59.2278C17.301 58.4439 17.5987 57.6894 18.1339 57.1168C18.6692 56.5441 19.4019 56.1962 20.184 56.1434C20.5006 56.1424 20.8053 56.2638 21.0346 56.4822C21.2639 56.7005 21.4 56.999 21.4145 57.3153C21.4204 57.4669 21.3958 57.6182 21.342 57.7602C21.2882 57.9021 21.2064 58.0317 21.1014 58.1413C20.9964 58.2509 20.8704 58.3382 20.7309 58.3981C20.5914 58.4579 20.4412 58.489 20.2895 58.4895C19.9203 58.4414 19.6367 58.7754 19.6332 59.2278C19.6332 59.6262 19.8793 59.966 20.184 59.966H21.1918C21.5029 59.9303 21.7877 59.7741 21.985 59.531C22.1824 59.2879 22.2767 58.9771 22.2477 58.6653V51.5098C22.2532 51.2826 22.324 51.0619 22.4517 50.8739C22.5793 50.6859 22.7584 50.5386 22.9675 50.4496C23.1765 50.3607 23.4068 50.3338 23.6308 50.3721C23.8547 50.4105 24.0629 50.5125 24.2305 50.666C25.335 51.7332 26.5103 52.7245 27.7484 53.6332C27.9219 53.646 28.0902 53.698 28.2406 53.7853C28.391 53.8726 28.5197 53.9929 28.6168 54.1371C28.7041 54.2642 28.7655 54.4072 28.7974 54.558C28.8294 54.7088 28.8312 54.8644 28.8029 55.016C28.7746 55.1675 28.7167 55.312 28.6325 55.4411C28.5483 55.5702 28.4394 55.6814 28.3121 55.7684C27.7379 56.1668 27.2926 56.4715 24.5938 54.1606ZM22.3531 40.3442C25.3155 40.3439 28.1567 39.1678 30.2526 37.0743C32.3486 34.9807 33.5279 32.1409 33.5316 29.1785C32.9375 14.359 11.7816 14.3508 11.1875 29.1785C11.1906 32.1389 12.368 34.9771 14.4613 37.0704C16.5546 39.1637 19.3928 40.3411 22.3531 40.3442ZM18.4602 28.4742H20.2766V26.5043C20.2775 25.3565 20.7339 24.256 21.5455 23.4444C22.3571 22.6327 23.4577 22.1763 24.6055 22.1754C25.8172 22.1485 28.0742 22.8551 27.2563 24.4278C27.093 24.6904 26.8329 24.8783 26.5323 24.9507C26.2316 25.023 25.9145 24.9741 25.6496 24.8145C25.3365 24.6204 24.975 24.5189 24.6066 24.5215C24.3462 24.5212 24.0882 24.5723 23.8475 24.6718C23.6068 24.7713 23.3881 24.9174 23.2039 25.1016C23.0197 25.2858 22.8737 25.5045 22.7741 25.7452C22.6746 25.9859 22.6235 26.2438 22.6238 26.5043V28.4742H24.8398C25.151 28.4742 25.4493 28.5978 25.6693 28.8178C25.8893 29.0378 26.0129 29.3362 26.0129 29.6473C26.0129 29.9584 25.8893 30.2568 25.6693 30.4768C25.4493 30.6967 25.151 30.8203 24.8398 30.8203H22.6238V35.0074C22.6238 35.3186 22.5002 35.6169 22.2803 35.8369C22.0603 36.0569 21.7619 36.1805 21.4508 36.1805C21.1397 36.1805 20.8413 36.0569 20.6213 35.8369C20.4013 35.6169 20.2777 35.3186 20.2777 35.0074V30.8203H18.4602C18.149 30.8203 17.8507 30.6967 17.6307 30.4768C17.4107 30.2568 17.2871 29.9584 17.2871 29.6473C17.2871 29.3362 17.4107 29.0378 17.6307 28.8178C17.8507 28.5978 18.149 28.4742 18.4602 28.4742ZM46.891 27.3012C49.8963 27.2962 52.777 26.0994 54.901 23.9732C57.025 21.847 58.2188 18.9651 58.2207 15.9598C57.6043 0.922291 36.1672 0.937525 35.5484 15.9598C35.5528 18.9666 36.7492 21.849 38.8755 23.975C41.0017 26.101 43.8842 27.2972 46.891 27.3012ZM40.5922 12.6879C40.5913 11.8871 40.9081 11.1186 41.4732 10.5511C42.0383 9.98356 42.8054 9.66345 43.6063 9.66096H50.1629C50.9647 9.66313 51.7331 9.98261 52.3001 10.5496C52.867 11.1166 53.1865 11.8849 53.1887 12.6867V19.2434C53.1865 20.0442 52.8667 20.8115 52.2994 21.3768C51.7321 21.9421 50.9637 22.2592 50.1629 22.2586H43.6063C43.2103 22.2588 42.8182 22.1809 42.4524 22.0294C42.0865 21.8779 41.7542 21.6558 41.4742 21.3757C41.1943 21.0957 40.9723 20.7632 40.821 20.3974C40.6696 20.0315 40.5919 19.6393 40.5922 19.2434V12.6879Z" fill="#6B21A8"/>
<path d="M43.6055 19.9125H50.1622C50.2508 19.9138 50.3388 19.8974 50.421 19.8645C50.5033 19.8315 50.5782 19.7825 50.6414 19.7204C50.7046 19.6583 50.7549 19.5842 50.7893 19.5026C50.8237 19.4209 50.8416 19.3332 50.8419 19.2446V12.6868C50.8416 12.5066 50.7698 12.3339 50.6424 12.2065C50.515 12.0791 50.3423 12.0074 50.1622 12.0071H43.6055C43.5169 12.0074 43.4292 12.0253 43.3476 12.0597C43.2659 12.0941 43.1918 12.1443 43.1297 12.2075C43.0676 12.2708 43.0186 12.3457 42.9857 12.4279C42.9527 12.5102 42.9363 12.5982 42.9376 12.6868V19.2434C42.9366 19.3314 42.9533 19.4187 42.9865 19.5001C43.0197 19.5816 43.0689 19.6556 43.1311 19.7178C43.1933 19.78 43.2673 19.8292 43.3488 19.8624C43.4303 19.8957 43.5176 19.9123 43.6055 19.9114V19.9125ZM46.8903 12.7454C47.7336 12.7615 48.5369 13.1077 49.1276 13.7098C49.7183 14.3119 50.0492 15.1216 50.0492 15.9651C50.0492 16.8085 49.7183 17.6183 49.1276 18.2204C48.5369 18.8224 47.7336 19.1687 46.8903 19.1848C46.047 19.1687 45.2437 18.8224 44.653 18.2204C44.0623 17.6183 43.7314 16.8085 43.7314 15.9651C43.7314 15.1216 44.0623 14.3119 44.653 13.7098C45.2437 13.1077 46.047 12.7615 46.8903 12.7454Z" fill="#6B21A8"/>
<path d="M46.891 16.8399C47.1229 16.8399 47.3453 16.7478 47.5092 16.5838C47.6732 16.4199 47.7653 16.1975 47.7653 15.9656C47.7653 15.7338 47.6732 15.5114 47.5092 15.3475C47.3453 15.1835 47.1229 15.0914 46.891 15.0914C46.6649 15.0997 46.4507 15.1954 46.2937 15.3583C46.1366 15.5212 46.0488 15.7387 46.0488 15.9651C46.0488 16.1914 46.1366 16.4089 46.2937 16.5718C46.4507 16.7347 46.6649 16.8316 46.891 16.8399Z" fill="#6B21A8"/>
</svg>
