<svg width="75" height="75" viewBox="0 0 75 75" fill="none" xmlns="http://www.w3.org/2000/svg">
<g clip-path="url(#clip0_595_712)">
<path d="M37.5001 75C27.5007 75 18.0999 71.0993 11.0291 64.0166C3.9583 56.9335 0.0644531 47.5167 0.0644531 37.5C0.0644531 27.4833 3.9583 18.0665 11.0291 10.9834C18.0999 3.90073 27.5007 0 37.5001 0C47.4996 0 56.9004 3.90073 63.9712 10.9834C71.0418 18.0665 74.9358 27.4833 74.9358 37.5C74.9358 47.5167 71.0418 56.9335 63.9712 64.0166C56.9004 71.0993 47.4996 75 37.5001 75Z" fill="#FECF05"/>
<path d="M37.5 68.7891C54.7514 68.7891 68.7363 54.7805 68.7363 37.5C68.7363 20.2195 54.7514 6.21094 37.5 6.21094C20.2487 6.21094 6.26367 20.2195 6.26367 37.5C6.26367 54.7805 20.2487 68.7891 37.5 68.7891Z" fill="#EE3835"/>
<path d="M68.228 43.1439C68.5666 41.2817 68.7366 39.3927 68.736 37.5C68.736 35.573 68.5611 33.6869 68.2282 31.8561L37.9767 37.5L68.228 43.1439ZM55.242 11.7469L37.8371 37.1622L63.209 19.7275C61.0561 16.6088 58.357 13.9051 55.242 11.7469ZM37.4999 37.0222L43.1344 6.71909C41.2754 6.38015 39.3895 6.20983 37.4999 6.21021C35.6103 6.20971 33.7246 6.37998 31.8658 6.71895L37.4999 37.0222ZM11.791 19.7273L37.1626 37.1622L19.758 11.7466C16.6429 13.9049 13.9439 16.6086 11.791 19.7273ZM6.77168 31.8558C6.43324 33.7181 6.26321 35.6072 6.26367 37.5C6.26367 39.427 6.43872 41.3131 6.77153 43.1438L37.023 37.5L6.77168 31.8558ZM19.7578 63.2533L37.1626 37.8378L11.7907 55.2724C13.9436 58.3912 16.6427 61.095 19.7578 63.2533ZM37.4999 68.7896C39.4236 68.7896 41.3064 68.6145 43.1341 68.2809L37.4999 37.9778L31.8656 68.2811C33.7246 68.6199 35.6103 68.7901 37.4999 68.7896ZM63.209 55.2725L37.8371 37.8378L55.2419 63.2533C58.3569 61.0949 61.056 58.3912 63.209 55.2725Z" fill="#C0272D"/>
<path d="M37.7394 72.0286C37.7153 71.404 38.2012 70.8774 38.8259 70.8532C39.1258 70.8416 39.4181 70.9495 39.6385 71.1532C39.8589 71.3569 39.9894 71.6398 40.0014 71.9397C40.0256 72.5644 39.5381 73.091 38.915 73.1152H38.8697C38.5774 73.1152 38.2965 73.0021 38.0858 72.7995C37.8751 72.5969 37.7509 72.3206 37.7394 72.0286ZM33.4719 72.9158C33.3242 72.8995 33.1811 72.8541 33.0509 72.7823C32.9208 72.7105 32.8061 72.6137 32.7134 72.4975C32.6207 72.3813 32.5519 72.2479 32.5109 72.105C32.4699 71.9621 32.4575 71.8125 32.4745 71.6649C32.5439 71.0432 33.1053 70.5964 33.7255 70.6674C33.8732 70.684 34.0162 70.7294 34.1463 70.8012C34.2764 70.8731 34.391 70.9699 34.4837 71.0861C34.5764 71.2022 34.6452 71.3356 34.6863 71.4784C34.7273 71.6212 34.7398 71.7708 34.723 71.9184C34.6581 72.4963 34.1677 72.9235 33.6002 72.9235C33.5573 72.9241 33.5144 72.9216 33.4719 72.9158ZM42.9985 71.5925C42.97 71.4466 42.9706 71.2966 43.0002 71.1509C43.0298 71.0053 43.0878 70.8669 43.1709 70.7437C43.254 70.6205 43.3606 70.5149 43.4846 70.433C43.6086 70.351 43.7475 70.2943 43.8934 70.2661V70.2645C44.5076 70.1452 45.1007 70.5467 45.2213 71.1608C45.3405 71.7736 44.9391 72.368 44.3265 72.4874C44.2544 72.501 44.1811 72.5082 44.1077 72.5086C43.8454 72.5079 43.5914 72.4162 43.3891 72.2491C43.1869 72.082 43.0488 71.85 42.9985 71.5925ZM28.1208 71.8899C27.5172 71.7254 27.1611 71.1037 27.327 70.5C27.3661 70.3567 27.4332 70.2224 27.5242 70.105C27.6153 69.9876 27.7286 69.8893 27.8577 69.8157C27.9868 69.7421 28.1291 69.6947 28.2765 69.6762C28.424 69.6577 28.5736 69.6684 28.7169 69.7078C29.0064 69.787 29.2526 69.9779 29.4014 70.2385C29.5503 70.4991 29.5896 70.8081 29.5107 71.0977C29.4452 71.3369 29.303 71.548 29.1059 71.6986C28.9088 71.8491 28.6677 71.9307 28.4197 71.9309C28.3187 71.9305 28.2182 71.9167 28.1208 71.8899ZM48.1293 70.3566C48.0276 70.0742 48.0421 69.763 48.1697 69.4914C48.2973 69.2197 48.5276 69.0099 48.8098 68.9079C49.3968 68.6952 50.0457 69 50.2586 69.587C50.3606 69.8694 50.3464 70.1807 50.2191 70.4526C50.0918 70.7245 49.8617 70.9348 49.5795 71.0372L49.578 71.0356C49.4553 71.0808 49.3255 71.1038 49.1947 71.1035C48.9619 71.1033 48.7349 71.0315 48.5443 70.8979C48.3537 70.7643 48.2089 70.5753 48.1293 70.3566ZM22.987 70.0519C22.4166 69.7968 22.1616 69.1269 22.4166 68.5563C22.6716 67.9859 23.3416 67.7309 23.912 67.9859C24.4826 68.2409 24.7375 68.9108 24.4826 69.4814C24.3933 69.6809 24.2482 69.8503 24.0648 69.9692C23.8813 70.088 23.6674 70.1513 23.4489 70.1514C23.2896 70.1517 23.1321 70.1177 22.987 70.0519ZM53.0066 68.3467C52.7063 67.7987 52.907 67.1105 53.4547 66.8104C54.004 66.5101 54.6922 66.7124 54.9909 67.2601C55.0623 67.3904 55.1074 67.5334 55.1236 67.6812C55.1397 67.8289 55.1266 67.9783 55.085 68.1209C55.0433 68.2636 54.974 68.3966 54.881 68.5125C54.7879 68.6283 54.673 68.7247 54.5427 68.7961C54.3763 68.8876 54.1894 68.9354 53.9995 68.935C53.7964 68.9352 53.597 68.8807 53.4223 68.7772C53.2476 68.6736 53.104 68.5249 53.0066 68.3467ZM18.1987 67.4473C18.0739 67.3665 17.9663 67.262 17.8819 67.1397C17.7976 67.0173 17.7381 66.8796 17.707 66.7342C17.6759 66.5889 17.6738 66.4389 17.7006 66.2927C17.7275 66.1466 17.7829 66.0071 17.8637 65.8824C17.9444 65.7576 18.0489 65.6499 18.1713 65.5655C18.2936 65.4812 18.4314 65.4217 18.5767 65.3906C18.722 65.3595 18.8721 65.3573 19.0182 65.3841C19.1644 65.411 19.3039 65.4664 19.4286 65.5472C19.9537 65.8868 20.1032 66.5884 19.7636 67.1137C19.6607 67.2722 19.5198 67.4024 19.3538 67.4925C19.1877 67.5826 19.0017 67.6298 18.8128 67.6297C18.5947 67.6298 18.3814 67.5664 18.1987 67.4473ZM57.5186 65.6137C57.3359 65.3754 57.2554 65.0742 57.2947 64.7764C57.3341 64.4787 57.4901 64.2088 57.7284 64.026C58.2248 63.6459 58.9357 63.7409 59.3158 64.2361C59.6961 64.7325 59.6011 65.4432 59.1061 65.8235C58.9085 65.9748 58.6667 66.057 58.4179 66.0574C58.244 66.0577 58.0723 66.0178 57.9163 65.9408C57.7604 65.8639 57.6243 65.7519 57.5186 65.6137ZM13.8648 64.1439C13.7538 64.045 13.6634 63.9253 13.5987 63.7914C13.534 63.6576 13.4963 63.5123 13.4878 63.3639C13.4792 63.2155 13.5 63.0669 13.5489 62.9265C13.5978 62.7861 13.6739 62.6567 13.7728 62.5458C14.1878 62.0795 14.9046 62.0372 15.3708 62.4536C15.4818 62.5525 15.5723 62.6723 15.637 62.8061C15.7017 62.94 15.7394 63.0853 15.748 63.2337C15.7565 63.3821 15.7358 63.5308 15.6869 63.6712C15.638 63.8116 15.5619 63.9409 15.463 64.0519C15.3568 64.1711 15.2266 64.2665 15.081 64.3317C14.9353 64.397 14.7775 64.4307 14.6179 64.4306C14.3402 64.4308 14.0721 64.3287 13.8648 64.1439ZM61.5644 62.2228C61.1132 61.7912 61.098 61.0743 61.5311 60.6232C61.9627 60.172 62.6794 60.1568 63.1307 60.5899C63.238 60.6927 63.324 60.8156 63.3837 60.9517C63.4435 61.0877 63.4758 61.2342 63.4789 61.3828C63.482 61.5313 63.4558 61.679 63.4017 61.8174C63.3477 61.9558 63.2669 62.0822 63.164 62.1894C63.0587 62.2999 62.932 62.3878 62.7916 62.4477C62.6512 62.5077 62.5001 62.5385 62.3475 62.5382C62.0553 62.539 61.7744 62.4259 61.5644 62.2228ZM10.0845 60.2217C9.68607 59.7405 9.75404 59.0266 10.2354 58.6282C10.7167 58.2298 11.4305 58.2976 11.829 58.7791C12.2274 59.2606 12.1595 59.9742 11.6781 60.3725C11.4755 60.5409 11.2202 60.6327 10.9568 60.6321C10.7902 60.6322 10.6255 60.5955 10.4747 60.5245C10.3239 60.4536 10.1907 60.3501 10.0845 60.2217ZM65.049 58.2585C64.8032 58.0859 64.6361 57.8229 64.5843 57.5271C64.5325 57.2314 64.6002 56.9272 64.7727 56.6814C64.9452 56.4357 65.2083 56.2686 65.504 56.2168C65.7998 56.165 66.104 56.2328 66.3497 56.4053C66.547 56.5435 66.695 56.7411 66.7722 56.9692C66.8494 57.1973 66.8519 57.4441 66.7792 57.6738C66.7065 57.9034 66.5624 58.1038 66.3679 58.2459C66.1735 58.388 65.9387 58.4643 65.6979 58.4638C65.4655 58.4641 65.2388 58.3923 65.049 58.2585ZM6.94417 55.7731C6.86776 55.6455 6.81725 55.5041 6.79554 55.3569C6.77382 55.2098 6.78133 55.0598 6.81763 54.9156C6.85393 54.7714 6.91831 54.6357 7.00708 54.5164C7.09585 54.3971 7.20728 54.2964 7.33499 54.2202C7.46262 54.1441 7.60398 54.0939 7.75101 54.0724C7.89804 54.051 8.04786 54.0587 8.19191 54.0951C8.33595 54.1316 8.47142 54.196 8.59055 54.2848C8.70969 54.3736 8.81017 54.485 8.88626 54.6126C8.96268 54.7401 9.01319 54.8814 9.0349 55.0284C9.05661 55.1754 9.0491 55.3253 9.01279 55.4694C8.97649 55.6135 8.9121 55.749 8.82332 55.8682C8.73455 55.9874 8.62313 56.0878 8.49544 56.1639C8.32041 56.2689 8.12007 56.3243 7.91595 56.324C7.7201 56.3243 7.52754 56.2737 7.35717 56.1771C7.18679 56.0805 7.04447 55.9413 6.94417 55.7731ZM67.8919 53.8099C67.3321 53.5323 67.1012 52.8532 67.3788 52.2933C67.6549 51.732 68.334 51.5026 68.8953 51.7803C69.4552 52.0565 69.6846 52.7356 69.4069 53.2969C69.2107 53.6953 68.8092 53.9262 68.3928 53.9262C68.2192 53.9259 68.0479 53.8861 67.8919 53.8099ZM4.51766 50.8973C4.28226 50.3178 4.56307 49.6584 5.14095 49.4244C5.27867 49.3685 5.42606 49.3402 5.5747 49.3413C5.72334 49.3424 5.87031 49.3727 6.00722 49.4306C6.14413 49.4885 6.26829 49.5728 6.37261 49.6787C6.47692 49.7845 6.55935 49.91 6.61517 50.0477C6.67113 50.1854 6.69941 50.3328 6.69837 50.4815C6.69734 50.6301 6.66702 50.7771 6.60915 50.9141C6.55128 51.051 6.46699 51.1752 6.3611 51.2795C6.25521 51.3838 6.12979 51.4663 5.99202 51.5221C5.85421 51.578 5.70672 51.6062 5.558 51.6051C5.40927 51.6039 5.26223 51.5735 5.12529 51.5154C4.98835 51.4574 4.8642 51.3729 4.75993 51.2669C4.65567 51.1608 4.57334 51.0352 4.51766 50.8973ZM70.0212 48.9763C69.4252 48.7893 69.0947 48.154 69.2818 47.5578C69.4704 46.9619 70.1057 46.6298 70.7018 46.8183C71.2978 47.0055 71.6284 47.6408 71.4412 48.2369C71.3692 48.4666 71.2257 48.6674 71.0316 48.8099C70.8375 48.9524 70.603 49.0291 70.3622 49.0291C70.2465 49.0293 70.1315 49.0115 70.0212 48.9763ZM2.86531 45.7064C2.83117 45.5617 2.82587 45.4117 2.84972 45.265C2.87357 45.1182 2.92609 44.9776 3.0043 44.8512C3.08251 44.7248 3.18486 44.615 3.30552 44.5282C3.42617 44.4413 3.56275 44.3791 3.70745 44.3451C3.85211 44.311 4.00208 44.3057 4.14877 44.3296C4.29547 44.3534 4.43604 44.4059 4.56243 44.4841C4.68883 44.5623 4.79859 44.6646 4.88543 44.7853C4.97228 44.9059 5.03452 45.0424 5.06859 45.1871C5.13731 45.4792 5.08723 45.7867 4.92934 46.042C4.77146 46.2972 4.5187 46.4794 4.22659 46.5484C4.14144 46.5679 4.05439 46.578 3.96702 46.5785C3.45228 46.5785 2.98748 46.2268 2.86531 45.7064ZM71.3838 43.8787C71.0872 43.833 70.8208 43.6714 70.6432 43.4296C70.4655 43.1877 70.3911 42.8852 70.4362 42.5884C70.5313 41.9713 71.1077 41.5458 71.7264 41.6407C72.3436 41.7343 72.7693 42.3122 72.6741 42.9295C72.6332 43.1968 72.498 43.4407 72.2929 43.617C72.0878 43.7934 71.8264 43.8905 71.5559 43.8908C71.5001 43.8908 71.4427 43.8878 71.3838 43.8787ZM2.02772 40.322C1.97791 39.7002 2.44432 39.1554 3.06746 39.1056C3.69061 39.0573 4.23553 39.5237 4.28372 40.1454C4.33353 40.7688 3.86727 41.3134 3.24398 41.3633C2.94466 41.3863 2.64843 41.2896 2.42038 41.0943C2.19232 40.8991 2.0511 40.6213 2.02772 40.322ZM70.821 37.5C70.821 37.4682 70.8226 37.4381 70.8241 37.4079C70.8226 37.3777 70.821 37.3477 70.821 37.3157C70.8165 36.691 71.322 36.1811 71.9468 36.178C72.5715 36.1749 73.0801 36.679 73.0846 37.3039C73.0846 37.3371 73.0832 37.3701 73.0801 37.4033C73.0832 37.4351 73.0846 37.4668 73.0846 37.5C73.0845 37.8002 72.9652 38.088 72.753 38.3003C72.5408 38.5125 72.2529 38.6318 71.9528 38.6319C71.6526 38.6317 71.3648 38.5124 71.1526 38.3002C70.9404 38.088 70.8211 37.8002 70.821 37.5ZM3.05999 36.0889C2.91166 36.0782 2.7669 36.0383 2.63399 35.9716C2.50107 35.9049 2.3826 35.8126 2.28535 35.7001C2.1881 35.5876 2.11397 35.457 2.0672 35.3159C2.02043 35.1747 2.00194 35.0257 2.01278 34.8774C2.05804 34.2541 2.59974 33.7847 3.22303 33.8315C3.84632 33.8767 4.31551 34.4186 4.27039 35.0419C4.24969 35.3269 4.12199 35.5935 3.91291 35.7883C3.70382 35.9831 3.42881 36.0917 3.14305 36.0922C3.11419 36.0922 3.08709 36.0905 3.05999 36.0889ZM70.4076 32.2289C70.3611 31.9324 70.4342 31.6296 70.6107 31.3868C70.7872 31.1441 71.0528 30.9813 71.3493 30.9342C71.6458 30.8878 71.9485 30.9608 72.1913 31.1373C72.434 31.3138 72.5968 31.5794 72.644 31.8758C72.7422 32.493 72.321 33.0725 71.7024 33.1705C71.4059 33.2171 71.103 33.1441 70.8602 32.9676C70.6175 32.7911 70.4547 32.5254 70.4076 32.2289ZM3.66966 30.8467C3.06146 30.7062 2.67972 30.0996 2.82005 29.49C2.95892 28.8803 3.56712 28.4999 4.17664 28.6402C4.7847 28.7791 5.16658 29.3873 5.02625 29.9953C4.96915 30.2449 4.82915 30.4678 4.62909 30.6276C4.42903 30.7873 4.18072 30.8746 3.92469 30.8751C3.83888 30.8752 3.75334 30.8657 3.66966 30.8467ZM69.226 27.2671C69.0342 26.6725 69.3632 26.0343 69.9578 25.8441C70.0994 25.7985 70.2486 25.7813 70.3968 25.7935C70.5451 25.8056 70.6895 25.8468 70.8218 25.9148C70.9541 25.9827 71.0717 26.0761 71.168 26.1896C71.2642 26.303 71.3371 26.4343 71.3825 26.576C71.5726 27.1707 71.2451 27.8073 70.6505 27.999C70.5382 28.0346 70.4211 28.0528 70.3034 28.0532C70.0637 28.053 69.8303 27.9768 69.6367 27.8356C69.4431 27.6943 69.2993 27.4952 69.226 27.2671ZM5.07606 25.7551C4.4951 25.524 4.21282 24.8646 4.44383 24.2852C4.67615 23.7043 5.33416 23.4207 5.91512 23.653C6.49461 23.8839 6.77835 24.5433 6.54588 25.1227C6.46229 25.3331 6.31752 25.5135 6.13029 25.6408C5.94306 25.768 5.72197 25.8362 5.49559 25.8365C5.35179 25.8368 5.20931 25.8091 5.07606 25.7551ZM67.2973 22.5451C67.2308 22.4122 67.191 22.2674 67.1804 22.1191C67.1698 21.9708 67.1885 21.8218 67.2354 21.6807C67.2823 21.5396 67.3566 21.4091 67.454 21.2967C67.5513 21.1843 67.6699 21.0922 67.8029 21.0257C67.9357 20.9589 68.0804 20.919 68.2286 20.9083C68.3769 20.8976 68.5258 20.9163 68.6668 20.9633C68.8079 21.0102 68.9382 21.0846 69.0505 21.182C69.1627 21.2795 69.2546 21.3981 69.3209 21.5312C69.6015 22.0896 69.3752 22.7685 68.817 23.0492C68.6601 23.1281 68.487 23.1694 68.3115 23.1699C68.1011 23.1699 67.895 23.1115 67.7159 23.0012C67.5368 22.8909 67.3919 22.733 67.2973 22.5451ZM7.24608 20.9411C7.11792 20.8658 7.0059 20.7658 6.91642 20.6471C6.82693 20.5284 6.76175 20.3932 6.72461 20.2492C6.68746 20.1052 6.67908 19.9554 6.69994 19.8082C6.7208 19.6609 6.77049 19.5193 6.84617 19.3913C7.16317 18.8526 7.85721 18.6744 8.39598 18.9916C8.9346 19.31 9.11273 20.0041 8.79573 20.5414C8.69554 20.7111 8.55277 20.8518 8.38153 20.9495C8.2103 21.0471 8.01654 21.0984 7.81942 21.0982C7.61765 21.0984 7.41955 21.0442 7.24608 20.9411ZM64.6701 18.1735C64.3095 17.6634 64.4287 16.9572 64.9388 16.5951C65.4489 16.2328 66.1551 16.3537 66.5172 16.8623H66.5157C66.6019 16.9834 66.6633 17.1204 66.6966 17.2653C66.7298 17.4102 66.7341 17.5602 66.7093 17.7068C66.6845 17.8534 66.6311 17.9937 66.552 18.1196C66.473 18.2455 66.3699 18.3546 66.2487 18.4406C66.0575 18.5769 65.8284 18.6497 65.5937 18.6488C65.413 18.6492 65.2348 18.6062 65.0741 18.5235C64.9134 18.4408 64.7749 18.3208 64.6701 18.1735ZM10.1238 16.515C10.0088 16.4209 9.91346 16.305 9.84326 16.1741C9.77306 16.0431 9.72935 15.8997 9.71463 15.7518C9.69991 15.604 9.71447 15.4547 9.75748 15.3125C9.80048 15.1702 9.87109 15.0379 9.96527 14.923C10.0593 14.808 10.1752 14.7126 10.3061 14.6424C10.4371 14.5722 10.5806 14.5285 10.7284 14.5138C10.8763 14.4991 11.0256 14.5137 11.1678 14.5567C11.31 14.5997 11.4424 14.6704 11.5573 14.7646C12.0418 15.16 12.1127 15.8723 11.7172 16.3566C11.611 16.4864 11.4772 16.591 11.3256 16.6627C11.1739 16.7345 11.0083 16.7717 10.8405 16.7716C10.5886 16.7716 10.3351 16.6887 10.1238 16.515ZM61.409 14.2499C60.9729 13.8003 60.9849 13.085 61.4331 12.6488C61.5399 12.5453 61.6661 12.4639 61.8044 12.4092C61.9426 12.3545 62.0903 12.3276 62.239 12.33C62.3877 12.3324 62.5345 12.3641 62.6709 12.4232C62.8073 12.4823 62.9308 12.5677 63.0342 12.6746C63.4688 13.1227 63.4583 13.8394 63.0086 14.2757C62.7976 14.4804 62.515 14.5947 62.2209 14.5941C62.0694 14.5943 61.9194 14.5639 61.7799 14.5047C61.6404 14.4456 61.5142 14.3589 61.409 14.2499ZM13.6414 12.5794C13.4408 12.3563 13.3368 12.0628 13.3524 11.7632C13.368 11.4636 13.5018 11.1824 13.7245 10.9814C14.1893 10.5634 14.906 10.6011 15.3241 11.0659C15.7422 11.5291 15.7044 12.246 15.2396 12.664C15.0316 12.851 14.7617 12.9542 14.482 12.9538C14.3234 12.9542 14.1665 12.921 14.0216 12.8565C13.8768 12.792 13.7472 12.6975 13.6414 12.5794ZM57.5881 10.8668C57.0902 10.488 56.9919 9.77873 57.3708 9.28083C57.4605 9.16241 57.5726 9.06282 57.7008 8.98773C57.8289 8.91265 57.9706 8.86354 58.1178 8.84322C58.2649 8.8229 58.4146 8.83176 58.5583 8.86929C58.702 8.90683 58.8369 8.97231 58.9554 9.06198C59.1945 9.24339 59.3519 9.51233 59.3929 9.80971C59.434 10.1071 59.3552 10.4086 59.1741 10.648C59.0684 10.7875 58.9317 10.9007 58.7749 10.9784C58.6181 11.0562 58.4453 11.0965 58.2702 11.0961C58.024 11.0954 57.7847 11.015 57.5881 10.8668ZM17.7128 9.22341C17.3702 8.70134 17.5167 7.99807 18.0388 7.65544C18.5624 7.31296 19.2641 7.4593 19.6067 7.98152C19.9493 8.50505 19.8029 9.20686 19.2808 9.54934C19.0965 9.67026 18.881 9.73481 18.6606 9.73508C18.4726 9.73497 18.2876 9.68816 18.1221 9.59885C17.9567 9.50954 17.8161 9.38053 17.7128 9.22341ZM53.2978 8.10207V8.10383C53.0338 7.96077 52.8373 7.71875 52.7516 7.43093C52.6659 7.14311 52.6979 6.83304 52.8407 6.56882C53.1364 6.01965 53.8246 5.81443 54.3739 6.11179C54.9231 6.40901 55.1284 7.09558 54.8311 7.64504C54.734 7.82468 54.5903 7.97476 54.415 8.07942C54.2396 8.18408 54.0393 8.23943 53.8351 8.23962C53.6473 8.23983 53.4625 8.19252 53.2978 8.10207ZM22.2475 6.52678C22.1859 6.39155 22.1514 6.24548 22.1463 6.09694C22.1411 5.94839 22.1653 5.80029 22.2174 5.6611C22.2696 5.52191 22.3486 5.39436 22.4501 5.28577C22.5516 5.17718 22.6735 5.08967 22.8089 5.02824C23.3778 4.77014 24.0493 5.02063 24.3074 5.58972C24.3691 5.72495 24.4035 5.87101 24.4086 6.01955C24.4137 6.16808 24.3895 6.31618 24.3374 6.45535C24.2852 6.59452 24.2062 6.72205 24.1047 6.83062C24.0032 6.9392 23.8813 7.0267 23.7459 7.08811V7.08957C23.5989 7.15583 23.4395 7.19028 23.2782 7.19065C22.8481 7.19065 22.4362 6.94455 22.2475 6.52678ZM48.6348 6.0302V6.02873C48.4947 5.97928 48.3656 5.90266 48.2552 5.80325C48.1447 5.70385 48.0549 5.58363 47.991 5.44946C47.927 5.3153 47.8902 5.16984 47.8826 5.02142C47.875 4.873 47.8967 4.72454 47.9466 4.58454C48.1565 3.99597 48.8038 3.68806 49.3924 3.89636C49.6752 3.99711 49.9064 4.20588 50.0354 4.4769C50.1644 4.74791 50.1807 5.05903 50.0806 5.34201C50.0019 5.56209 49.8572 5.75252 49.6663 5.8873C49.4753 6.02208 49.2475 6.09465 49.0137 6.09509C48.8847 6.09494 48.7566 6.073 48.6348 6.0302ZM27.1429 4.55583C27.0625 4.26668 27.1002 3.95745 27.2476 3.69602C27.395 3.43459 27.6401 3.24234 27.9291 3.16145C28.5313 2.99387 29.156 3.34558 29.3236 3.94763C29.4925 4.54968 29.1409 5.17458 28.5389 5.34201C28.4392 5.37004 28.3362 5.38428 28.2326 5.38435C27.9855 5.38396 27.7452 5.3028 27.5485 5.15322C27.3518 5.00365 27.2093 4.79386 27.1429 4.55583ZM43.7109 4.69924C43.0967 4.58308 42.6938 3.99143 42.8085 3.37736C42.8362 3.2312 42.8923 3.09191 42.9738 2.96745C43.0552 2.84298 43.1604 2.73579 43.2833 2.65198C43.4062 2.56818 43.5444 2.5094 43.6901 2.47901C43.8357 2.44862 43.9859 2.44722 44.132 2.47487C44.278 2.50248 44.4171 2.55859 44.5414 2.63998C44.6657 2.72137 44.7727 2.82645 44.8564 2.94922C44.94 3.07199 44.9987 3.21005 45.029 3.3555C45.0593 3.50094 45.0606 3.65093 45.0329 3.7969C44.9841 4.05586 44.8465 4.28968 44.6437 4.45797C44.4409 4.62627 44.1858 4.7185 43.9222 4.71872C43.8527 4.71872 43.7818 4.71272 43.7109 4.69924ZM32.2842 3.36374C32.2104 2.74353 32.6539 2.17898 33.2758 2.10661C33.896 2.03264 34.4589 2.47634 34.5327 3.09655C34.5674 3.39463 34.4826 3.69431 34.2968 3.92994C34.1109 4.16557 33.8393 4.31794 33.5413 4.35368C33.4968 4.35969 33.4519 4.36278 33.407 4.36291C33.1301 4.36238 32.8629 4.26043 32.6561 4.07633C32.4492 3.89223 32.3169 3.63874 32.2842 3.36374ZM38.6405 4.14084C38.4919 4.13581 38.3458 4.10157 38.2105 4.04006C38.0752 3.97856 37.9534 3.891 37.8519 3.7824C37.7505 3.67379 37.6714 3.54626 37.6193 3.40709C37.5671 3.26792 37.5429 3.11984 37.548 2.97131C37.5527 2.82274 37.5867 2.67657 37.648 2.54115C37.7093 2.40572 37.7967 2.28372 37.9052 2.1821C38.0137 2.08048 38.1411 2.00125 38.2803 1.94894C38.4194 1.89662 38.5675 1.87225 38.716 1.87722V1.87898C38.8646 1.88369 39.0108 1.91765 39.1462 1.97892C39.2817 2.04019 39.4037 2.12757 39.5053 2.23605C39.6069 2.34453 39.6861 2.47198 39.7385 2.61112C39.7908 2.75025 39.8151 2.89834 39.8101 3.0469C39.7999 3.34033 39.6761 3.61834 39.465 3.8224C39.2539 4.02647 38.9719 4.14067 38.6783 4.14099L38.6405 4.14084ZM64.6838 37.5C64.6838 42.4247 60.6984 46.4171 55.7818 46.4171H19.2204C14.304 46.4171 10.3186 42.4247 10.3186 37.5C10.3186 32.5754 14.304 28.5829 19.2204 28.5829H55.7819C60.6982 28.5829 64.6838 32.5754 64.6838 37.5Z" fill="white"/>
<path d="M13.3166 37.5C13.3166 32.5753 17.3021 28.5829 22.2186 28.5829H19.2202C14.3038 28.5829 10.3184 32.5753 10.3184 37.5C10.3184 42.4246 14.3038 46.4171 19.2202 46.4171H22.2186C17.3021 46.4171 13.3166 42.4246 13.3166 37.5Z" fill="black"/>
<path d="M55.7806 47.5157H19.2192C13.705 47.5157 9.21875 43.0226 9.21875 37.5C9.21875 31.9774 13.705 27.4843 19.2192 27.4843H55.7807C61.2951 27.4843 65.7813 31.9774 65.7813 37.5C65.7813 43.0226 61.295 47.5157 55.7806 47.5157ZM19.2192 29.6815C14.9166 29.6815 11.416 33.1888 11.416 37.5C11.416 41.8112 14.9166 45.3184 19.2192 45.3184H55.7807C60.0835 45.3184 63.5841 41.8112 63.5841 37.5C63.5841 33.1888 60.0835 29.6815 55.7807 29.6815H19.2192Z" fill="#FECF05"/>
<path d="M20.7495 31.912H17.3057C17.0143 31.912 16.7348 32.0277 16.5288 32.2337C16.3228 32.4398 16.207 32.7192 16.207 33.0106V41.9899C16.207 42.2813 16.3228 42.5608 16.5288 42.7668C16.7348 42.9728 17.0143 43.0886 17.3057 43.0886H20.7495C22.586 43.0886 24.08 41.5845 24.08 39.7357C24.0808 38.9104 23.7771 38.1137 23.227 37.4984C23.7558 36.9047 24.08 36.1229 24.08 35.2647C24.08 33.4159 22.586 31.912 20.7495 31.912ZM20.7495 40.8912H18.4043V38.5798H20.7495C21.3744 38.5798 21.8827 39.0983 21.8827 39.7357C21.8827 40.3728 21.3744 40.8912 20.7495 40.8912ZM20.7495 36.4203H18.4043V34.1092H20.7495C21.3744 34.1092 21.8827 34.6275 21.8827 35.2647C21.8827 35.9019 21.3744 36.4203 20.7495 36.4203ZM28.7329 31.9114C26.5953 31.9114 24.8562 33.6576 24.8562 35.8041V39.1963C24.8562 41.3425 26.5953 43.0884 28.7329 43.0884C30.8708 43.0884 32.6102 41.3425 32.6102 39.1963V35.8041C32.6102 33.6576 30.8708 31.9114 28.7329 31.9114ZM30.4129 39.1963C30.4129 40.1309 29.6593 40.8912 28.7329 40.8912C27.8068 40.8912 27.0535 40.1309 27.0535 39.1963V35.8041C27.0535 34.8692 27.8068 34.1086 28.7329 34.1086C29.6593 34.1086 30.4129 34.8692 30.4129 35.8041V39.1963ZM55.8656 36.4014H54.1296C53.7331 36.4014 53.3982 35.9744 53.3982 35.469V35.0413C53.3982 34.5358 53.7331 34.1086 54.1296 34.1086H56.7649C57.3716 34.1086 57.8635 33.6169 57.8635 33.01C57.8635 32.4031 57.3716 31.9114 56.7649 31.9114H54.1296C52.5148 31.9114 51.201 33.3154 51.201 35.0413V35.469C51.201 37.1948 52.5148 38.5987 54.1296 38.5987H55.8656C56.262 38.5987 56.5969 39.0257 56.5969 39.5311V39.9588C56.5969 40.4642 56.262 40.8912 55.8656 40.8912H52.8582C52.2514 40.8912 51.7595 41.3829 51.7595 41.9898C51.7595 42.5967 52.2514 43.0884 52.8582 43.0884H55.8656C57.4805 43.0884 58.7941 41.6845 58.7941 39.9588V39.5311C58.7941 37.8053 57.4805 36.4014 55.8656 36.4014ZM37.4452 31.9114C35.3076 31.9114 33.5684 33.6576 33.5684 35.8041V41.9898C33.5684 42.5967 34.0603 43.0884 34.667 43.0884C35.2737 43.0884 35.7656 42.5967 35.7656 41.9898V35.8041C35.7656 34.8692 36.5191 34.1086 37.4452 34.1086C38.3717 34.1086 39.1254 34.8692 39.1254 35.8041V41.9898C39.1254 42.5967 39.6173 43.0884 40.224 43.0884C40.8308 43.0884 41.3227 42.5967 41.3227 41.9898V35.8041C41.3227 33.6576 39.5833 31.9114 37.4452 31.9114ZM49.2687 31.9114C48.9773 31.9114 48.6979 32.0271 48.4918 32.2332C48.2858 32.4392 48.1701 32.7186 48.1701 33.01V39.1963C48.1701 40.1309 47.4167 40.8912 46.4906 40.8912C45.5641 40.8912 44.8104 40.1309 44.8104 39.1963V33.01C44.8104 32.4031 44.3186 31.9114 43.7118 31.9114C43.1051 31.9114 42.6132 32.4031 42.6132 33.01V39.1963C42.6132 41.3425 44.3527 43.0884 46.4906 43.0884C48.6283 43.0884 50.3673 41.3425 50.3673 39.1963V33.01C50.3673 32.7186 50.2516 32.4392 50.0456 32.2332C49.8395 32.0271 49.5601 31.9114 49.2687 31.9114Z" fill="#EE3835"/>
<path d="M28.1016 59.7935C28.0118 59.7934 27.9226 59.7772 27.8385 59.7456L25.6492 58.9263L23.4598 59.7456C23.3439 59.7889 23.219 59.803 23.0964 59.7864C22.9737 59.7699 22.857 59.7233 22.7567 59.6508C22.6566 59.5784 22.5761 59.4822 22.5224 59.371C22.4686 59.2598 22.4433 59.137 22.4488 59.0136L22.5538 56.6848L21.0957 54.8625C21.0185 54.766 20.9666 54.6519 20.9445 54.5304C20.9224 54.4088 20.9309 54.2837 20.9691 54.1663C21.0075 54.0488 21.0745 53.9427 21.164 53.8574C21.2534 53.7722 21.3627 53.7104 21.4818 53.6777L23.7361 53.058L25.0244 51.1124C25.1628 50.903 25.3977 50.7772 25.6492 50.7772C25.9007 50.7772 26.1355 50.903 26.2739 51.1124L27.5621 53.058L29.8167 53.6777C29.9359 53.7102 30.0452 53.7718 30.1347 53.857C30.2243 53.9422 30.2912 54.0484 30.3295 54.1659C30.3679 54.2834 30.3764 54.4085 30.3543 54.5302C30.3322 54.6518 30.2803 54.766 30.2031 54.8625L28.7448 56.6848L28.8499 59.0137C28.8552 59.1371 28.8299 59.2599 28.7762 59.3711C28.7225 59.4822 28.642 59.5784 28.5419 59.6508C28.4139 59.7436 28.2598 59.7935 28.1016 59.7935ZM39.9526 59.7935C39.8627 59.7934 39.7736 59.7772 39.6894 59.7456L37.5002 58.9263L35.311 59.7456C35.195 59.7889 35.0702 59.803 34.9475 59.7865C34.8248 59.7699 34.7081 59.7233 34.6077 59.6508C34.5077 59.5784 34.4272 59.4822 34.3735 59.371C34.3198 59.2598 34.2946 59.137 34.3001 59.0136L34.4051 56.6848L32.9467 54.8625C32.8695 54.7661 32.8176 54.6519 32.7955 54.5304C32.7734 54.4088 32.7819 54.2837 32.8202 54.1663C32.8586 54.0488 32.9256 53.9427 33.0151 53.8575C33.1046 53.7722 33.2138 53.7105 33.333 53.6777L35.5873 53.058L36.8756 51.1124C37.014 50.903 37.2488 50.7772 37.5003 50.7772C37.7519 50.7772 37.9867 50.903 38.125 51.1124L39.4133 53.058L41.6677 53.6777C41.787 53.7102 41.8963 53.7717 41.9859 53.857C42.0754 53.9422 42.1424 54.0483 42.1807 54.1658C42.219 54.2834 42.2275 54.4086 42.2054 54.5302C42.1832 54.6518 42.1312 54.766 42.054 54.8625L40.5958 56.6848L40.7009 59.0137C40.7063 59.1371 40.6811 59.2599 40.6273 59.3711C40.5736 59.4823 40.493 59.5784 40.393 59.6508C40.2649 59.7436 40.1108 59.7935 39.9526 59.7935ZM51.8038 59.7935C51.7139 59.7934 51.6247 59.7772 51.5406 59.7456L49.3514 58.9263L47.162 59.7456C47.046 59.7889 46.9212 59.8029 46.7985 59.7864C46.6758 59.7698 46.5591 59.7233 46.4587 59.6508C46.3587 59.5783 46.2782 59.4822 46.2245 59.371C46.1708 59.2598 46.1455 59.137 46.1508 59.0136L46.256 56.6848L44.7976 54.8625C44.7204 54.766 44.6685 54.6519 44.6464 54.5304C44.6243 54.4088 44.6328 54.2837 44.671 54.1663C44.7095 54.0488 44.7765 53.9427 44.866 53.8574C44.9555 53.7722 45.0647 53.7105 45.1839 53.6777L47.4383 53.058L48.7263 51.1124C48.7947 51.0092 48.8876 50.9246 48.9967 50.8662C49.1058 50.8077 49.2276 50.7771 49.3514 50.7772C49.4751 50.7771 49.5969 50.8077 49.7059 50.8662C49.8149 50.9246 49.9077 51.0092 49.976 51.1124L51.2645 53.058L53.5188 53.6777C53.638 53.7105 53.7473 53.7722 53.8368 53.8575C53.9262 53.9427 53.9932 54.0488 54.0317 54.1663C54.07 54.2837 54.0785 54.4088 54.0564 54.5304C54.0343 54.6519 53.9823 54.7661 53.9051 54.8625L52.4469 56.6848L52.5518 59.0137C52.5559 59.1146 52.5397 59.2152 52.504 59.3096C52.4683 59.404 52.4139 59.4902 52.344 59.563C52.2742 59.6359 52.1903 59.6938 52.0975 59.7334C52.0046 59.773 51.9047 59.7934 51.8038 59.7935ZM27.765 23.4277C27.6751 23.4277 27.586 23.4115 27.5019 23.3798L25.3126 22.5606L23.1232 23.3798C23.0073 23.4231 22.8824 23.4371 22.7598 23.4206C22.6371 23.4041 22.5204 23.3576 22.4201 23.2852C22.32 23.2127 22.2395 23.1166 22.1857 23.0053C22.132 22.8941 22.1067 22.7712 22.1122 22.6478L22.2172 20.319L20.7589 18.4969C20.6818 18.4004 20.6298 18.2863 20.6077 18.1648C20.5856 18.0433 20.5941 17.9182 20.6324 17.8008C20.6708 17.6833 20.7377 17.5772 20.8272 17.4919C20.9167 17.4066 21.0259 17.3448 21.1451 17.3121L23.3993 16.6925L24.6876 14.7467C24.8261 14.5374 25.0609 14.4117 25.3124 14.4117C25.5639 14.4117 25.7987 14.5374 25.9372 14.7467L27.2253 16.6925L29.4799 17.3121C29.5991 17.3448 29.7083 17.4066 29.7978 17.4919C29.8873 17.5771 29.9543 17.6833 29.9927 17.8008C30.031 17.9182 30.0395 18.0433 30.0174 18.1648C29.9953 18.2863 29.9433 18.4004 29.8662 18.4969L28.4079 20.319L28.5129 22.6479C28.5184 22.7713 28.4931 22.8942 28.4393 23.0054C28.3856 23.1166 28.3051 23.2127 28.205 23.2852C28.077 23.3779 27.923 23.4278 27.765 23.4277ZM52.1404 23.4277C52.0505 23.4277 51.9613 23.4115 51.8772 23.3798L49.688 22.5606L47.4986 23.3798C47.4145 23.4114 47.3254 23.4276 47.2355 23.4275C47.1345 23.4278 47.0345 23.4076 46.9415 23.3681C46.8486 23.3286 46.7646 23.2707 46.6946 23.1978C46.6247 23.1249 46.5703 23.0386 46.5347 22.944C46.4991 22.8495 46.483 22.7487 46.4875 22.6478L46.5926 20.319L45.1342 18.4969C45.0571 18.4004 45.0051 18.2863 44.983 18.1648C44.9609 18.0433 44.9694 17.9182 45.0077 17.8008C45.0461 17.6833 45.1131 17.5772 45.2026 17.4919C45.2921 17.4066 45.4013 17.3449 45.5205 17.3121L47.7749 16.6925L49.0629 14.7467C49.1314 14.6436 49.2243 14.5591 49.3333 14.5006C49.4424 14.4421 49.5642 14.4116 49.688 14.4117C49.8117 14.4116 49.9335 14.4421 50.0425 14.5006C50.1515 14.5591 50.2443 14.6436 50.3126 14.7467L51.6011 16.6925L53.8555 17.3121C53.9747 17.3449 54.0839 17.4067 54.1734 17.4919C54.2629 17.5772 54.3298 17.6833 54.3683 17.8008C54.4066 17.9182 54.4151 18.0433 54.393 18.1648C54.3709 18.2863 54.3189 18.4005 54.2417 18.4969L52.7835 20.319L52.8884 22.6479C52.8939 22.7714 52.8686 22.8942 52.8148 23.0054C52.761 23.1167 52.6805 23.2128 52.5803 23.2852C52.4524 23.3779 52.2984 23.4277 52.1404 23.4277ZM41.6955 24.3712C41.5417 24.3712 41.3892 24.3435 41.2452 24.2895L37.5002 22.8882L33.755 24.2895C33.6112 24.3435 33.4587 24.3712 33.305 24.371C33.0346 24.371 32.7711 24.2858 32.552 24.1274C32.3808 24.0036 32.2431 23.8391 32.1513 23.6489C32.0594 23.4586 32.0162 23.2485 32.0256 23.0375L32.2052 19.0537L29.7103 15.9366C29.5783 15.7716 29.4894 15.5764 29.4516 15.3684C29.4138 15.1605 29.4283 14.9465 29.4938 14.7456C29.5596 14.5446 29.6742 14.3632 29.8273 14.2174C29.9804 14.0716 30.1672 13.966 30.3711 13.91L34.2276 12.8496L36.4313 9.52105C36.5483 9.34471 36.7071 9.20009 36.8936 9.1001C37.0801 9.0001 37.2884 8.94785 37.5 8.948C37.7116 8.94783 37.9199 9.00008 38.1064 9.10008C38.2928 9.20008 38.4516 9.34471 38.5685 9.52105L40.7725 12.8496L44.629 13.91C44.8329 13.9659 45.0199 14.0715 45.173 14.2173C45.3262 14.3631 45.4408 14.5446 45.5066 14.7456C45.5721 14.9465 45.5865 15.1605 45.5487 15.3685C45.5109 15.5764 45.422 15.7716 45.2899 15.9366L42.7955 19.0537L42.975 23.0379C42.9844 23.2489 42.9412 23.459 42.8493 23.6492C42.7574 23.8394 42.6196 24.0038 42.4484 24.1276C42.2294 24.2861 41.9659 24.3714 41.6955 24.3712Z" fill="#FECF05"/>
<path d="M13.7342 64.0166C6.66343 56.9335 2.76943 47.5167 2.76943 37.5C2.76943 27.4833 6.66343 18.0665 13.7342 10.9834C20.4851 4.22109 29.3606 0.362256 38.8526 0.0266602C38.402 0.00976786 37.9511 0.000879736 37.5001 0C27.5007 0 18.0999 3.90073 11.0291 10.9834C3.9583 18.0665 0.0644531 27.4833 0.0644531 37.5C0.0644531 47.5167 3.95845 56.9335 11.0292 64.0166C18.0999 71.0993 27.5007 75 37.5001 75C37.9523 75 38.4031 74.9893 38.8526 74.9733C29.3606 74.6377 20.4851 70.7789 13.7342 64.0166Z" fill="black"/>
</g>
<defs>
<clipPath id="clip0_595_712">
<rect width="75" height="75" fill="white"/>
</clipPath>
</defs>
</svg>
