<svg width="75" height="75" viewBox="0 0 75 75" fill="none" xmlns="http://www.w3.org/2000/svg">
<path d="M49.9315 0H24.977C20.573 0.00495384 17.0045 3.57364 17 7.9776V67.0229C17.0043 71.4268 20.5732 74.9954 24.977 74.9998H49.9315C54.3355 74.9955 57.904 71.4267 57.9091 67.0229V7.9776C57.9042 3.57364 54.3355 0.00511364 49.9315 0ZM37.4546 68.1821C35.5713 68.1821 34.045 66.656 34.045 64.7726C34.045 62.8899 35.5711 61.3637 37.4546 61.3637C39.3372 61.3637 40.8634 62.8898 40.8634 64.7726C40.8634 66.6558 39.3373 68.1821 37.4546 68.1821ZM42.5682 10.2273H32.3409C31.3997 10.2273 30.6362 9.46391 30.6362 8.52252C30.6362 7.58113 31.3995 6.8184 32.3409 6.8184H42.5682C43.5094 6.8184 44.2723 7.58113 44.2723 8.52252C44.2723 9.46391 43.5096 10.2273 42.5682 10.2273Z" fill="#DC2626"/>
</svg>
