<svg width="75" height="75" viewBox="0 0 75 75" fill="none" xmlns="http://www.w3.org/2000/svg">
<path d="M73.9009 25.7572C73.9009 20.7208 71.012 16.3686 66.8071 14.2383C66.3306 9.4963 62.3283 5.79407 57.4607 5.79407C54.5187 5.79407 51.8947 7.14831 50.1722 9.26529C48.8038 8.52651 47.2728 8.14065 45.7177 8.14264C40.5292 8.14264 36.3232 12.3486 36.3232 17.5371L29.2773 59.812C29.2773 64.675 32.5619 68.7711 37.0337 70.0025L41.0205 70.3162C46.3048 69.7321 50.4148 65.252 50.4148 59.812C50.4148 59.3954 50.3843 58.9864 50.3375 58.5824C56.2595 58.0831 61.0315 53.593 61.974 47.8084C66.117 46.8296 69.2036 43.1167 69.2036 38.6746C69.2036 37.7492 69.0644 36.8573 68.8151 36.0128C71.9013 33.6522 73.9009 29.9427 73.9009 25.7572Z" fill="#F5EBCD"/>
<path d="M41.0204 9.40955C38.2151 11.0346 36.3232 14.0617 36.3232 17.5369L29.2773 59.8118C29.2773 65.6488 34.0091 70.3805 39.846 70.3805C40.2434 70.3805 40.6344 70.3581 41.0204 70.3155V9.40955Z" fill="#F4DBB3"/>
<path d="M36.1945 10.777C32.0431 6.53464 26.0679 4.08587 19.5314 4.71839C8.6551 5.77073 0.561286 15.5396 1.12759 26.4519C2.19912 47.1007 27.3628 65.0183 35.1942 70.1098C36.1892 70.7568 37.4985 70.0402 37.4985 68.8532L37.4956 14.032C37.4956 12.8208 37.0416 11.6427 36.1945 10.777Z" fill="#E5646E"/>
<path d="M4.6461 24.1303C4.29322 17.3285 7.30639 10.9729 12.2592 6.89343C5.27085 10.5434 0.697339 18.1624 1.12756 26.452C2.19909 47.1007 27.3628 65.0184 35.1941 70.1098C36.1892 70.7567 37.4985 70.0403 37.4985 68.8533V66.9851C28.578 61.0123 5.66768 43.8173 4.6461 24.1303Z" fill="#DB4655"/>
<path d="M75 25.7705C75 20.6702 72.2577 16.0152 67.8201 13.534C67.0187 8.53813 62.6794 4.70875 57.461 4.70875C56.0497 4.70865 54.6529 4.99335 53.3542 5.54577C52.0555 6.0982 50.8817 6.90701 49.9029 7.92377C48.5822 7.35076 47.1577 7.05582 45.718 7.05732C42.5729 7.05732 39.6706 8.42914 37.6913 10.7894C33.1088 5.63057 26.3568 2.96837 19.4249 3.63824C13.8984 4.17306 8.8454 6.85635 5.19693 11.194C1.57526 15.4999 -0.259887 20.9437 0.0297117 26.5225C0.502122 35.625 5.48286 45.1692 14.8335 54.89C22.2213 62.5703 30.3856 68.3079 34.5946 71.0444C35.0147 71.3179 35.5052 71.4635 36.0064 71.4635C36.4371 71.4635 36.8609 71.3559 37.2394 71.1503C37.6503 70.9272 37.9934 70.5973 38.2323 70.1953C38.4712 69.7934 38.597 69.3343 38.5966 68.8667V46.5924C40.084 48.1835 42.199 49.1808 44.5438 49.1808C44.8352 49.1808 45.1146 49.065 45.3206 48.859C45.5267 48.653 45.6424 48.3735 45.6424 48.0822C45.6424 47.7908 45.5267 47.5113 45.3206 47.3053C45.1146 47.0993 44.8352 46.9835 44.5438 46.9835C41.2645 46.9835 38.5966 44.3156 38.5966 41.0363V22.2475C38.5966 21.9562 38.4808 21.6767 38.2748 21.4707C38.0687 21.2647 37.7893 21.1489 37.4979 21.1489C37.2066 21.1489 36.9271 21.2647 36.7211 21.4707C36.515 21.6767 36.3993 21.9562 36.3993 22.2475V68.8667C36.3993 69.0751 36.2691 69.1769 36.1914 69.219C36.1154 69.2604 35.9626 69.3131 35.7923 69.2022C28.1817 64.2543 3.26905 46.5453 2.22389 26.4087C1.9633 21.3877 3.61637 16.4868 6.87842 12.6085C10.1547 8.71347 14.6854 6.30454 19.6364 5.82554C26.0458 5.20577 32.2838 7.75371 36.4021 12.6542L36.3994 17.5504C36.3994 17.6947 36.4277 17.8375 36.4828 17.9709C36.538 18.1042 36.6188 18.2253 36.7208 18.3274C36.8228 18.4295 36.9438 18.5105 37.0771 18.5658C37.2104 18.621 37.3532 18.6495 37.4975 18.6496H37.4981C37.7893 18.6496 38.0687 18.5339 38.2747 18.328C38.4807 18.1221 38.5965 17.8428 38.5967 17.5516L38.599 13.2775C38.6147 13.2556 38.6316 13.2348 38.6458 13.2115C40.1695 10.7338 42.8134 9.25458 45.718 9.25458C48.2463 9.25458 50.6056 10.3868 52.1907 12.3609C52.3731 12.5881 52.6384 12.7335 52.928 12.7652C53.2177 12.7968 53.508 12.7121 53.7352 12.5297C53.9624 12.3472 54.1078 12.082 54.1395 11.7924C54.1711 11.5027 54.0864 11.2123 53.904 10.9851C53.3198 10.2572 52.6418 9.60978 51.8876 9.0599C53.4132 7.67423 55.4001 6.90631 57.461 6.90586C62.0354 6.90586 65.7569 10.6273 65.7569 15.2017C65.7583 16.1781 65.5868 17.1471 65.2503 18.0638C65.1993 18.1995 65.1757 18.3439 65.1808 18.4888C65.1859 18.6336 65.2196 18.776 65.28 18.9078C65.3404 19.0395 65.4262 19.1581 65.5326 19.2565C65.639 19.3549 65.7638 19.4313 65.8998 19.4813C66.0359 19.5313 66.1804 19.5539 66.3252 19.5478C66.47 19.5417 66.6122 19.5069 66.7435 19.4456C66.8749 19.3843 66.9928 19.2976 67.0904 19.1905C67.1881 19.0835 67.2636 18.9581 67.3127 18.8217C67.6241 17.9737 67.8239 17.0888 67.9072 16.1893C70.9619 18.3941 72.8027 21.933 72.8027 25.7703C72.8027 28.9755 71.5365 31.9706 69.2871 34.1825C69.1522 33.8976 69.0043 33.619 68.844 33.3477C68.7708 33.2228 68.6737 33.1137 68.5582 33.0265C68.4428 32.9393 68.3112 32.8758 68.1711 32.8396C68.0311 32.8034 67.8852 32.7953 67.742 32.8156C67.5987 32.8359 67.4609 32.8843 67.3364 32.958C67.2119 33.0318 67.1032 33.1294 67.0165 33.2452C66.9299 33.3611 66.8669 33.4929 66.8314 33.6332C66.7958 33.7734 66.7883 33.9193 66.8092 34.0624C66.8302 34.2056 66.8792 34.3432 66.9535 34.4674C67.7071 35.74 68.1056 37.1994 68.1056 38.6879C68.1056 41.9837 66.1654 44.9156 63.2469 46.2413C63.2529 46.0727 63.257 45.9037 63.257 45.7336C63.257 44.752 63.1549 43.7714 62.9533 42.8191C62.9235 42.678 62.8661 42.5441 62.7845 42.4251C62.7029 42.3061 62.5987 42.2043 62.4777 42.1256C62.3568 42.0469 62.2216 41.9928 62.0797 41.9664C61.9379 41.94 61.7922 41.9418 61.6511 41.9717C61.366 42.0321 61.1166 42.2031 60.9577 42.4474C60.7987 42.6916 60.7433 42.9889 60.8036 43.274C60.9742 44.0827 61.06 44.9071 61.0597 45.7336C61.0597 52.2505 55.7579 57.5523 49.241 57.5523C48.7032 57.5523 48.1625 57.5159 47.6339 57.4441C47.0323 57.3613 46.479 57.7835 46.3974 58.3848C46.378 58.5278 46.3869 58.6732 46.4236 58.8127C46.4604 58.9522 46.5243 59.0831 46.6116 59.1979C46.699 59.3127 46.8081 59.4092 46.9328 59.4818C47.0574 59.5545 47.1952 59.6019 47.3381 59.6213C47.9645 59.7064 48.6046 59.7495 49.241 59.7495C49.2657 59.7495 49.2902 59.7486 49.3149 59.7486C49.3151 59.7741 49.3167 59.7997 49.3167 59.8252C49.3167 64.2442 46.317 68.0353 42.0221 69.0444C41.7418 69.1143 41.5003 69.2917 41.3498 69.5382C41.1993 69.7848 41.152 70.0807 41.2181 70.3619C41.2842 70.6431 41.4583 70.887 41.7028 71.0408C41.9474 71.1945 42.2426 71.2458 42.5247 71.1835C45.0421 70.592 47.3246 69.1495 48.9516 67.1217C50.6041 65.062 51.5141 62.4708 51.5141 59.8253C51.5141 59.7389 51.5103 59.652 51.5084 59.5653C57.1874 58.6376 61.7297 54.2856 62.9391 48.7052C67.2995 47.3471 70.303 43.299 70.303 38.6879C70.303 37.9316 70.2202 37.1814 70.0608 36.4496C73.2075 33.7785 75 29.9236 75 25.7705Z" fill="black"/>
<path d="M56.6543 31.0525C56.9456 31.0525 57.2251 30.9368 57.4311 30.7307C57.6371 30.5247 57.7529 30.2453 57.7529 29.9539C57.7529 29.6625 57.6371 29.3831 57.4311 29.177C57.2251 28.971 56.9456 28.8553 56.6543 28.8553C53.3749 28.8553 50.707 26.1873 50.707 22.908C50.707 22.6166 50.5913 22.3372 50.3852 22.1312C50.1792 21.9251 49.8998 21.8094 49.6084 21.8094C49.317 21.8094 49.0376 21.9251 48.8315 22.1312C48.6255 22.3372 48.5098 22.6166 48.5098 22.908C48.5098 25.1271 49.4029 27.1407 50.8472 28.6111C49.7036 30.5092 49.3813 32.77 49.9717 34.9395C50.035 35.172 50.173 35.3773 50.3644 35.5238C50.5558 35.6702 50.79 35.7497 51.031 35.75C51.2 35.7501 51.3667 35.7112 51.5182 35.6364C51.6697 35.5616 51.802 35.4529 51.9046 35.3187C52.0072 35.1844 52.0775 35.0283 52.11 34.8625C52.1425 34.6967 52.1363 34.5256 52.0919 34.3626C51.6842 32.8642 51.8739 31.3062 52.6025 29.9685C53.8343 30.6798 55.2319 31.0537 56.6543 31.0525Z" fill="black"/>
</svg>
