<svg width="75" height="75" viewBox="0 0 75 75" fill="none" xmlns="http://www.w3.org/2000/svg">
<path fill-rule="evenodd" clip-rule="evenodd" d="M37.5 3.90625C38.1216 3.90625 38.7177 4.15318 39.1573 4.59272C39.5968 5.03226 39.8438 5.6284 39.8438 6.25V12.5C39.8438 13.1216 39.5968 13.7177 39.1573 14.1573C38.7177 14.5968 38.1216 14.8438 37.5 14.8438C36.8784 14.8438 36.2823 14.5968 35.8427 14.1573C35.4032 13.7177 35.1562 13.1216 35.1562 12.5V6.25C35.1562 5.6284 35.4032 5.03226 35.8427 4.59272C36.2823 4.15318 36.8784 3.90625 37.5 3.90625ZM17.0937 17.0937C17.5332 16.6548 18.1289 16.4083 18.75 16.4083C19.3711 16.4083 19.9668 16.6548 20.4062 17.0937L21.4813 18.1656C21.908 18.6079 22.1439 19.2 22.1383 19.8145C22.1327 20.4291 21.8859 21.0168 21.4512 21.4511C21.0164 21.8855 20.4284 22.1317 19.8139 22.1367C19.1994 22.1418 18.6075 21.9053 18.1656 21.4781L17.0937 20.4062C16.6548 19.9668 16.4083 19.3711 16.4083 18.75C16.4083 18.1289 16.6548 17.5332 17.0937 17.0937ZM57.9063 17.0937C58.3452 17.5332 58.5917 18.1289 58.5917 18.75C58.5917 19.3711 58.3452 19.9668 57.9063 20.4062L56.8344 21.4813C56.3921 21.908 55.8 22.1439 55.1855 22.1383C54.5709 22.1327 53.9832 21.8859 53.5489 21.4512C53.1145 21.0164 52.8683 20.4284 52.8633 19.8139C52.8582 19.1994 53.0947 18.6075 53.5219 18.1656L54.5937 17.0937C55.0332 16.6548 55.6289 16.4083 56.25 16.4083C56.8711 16.4083 57.4668 16.6548 57.9063 17.0937ZM3.90625 37.5C3.90625 36.8784 4.15318 36.2823 4.59272 35.8427C5.03226 35.4032 5.6284 35.1562 6.25 35.1562H12.5C13.1216 35.1562 13.7177 35.4032 14.1573 35.8427C14.5968 36.2823 14.8438 36.8784 14.8438 37.5C14.8438 38.1216 14.5968 38.7177 14.1573 39.1573C13.7177 39.5968 13.1216 39.8438 12.5 39.8438H6.25C5.6284 39.8438 5.03226 39.5968 4.59272 39.1573C4.15318 38.7177 3.90625 38.1216 3.90625 37.5ZM60.1562 37.5C60.1562 36.8784 60.4032 36.2823 60.8427 35.8427C61.2823 35.4032 61.8784 35.1562 62.5 35.1562H68.75C69.3716 35.1562 69.9677 35.4032 70.4073 35.8427C70.8468 36.2823 71.0938 36.8784 71.0938 37.5C71.0938 38.1216 70.8468 38.7177 70.4073 39.1573C69.9677 39.5968 69.3716 39.8438 68.75 39.8438H62.5C61.8784 39.8438 61.2823 39.5968 60.8427 39.1573C60.4032 38.7177 60.1562 38.1216 60.1562 37.5ZM21.4781 53.5219C21.917 53.9613 22.1636 54.557 22.1636 55.1781C22.1636 55.7992 21.917 56.3949 21.4781 56.8344L20.4062 57.9063C19.962 58.3203 19.3743 58.5456 18.7671 58.5349C18.1599 58.5242 17.5806 58.2782 17.1512 57.8488C16.7218 57.4194 16.4758 56.8401 16.4651 56.2329C16.4544 55.6257 16.6797 55.038 17.0937 54.5937L18.1656 53.5219C18.6051 53.083 19.2008 52.8364 19.8219 52.8364C20.443 52.8364 21.0387 53.083 21.4781 53.5219ZM53.5219 53.5219C53.9613 53.083 54.557 52.8364 55.1781 52.8364C55.7992 52.8364 56.3949 53.083 56.8344 53.5219L57.9063 54.5937C58.1365 54.8083 58.3212 55.0671 58.4493 55.3546C58.5774 55.6421 58.6463 55.9524 58.6518 56.2671C58.6574 56.5818 58.5995 56.8944 58.4816 57.1862C58.3638 57.4781 58.1883 57.7432 57.9657 57.9657C57.7432 58.1883 57.4781 58.3638 57.1862 58.4816C56.8944 58.5995 56.5818 58.6574 56.2671 58.6518C55.9524 58.6463 55.6421 58.5774 55.3546 58.4493C55.0671 58.3212 54.8083 58.1365 54.5937 57.9063L53.5219 56.8344C53.083 56.3949 52.8364 55.7992 52.8364 55.1781C52.8364 54.557 53.083 53.9613 53.5219 53.5219ZM37.5 60.1562C38.1216 60.1562 38.7177 60.4032 39.1573 60.8427C39.5968 61.2823 39.8438 61.8784 39.8438 62.5V68.75C39.8438 69.3716 39.5968 69.9677 39.1573 70.4073C38.7177 70.8468 38.1216 71.0938 37.5 71.0938C36.8784 71.0938 36.2823 70.8468 35.8427 70.4073C35.4032 69.9677 35.1562 69.3716 35.1562 68.75V62.5C35.1562 61.8784 35.4032 61.2823 35.8427 60.8427C36.2823 60.4032 36.8784 60.1562 37.5 60.1562Z" fill="#C42E8B"/>
<path d="M21.875 34.5625C21.875 42.5062 28.1562 46.7406 32.75 50.5312C34.375 51.8656 35.9375 53.125 37.5 53.125C39.0625 53.125 40.625 51.8656 42.25 50.5312C46.8438 46.7406 53.125 42.5062 53.125 34.5625C53.125 26.6156 44.5312 20.9812 37.5 28.6187C30.4688 20.9812 21.875 26.6187 21.875 34.5625Z" fill="#C42E8B"/>
</svg>
