<svg width="45" height="46" viewBox="0 0 45 46" fill="none" xmlns="http://www.w3.org/2000/svg">
<path d="M22.5 45.5C34.9264 45.5 45 35.4264 45 23C45 10.5736 34.9264 0.5 22.5 0.5C10.0736 0.5 0 10.5736 0 23C0 35.4264 10.0736 45.5 22.5 45.5Z" fill="#E9A13B"/>
<path d="M22.5001 36.518C19.7935 36.5183 17.1542 35.6746 14.9497 34.1043C12.7451 32.534 11.0852 30.3153 10.201 27.7571C10.1261 27.5639 10.0909 27.3575 10.0975 27.1503C10.1041 26.9431 10.1523 26.7394 10.2394 26.5513C10.3265 26.3632 10.4506 26.1946 10.6043 26.0555C10.758 25.9164 10.9381 25.8097 11.1339 25.7418C11.3298 25.6739 11.5373 25.6461 11.7441 25.6601C11.9509 25.6742 12.1527 25.7297 12.3376 25.8235C12.5224 25.9173 12.6865 26.0474 12.82 26.206C12.9534 26.3646 13.0536 26.5484 13.1144 26.7466C13.7857 28.7023 15.051 30.3994 16.7337 31.6009C18.4165 32.8025 20.4325 33.4484 22.5001 33.4484C24.5678 33.4484 26.5838 32.8025 28.2665 31.6009C29.9493 30.3994 31.2146 28.7023 31.8859 26.7466C31.9467 26.5484 32.0468 26.3646 32.1803 26.206C32.3138 26.0474 32.4778 25.9173 32.6627 25.8235C32.8476 25.7297 33.0494 25.6742 33.2562 25.6601C33.463 25.6461 33.6705 25.6739 33.8664 25.7418C34.0622 25.8097 34.2423 25.9164 34.396 26.0555C34.5497 26.1946 34.6738 26.3632 34.7609 26.5513C34.848 26.7394 34.8962 26.9431 34.9028 27.1503C34.9094 27.3575 34.8742 27.5639 34.7993 27.7571C33.9151 30.3153 32.2551 32.534 30.0506 34.1043C27.8461 35.6746 25.2068 36.5183 22.5001 36.518Z" fill="#F8F0E3"/>
<path d="M29.9571 20.4723C31.5903 20.4723 32.9143 19.1483 32.9143 17.5151C32.9143 15.8819 31.5903 14.558 29.9571 14.558C28.324 14.558 27 15.8819 27 17.5151C27 19.1483 28.324 20.4723 29.9571 20.4723Z" fill="#F8F0E3"/>
<path d="M15.0431 20.4723C16.6763 20.4723 18.0002 19.1483 18.0002 17.5151C18.0002 15.8819 16.6763 14.558 15.0431 14.558C13.4099 14.558 12.0859 15.8819 12.0859 17.5151C12.0859 19.1483 13.4099 20.4723 15.0431 20.4723Z" fill="#F8F0E3"/>
</svg>
