<svg width="299" height="341" viewBox="0 0 299 341" fill="none" xmlns="http://www.w3.org/2000/svg">
<g filter="url(#filter0_dd_102_231)">
<g clip-path="url(#clip0_102_231)">
<rect x="4.70874" y="200.493" width="389" height="159" rx="20" transform="rotate(-30.9926 4.70874 200.493)" fill="white"/>
<path d="M50.6399 226.564L43.8965 215.338L45.9308 214.116L51.6513 223.639L56.6013 220.666L57.6241 222.369L50.6399 226.564ZM62.1524 219.874C61.3085 220.381 60.4746 220.643 59.6506 220.659C58.8236 220.671 58.0497 220.452 57.329 220.003C56.6133 219.551 55.9915 218.886 55.4635 218.007C54.9415 217.138 54.6477 216.279 54.5819 215.43C54.5132 214.576 54.665 213.788 55.0374 213.065C55.4099 212.342 55.9979 211.739 56.8016 211.257C57.3189 210.946 57.8585 210.735 58.4201 210.623C58.9868 210.508 59.5526 210.517 60.1174 210.649C60.6872 210.778 61.2365 211.05 61.7653 211.464C62.291 211.872 62.7757 212.446 63.2192 213.184L63.5903 213.802L56.6889 217.948L55.8878 216.614L61.8023 213.061L61.1109 214.01C60.8242 213.533 60.5025 213.162 60.1456 212.898C59.7858 212.629 59.4023 212.48 58.9953 212.451C58.5883 212.422 58.1714 212.536 57.7444 212.792C57.3175 213.049 57.0137 213.368 56.833 213.75C56.6523 214.132 56.5867 214.54 56.6362 214.975C56.6826 215.405 56.831 215.829 57.0814 216.246L57.6381 217.172C57.9459 217.685 58.2978 218.071 58.6938 218.333C59.0919 218.586 59.509 218.711 59.9451 218.709C60.3862 218.703 60.8228 218.571 61.2547 218.312C61.536 218.143 61.768 217.949 61.9508 217.729C62.1386 217.507 62.2671 217.266 62.3363 217.006C62.4075 216.737 62.4159 216.456 62.3615 216.16L64.3462 215.265C64.5183 215.825 64.5513 216.386 64.445 216.949C64.3408 217.504 64.0954 218.034 63.7087 218.54C63.3241 219.037 62.8053 219.482 62.1524 219.874ZM70.3105 214.974C69.4666 215.481 68.6327 215.742 67.8087 215.759C66.9817 215.77 66.2079 215.552 65.4872 215.103C64.7715 214.651 64.1496 213.986 63.6216 213.107C63.0996 212.238 62.8058 211.379 62.74 210.53C62.6713 209.675 62.8231 208.887 63.1956 208.164C63.568 207.442 64.1561 206.839 64.9597 206.356C65.4771 206.045 66.0166 205.834 66.5783 205.722C67.1449 205.607 67.7107 205.616 68.2755 205.749C68.8453 205.878 69.3946 206.149 69.9234 206.563C70.4492 206.972 70.9338 207.545 71.3773 208.284L71.7484 208.902L64.847 213.047L64.046 211.714L69.9604 208.161L69.269 209.109C68.9824 208.632 68.6606 208.262 68.3038 207.997C67.9439 207.728 67.5604 207.579 67.1535 207.55C66.7465 207.521 66.3295 207.635 65.9026 207.892C65.4756 208.148 65.1718 208.467 64.9911 208.849C64.8104 209.231 64.7448 209.64 64.7943 210.075C64.8407 210.505 64.9891 210.928 65.2396 211.345L65.7962 212.272C66.104 212.784 66.4559 213.171 66.8519 213.432C67.25 213.685 67.6671 213.811 68.1032 213.808C68.5443 213.803 68.9809 213.671 69.4128 213.411C69.6941 213.242 69.9262 213.048 70.1089 212.829C70.2967 212.607 70.4252 212.366 70.4944 212.105C70.5657 211.837 70.5741 211.555 70.5196 211.26L72.5043 210.365C72.6764 210.925 72.7094 211.486 72.6031 212.048C72.4989 212.603 72.2535 213.133 71.8669 213.639C71.4823 214.137 70.9635 214.582 70.3105 214.974ZM74.6396 212.148L69.5798 203.725L71.5011 202.57L72.3519 203.987L72.4423 203.933C72.2973 203.35 72.3347 202.815 72.5545 202.327C72.7713 201.835 73.1208 201.444 73.603 201.154C73.7085 201.091 73.8321 201.023 73.9737 200.952C74.1204 200.877 74.2435 200.821 74.3429 200.781L75.4382 202.605C75.3347 202.626 75.1865 202.681 74.9936 202.769C74.8007 202.858 74.6214 202.952 74.4556 203.051C74.089 203.272 73.8092 203.546 73.6165 203.873C73.4237 204.201 73.3259 204.55 73.3231 204.921C73.3253 205.289 73.435 205.653 73.6522 206.015L76.6211 210.958L74.6396 212.148ZM85.0994 210.397C84.0296 211.039 83.063 211.336 82.1998 211.287C81.3396 211.244 80.6451 210.981 80.1163 210.499L81.6319 208.993C81.8118 209.111 82.0279 209.203 82.2802 209.27C82.5355 209.343 82.8254 209.353 83.1499 209.302C83.4775 209.255 83.8397 209.113 84.2365 208.875C84.799 208.537 85.1807 208.119 85.3814 207.623C85.5902 207.128 85.509 206.572 85.1379 205.954L84.183 204.365L84.07 204.433C84.0952 204.691 84.0748 204.987 84.0086 205.32C83.9394 205.649 83.7894 205.985 83.5584 206.329C83.3295 206.665 82.9714 206.979 82.4842 207.272C81.8413 207.658 81.1641 207.856 80.4526 207.867C79.7462 207.874 79.0547 207.667 78.3783 207.247C77.7068 206.823 77.0965 206.154 76.5474 205.24C75.9922 204.316 75.6762 203.443 75.5995 202.621C75.5277 201.796 75.656 201.059 75.9842 200.411C76.3125 199.762 76.8006 199.244 77.4485 198.854C77.9408 198.559 78.3974 198.397 78.8184 198.37C79.2395 198.342 79.6163 198.39 79.949 198.511C80.2787 198.627 80.5566 198.754 80.7827 198.892L80.8882 198.829L80.051 197.435L81.9873 196.272L87.1285 204.831C87.5599 205.549 87.7467 206.247 87.6888 206.924C87.6308 207.601 87.3724 208.235 86.9134 208.825C86.4626 209.417 85.8579 209.941 85.0994 210.397ZM82.1049 205.377C82.7378 204.997 83.0892 204.478 83.1592 203.821C83.2313 203.156 83.0259 202.421 82.5431 201.618C82.2233 201.085 81.8689 200.666 81.4799 200.36C81.0908 200.053 80.6817 199.879 80.2526 199.836C79.8235 199.793 79.3955 199.899 78.9686 200.156C78.5266 200.421 78.2268 200.759 78.0692 201.168C77.9117 201.577 77.8782 202.028 77.9689 202.52C78.0616 203.004 78.2603 203.5 78.565 204.007C78.8728 204.52 79.2182 204.924 79.6012 205.22C79.9842 205.516 80.3887 205.684 80.8148 205.721C81.2429 205.751 81.6729 205.637 82.1049 205.377ZM91.952 201.974C91.1081 202.481 90.2742 202.743 89.4502 202.759C88.6232 202.771 87.8494 202.552 87.1286 202.103C86.4129 201.651 85.7911 200.986 85.2631 200.107C84.7411 199.238 84.4473 198.379 84.3815 197.53C84.3128 196.676 84.4646 195.887 84.837 195.165C85.2095 194.442 85.7975 193.839 86.6012 193.357C87.1185 193.046 87.6581 192.834 88.2197 192.723C88.7864 192.608 89.3522 192.617 89.917 192.749C90.4868 192.878 91.0361 193.15 91.5649 193.564C92.0906 193.972 92.5753 194.546 93.0188 195.284L93.3899 195.902L86.4885 200.048L85.6874 198.714L91.6019 195.161L90.9105 196.11C90.6238 195.633 90.3021 195.262 89.9452 194.998C89.5854 194.729 89.2019 194.58 88.7949 194.551C88.3879 194.522 87.971 194.636 87.544 194.892C87.1171 195.148 86.8133 195.468 86.6326 195.85C86.4519 196.232 86.3863 196.64 86.4358 197.075C86.4822 197.505 86.6306 197.929 86.881 198.346L87.4377 199.272C87.7455 199.785 88.0974 200.171 88.4934 200.432C88.8915 200.685 89.3086 200.811 89.7447 200.809C90.1858 200.803 90.6224 200.671 91.0543 200.412C91.3356 200.243 91.5676 200.048 91.7504 199.829C91.9382 199.607 92.0667 199.366 92.1359 199.106C92.2071 198.837 92.2155 198.555 92.1611 198.26L94.1458 197.365C94.3179 197.925 94.3509 198.486 94.2446 199.049C94.1404 199.604 93.895 200.134 93.5083 200.639C93.1237 201.137 92.6049 201.582 91.952 201.974ZM100.839 196.615C100.362 196.902 99.9146 197.061 99.4966 197.094C99.0806 197.118 98.7068 197.076 98.3751 196.968C98.0455 196.851 97.7685 196.72 97.5444 196.575L97.4238 196.647L98.2249 197.981L96.281 199.148L89.5377 187.922L91.5192 186.732L94.0401 190.928L94.1229 190.879C94.1027 190.617 94.1161 190.315 94.1632 189.973C94.2072 189.625 94.3377 189.273 94.5546 188.917C94.7765 188.559 95.136 188.23 95.6333 187.931C96.2812 187.542 96.966 187.356 97.6875 187.374C98.409 187.392 99.116 187.63 99.8086 188.089C100.506 188.545 101.137 189.242 101.701 190.181C102.257 191.106 102.578 191.982 102.666 192.811C102.754 193.64 102.636 194.384 102.314 195.042C101.994 195.693 101.502 196.217 100.839 196.615ZM99.3194 195.314C99.7564 195.051 100.05 194.714 100.199 194.303C100.354 193.889 100.383 193.431 100.286 192.928C100.189 192.426 99.9839 191.914 99.6701 191.391C99.3563 190.869 99.0019 190.45 98.6068 190.133C98.2117 189.817 97.7992 189.631 97.369 189.575C96.9389 189.519 96.5029 189.623 96.0608 189.889C95.6339 190.145 95.3386 190.473 95.175 190.872C95.0165 191.268 94.9815 191.716 95.0702 192.217C95.1609 192.709 95.3707 193.229 95.6995 193.776C96.0254 194.319 96.3874 194.751 96.7855 195.072C97.1856 195.385 97.6032 195.569 98.0383 195.622C98.4704 195.67 98.8974 195.567 99.3194 195.314ZM104.936 193.949L99.8767 185.526L101.858 184.335L106.918 192.759L104.936 193.949ZM100.161 183.745C99.8442 183.935 99.5096 183.993 99.1569 183.918C98.8041 183.843 98.5387 183.657 98.3607 183.36C98.1797 183.059 98.1388 182.735 98.2382 182.388C98.3375 182.042 98.5453 181.773 98.8618 181.583C99.1732 181.396 99.5053 181.34 99.858 181.415C100.211 181.49 100.476 181.676 100.654 181.973C100.835 182.274 100.876 182.598 100.777 182.945C100.677 183.291 100.472 183.558 100.161 183.745ZM111.83 190.033C110.987 190.54 110.153 190.802 109.329 190.819C108.502 190.83 107.728 190.611 107.007 190.163C106.291 189.711 105.67 189.045 105.142 188.166C104.62 187.297 104.326 186.438 104.26 185.589C104.191 184.735 104.343 183.947 104.715 183.224C105.088 182.501 105.676 181.899 106.48 181.416C106.997 181.105 107.537 180.894 108.098 180.782C108.665 180.667 109.231 180.676 109.795 180.808C110.365 180.938 110.915 181.209 111.443 181.623C111.969 182.032 112.454 182.605 112.897 183.343L113.268 183.961L106.367 188.107L105.566 186.773L111.48 183.221L110.789 184.169C110.502 183.692 110.181 183.321 109.824 183.057C109.464 182.788 109.08 182.639 108.673 182.61C108.266 182.581 107.849 182.695 107.422 182.951C106.996 183.208 106.692 183.527 106.511 183.909C106.33 184.291 106.265 184.699 106.314 185.134C106.361 185.565 106.509 185.988 106.76 186.405L107.316 187.332C107.624 187.844 107.976 188.231 108.372 188.492C108.77 188.745 109.187 188.87 109.623 188.868C110.064 188.863 110.501 188.73 110.933 188.471C111.214 188.302 111.446 188.108 111.629 187.889C111.817 187.666 111.945 187.425 112.014 187.165C112.086 186.897 112.094 186.615 112.04 186.319L114.024 185.425C114.196 185.984 114.229 186.545 114.123 187.108C114.019 187.663 113.773 188.193 113.387 188.699C113.002 189.196 112.483 189.641 111.83 190.033ZM119.354 185.494C118.696 185.889 118.002 186.077 117.273 186.057C116.545 186.029 115.836 185.782 115.146 185.315C114.455 184.848 113.832 184.152 113.277 183.228C112.713 182.289 112.391 181.406 112.311 180.579C112.236 179.749 112.36 179.011 112.684 178.366C113.007 177.721 113.493 177.203 114.141 176.814C114.638 176.515 115.094 176.354 115.51 176.33C115.926 176.305 116.298 176.355 116.626 176.48C116.956 176.596 117.231 176.725 117.452 176.865L117.535 176.815L115.014 172.619L116.988 171.433L123.731 182.659L121.795 183.822L120.994 182.489L120.874 182.561C120.892 182.83 120.875 183.138 120.823 183.484C120.768 183.824 120.632 184.173 120.415 184.528C120.195 184.879 119.841 185.201 119.354 185.494ZM118.927 183.536C119.349 183.282 119.637 182.955 119.793 182.554C119.95 182.145 119.985 181.69 119.896 181.19C119.804 180.685 119.596 180.161 119.27 179.618C118.941 179.071 118.578 178.643 118.181 178.334C117.786 178.018 117.374 177.838 116.945 177.795C116.521 177.749 116.095 177.855 115.668 178.111C115.231 178.374 114.934 178.709 114.776 179.118C114.619 179.528 114.587 179.981 114.68 180.478C114.779 180.972 114.985 181.481 115.299 182.003C115.613 182.526 115.969 182.947 116.367 183.269C116.765 183.59 117.181 183.781 117.614 183.842C118.052 183.901 118.49 183.798 118.927 183.536Z" fill="#262F40"/>
<rect x="67.2307" y="256.027" width="40" height="40" rx="20" transform="rotate(-30.9926 67.2307 256.027)" fill="#F59E0B"/>
<path d="M86.6924 249.586C79.3523 253.995 76.9776 263.515 81.3866 270.855C85.7957 278.195 95.3151 280.57 102.655 276.161C109.995 271.752 112.37 262.232 107.961 254.892C103.552 247.552 94.0325 245.177 86.6924 249.586ZM96.3853 256.013C97.3336 255.443 98.56 255.749 99.1296 256.697C99.6993 257.646 99.3933 258.872 98.445 259.442C97.4967 260.011 96.2703 259.705 95.7007 258.757C95.1311 257.809 95.437 256.582 96.3853 256.013ZM87.813 261.162C88.7613 260.592 89.9876 260.898 90.5573 261.847C91.1269 262.795 90.821 264.021 89.8727 264.591C88.9244 265.161 87.698 264.855 87.1283 263.906C86.5587 262.958 86.8646 261.732 87.813 261.162ZM103.727 264.012C103.301 266.761 101.692 269.156 99.3081 270.589C96.9239 272.021 94.0536 272.316 91.426 271.401C90.1728 270.965 90.8342 269.08 92.0843 269.511C94.1501 270.231 96.3998 269.995 98.275 268.869C100.15 267.742 101.412 265.862 101.75 263.705C101.946 262.406 103.926 262.704 103.727 264.012Z" fill="white"/>
<path d="M123.746 239.811L121.214 241.332L120.273 239.765L122.711 238.3C123.403 237.885 123.906 237.412 124.22 236.883C124.536 236.347 124.657 235.755 124.584 235.107C124.515 234.455 124.251 233.748 123.792 232.985C123.333 232.221 122.837 231.657 122.301 231.292C121.766 230.927 121.193 230.757 120.583 230.784C119.971 230.805 119.325 231.02 118.646 231.428L116.108 232.952L115.167 231.385L117.812 229.796C118.803 229.201 119.773 228.889 120.722 228.86C121.675 228.828 122.567 229.069 123.399 229.584C124.231 230.099 124.958 230.875 125.58 231.911C126.202 232.946 126.547 233.955 126.613 234.935C126.677 235.912 126.468 236.818 125.986 237.654C125.506 238.483 124.759 239.202 123.746 239.811ZM116.171 230.782L122.165 240.761L120.357 241.847L114.363 231.868L116.171 230.782ZM132.086 235.011C131.608 235.298 131.129 235.471 130.647 235.529C130.163 235.583 129.711 235.508 129.291 235.305C128.871 235.101 128.514 234.754 128.219 234.263C127.967 233.843 127.836 233.448 127.826 233.077C127.816 232.706 127.895 232.358 128.064 232.032C128.237 231.703 128.467 231.394 128.756 231.106C129.041 230.813 129.354 230.54 129.695 230.287C130.107 229.972 130.439 229.715 130.69 229.516C130.941 229.316 131.102 229.14 131.174 228.988C131.251 228.832 131.239 228.67 131.137 228.5L131.117 228.466C130.899 228.105 130.623 227.888 130.288 227.816C129.953 227.744 129.58 227.831 129.17 228.078C128.736 228.338 128.449 228.638 128.307 228.978C128.17 229.316 128.133 229.639 128.196 229.947L126.415 230.698C126.271 230.165 126.257 229.657 126.374 229.174C126.488 228.686 126.714 228.237 127.051 227.828C127.39 227.412 127.821 227.047 128.344 226.733C128.701 226.518 129.083 226.346 129.492 226.216C129.897 226.082 130.308 226.023 130.725 226.04C131.143 226.057 131.54 226.177 131.917 226.4C132.294 226.623 132.631 226.983 132.929 227.478L135.938 232.488L134.244 233.505L133.624 232.474L133.57 232.506C133.587 232.776 133.552 233.061 133.465 233.362C133.38 233.656 133.226 233.946 133.003 234.232C132.785 234.515 132.479 234.775 132.086 235.011ZM131.754 233.442C132.111 233.228 132.378 232.974 132.554 232.68C132.727 232.381 132.815 232.073 132.818 231.755C132.819 231.432 132.736 231.133 132.57 230.856L132.043 229.979C132.012 230.058 131.944 230.157 131.838 230.275C131.73 230.388 131.603 230.51 131.457 230.641C131.31 230.771 131.163 230.896 131.016 231.015C130.873 231.131 130.748 231.231 130.64 231.314C130.398 231.508 130.197 231.71 130.038 231.921C129.881 232.125 129.785 232.334 129.751 232.55C129.716 232.765 129.767 232.986 129.904 233.214C130.099 233.54 130.365 233.715 130.701 233.738C131.037 233.761 131.388 233.662 131.754 233.442ZM136.511 226.183L139.142 230.563L137.381 231.621L132.883 224.133L134.611 223.095L135.38 224.375L135.467 224.322C135.384 223.801 135.45 223.308 135.664 222.846C135.88 222.376 136.269 221.972 136.832 221.634C137.35 221.323 137.867 221.161 138.382 221.149C138.897 221.138 139.387 221.281 139.852 221.579C140.318 221.87 140.731 222.314 141.091 222.913L143.951 227.674L142.19 228.732L139.494 224.245C139.194 223.745 138.83 223.432 138.402 223.307C137.971 223.176 137.528 223.248 137.073 223.522C136.765 223.707 136.53 223.939 136.37 224.217C136.214 224.493 136.143 224.8 136.157 225.138C136.173 225.468 136.292 225.817 136.511 226.183ZM145.593 223.498L144.303 221.366L144.591 221.193L145.471 216.572L147.533 215.333L146.442 221.011L146.073 221.232L145.593 223.498ZM145.394 226.807L139.4 216.829L141.161 215.771L147.155 225.749L145.394 226.807ZM150.089 223.987L145.607 222.05L146.051 220.088L152.198 222.72L150.089 223.987ZM156.87 220.097C156.445 220.351 156.048 220.493 155.676 220.522C155.306 220.544 154.974 220.506 154.679 220.41C154.386 220.306 154.14 220.19 153.941 220.061L153.833 220.125L154.546 221.31L152.818 222.348L146.824 212.369L148.585 211.311L150.826 215.042L150.899 214.997C150.881 214.765 150.893 214.497 150.935 214.192C150.974 213.883 151.09 213.57 151.283 213.254C151.48 212.935 151.8 212.643 152.242 212.377C152.818 212.031 153.427 211.866 154.068 211.882C154.709 211.898 155.338 212.11 155.953 212.518C156.573 212.923 157.134 213.543 157.636 214.378C158.129 215.199 158.415 215.978 158.493 216.715C158.571 217.452 158.467 218.113 158.181 218.698C157.896 219.277 157.459 219.743 156.87 220.097ZM155.518 218.94C155.907 218.706 156.168 218.407 156.3 218.042C156.438 217.673 156.463 217.266 156.378 216.82C156.292 216.373 156.109 215.918 155.83 215.453C155.551 214.989 155.236 214.616 154.885 214.335C154.534 214.054 154.167 213.888 153.785 213.838C153.402 213.789 153.015 213.882 152.622 214.118C152.242 214.346 151.98 214.637 151.835 214.992C151.694 215.344 151.663 215.742 151.741 216.187C151.822 216.624 152.008 217.087 152.301 217.573C152.59 218.055 152.912 218.439 153.266 218.725C153.622 219.004 153.993 219.166 154.38 219.214C154.764 219.256 155.143 219.165 155.518 218.94ZM163.24 216.297C162.763 216.584 162.283 216.757 161.802 216.815C161.318 216.869 160.866 216.794 160.446 216.591C160.026 216.387 159.668 216.04 159.373 215.549C159.121 215.129 158.99 214.734 158.98 214.363C158.97 213.992 159.049 213.644 159.218 213.318C159.391 212.989 159.622 212.68 159.91 212.392C160.196 212.099 160.509 211.826 160.849 211.573C161.262 211.258 161.593 211.001 161.844 210.802C162.095 210.602 162.257 210.426 162.329 210.274C162.406 210.118 162.393 209.956 162.291 209.786L162.271 209.752C162.054 209.391 161.778 209.174 161.443 209.102C161.108 209.03 160.735 209.117 160.324 209.364C159.891 209.624 159.604 209.924 159.462 210.264C159.324 210.602 159.287 210.925 159.351 211.233L157.569 211.984C157.425 211.451 157.412 210.943 157.528 210.46C157.643 209.972 157.868 209.523 158.206 209.114C158.545 208.698 158.976 208.333 159.498 208.019C159.855 207.804 160.238 207.632 160.646 207.502C161.052 207.368 161.463 207.309 161.88 207.326C162.297 207.343 162.694 207.463 163.071 207.686C163.448 207.909 163.786 208.268 164.083 208.764L167.093 213.774L165.398 214.791L164.779 213.76L164.725 213.792C164.741 214.062 164.706 214.347 164.62 214.648C164.535 214.942 164.381 215.232 164.158 215.518C163.939 215.801 163.633 216.061 163.24 216.297ZM162.909 214.728C163.266 214.514 163.532 214.259 163.708 213.965C163.881 213.667 163.97 213.359 163.973 213.041C163.974 212.718 163.891 212.419 163.725 212.142L163.198 211.265C163.166 211.344 163.098 211.443 162.993 211.561C162.885 211.674 162.758 211.796 162.611 211.927C162.465 212.057 162.318 212.182 162.171 212.301C162.028 212.417 161.902 212.517 161.794 212.6C161.552 212.794 161.352 212.996 161.193 213.207C161.036 213.411 160.94 213.62 160.905 213.836C160.87 214.051 160.921 214.272 161.058 214.5C161.254 214.826 161.52 215 161.856 215.024C162.192 215.047 162.543 214.948 162.909 214.728ZM170.785 211.765C170.307 212.052 169.827 212.225 169.346 212.283C168.862 212.337 168.41 212.262 167.99 212.059C167.57 211.855 167.212 211.508 166.917 211.017C166.665 210.597 166.534 210.202 166.524 209.831C166.514 209.461 166.594 209.112 166.762 208.786C166.935 208.457 167.166 208.149 167.455 207.86C167.74 207.567 168.053 207.294 168.393 207.041C168.806 206.726 169.138 206.469 169.388 206.27C169.639 206.071 169.801 205.895 169.873 205.742C169.95 205.586 169.937 205.424 169.835 205.254L169.815 205.221C169.598 204.859 169.322 204.642 168.987 204.57C168.652 204.498 168.279 204.585 167.868 204.832C167.435 205.092 167.148 205.392 167.006 205.733C166.869 206.07 166.832 206.393 166.895 206.701L165.114 207.453C164.97 206.919 164.956 206.411 165.073 205.928C165.187 205.44 165.412 204.992 165.75 204.582C166.089 204.166 166.52 203.801 167.042 203.487C167.399 203.273 167.782 203.1 168.19 202.971C168.596 202.836 169.007 202.778 169.424 202.795C169.841 202.811 170.238 202.931 170.615 203.154C170.993 203.377 171.33 203.737 171.628 204.232L174.637 209.242L172.942 210.26L172.323 209.228L172.269 209.26C172.285 209.53 172.25 209.816 172.164 210.117C172.079 210.411 171.925 210.701 171.702 210.986C171.483 211.27 171.178 211.529 170.785 211.765ZM170.453 210.197C170.81 209.982 171.077 209.728 171.252 209.434C171.426 209.135 171.514 208.827 171.517 208.509C171.518 208.187 171.435 207.887 171.269 207.61L170.742 206.733C170.711 206.812 170.642 206.911 170.537 207.029C170.429 207.143 170.302 207.265 170.155 207.395C170.009 207.526 169.862 207.65 169.715 207.769C169.572 207.885 169.446 207.985 169.338 208.068C169.096 208.262 168.896 208.465 168.737 208.675C168.58 208.879 168.484 209.089 168.449 209.304C168.415 209.519 168.466 209.741 168.602 209.968C168.798 210.294 169.064 210.469 169.4 210.492C169.736 210.515 170.087 210.416 170.453 210.197ZM176.08 208.375L171.582 200.888L173.29 199.862L174.046 201.121L174.127 201.073C173.998 200.555 174.031 200.079 174.226 199.646C174.419 199.208 174.73 198.86 175.158 198.603C175.252 198.546 175.362 198.487 175.488 198.423C175.618 198.357 175.728 198.306 175.816 198.271L176.79 199.892C176.698 199.911 176.566 199.96 176.394 200.038C176.223 200.117 176.064 200.201 175.916 200.289C175.59 200.485 175.342 200.729 175.17 201.02C174.999 201.311 174.912 201.621 174.91 201.951C174.912 202.278 175.009 202.602 175.202 202.924L177.841 207.317L176.08 208.375ZM180.276 199.894L182.907 204.274L181.146 205.332L175.152 195.353L176.873 194.319L179.138 198.09L179.232 198.033C179.151 197.505 179.22 197.007 179.439 196.542C179.657 196.077 180.055 195.671 180.631 195.325C181.148 195.014 181.665 194.852 182.18 194.84C182.7 194.826 183.193 194.964 183.66 195.255C184.126 195.546 184.541 195.993 184.903 196.596L187.763 201.357L185.995 202.419L183.299 197.932C182.994 197.423 182.628 197.108 182.203 196.987C181.775 196.861 181.329 196.938 180.865 197.217C180.552 197.404 180.313 197.639 180.148 197.92C179.988 198.199 179.914 198.507 179.929 198.845C179.941 199.178 180.057 199.528 180.276 199.894ZM192.603 198.65C191.853 199.101 191.111 199.334 190.379 199.348C189.644 199.358 188.956 199.164 188.315 198.765C187.679 198.363 187.126 197.772 186.657 196.991C186.193 196.218 185.932 195.455 185.874 194.7C185.812 193.941 185.947 193.24 186.278 192.598C186.61 191.955 187.132 191.419 187.847 190.99C188.306 190.714 188.786 190.526 189.285 190.427C189.789 190.325 190.292 190.333 190.794 190.45C191.3 190.565 191.789 190.807 192.259 191.174C192.726 191.538 193.157 192.047 193.551 192.704L193.881 193.253L187.746 196.938L187.034 195.752L192.292 192.595L191.677 193.438C191.422 193.013 191.136 192.684 190.819 192.449C190.499 192.21 190.158 192.078 189.797 192.052C189.435 192.026 189.064 192.127 188.685 192.355C188.305 192.583 188.035 192.867 187.874 193.206C187.714 193.546 187.656 193.909 187.7 194.296C187.741 194.678 187.873 195.054 188.095 195.425L188.59 196.249C188.864 196.704 189.177 197.048 189.529 197.28C189.882 197.505 190.253 197.616 190.641 197.614C191.033 197.61 191.421 197.492 191.805 197.261C192.055 197.111 192.261 196.939 192.424 196.744C192.591 196.546 192.705 196.332 192.766 196.101C192.83 195.862 192.837 195.612 192.789 195.349L194.553 194.554C194.706 195.051 194.735 195.55 194.641 196.05C194.548 196.543 194.33 197.014 193.986 197.464C193.644 197.906 193.183 198.302 192.603 198.65ZM196.931 195.85L192.433 188.363L194.195 187.305L198.692 194.792L196.931 195.85ZM192.686 186.78C192.405 186.949 192.107 187 191.794 186.933C191.48 186.867 191.244 186.701 191.086 186.438C190.925 186.17 190.889 185.882 190.977 185.574C191.065 185.266 191.25 185.027 191.531 184.858C191.808 184.692 192.103 184.642 192.417 184.709C192.73 184.776 192.966 184.941 193.124 185.204C193.285 185.472 193.322 185.76 193.233 186.068C193.145 186.377 192.963 186.614 192.686 186.78ZM202.975 192.402C202.39 192.753 201.774 192.92 201.125 192.902C200.478 192.878 199.848 192.658 199.234 192.243C198.62 191.828 198.067 191.209 197.573 190.388C197.072 189.553 196.785 188.768 196.715 188.033C196.648 187.295 196.758 186.64 197.046 186.066C197.333 185.492 197.765 185.033 198.341 184.687C198.783 184.421 199.189 184.278 199.558 184.256C199.928 184.234 200.259 184.279 200.55 184.389C200.843 184.493 201.088 184.607 201.284 184.732L201.358 184.688L199.117 180.957L200.872 179.903L206.866 189.882L205.145 190.916L204.433 189.731L204.326 189.795C204.342 190.034 204.327 190.308 204.281 190.615C204.232 190.918 204.111 191.227 203.918 191.544C203.722 191.856 203.408 192.142 202.975 192.402ZM202.595 190.661C202.97 190.436 203.227 190.145 203.365 189.789C203.505 189.425 203.536 189.021 203.457 188.576C203.375 188.127 203.19 187.661 202.9 187.179C202.608 186.692 202.285 186.312 201.932 186.038C201.581 185.757 201.215 185.597 200.833 185.559C200.456 185.518 200.078 185.612 199.699 185.84C199.31 186.073 199.046 186.371 198.906 186.735C198.766 187.099 198.737 187.501 198.821 187.944C198.908 188.383 199.092 188.835 199.371 189.299C199.65 189.763 199.966 190.138 200.32 190.424C200.674 190.71 201.043 190.88 201.428 190.934C201.818 190.986 202.207 190.895 202.595 190.661Z" fill="#111827"/>
<path d="M135.637 259.192C134.895 259.638 134.123 259.854 133.323 259.84C132.523 259.826 131.754 259.586 131.017 259.12C130.281 258.648 129.637 257.952 129.086 257.034C128.532 256.112 128.22 255.216 128.148 254.344C128.08 253.47 128.228 252.677 128.592 251.964C128.956 251.251 129.509 250.672 130.251 250.226C130.998 249.778 131.769 249.562 132.565 249.578C133.362 249.594 134.128 249.838 134.864 250.31C135.599 250.783 136.244 251.48 136.798 252.402C137.349 253.32 137.661 254.215 137.732 255.086C137.802 255.954 137.656 256.743 137.296 257.453C136.936 258.164 136.383 258.743 135.637 259.192ZM135.046 258.207C135.573 257.89 135.97 257.471 136.236 256.95C136.504 256.422 136.607 255.823 136.545 255.154C136.487 254.482 136.231 253.768 135.778 253.014C135.323 252.257 134.812 251.694 134.246 251.327C133.682 250.954 133.105 250.763 132.516 250.756C131.928 250.742 131.37 250.894 130.843 251.21C130.315 251.527 129.918 251.949 129.65 252.477C129.38 253.001 129.275 253.601 129.336 254.277C129.394 254.949 129.65 255.664 130.106 256.422C130.559 257.176 131.068 257.736 131.634 258.103C132.2 258.47 132.779 258.66 133.371 258.671C133.96 258.679 134.518 258.524 135.046 258.207ZM139.263 251.495L141.628 255.433L140.632 256.032L136.697 249.48L137.658 248.903L138.277 249.934L138.371 249.878C138.322 249.451 138.392 249.041 138.583 248.65C138.773 248.26 139.116 247.915 139.613 247.617C140.054 247.352 140.495 247.209 140.935 247.19C141.375 247.17 141.797 247.289 142.201 247.545C142.607 247.796 142.978 248.201 143.313 248.759L145.812 252.92L144.816 253.518L142.359 249.428C142.052 248.916 141.676 248.597 141.233 248.47C140.788 248.339 140.332 248.413 139.868 248.692C139.547 248.884 139.302 249.127 139.133 249.42C138.963 249.714 138.884 250.038 138.895 250.392C138.91 250.745 139.033 251.113 139.263 251.495ZM146.14 243.808L146.653 244.664L143.266 246.698L142.752 245.843L146.14 243.808ZM142.801 243.693L143.797 243.094L147.542 249.329C147.746 249.669 147.967 249.877 148.204 249.953C148.438 250.024 148.708 249.969 149.012 249.786C149.079 249.746 149.145 249.701 149.211 249.651C149.28 249.598 149.353 249.539 149.43 249.471L150.183 250.247C150.11 250.338 150.011 250.435 149.886 250.537C149.767 250.64 149.64 250.733 149.503 250.815C148.976 251.132 148.452 251.233 147.932 251.12C147.416 251.005 147.008 250.697 146.708 250.197L142.801 243.693ZM152.65 248.813L146.722 243.458L147.777 242.825L152.208 246.989L152.278 246.947L150.66 241.093L151.738 240.445L156.116 244.626L156.186 244.584L154.598 238.727L155.653 238.094L157.596 245.842L156.611 246.433L152.149 242.271L152.056 242.328L153.634 248.222L152.65 248.813ZM160.499 244.098L156.563 237.547L157.56 236.948L161.495 243.5L160.499 244.098ZM156.413 236.154C156.217 236.271 156.009 236.306 155.789 236.258C155.569 236.209 155.402 236.091 155.289 235.904C155.177 235.716 155.151 235.514 155.212 235.296C155.273 235.079 155.401 234.912 155.596 234.795C155.791 234.677 155.999 234.643 156.22 234.691C156.44 234.739 156.607 234.857 156.719 235.045C156.832 235.232 156.858 235.435 156.797 235.652C156.736 235.869 156.608 236.037 156.413 236.154ZM162.423 239.689L161.653 238.461L161.864 238.334L162.971 233.698L164.213 232.952L163.024 237.876L162.931 237.932L162.423 239.689ZM162.921 242.643L157.676 233.912L158.673 233.313L163.917 242.045L162.921 242.643ZM167.07 240.151L162.572 238.451L162.865 237.318L168.359 239.376L167.07 240.151ZM168.525 236.023L167.756 234.795L167.967 234.668L169.073 230.032L170.316 229.286L169.127 234.21L169.033 234.267L168.525 236.023ZM169.024 238.977L163.779 230.246L164.775 229.647L170.02 238.379L169.024 238.977ZM173.173 236.485L168.675 234.785L168.967 233.652L174.462 235.711L173.173 236.485ZM177.684 233.967C177.055 234.344 176.426 234.531 175.796 234.527C175.17 234.52 174.582 234.339 174.033 233.983C173.482 233.623 173.006 233.109 172.605 232.44C172.201 231.769 171.967 231.104 171.901 230.447C171.836 229.789 171.935 229.185 172.199 228.633C172.467 228.079 172.896 227.624 173.486 227.27C173.826 227.066 174.198 226.919 174.602 226.831C175.006 226.742 175.421 226.743 175.847 226.833C176.277 226.92 176.699 227.123 177.114 227.443C177.53 227.762 177.92 228.227 178.286 228.836L178.547 229.27L173.495 232.304L172.975 231.437L177.481 228.73L177.215 229.336C176.952 228.899 176.65 228.551 176.309 228.293C175.969 228.035 175.603 227.891 175.212 227.86C174.825 227.827 174.43 227.931 174.028 228.172C173.626 228.414 173.34 228.721 173.17 229.094C173.002 229.461 172.937 229.848 172.975 230.256C173.013 230.664 173.141 231.05 173.359 231.413L173.704 231.987C174.002 232.484 174.34 232.852 174.719 233.092C175.097 233.333 175.495 233.45 175.911 233.445C176.325 233.435 176.736 233.308 177.142 233.064C177.404 232.907 177.62 232.727 177.79 232.523C177.958 232.316 178.074 232.09 178.139 231.843C178.201 231.593 178.206 231.33 178.151 231.054L179.293 230.751C179.389 231.14 179.39 231.533 179.298 231.928C179.208 232.318 179.027 232.689 178.756 233.043C178.483 233.394 178.125 233.702 177.684 233.967ZM177.145 222.217L182.389 230.949L181.393 231.547L176.148 222.816L177.145 222.217ZM188.243 227.433L182.315 222.078L183.37 221.445L187.801 225.609L187.871 225.567L186.253 219.713L187.331 219.065L191.708 223.246L191.779 223.204L190.191 217.347L191.245 216.714L193.188 224.462L192.204 225.053L187.742 220.891L187.648 220.948L189.227 226.842L188.243 227.433ZM198.105 221.716C197.691 221.965 197.267 222.113 196.833 222.161C196.397 222.205 195.989 222.136 195.609 221.955C195.229 221.774 194.911 221.471 194.656 221.045C194.43 220.67 194.323 220.322 194.333 220.003C194.34 219.679 194.427 219.377 194.594 219.096C194.762 218.809 194.974 218.544 195.231 218.299C195.492 218.052 195.763 217.817 196.044 217.595C196.412 217.305 196.711 217.072 196.941 216.897C197.174 216.72 197.328 216.564 197.401 216.429C197.479 216.292 197.469 216.144 197.373 215.984L197.352 215.948C197.101 215.53 196.791 215.275 196.422 215.183C196.054 215.085 195.638 215.176 195.173 215.455C194.697 215.741 194.385 216.072 194.238 216.447C194.089 216.818 194.032 217.156 194.065 217.46L192.9 217.697C192.833 217.196 192.875 216.748 193.026 216.354C193.181 215.958 193.4 215.614 193.682 215.322C193.968 215.028 194.275 214.782 194.603 214.585C194.814 214.458 195.072 214.338 195.376 214.225C195.677 214.107 196.004 214.049 196.356 214.051C196.709 214.046 197.063 214.149 197.419 214.361C197.776 214.566 198.111 214.929 198.423 215.448L201.014 219.761L200.006 220.367L199.471 219.476L199.424 219.504C199.442 219.685 199.42 219.905 199.359 220.166C199.295 220.422 199.165 220.689 198.97 220.965C198.776 221.236 198.488 221.486 198.105 221.716ZM197.715 220.722C198.114 220.483 198.403 220.203 198.582 219.882C198.762 219.562 198.848 219.236 198.841 218.906C198.831 218.571 198.746 218.269 198.584 217.999L198.028 217.074C198.015 217.15 197.95 217.253 197.831 217.383C197.714 217.507 197.571 217.64 197.402 217.784C197.237 217.926 197.074 218.061 196.912 218.19C196.748 218.315 196.617 218.415 196.518 218.49C196.278 218.683 196.068 218.886 195.888 219.1C195.706 219.311 195.589 219.532 195.538 219.765C195.49 219.996 195.544 220.24 195.699 220.498C195.908 220.846 196.195 221.032 196.561 221.057C196.928 221.075 197.313 220.964 197.715 220.722ZM204.454 217.902C204.04 218.151 203.616 218.299 203.182 218.347C202.746 218.391 202.338 218.323 201.958 218.142C201.578 217.961 201.26 217.657 201.004 217.231C200.779 216.856 200.671 216.509 200.681 216.189C200.689 215.866 200.776 215.563 200.942 215.283C201.11 214.996 201.323 214.73 201.58 214.485C201.841 214.238 202.112 214.004 202.393 213.781C202.761 213.491 203.06 213.259 203.29 213.083C203.523 212.906 203.677 212.75 203.75 212.615C203.827 212.479 203.818 212.33 203.722 212.17L203.701 212.135C203.449 211.717 203.139 211.462 202.771 211.37C202.403 211.271 201.987 211.362 201.522 211.641C201.045 211.927 200.734 212.258 200.587 212.633C200.438 213.005 200.38 213.342 200.414 213.646L199.249 213.884C199.181 213.382 199.223 212.934 199.375 212.54C199.53 212.144 199.749 211.8 200.031 211.508C200.317 211.214 200.624 210.969 200.952 210.772C201.163 210.645 201.42 210.525 201.724 210.411C202.026 210.294 202.353 210.236 202.704 210.237C203.058 210.232 203.412 210.336 203.768 210.547C204.125 210.753 204.46 211.115 204.772 211.635L207.363 215.948L206.355 216.553L205.82 215.663L205.773 215.691C205.791 215.871 205.769 216.092 205.707 216.352C205.643 216.608 205.514 216.875 205.319 217.152C205.125 217.422 204.837 217.672 204.454 217.902ZM204.064 216.908C204.463 216.669 204.752 216.389 204.931 216.069C205.111 215.748 205.197 215.423 205.19 215.092C205.18 214.757 205.094 214.455 204.933 214.186L204.376 213.26C204.364 213.337 204.298 213.44 204.18 213.57C204.062 213.693 203.919 213.827 203.751 213.971C203.586 214.112 203.423 214.248 203.261 214.377C203.097 214.502 202.966 214.602 202.867 214.677C202.627 214.869 202.416 215.073 202.237 215.287C202.055 215.497 201.938 215.719 201.887 215.952C201.839 216.182 201.893 216.427 202.047 216.684C202.256 217.032 202.544 217.218 202.909 217.243C203.277 217.262 203.662 217.15 204.064 216.908ZM208.789 215.091L204.854 208.54L205.815 207.962L206.413 208.958L206.483 208.916C206.41 208.519 206.469 208.127 206.662 207.74C206.857 207.347 207.149 207.033 207.54 206.798C207.614 206.754 207.707 206.701 207.819 206.639C207.928 206.573 208.013 206.525 208.074 206.493L208.687 207.513C208.647 207.526 208.562 207.562 208.431 207.619C208.301 207.676 208.167 207.745 208.03 207.828C207.714 208.018 207.471 208.254 207.3 208.537C207.13 208.82 207.042 209.12 207.036 209.438C207.034 209.753 207.122 210.059 207.3 210.355L209.785 214.493L208.789 215.091ZM215.175 211.446C214.628 211.775 214.063 211.926 213.478 211.9C212.893 211.873 212.331 211.677 211.792 211.31C211.25 210.939 210.771 210.407 210.356 209.716C209.943 209.028 209.702 208.362 209.634 207.717C209.567 207.066 209.661 206.479 209.915 205.954C210.166 205.426 210.567 204.996 211.118 204.665C211.548 204.407 211.928 204.274 212.258 204.267C212.593 204.257 212.881 204.303 213.121 204.403C213.36 204.499 213.55 204.581 213.692 204.65L213.774 204.6L211.838 201.377L212.835 200.779L218.079 209.51L217.118 210.088L216.513 209.08L216.396 209.15C216.392 209.312 216.377 209.526 216.35 209.791C216.322 210.053 216.224 210.333 216.056 210.63C215.891 210.921 215.597 211.193 215.175 211.446ZM214.762 210.466C215.168 210.222 215.447 209.911 215.598 209.534C215.746 209.152 215.78 208.731 215.699 208.269C215.616 207.803 215.426 207.324 215.131 206.832C214.835 206.34 214.507 205.952 214.145 205.669C213.782 205.383 213.398 205.222 212.995 205.188C212.593 205.148 212.187 205.251 211.777 205.497C211.355 205.751 211.069 206.071 210.919 206.459C210.77 206.847 210.736 207.268 210.818 207.724C210.9 208.179 211.08 208.638 211.357 209.099C211.636 209.564 211.96 209.943 212.328 210.238C212.7 210.53 213.095 210.705 213.513 210.762C213.928 210.816 214.344 210.717 214.762 210.466ZM222.333 207.147C221.704 207.525 221.074 207.711 220.444 207.707C219.818 207.7 219.231 207.519 218.682 207.163C218.131 206.803 217.655 206.289 217.253 205.621C216.85 204.949 216.615 204.284 216.55 203.627C216.485 202.97 216.584 202.365 216.848 201.813C217.116 201.259 217.545 200.805 218.135 200.45C218.475 200.246 218.847 200.1 219.251 200.011C219.655 199.923 220.07 199.923 220.496 200.013C220.925 200.1 221.348 200.304 221.763 200.623C222.178 200.942 222.569 201.407 222.935 202.016L223.196 202.45L218.144 205.484L217.623 204.617L222.13 201.91L221.864 202.516C221.601 202.079 221.299 201.731 220.958 201.473C220.617 201.216 220.251 201.071 219.861 201.04C219.474 201.007 219.079 201.111 218.677 201.353C218.274 201.594 217.988 201.902 217.819 202.274C217.651 202.641 217.586 203.028 217.624 203.436C217.662 203.844 217.79 204.23 218.008 204.593L218.353 205.168C218.651 205.664 218.989 206.032 219.367 206.273C219.746 206.513 220.143 206.631 220.56 206.625C220.974 206.615 221.384 206.488 221.791 206.244C222.052 206.087 222.268 205.907 222.439 205.704C222.607 205.496 222.723 205.27 222.788 205.024C222.85 204.773 222.854 204.51 222.8 204.235L223.942 203.931C224.037 204.321 224.039 204.713 223.947 205.109C223.857 205.498 223.676 205.87 223.405 206.224C223.132 206.574 222.774 206.882 222.333 207.147ZM226.042 204.727L222.107 198.176L223.068 197.599L223.666 198.595L223.736 198.553C223.663 198.156 223.722 197.764 223.915 197.377C224.11 196.983 224.402 196.669 224.793 196.435C224.867 196.39 224.96 196.337 225.072 196.275C225.181 196.209 225.266 196.161 225.327 196.13L225.94 197.149C225.9 197.163 225.815 197.198 225.684 197.255C225.554 197.312 225.42 197.382 225.283 197.464C224.967 197.654 224.724 197.89 224.553 198.173C224.383 198.456 224.295 198.757 224.289 199.074C224.287 199.389 224.375 199.695 224.553 199.992L227.038 204.129L226.042 204.727ZM230.082 202.301L226.147 195.749L227.143 195.151L231.078 201.702L230.082 202.301ZM225.996 194.356C225.801 194.474 225.593 194.508 225.372 194.46C225.152 194.412 224.985 194.294 224.873 194.106C224.76 193.919 224.734 193.716 224.795 193.499C224.856 193.282 224.984 193.114 225.179 192.997C225.375 192.88 225.582 192.845 225.803 192.893C226.023 192.942 226.19 193.06 226.302 193.247C226.415 193.435 226.441 193.637 226.38 193.855C226.319 194.072 226.191 194.239 225.996 194.356ZM231.135 196.309L233.501 200.247L232.505 200.845L228.569 194.294L229.53 193.717L230.15 194.748L230.243 194.692C230.194 194.264 230.265 193.855 230.455 193.464C230.646 193.073 230.989 192.729 231.485 192.431C231.926 192.166 232.367 192.023 232.807 192.003C233.247 191.984 233.669 192.102 234.074 192.359C234.479 192.61 234.85 193.015 235.186 193.573L237.685 197.734L236.689 198.332L234.232 194.242C233.924 193.73 233.549 193.411 233.106 193.283C232.66 193.152 232.205 193.226 231.74 193.506C231.42 193.698 231.175 193.941 231.005 194.234C230.836 194.527 230.757 194.851 230.768 195.206C230.783 195.559 230.905 195.926 231.135 196.309ZM243.304 197.883C242.573 198.322 241.915 198.536 241.33 198.527C240.749 198.514 240.253 198.397 239.843 198.176L240.302 197.134C240.465 197.201 240.662 197.269 240.894 197.337C241.129 197.409 241.401 197.428 241.712 197.396C242.022 197.364 242.374 197.229 242.769 196.992C243.296 196.676 243.656 196.287 243.847 195.827C244.042 195.364 243.975 194.859 243.647 194.312L242.851 192.988L242.758 193.044C242.758 193.203 242.742 193.412 242.711 193.67C242.681 193.922 242.581 194.192 242.409 194.481C242.239 194.764 241.939 195.035 241.509 195.293C240.982 195.61 240.434 195.769 239.866 195.77C239.297 195.771 238.747 195.607 238.215 195.278C237.686 194.947 237.218 194.442 236.809 193.762C236.406 193.09 236.172 192.436 236.109 191.799C236.046 191.155 236.144 190.57 236.402 190.044C236.657 189.513 237.06 189.082 237.611 188.751C238.037 188.495 238.417 188.363 238.752 188.353C239.09 188.341 239.38 188.385 239.62 188.485C239.863 188.579 240.055 188.66 240.197 188.729L240.303 188.665L239.676 187.622L240.637 187.045L244.685 193.784C245.023 194.346 245.171 194.88 245.128 195.384C245.092 195.89 244.908 196.354 244.577 196.776C244.252 197.2 243.827 197.569 243.304 197.883ZM241.108 194.306C241.713 193.942 242.053 193.459 242.127 192.857C242.205 192.252 242.025 191.586 241.589 190.859C241.305 190.387 240.985 190.013 240.628 189.738C240.272 189.463 239.892 189.308 239.488 189.274C239.087 189.234 238.681 189.337 238.27 189.583C237.845 189.839 237.555 190.162 237.401 190.552C237.249 190.936 237.211 191.351 237.289 191.799C237.367 192.247 237.538 192.692 237.803 193.133C238.075 193.586 238.387 193.946 238.739 194.214C239.093 194.474 239.472 194.619 239.877 194.647C240.279 194.671 240.69 194.557 241.108 194.306ZM250.358 181.206L251.879 189.208L250.848 189.827L244.498 184.726L245.588 184.071L250.533 188.214L250.603 188.172L249.268 181.861L250.358 181.206ZM257.703 185.901C257.113 186.255 256.511 186.425 255.896 186.412C255.282 186.398 254.697 186.212 254.142 185.854C253.591 185.494 253.114 184.978 252.71 184.306C252.299 183.623 252.065 182.953 252.006 182.297C251.948 181.635 252.058 181.03 252.334 180.481C252.611 179.932 253.044 179.481 253.634 179.127C254.227 178.77 254.832 178.598 255.446 178.612C256.06 178.626 256.646 178.814 257.203 179.175C257.759 179.533 258.241 180.053 258.652 180.737C259.056 181.409 259.285 182.074 259.34 182.732C259.395 183.39 259.284 183.994 259.008 184.542C258.732 185.091 258.297 185.544 257.703 185.901ZM257.161 184.998C257.614 184.726 257.916 184.388 258.066 183.984C258.217 183.58 258.25 183.148 258.165 182.688C258.078 182.225 257.905 181.776 257.644 181.343C257.379 180.901 257.062 180.533 256.694 180.239C256.326 179.944 255.928 179.769 255.5 179.712C255.07 179.651 254.629 179.757 254.176 180.029C253.73 180.296 253.434 180.634 253.285 181.042C253.135 181.446 253.103 181.88 253.19 182.344C253.277 182.807 253.453 183.26 253.718 183.701C253.978 184.135 254.293 184.499 254.661 184.793C255.027 185.084 255.424 185.257 255.851 185.314C256.279 185.371 256.715 185.266 257.161 184.998ZM264.438 181.855C263.848 182.209 263.246 182.379 262.632 182.366C262.018 182.352 261.433 182.166 260.878 181.808C260.327 181.448 259.849 180.932 259.446 180.261C259.035 179.577 258.8 178.907 258.741 178.251C258.684 177.589 258.793 176.984 259.07 176.435C259.346 175.887 259.779 175.435 260.369 175.081C260.963 174.724 261.567 174.552 262.181 174.566C262.796 174.58 263.382 174.768 263.939 175.129C264.494 175.487 264.977 176.008 265.388 176.691C265.791 177.363 266.021 178.028 266.076 178.686C266.131 179.344 266.02 179.948 265.744 180.497C265.467 181.045 265.032 181.498 264.438 181.855ZM263.896 180.952C264.349 180.68 264.651 180.342 264.802 179.938C264.953 179.534 264.986 179.102 264.901 178.642C264.814 178.179 264.64 177.73 264.38 177.297C264.115 176.855 263.798 176.487 263.43 176.193C263.061 175.898 262.663 175.723 262.236 175.666C261.806 175.605 261.364 175.711 260.911 175.983C260.466 176.251 260.169 176.588 260.021 176.996C259.87 177.401 259.838 177.834 259.925 178.298C260.012 178.761 260.188 179.214 260.453 179.655C260.714 180.089 261.028 180.453 261.397 180.747C261.763 181.038 262.159 181.211 262.587 181.268C263.014 181.325 263.451 181.22 263.896 180.952ZM268.441 179.259L264.505 172.708L265.466 172.13L266.065 173.127L266.135 173.084C266.061 172.687 266.121 172.295 266.314 171.908C266.508 171.515 266.801 171.201 267.191 170.967C267.266 170.922 267.359 170.869 267.47 170.807C267.58 170.741 267.665 170.693 267.726 170.662L268.338 171.681C268.298 171.695 268.213 171.73 268.083 171.787C267.952 171.844 267.819 171.914 267.682 171.996C267.365 172.186 267.122 172.422 266.952 172.705C266.782 172.988 266.694 173.289 266.687 173.606C266.685 173.921 266.773 174.227 266.952 174.524L269.437 178.661L268.441 179.259ZM274.061 170.524L276.427 174.462L275.43 175.061L270.186 166.329L271.182 165.731L273.111 168.942L273.205 168.886C273.153 168.454 273.219 168.047 273.404 167.665C273.591 167.277 273.942 166.927 274.458 166.618C274.903 166.35 275.348 166.205 275.792 166.183C276.233 166.157 276.658 166.272 277.066 166.526C277.472 166.777 277.844 167.183 278.182 167.746L280.681 171.907L279.673 172.512L277.216 168.422C276.902 167.898 276.524 167.575 276.083 167.452C275.642 167.328 275.184 167.41 274.707 167.696C274.375 167.896 274.122 168.143 273.949 168.439C273.775 168.734 273.692 169.061 273.7 169.418C273.711 169.773 273.831 170.141 274.061 170.524ZM284.934 169.543C284.305 169.921 283.676 170.108 283.046 170.103C282.42 170.097 281.832 169.915 281.284 169.559C280.732 169.199 280.256 168.685 279.855 168.017C279.451 167.345 279.217 166.68 279.152 166.023C279.086 165.366 279.186 164.761 279.45 164.209C279.718 163.655 280.146 163.201 280.736 162.846C281.076 162.642 281.448 162.496 281.852 162.407C282.256 162.319 282.671 162.319 283.097 162.409C283.527 162.496 283.95 162.7 284.365 163.019C284.78 163.339 285.171 163.803 285.537 164.413L285.797 164.846L280.746 167.88L280.225 167.013L284.731 164.306L284.465 164.913C284.203 164.475 283.901 164.127 283.56 163.87C283.219 163.612 282.853 163.467 282.462 163.436C282.075 163.403 281.681 163.507 281.278 163.749C280.876 163.991 280.59 164.298 280.421 164.671C280.253 165.037 280.188 165.425 280.225 165.833C280.263 166.241 280.391 166.626 280.609 166.99L280.954 167.564C281.252 168.06 281.591 168.428 281.969 168.669C282.347 168.909 282.745 169.027 283.161 169.021C283.576 169.012 283.986 168.885 284.392 168.641C284.654 168.483 284.87 168.303 285.04 168.1C285.208 167.893 285.325 167.666 285.389 167.42C285.452 167.17 285.456 166.907 285.402 166.631L286.544 166.328C286.639 166.717 286.641 167.109 286.549 167.505C286.458 167.894 286.278 168.266 286.007 168.62C285.733 168.97 285.376 169.278 284.934 169.543ZM287.545 158.868L288.058 159.724L284.671 161.759L284.157 160.903L287.545 158.868ZM284.206 158.753L285.202 158.154L288.947 164.389C289.151 164.729 289.372 164.937 289.609 165.013C289.843 165.085 290.113 165.029 290.417 164.846C290.484 164.806 290.55 164.761 290.615 164.711C290.685 164.659 290.758 164.599 290.835 164.532L291.588 165.307C291.515 165.399 291.416 165.495 291.291 165.597C291.172 165.7 291.045 165.793 290.908 165.875C290.381 166.192 289.857 166.294 289.337 166.181C288.821 166.065 288.413 165.758 288.113 165.257L284.206 158.753ZM291.279 153.658L296.524 162.39L295.528 162.988L290.283 154.257L291.279 153.658ZM300.778 160.026C300.149 160.404 299.519 160.591 298.889 160.586C298.263 160.58 297.676 160.398 297.127 160.042C296.576 159.682 296.099 159.168 295.698 158.5C295.295 157.828 295.06 157.164 294.995 156.506C294.93 155.849 295.029 155.244 295.293 154.693C295.561 154.138 295.99 153.684 296.58 153.33C296.919 153.125 297.291 152.979 297.695 152.891C298.099 152.802 298.514 152.803 298.94 152.892C299.37 152.98 299.793 153.183 300.208 153.502C300.623 153.822 301.014 154.286 301.38 154.896L301.64 155.329L296.589 158.364L296.068 157.496L300.574 154.79L300.309 155.396C300.046 154.958 299.744 154.611 299.403 154.353C299.062 154.095 298.696 153.951 298.306 153.92C297.919 153.886 297.524 153.99 297.122 154.232C296.719 154.474 296.433 154.781 296.264 155.154C296.096 155.521 296.031 155.908 296.069 156.316C296.106 156.724 296.234 157.109 296.453 157.473L296.798 158.047C297.096 158.543 297.434 158.912 297.812 159.152C298.191 159.393 298.588 159.51 299.005 159.504C299.419 159.495 299.829 159.368 300.235 159.124C300.497 158.967 300.713 158.786 300.884 158.583C301.051 158.376 301.168 158.149 301.233 157.903C301.295 157.653 301.299 157.39 301.245 157.114L302.387 156.811C302.482 157.2 302.484 157.592 302.392 157.988C302.302 158.377 302.121 158.749 301.85 159.103C301.576 159.453 301.219 159.761 300.778 160.026ZM305.661 147.986L307.182 155.988L306.151 156.607L299.801 151.506L300.891 150.851L305.836 154.994L305.906 154.952L304.571 148.641L305.661 147.986ZM313.1 152.624C312.471 153.002 311.842 153.189 311.212 153.185C310.586 153.178 309.998 152.996 309.449 152.64C308.898 152.28 308.422 151.766 308.021 151.098C307.617 150.426 307.383 149.762 307.317 149.104C307.252 148.447 307.352 147.843 307.615 147.291C307.883 146.736 308.312 146.282 308.902 145.928C309.242 145.724 309.614 145.577 310.018 145.489C310.422 145.4 310.837 145.401 311.263 145.49C311.693 145.578 312.115 145.781 312.53 146.101C312.946 146.42 313.336 146.884 313.702 147.494L313.963 147.928L308.912 150.962L308.391 150.094L312.897 147.388L312.631 147.994C312.368 147.556 312.066 147.209 311.726 146.951C311.385 146.693 311.019 146.549 310.628 146.518C310.241 146.484 309.846 146.588 309.444 146.83C309.042 147.072 308.756 147.379 308.586 147.752C308.419 148.119 308.353 148.506 308.391 148.914C308.429 149.322 308.557 149.708 308.775 150.071L309.12 150.645C309.418 151.141 309.756 151.51 310.135 151.75C310.513 151.991 310.911 152.108 311.327 152.102C311.741 152.093 312.152 151.966 312.558 151.722C312.82 151.565 313.036 151.384 313.206 151.181C313.374 150.974 313.49 150.747 313.555 150.501C313.617 150.251 313.622 149.988 313.568 149.712L314.709 149.409C314.805 149.798 314.807 150.191 314.715 150.586C314.624 150.975 314.443 151.347 314.172 151.701C313.899 152.052 313.541 152.359 313.1 152.624ZM315.44 145.669L317.806 149.606L316.809 150.205L312.874 143.653L313.835 143.076L314.455 144.107L314.548 144.051C314.499 143.624 314.569 143.214 314.76 142.824C314.95 142.433 315.294 142.088 315.79 141.79C316.231 141.525 316.672 141.383 317.112 141.363C317.552 141.343 317.974 141.462 318.378 141.719C318.784 141.969 319.155 142.374 319.49 142.933L321.99 147.093L320.993 147.692L318.536 143.601C318.229 143.09 317.854 142.77 317.41 142.643C316.965 142.512 316.51 142.586 316.045 142.865C315.724 143.058 315.48 143.3 315.31 143.594C315.141 143.887 315.061 144.211 315.073 144.566C315.088 144.918 315.21 145.286 315.44 145.669Z" fill="#4B5563"/>
</g>
<rect x="5.39482" y="200.664" width="388" height="158" rx="19.5" transform="rotate(-30.9926 5.39482 200.664)" stroke="#E2E4E9"/>
</g>
<defs>
<filter id="filter0_dd_102_231" x="-7.29126" y="-1.81326" width="439.337" height="360.607" filterUnits="userSpaceOnUse" color-interpolation-filters="sRGB">
<feFlood flood-opacity="0" result="BackgroundImageFix"/>
<feColorMatrix in="SourceAlpha" type="matrix" values="0 0 0 0 0 0 0 0 0 0 0 0 0 0 0 0 0 0 127 0" result="hardAlpha"/>
<feMorphology radius="4" operator="erode" in="SourceAlpha" result="effect1_dropShadow_102_231"/>
<feOffset dy="4"/>
<feGaussianBlur stdDeviation="3"/>
<feComposite in2="hardAlpha" operator="out"/>
<feColorMatrix type="matrix" values="0 0 0 0 0 0 0 0 0 0 0 0 0 0 0 0 0 0 0.1 0"/>
<feBlend mode="normal" in2="BackgroundImageFix" result="effect1_dropShadow_102_231"/>
<feColorMatrix in="SourceAlpha" type="matrix" values="0 0 0 0 0 0 0 0 0 0 0 0 0 0 0 0 0 0 127 0" result="hardAlpha"/>
<feMorphology radius="3" operator="erode" in="SourceAlpha" result="effect2_dropShadow_102_231"/>
<feOffset dy="10"/>
<feGaussianBlur stdDeviation="7.5"/>
<feComposite in2="hardAlpha" operator="out"/>
<feColorMatrix type="matrix" values="0 0 0 0 0 0 0 0 0 0 0 0 0 0 0 0 0 0 0.1 0"/>
<feBlend mode="normal" in2="effect1_dropShadow_102_231" result="effect2_dropShadow_102_231"/>
<feBlend mode="normal" in="SourceGraphic" in2="effect2_dropShadow_102_231" result="shape"/>
</filter>
<clipPath id="clip0_102_231">
<rect x="4.70874" y="200.493" width="389" height="159" rx="20" transform="rotate(-30.9926 4.70874 200.493)" fill="white"/>
</clipPath>
</defs>
</svg>
