<svg width="64" height="64" viewBox="0 0 64 64" fill="none" xmlns="http://www.w3.org/2000/svg">
<rect width="64" height="64" rx="32" fill="url(#paint0_linear_141_1144)"/>
<path d="M46.6667 21.3334H40.8889V19.1112C40.8889 18.3723 40.2944 17.7778 39.5556 17.7778H24.4444C23.7056 17.7778 23.1111 18.3723 23.1111 19.1112V21.3334H17.3333C16.5944 21.3334 16 21.9278 16 22.6667V25.7778C16 27.7612 17.25 29.8001 19.4389 31.3723C21.1889 32.6334 23.3167 33.4334 25.55 33.6889C27.2944 36.5834 29.3333 37.7778 29.3333 37.7778V41.7778H26.6667C24.7056 41.7778 23.1111 42.9278 23.1111 44.8889V45.5556C23.1111 45.9223 23.4111 46.2223 23.7778 46.2223H40.2222C40.5889 46.2223 40.8889 45.9223 40.8889 45.5556V44.8889C40.8889 42.9278 39.2944 41.7778 37.3333 41.7778H34.6667V37.7778C34.6667 37.7778 36.7056 36.5834 38.45 33.6889C40.6889 33.4334 42.8167 32.6334 44.5611 31.3723C46.7444 29.8001 48 27.7612 48 25.7778V22.6667C48 21.9278 47.4056 21.3334 46.6667 21.3334ZM21.5167 28.4889C20.1611 27.5112 19.5556 26.4223 19.5556 25.7778V24.8889H23.1222C23.1778 26.7001 23.4444 28.2889 23.8333 29.6778C22.9944 29.3889 22.2111 28.9889 21.5167 28.4889ZM44.4444 25.7778C44.4444 26.6723 43.4611 27.7834 42.4833 28.4889C41.7889 28.9889 41 29.3889 40.1611 29.6778C40.55 28.2889 40.8167 26.7001 40.8722 24.8889H44.4444V25.7778Z" fill="white"/>
<defs>
<linearGradient id="paint0_linear_141_1144" x1="0" y1="32" x2="64" y2="32" gradientUnits="userSpaceOnUse">
<stop stop-color="#60A5FA"/>
<stop offset="1" stop-color="#2563EB"/>
</linearGradient>
</defs>
</svg>
