<svg width="64" height="65" viewBox="0 0 64 65" fill="none" xmlns="http://www.w3.org/2000/svg">
<rect y="0.199951" width="64" height="64" rx="32" fill="#06B6D4"/>
<path d="M28.2528 41.4976C28.2533 41.7925 28.3405 42.0812 28.5041 42.3268L29.3052 43.531C29.442 43.7369 29.6276 43.9057 29.8455 44.0225C30.0634 44.1393 30.3067 44.2004 30.5539 44.2004H33.4466C33.6938 44.2004 33.9371 44.1393 34.155 44.0225C34.3728 43.9057 34.5585 43.7369 34.6953 43.531L35.4964 42.3268C35.6599 42.0812 35.7473 41.7927 35.7477 41.4976L35.7495 39.7H28.2505L28.2528 41.4976ZM23.75 28.45C23.75 30.5298 24.5211 32.4273 25.7919 33.8771C26.5663 34.7607 27.7775 36.6067 28.2392 38.1639C28.2411 38.176 28.2425 38.1882 28.2444 38.2004H35.7556C35.7575 38.1882 35.7589 38.1765 35.7608 38.1639C36.2225 36.6067 37.4338 34.7607 38.2081 33.8771C39.4789 32.4273 40.25 30.5298 40.25 28.45C40.25 23.8848 36.5427 20.1859 31.9742 20.2C27.1925 20.2145 23.75 24.0892 23.75 28.45ZM32 24.7C29.9323 24.7 28.25 26.3823 28.25 28.45C28.25 28.8643 27.9144 29.2 27.5 29.2C27.0856 29.2 26.75 28.8643 26.75 28.45C26.75 25.555 29.105 23.2 32 23.2C32.4144 23.2 32.75 23.5356 32.75 23.95C32.75 24.3643 32.4144 24.7 32 24.7Z" fill="white"/>
</svg>
