<svg width="329" height="293" viewBox="0 0 329 293" fill="none" xmlns="http://www.w3.org/2000/svg">
<mask id="mask0_786_142" style="mask-type:luminance" maskUnits="userSpaceOnUse" x="0" y="0" width="406" height="406">
<path d="M276.897 0.338468L0.174072 129.008L128.843 405.731L405.566 277.062L276.897 0.338468Z" fill="white"/>
</mask>
<g mask="url(#mask0_786_142)">
<path d="M285.808 -9.02798L-11.2361 129.09L122.736 417.219L419.78 279.101L285.808 -9.02798Z" fill="#F68E6D"/>
<path d="M14.4349 177.102C14.4349 177.102 28.0196 168.593 33.9329 148.303C33.9329 148.303 44.3479 115.688 61.8283 126.562C61.8283 126.562 78.3011 137.978 65.1014 160.466C65.1014 160.466 48.1502 180.872 50.6558 201.972C50.6558 201.972 53.3727 218.103 38.3622 228.562L14.4349 177.102Z" fill="#F8A47F"/>
<path d="M68.0931 283.619C68.0931 283.619 80.7742 264.503 91.2358 278.773C91.2358 278.773 102.037 296.016 84.4525 318.803C66.8685 341.59 68.0931 283.619 68.0931 283.619Z" fill="#F8A47F"/>
<path d="M352.68 157.208C352.68 157.208 358.896 181.8 346.224 195.695C346.224 195.695 316.268 221.8 338.063 239.496C338.063 239.496 351.639 248.491 368.775 231.478C368.775 231.478 374.756 219.652 386.404 217.019C398.052 214.386 352.679 157.208 352.679 157.208L352.68 157.208Z" fill="#F8A47F"/>
<path d="M222.678 83.3704C222.678 83.3704 234.933 69.3226 240.169 58.8869C240.169 58.8869 247.235 48.6438 258.923 44.6005C258.923 44.6005 282.359 34.399 287.968 15.7878L272.22 -21.0713L200.572 35.8275C200.572 35.8275 198.137 53.0348 182.683 65.4393L222.678 83.3704Z" fill="#F8A47F"/>
<path d="M178.997 195.434C178.997 195.434 173.143 192.366 174.837 181.36C174.837 181.36 175.352 172.945 173.94 169.174L144.924 130.213L140.672 129.126C140.672 129.126 123.811 124.362 131.232 101.499C131.232 101.499 141.089 70.6893 164.046 65.1236C164.046 65.1236 184.659 54.5168 211.822 71.1794C211.822 71.1794 221.778 75.7454 225.562 78.7552C225.562 78.7552 236.41 85.9725 247.756 85.4662C247.756 85.4662 258.599 83.1493 269.097 88.1457C269.097 88.1457 276.462 91.5331 281.28 101.895C281.28 101.895 283.905 106.806 293.158 106.931C293.158 106.931 312.656 106.38 319.741 124.544C319.741 124.544 322.658 133.747 331.494 138.834C331.494 138.834 343.254 148.011 338.231 164.311C338.231 164.311 332.746 177.42 332.049 182.512C332.049 182.512 331.285 194.788 316.52 198.928L178.995 195.435L178.997 195.434Z" fill="#3F1F15"/>
<path d="M97.2932 205.05C97.2932 205.05 104.84 213.842 112.383 203.61L121.04 199.585L131.044 175.374L123.434 140.244L121.951 133.88C121.951 133.88 124.053 132.246 122.137 128.381C122.137 128.381 120.928 129.599 118.959 128.875C118.959 128.875 113.24 117.264 103.027 127.753C103.027 127.753 91.2231 124.876 87.4459 137.951C87.4459 137.951 75.3434 139.478 76.1954 151.711C76.1954 151.711 64.1514 158.788 70.3479 167.88C70.3479 167.88 62.5029 177.466 72.5757 182.196C72.5757 182.196 69.0697 193.704 80.8012 196.712C80.8012 196.712 84.6179 208.155 97.2941 205.049L97.2932 205.05Z" fill="#3F1F15"/>
<path d="M201.506 101C201.252 101.117 200.943 101.091 200.709 100.905C198.925 99.4858 189.971 99.9586 184.729 100.592C177.862 101.825 171.463 102.225 165.708 101.779C161.077 101.42 156.849 100.516 153.139 99.0925C146.754 96.6428 144.124 93.5138 144.015 93.3819C143.747 93.0566 143.793 92.5764 144.118 92.3076C144.442 92.0401 144.922 92.0851 145.19 92.4091C145.218 92.4413 147.749 95.4163 153.808 97.7144C157.378 99.0678 161.455 99.926 165.927 100.264C171.533 100.688 177.774 100.292 184.481 99.0853C184.495 99.083 184.51 99.0807 184.523 99.0788C184.559 99.0748 188.064 98.6542 191.855 98.5034C199.747 98.1907 201.185 99.3347 201.658 99.7105C201.988 99.9724 202.043 100.453 201.781 100.782C201.704 100.878 201.61 100.95 201.506 100.999L201.506 101Z" fill="#25120E"/>
<path d="M200.048 89.0747C199.851 89.1665 199.616 89.1735 199.404 89.0746C192.785 85.9934 178.632 89.8515 178.49 89.8907C178.47 89.8965 178.451 89.9009 178.431 89.9045C169.904 91.5463 162.091 90.5123 157.038 89.3538C151.558 88.0986 148.134 86.4743 147.991 86.4052C147.611 86.2228 147.451 85.7677 147.632 85.3874C147.814 85.0075 148.269 84.8466 148.65 85.0286C148.683 85.0445 152.096 86.6607 157.422 87.8761C162.315 88.9932 169.875 89.9913 178.113 88.4113C179.051 88.1535 193.012 84.4151 200.047 87.6907C200.43 87.8686 200.595 88.3225 200.417 88.7047C200.337 88.874 200.204 89.0009 200.047 89.0742L200.048 89.0747Z" fill="#25120E"/>
<path d="M319.852 172.458C319.763 172.499 319.665 172.524 319.561 172.528C319.141 172.545 318.785 172.218 318.768 171.796C318.579 167.144 317.441 162.983 315.385 159.429C313.741 156.589 311.506 154.121 308.744 152.095C304.006 148.622 299.293 147.636 299.246 147.627C299.209 147.619 299.171 147.609 299.135 147.595C294.044 145.736 290.25 143.621 287.856 141.309C286.115 139.627 285.73 138.4 285.663 138.137C284.369 133.779 281.328 128.68 281.048 128.216C279.106 125.694 276.461 123.682 273.185 122.236C270.525 121.061 267.444 120.253 264.03 119.834C258.175 119.116 253.315 119.804 253.266 119.811C253.233 119.817 253.199 119.819 253.166 119.819C245.929 119.909 240.734 116.756 237.65 114.095C234.315 111.218 232.701 108.344 232.633 108.222C232.625 108.206 232.616 108.19 232.609 108.174C228.991 100.393 223.866 95.5802 220.204 92.9134C216.227 90.0165 213.063 88.9499 213.031 88.9399C212.632 88.807 212.415 88.3762 212.546 87.9763C212.678 87.5763 213.109 87.3592 213.508 87.4907C213.645 87.5351 216.887 88.6212 221.047 91.6408C224.868 94.4131 230.211 99.4151 233.978 107.503C234.125 107.759 235.684 110.397 238.689 112.978C242.863 116.562 247.71 118.351 253.097 118.295C253.671 118.215 258.384 117.611 264.176 118.316C267.745 118.751 270.976 119.598 273.779 120.832C277.316 122.39 280.177 124.574 282.282 127.321C282.299 127.343 282.314 127.365 282.328 127.388C282.466 127.614 285.724 132.977 287.13 137.722C287.137 137.748 287.139 137.751 287.143 137.773C287.2 137.964 288.543 142.093 299.604 146.144C300.209 146.274 304.825 147.349 309.591 150.828C312.538 152.979 314.924 155.604 316.682 158.631C318.877 162.409 320.091 166.817 320.29 171.735C320.302 172.052 320.12 172.332 319.848 172.458L319.852 172.458Z" fill="#25120E"/>
<path d="M273.123 146.382C272.75 146.555 272.305 146.402 272.12 146.032C269.693 141.191 264.566 138.577 260.691 137.239C256.583 135.819 252.969 135.487 252.669 135.461C245.233 135.321 240.391 132.864 237.637 130.826C234.614 128.589 233.38 126.378 233.329 126.285C233.126 125.916 233.261 125.451 233.631 125.249C233.999 125.047 234.463 125.181 234.666 125.55C234.688 125.59 235.843 127.621 238.615 129.653C241.187 131.537 245.721 133.81 252.721 133.937C252.736 133.937 252.751 133.938 252.765 133.939C252.924 133.952 256.705 134.254 261.153 135.786C267.112 137.839 271.376 141.146 273.482 145.35C273.671 145.727 273.518 146.186 273.142 146.374C273.134 146.378 273.128 146.381 273.121 146.384L273.123 146.382Z" fill="#25120E"/>
<path d="M308.2 134.353C308.155 134.374 308.109 134.39 308.061 134.402C307.652 134.504 307.238 134.254 307.137 133.844C306.43 130.983 305.124 128.452 303.256 126.323C301.756 124.612 299.889 123.151 297.707 121.979C293.955 119.965 290.532 119.502 290.498 119.498C283.885 118.718 279.768 116.257 277.48 114.329C275.193 112.402 274.22 110.616 274.031 110.241C269.007 103.187 253.075 103.62 252.915 103.625C252.848 103.627 252.781 103.621 252.717 103.606C243.21 101.392 241.179 95.6535 241.098 95.4109C240.963 95.0112 241.179 94.579 241.577 94.4442C241.975 94.3108 242.407 94.5229 242.542 94.9209C242.551 94.9448 243.015 96.2346 244.521 97.7501C245.914 99.1532 248.508 101.041 252.968 102.098C253.654 102.082 257.486 102.033 261.934 102.781C268.499 103.885 273.001 106.117 275.314 109.413C275.34 109.45 275.363 109.489 275.382 109.529C275.389 109.545 276.24 111.311 278.536 113.223C280.659 114.992 284.491 117.254 290.686 117.983C290.842 118.004 294.388 118.478 298.38 120.608C303.699 123.448 307.24 127.898 308.62 133.477C308.709 133.837 308.526 134.201 308.202 134.352L308.2 134.353Z" fill="#25120E"/>
<path d="M191.456 188.636C191.437 188.644 191.418 188.654 191.397 188.66C191.002 188.806 190.563 188.603 190.417 188.208L184.908 173.289C184.762 172.894 184.962 172.455 185.36 172.309C185.755 172.164 186.194 172.366 186.339 172.761L191.849 187.68C191.988 188.055 191.813 188.47 191.456 188.636Z" fill="#25120E"/>
<path d="M79.908 167.657C79.6875 167.76 79.4219 167.756 79.1972 167.622C78.8347 167.407 78.7141 166.94 78.9288 166.577C82.0665 161.271 77.8158 157.65 77.6331 157.498C77.3094 157.229 77.2634 156.749 77.5311 156.425C77.7989 156.1 78.2772 156.053 78.6023 156.32C78.6587 156.367 79.9966 157.478 80.8671 159.387C81.679 161.166 82.2294 163.993 80.2416 167.354C80.1598 167.492 80.0427 167.595 79.9071 167.658L79.908 167.657Z" fill="#25120E"/>
<path d="M88.5823 156.589C88.4744 156.639 88.3526 156.664 88.2254 156.658C87.8045 156.639 87.4792 156.282 87.4998 155.86C87.7201 151.202 84.1761 149.745 84.0249 149.685C83.6343 149.53 83.4402 149.089 83.5938 148.697C83.7464 148.307 84.1852 148.112 84.5773 148.263C84.6268 148.282 85.8025 148.743 86.9277 149.92C87.9628 151.003 89.1657 152.924 89.0242 155.932C89.0104 156.226 88.8323 156.473 88.5833 156.588L88.5823 156.589Z" fill="#25120E"/>
<path d="M85.553 180.905C81.9584 182.577 77.4691 180.257 77.2718 180.153C76.8992 179.957 76.7562 179.495 76.952 179.123C77.1478 178.75 77.6097 178.607 77.9823 178.803C78.0371 178.831 82.3518 181.047 85.2755 179.331C87.0926 178.264 88.0627 175.854 88.1611 172.166C88.166 171.994 88.2285 171.829 88.3397 171.696C88.3712 171.658 91.5873 167.759 90.7462 164.253C90.3185 162.47 88.8773 161.042 86.4631 160.012C86.0754 159.847 85.8952 159.399 86.0614 159.011C86.2267 158.623 86.6747 158.443 87.0627 158.609C89.9477 159.841 91.687 161.623 92.2316 163.904C93.1341 167.681 90.4085 171.523 89.6786 172.465C89.5235 176.575 88.3007 179.328 86.0426 180.651C85.8821 180.745 85.719 180.83 85.5538 180.907L85.553 180.905Z" fill="#25120E"/>
<path d="M99.2648 193.361C99.2353 193.375 99.204 193.387 99.1718 193.397C95.4994 194.557 92.8617 193.176 91.2961 191.814C89.6382 190.371 88.8363 188.671 88.8029 188.599C88.6253 188.217 88.7911 187.763 89.173 187.586C89.5549 187.408 90.0076 187.573 90.1861 187.955C90.1989 187.982 90.913 189.472 92.3351 190.695C94.1761 192.277 96.3218 192.697 98.713 191.943C99.1149 191.815 99.5431 192.039 99.6705 192.441C99.7874 192.811 99.6074 193.203 99.2652 193.362L99.2648 193.361Z" fill="#25120E"/>
<path d="M108.362 169.418C107.618 169.764 106.881 169.969 106.211 170.085C103.834 170.499 101.82 169.91 101.736 169.885C101.332 169.764 101.103 169.339 101.223 168.936C101.342 168.532 101.768 168.303 102.171 168.422C102.453 168.505 109.103 170.374 111.449 163.538C111.586 163.139 112.02 162.927 112.418 163.064C112.817 163.2 113.029 163.635 112.892 164.033C111.86 167.04 110.095 168.611 108.362 169.417L108.362 169.418Z" fill="#25120E"/>
<path d="M104.984 159.74C104.94 159.76 104.894 159.777 104.847 159.788C104.438 159.891 104.024 159.642 103.921 159.234C103.357 156.98 102.413 155.537 101.114 154.945C99.4554 154.189 97.6822 155.07 97.6652 155.079C97.2898 155.269 96.8311 155.122 96.6392 154.748C96.4473 154.374 96.5923 153.916 96.966 153.723C97.0634 153.672 99.3907 152.493 101.729 153.549C103.481 154.339 104.716 156.127 105.401 158.863C105.492 159.224 105.309 159.589 104.984 159.74Z" fill="#25120E"/>
<path d="M109.556 151.526C109.371 151.612 109.154 151.624 108.951 151.543C108.559 151.386 108.369 150.943 108.526 150.551C109.245 148.75 109.267 147.134 108.588 145.746C107.241 142.993 103.578 141.909 103.54 141.899C103.136 141.783 102.901 141.36 103.017 140.955C103.133 140.55 103.555 140.316 103.96 140.432C104.137 140.482 108.303 141.702 109.955 145.066C110.836 146.86 110.831 148.896 109.943 151.118C109.867 151.306 109.726 151.448 109.556 151.527L109.556 151.526Z" fill="#25120E"/>
<path d="M114.149 142.291C113.903 142.406 113.603 142.385 113.37 142.211C113.033 141.958 112.963 141.48 113.216 141.143C114.087 139.977 114.434 138.913 114.25 137.982C114.012 136.788 112.951 136.143 112.94 136.137C112.58 135.922 112.457 135.456 112.67 135.094C112.882 134.731 113.345 134.608 113.708 134.818C113.775 134.856 115.358 135.79 115.741 137.659C116.024 139.04 115.586 140.52 114.438 142.055C114.359 142.16 114.259 142.239 114.149 142.29L114.149 142.291Z" fill="#25120E"/>
<path d="M201.306 375.023C201.306 375.023 193.759 339.18 196.853 326.224L176.937 340.919C176.937 340.919 152.52 350.447 142.339 328.159L165.736 226.653L168.395 213.424C168.395 213.424 171.224 194.242 197.441 180.095L259.18 155.95C259.18 155.95 294.432 142.603 310.045 171.649C310.045 171.649 325.954 192.839 325.255 266.052C325.255 266.052 324.602 279.298 320.863 284.443C320.863 284.443 338.27 299.169 344.28 311.362L201.308 375.021L201.306 375.023Z" fill="#FAD6A4"/>
<path d="M117.229 294.699C117.229 294.699 122.294 331.613 153.314 328.269L208.709 308.626L217.678 311.902L222.304 321.85C222.304 321.85 227.497 328.326 228.213 329.865C228.213 329.865 228.356 333.074 235.823 330.07C235.823 330.07 255.436 320.483 259.557 315.759C259.557 315.759 242.934 269.44 217.317 265.675C217.317 265.675 205.954 261.366 190.949 268.342L184.649 263.349L117.228 294.698L117.229 294.699Z" fill="#363745"/>
<path d="M248.535 279.471L218.739 293.325C218.739 293.325 229.128 317.741 229.132 324.291C229.132 324.291 250.298 321.001 265.174 315.254L248.536 279.471L248.535 279.471Z" fill="#FAD6A4"/>
<path d="M141.485 194.542L143.955 199.855L137.29 201.5L132.694 197.175L141.485 194.542Z" fill="#963320"/>
<path d="M259.479 155.866C256.493 166.83 249.806 175.708 244.692 181.25C240.448 185.847 235.172 189.377 229.286 191.497C202.877 201.005 196.784 180.282 196.784 180.282C202.385 178.238 203.945 175.655 203.945 175.655C203.162 173.971 201.886 172.681 200.61 171.727L200.607 171.726C198.549 170.188 196.485 169.53 196.485 169.53C190.615 175.949 183.431 177.26 183.431 177.26C175.316 178.87 170.29 171.381 169.387 169.904C169.289 169.744 169.24 169.655 169.24 169.655C165.529 171.196 164.464 166.525 164.464 166.525C161.771 166.393 161.257 163.791 161.169 162.502C161.139 162.074 161.156 161.791 161.156 161.791C160.222 157.798 158.461 157.583 158.461 157.583C154.112 159.34 151.203 158.64 151.203 158.64C171.128 185.753 136.537 198.393 136.537 198.393L133.516 200.229L117.662 205.018C115.208 205.297 112.003 204.419 112.003 204.419L112.678 202.168C119.663 199.136 116.687 193.2 116.687 193.2C107.06 197.032 102.756 188.701 102.756 188.701C97.8924 175.463 110.861 176.967 110.861 176.967C116.339 180.878 118.461 176.182 118.461 176.182C121.044 170.626 115.756 167.588 115.756 167.588C118.692 159.55 111.741 155.248 111.741 155.248C116.499 150.667 111.425 144.847 111.425 144.847C123.279 142.564 115.686 133.179 115.686 133.179C129.98 131.053 143.301 150.905 143.301 150.905L150.364 151.28L150.151 143.416C149.802 140.349 146.139 137.101 146.139 137.101C130.518 118.318 142.184 98.0408 142.184 98.0408C150.192 114.336 179.92 112.999 179.92 112.999C185.547 111.674 192.51 115.539 192.51 115.539C200.536 118.911 198.775 113.272 198.775 113.272C196.443 103.163 204.173 98.4931 204.173 98.4931C215.43 92.6126 220.87 107.089 220.87 107.089C225.404 119.617 213.217 124.424 213.217 124.424C210.117 132.107 218.235 144.477 218.235 144.477C223.107 151.252 230.632 150.768 230.632 150.768C236.751 150.505 245.329 155.988 245.329 155.988C253.284 158.746 259.479 155.866 259.479 155.866Z" fill="#ED784B"/>
<path d="M210.061 192.058C210.061 192.058 202.172 199.046 204.973 205.99C204.973 205.99 197.757 213.736 189.844 216.987C189.844 216.987 192.645 210.801 193.199 208.541C193.199 208.541 200.553 202.476 195.41 201.547C195.41 201.547 200.298 196.169 194.818 196.36C194.818 196.36 195.114 190.546 190.281 193.972C190.281 193.972 191.316 188.137 183.47 193.605C183.47 193.605 177.226 199.293 176.253 202.959L168.555 212.428L173.616 216.636C173.616 216.636 163.184 239.342 158.418 244.985C158.418 244.985 173.922 254.376 185.396 251.183C185.396 251.183 195.944 246.921 202.659 239.943C202.659 239.943 218.726 220.371 219.508 218.829C219.508 218.829 226.518 210.643 227.403 207.019C227.403 207.019 230.582 199.115 231.204 198.612C231.204 198.612 233.551 193.986 229.321 194.561C229.321 194.561 230.362 192.578 229.163 189.923L210.059 192.059L210.061 192.058Z" fill="#ED784B"/>
<path d="M183.417 304.414C183.417 304.414 176.146 302.233 174.636 302.472C174.636 302.472 163.462 302.373 162.38 298.264C162.38 298.264 161.569 294.739 166.421 294.493C166.421 294.493 191.595 289.883 206.251 297.496C206.251 297.496 207.986 298.937 211.077 298.208L219.516 294.994C219.516 294.994 229.304 318.328 228.865 321.962L213.447 326.197C213.447 326.197 174.313 352.671 159.989 335.088C159.989 335.088 148.295 331.302 148.838 327.384C148.838 327.384 138.708 320.859 146.279 317.811C146.279 317.811 142.596 315.74 144.057 313.286C144.057 313.286 145.758 310.839 148.55 310.488C148.55 310.488 170.014 312.03 183.417 304.413L183.417 304.414Z" fill="#ED784B"/>
<path d="M186.968 258.97L189.775 264.061C189.775 264.061 158.343 303.652 112.442 294.488C112.442 294.488 112.045 292.145 111.484 288.208C111.409 287.684 111.331 287.133 111.252 286.554C110.936 284.27 110.582 281.572 110.224 278.571C110.164 278.067 110.104 277.555 110.044 277.035C109.683 273.902 109.324 270.477 109 266.873C108.955 266.368 108.909 265.858 108.866 265.345C108.564 261.817 108.301 258.136 108.106 254.402C108.079 253.891 108.054 253.381 108.03 252.869C107.87 249.439 107.772 245.977 107.759 242.562C107.757 242.048 107.757 241.535 107.759 241.023C107.772 237.457 107.886 233.953 108.124 230.603C108.16 230.082 108.2 229.566 108.243 229.053C108.471 226.34 108.788 223.74 109.207 221.304C109.299 220.77 109.396 220.245 109.498 219.727C110.122 216.55 110.94 213.688 111.986 211.258C112.237 210.673 112.503 210.113 112.782 209.581C114.408 206.475 116.502 204.281 119.167 203.331C119.167 203.331 128.558 197.268 140.172 198.029C140.906 198.077 141.649 198.152 142.399 198.258C145.248 198.66 148.199 199.502 151.152 200.964C151.634 201.202 152.116 201.457 152.597 201.729C154.429 202.763 156.254 204.048 158.052 205.623L160.34 207.24L161.623 208.146L168.162 212.765L169.415 213.65L173.633 216.629C173.633 216.629 164.398 236.905 159.038 244.34C159.038 244.34 168.662 249.652 177.026 251.311C177.498 251.404 177.967 251.487 178.429 251.554C180.044 251.795 181.586 251.873 182.971 251.72L186.213 257.6L186.968 258.97Z" fill="#F6BB68"/>
<path d="M207.899 115.809C207.889 115.814 207.881 115.818 207.872 115.822C207.484 115.984 207.037 115.803 206.874 115.415C206.838 115.331 206.003 113.314 206.052 110.634C206.098 108.135 206.949 104.573 210.742 101.793C211.082 101.544 211.559 101.617 211.809 101.956C212.057 102.296 211.984 102.773 211.645 103.023C209.02 104.947 207.652 107.499 207.58 110.607C207.524 112.976 208.274 114.806 208.282 114.824C208.44 115.203 208.269 115.638 207.9 115.81L207.899 115.809Z" fill="#B84C27"/>
<path d="M151.525 159.332C151.303 159.435 151.034 159.43 150.809 159.293C150.448 159.075 150.332 158.606 150.55 158.246C151.856 156.084 152.279 154.354 151.775 153.242C151.29 152.171 150.029 151.937 150.016 151.935C149.601 151.866 149.321 151.475 149.389 151.058C149.457 150.643 149.852 150.361 150.268 150.429C150.351 150.443 152.321 150.784 153.154 152.589C153.901 154.204 153.464 156.373 151.857 159.034C151.776 159.168 151.659 159.269 151.526 159.331L151.525 159.332Z" fill="#B84C27"/>
<path d="M164.432 141.96C164.153 142.089 163.937 142.151 163.829 142.178C162.334 142.688 160.024 142.612 157.44 139.431C155.984 137.638 155.107 135.677 155.07 135.595C154.899 135.211 155.078 134.761 155.458 134.588C155.843 134.417 156.294 134.591 156.465 134.976C156.473 134.995 157.308 136.855 158.641 138.489C160.281 140.499 161.869 141.25 163.364 140.724C163.408 140.708 163.431 140.7 163.474 140.694C163.67 140.649 166.523 139.881 166.482 133.877C166.479 133.455 166.818 133.111 167.24 133.108C167.661 133.105 168.005 133.444 168.008 133.866C168.047 139.558 165.645 141.396 164.432 141.959L164.432 141.96Z" fill="#2F1914"/>
<path d="M139.05 160.608C136.476 161.805 134.145 160.061 134.115 160.038C133.781 159.782 133.718 159.303 133.974 158.968C134.23 158.635 134.707 158.572 135.041 158.826C135.058 158.838 135.728 159.331 136.655 159.467C137.817 159.639 138.882 159.18 139.823 158.107C140.005 157.669 140.599 155.717 137.696 154.032C137.331 153.82 137.207 153.354 137.418 152.99C137.629 152.626 138.097 152.502 138.461 152.713C140.734 154.031 141.359 155.61 141.484 156.703C141.621 157.902 141.201 158.772 141.152 158.868C141.125 158.92 141.092 158.97 141.054 159.015C140.393 159.795 139.713 160.299 139.049 160.608L139.05 160.608Z" fill="#2F1914"/>
<path d="M155.294 168.145C150.059 170.579 146.772 168.69 146.625 168.602C146.264 168.387 146.145 167.918 146.36 167.557C146.575 167.196 147.04 167.077 147.401 167.289C147.539 167.368 150.601 169.051 155.644 166.254C156.012 166.05 156.476 166.182 156.682 166.551C156.885 166.92 156.753 167.384 156.384 167.589C156.013 167.796 155.649 167.981 155.295 168.145L155.294 168.145Z" fill="#2F1914"/>
<path d="M115.759 186.527C115.443 186.674 115.057 186.589 114.834 186.302C111.897 182.509 109.998 181.93 108.924 182.112C107.334 182.381 106.618 184.464 106.611 184.485C106.477 184.884 106.045 185.1 105.647 184.968C105.248 184.836 105.031 184.406 105.162 184.007C105.202 183.886 106.165 181.039 108.658 180.609C110.822 180.235 113.305 181.837 116.04 185.368C116.298 185.701 116.237 186.181 115.904 186.439C115.858 186.475 115.808 186.504 115.758 186.528L115.759 186.527Z" fill="#A33523"/>
<path d="M127.696 154.999C127.608 155.04 127.51 155.065 127.408 155.069C126.987 155.087 126.631 154.761 126.613 154.34C126.6 154.049 126.341 147.174 129.73 144.968C130.083 144.738 130.556 144.839 130.785 145.192C131.014 145.546 130.915 146.018 130.561 146.248C128.354 147.684 128.062 152.529 128.137 154.274C128.15 154.592 127.967 154.872 127.696 154.999Z" fill="#2F1914"/>
<path d="M164.338 121.901C164.135 121.995 163.907 122.043 163.668 122.032C154.788 121.595 147.652 129.483 147.581 129.564C147.058 130.15 146.158 130.204 145.571 129.681C144.984 129.159 144.93 128.261 145.452 127.673C145.533 127.581 147.492 125.389 150.701 123.249C155.004 120.381 159.537 118.977 163.809 119.187C164.595 119.226 165.201 119.894 165.162 120.68C165.134 121.226 164.803 121.686 164.339 121.901L164.338 121.901Z" fill="#2F1914"/>
<path d="M116.871 194.11C116.821 194.133 116.789 194.147 116.776 194.152C116.387 194.314 115.941 194.128 115.779 193.739C115.618 193.351 115.802 192.905 116.189 192.743C116.313 192.69 119.162 191.436 119.801 187.767C119.873 187.352 120.269 187.073 120.684 187.146C121.099 187.219 121.377 187.614 121.304 188.029C120.578 192.199 117.47 193.832 116.871 194.11Z" fill="#A33523"/>
<path d="M186.583 151.152C191.891 148.684 194.193 142.38 191.725 137.072C189.257 131.764 182.954 129.462 177.646 131.93C172.338 134.398 170.036 140.702 172.504 146.01C174.972 151.317 181.275 153.619 186.583 151.152Z" fill="#EA5B3C"/>
<path d="M215.364 121.624C215.364 121.624 211.56 126.974 216.262 132.57C216.262 132.57 217.697 134.368 220.48 134.09C223.052 133.833 225.179 131.923 225.737 129.399C226.286 126.91 224.826 123.303 218.473 120.749L219.068 120C219.661 119.253 219.882 119.083 220.554 117.883L220.967 117.002C220.967 117.002 230.574 119.779 229.337 130.403C229.337 130.403 228.206 139.149 218.802 138.129C217.512 137.99 216.283 137.518 215.237 136.75C213.078 135.165 209.874 131.698 210.259 125.235C210.259 125.235 211.024 120.803 214.233 119.187C214.233 119.187 217.292 118.876 215.366 121.625L215.364 121.624Z" fill="#F4A74B"/>
<path d="M219.079 122.057C218.744 122.212 218.337 122.106 218.125 121.789C217.891 121.44 217.982 120.967 218.331 120.732C218.359 120.712 220.075 119.517 220.505 117.462C220.591 117.049 220.995 116.785 221.408 116.871C221.82 116.957 222.084 117.361 221.999 117.773C221.439 120.458 219.276 121.936 219.184 121.997C219.15 122.019 219.115 122.039 219.08 122.055L219.079 122.057Z" fill="#B84C27"/>
<path d="M210.257 151.748C210.257 151.748 209.729 162.876 200.61 171.727L200.607 171.726C198.549 170.187 196.485 169.53 196.485 169.53C196.485 169.53 207.61 158.187 208.714 151.815C208.714 151.815 209.219 150.332 210.257 151.748Z" fill="#A03622"/>
<path d="M173.874 156.187C173.874 156.187 176.959 164.071 169.504 169.644L169.387 169.903C169.289 169.744 169.24 169.654 169.24 169.654C165.529 171.196 164.464 166.525 164.464 166.525C161.772 166.393 161.257 163.791 161.169 162.502L161.472 162.369C161.472 162.369 168.657 160.676 173.874 156.187Z" fill="#C74427"/>
<path d="M164.784 167.217C164.423 167.385 163.988 167.246 163.793 166.891C163.592 166.521 163.728 166.057 164.098 165.856C164.155 165.825 169.866 162.666 172.64 157.719C172.846 157.352 173.311 157.221 173.678 157.427C174.046 157.633 174.177 158.098 173.971 158.465C170.978 163.802 165.077 167.06 164.827 167.196C164.813 167.204 164.799 167.212 164.784 167.219L164.784 167.217Z" fill="#A33523"/>
<path d="M174.411 286.332C174.183 286.438 173.908 286.429 173.68 286.284C173.324 286.057 173.219 285.586 173.445 285.231C173.684 284.855 179.354 275.998 184.471 273.415C184.847 273.225 185.306 273.376 185.496 273.752C185.686 274.128 185.535 274.586 185.159 274.777C180.417 277.17 174.789 285.961 174.733 286.05C174.652 286.177 174.539 286.272 174.412 286.331L174.411 286.332Z" fill="#25242C"/>
<path d="M211.249 297.65C211.11 297.714 210.952 297.737 210.79 297.708C210.376 297.632 210.101 297.234 210.177 296.819C210.191 296.747 211.49 289.529 210.222 285.416C210.097 285.013 210.324 284.586 210.726 284.462C211.128 284.338 211.556 284.563 211.68 284.966C213.059 289.437 211.735 296.785 211.678 297.096C211.631 297.348 211.466 297.549 211.249 297.65Z" fill="#25242C"/>
<path d="M190.296 218.368L190.294 218.369L183.461 221.523C181.853 222.475 179.758 222.166 179.668 222.152C179.575 222.138 179.485 222.106 179.404 222.059L172.9 218.327C172.534 218.118 172.408 217.652 172.618 217.286C172.827 216.921 173.293 216.795 173.659 217.004L180.027 220.659C180.44 220.699 181.759 220.771 182.707 220.195C182.732 220.181 182.759 220.167 182.784 220.154L189.654 216.982C190.036 216.806 190.49 216.973 190.666 217.355C190.843 217.736 190.676 218.19 190.295 218.367L190.296 218.368Z" fill="#A84325"/>
<path d="M184.544 213.287C184.43 213.34 184.321 213.383 184.218 213.416C183.818 213.546 183.387 213.327 183.257 212.926C183.128 212.527 183.344 212.099 183.741 211.967C183.85 211.929 186.034 211.115 185.55 207.705C185.537 207.615 185.54 207.524 185.56 207.436C185.603 207.238 186.59 202.707 187.626 200.688C187.568 199.965 187.295 198.953 186.811 198.734C186.397 198.547 185.637 198.871 184.72 199.624C184.479 199.863 181.953 202.425 181.647 204.979C181.597 205.397 181.218 205.696 180.8 205.646C180.381 205.596 180.083 205.216 180.133 204.798C180.518 201.585 183.552 198.631 183.68 198.507C183.694 198.493 183.708 198.48 183.723 198.469C185.181 197.263 186.432 196.885 187.444 197.346C189.05 198.078 189.156 200.561 189.162 200.842C189.165 200.98 189.131 201.117 189.063 201.237C188.19 202.777 187.252 206.854 187.078 207.631C187.503 211.003 185.764 212.721 184.544 213.288L184.544 213.287Z" fill="#A84325"/>
<path d="M191.3 206.116C191.022 206.245 190.681 206.198 190.448 205.973C190.144 205.679 190.136 205.196 190.43 204.894C190.75 204.562 193.589 201.639 194.629 201.014C194.989 200.798 195.458 200.914 195.675 201.275C195.892 201.635 195.775 202.104 195.415 202.321C194.761 202.714 192.683 204.758 191.526 205.954C191.46 206.024 191.383 206.077 191.3 206.116Z" fill="#A84325"/>
<path d="M188.72 201.553C188.395 201.703 187.998 201.608 187.78 201.307C187.534 200.965 187.611 200.489 187.953 200.242C188.493 199.852 193.256 196.421 194.177 195.993C194.559 195.815 195.013 195.981 195.191 196.363C195.369 196.745 195.203 197.199 194.821 197.376C194.227 197.653 190.841 200.04 188.846 201.48C188.805 201.509 188.763 201.534 188.721 201.553L188.72 201.553Z" fill="#A84325"/>
<path d="M187.401 198.71C187.172 198.816 186.895 198.807 186.666 198.661C186.312 198.433 186.208 197.962 186.436 197.607C186.646 197.278 188.527 194.368 189.638 193.562C189.979 193.315 190.456 193.391 190.704 193.731C190.951 194.072 190.875 194.549 190.535 194.797C189.873 195.277 188.458 197.28 187.72 198.43C187.639 198.556 187.527 198.651 187.401 198.71Z" fill="#A84325"/>
<path d="M208.337 198.194C208.13 198.29 207.884 198.294 207.665 198.181C207.291 197.988 207.143 197.529 207.336 197.154C207.383 197.061 208.531 194.838 210.197 192.52C212.519 189.287 214.653 187.531 216.541 187.299C217.727 187.154 218.82 187.611 219.702 188.619C219.98 188.937 219.948 189.418 219.631 189.696C219.314 189.974 218.832 189.942 218.554 189.625C217.997 188.987 217.416 188.73 216.727 188.814C215.323 188.986 213.448 190.614 211.446 193.395C209.844 195.623 208.704 197.829 208.693 197.851C208.612 198.008 208.485 198.125 208.337 198.194Z" fill="#A84325"/>
<path d="M220.674 196.482C220.379 196.619 220.016 196.555 219.787 196.301C219.504 195.988 219.528 195.506 219.841 195.223C221.363 193.847 224.871 190.43 224.589 188.424C224.519 187.92 224.198 187.725 224.13 187.688C224.097 187.677 224.094 187.672 224.059 187.653C222.454 186.742 219.944 189.208 218.591 190.761C216.637 193.002 215.112 195.549 215.097 195.575C214.882 195.936 214.413 196.055 214.052 195.84C213.69 195.624 213.571 195.156 213.786 194.794C213.85 194.686 215.388 192.117 217.429 189.772C220.369 186.397 222.843 185.233 224.785 186.311C225.022 186.426 225.884 186.922 226.088 188.135C226.427 190.149 224.669 192.914 220.864 196.355C220.806 196.408 220.742 196.45 220.674 196.482Z" fill="#A84325"/>
<path d="M225.778 200.539C225.527 200.656 225.22 200.631 224.987 200.449C224.654 200.191 224.594 199.712 224.853 199.378C226.532 197.219 228.874 193.183 228.014 191.544C227.58 190.719 226.215 190.62 225.147 190.682C224.726 190.706 224.366 190.384 224.341 189.964C224.317 189.543 224.638 189.183 225.058 189.158C227.264 189.031 228.713 189.595 229.364 190.835C230.959 193.871 226.563 199.664 226.057 200.315C225.98 200.414 225.883 200.489 225.777 200.538L225.778 200.539Z" fill="#A84325"/>
<path d="M142.399 198.258C138.251 201.482 134.002 203.915 130.075 205.74C126.415 207.442 123.035 208.618 120.272 209.419C116.828 210.418 113.953 210.964 111.986 211.258C112.237 210.673 112.503 210.113 112.782 209.581C114.635 209.267 117.08 208.757 119.892 207.94C125.172 206.406 132.763 203.468 140.172 198.029C140.906 198.077 141.649 198.152 142.399 198.258Z" fill="#EB912F"/>
<path d="M152.597 201.729C148.51 205.324 143.962 208.523 139.035 211.263C137.277 212.24 135.47 213.16 133.621 214.02C130.373 215.53 126.995 216.854 123.522 217.977C117.042 220.073 111.848 220.955 109.207 221.304C109.299 220.77 109.396 220.245 109.498 219.727C112.574 219.287 117.543 218.309 123.097 216.511C128.447 214.778 133.568 212.558 138.319 209.915C142.967 207.328 147.268 204.327 151.152 200.964C151.634 201.202 152.116 201.457 152.597 201.729Z" fill="#EB912F"/>
<path d="M161.623 208.146C153.962 214.849 146.462 220.18 139.294 224.015C137.945 224.736 136.606 225.406 135.28 226.023C130.351 228.314 125.595 229.876 121.093 230.676C114.901 231.776 110.55 231.204 108.124 230.603C108.16 230.082 108.2 229.565 108.243 229.053C108.773 229.193 109.421 229.335 110.188 229.457C112.404 229.807 116.078 230.037 120.995 229.144C126.538 228.136 132.494 225.935 138.699 222.603C145.64 218.875 152.909 213.714 160.34 207.24L161.623 208.146Z" fill="#EB912F"/>
<path d="M169.415 213.65C163.144 220.886 156.113 226.878 148.479 231.489C146.02 232.974 143.497 234.318 140.92 235.516C140.253 235.826 139.582 236.127 138.908 236.417C138.35 236.658 137.79 236.892 137.227 237.119C133.855 238.479 130.4 239.598 126.883 240.464C118.402 242.555 111.554 242.713 107.759 242.562C107.757 242.048 107.757 241.535 107.759 241.023C111.46 241.166 118.276 241.023 126.589 238.965C129.685 238.199 132.732 237.233 135.716 236.075C136.285 235.855 136.852 235.627 137.416 235.392C140.958 233.918 144.405 232.17 147.732 230.158C155.172 225.657 162.032 219.815 168.162 212.765L169.415 213.65Z" fill="#EB912F"/>
<path d="M156.758 248.409C156.535 248.513 156.324 248.476 156.19 248.427C151.096 247.068 133.416 234.466 132.663 233.928C132.32 233.683 132.241 233.207 132.486 232.864C132.73 232.521 133.207 232.442 133.55 232.687C133.728 232.814 150.824 245 156.166 246.825C156.421 246.476 156.9 245.811 157.797 244.543C158.041 244.199 158.517 244.118 158.861 244.362C159.204 244.606 159.286 245.082 159.042 245.425C158.265 246.523 157.702 247.309 157.37 247.762C157.231 247.952 157.151 248.058 157.105 248.116C156.991 248.262 156.872 248.354 156.757 248.407L156.758 248.409Z" fill="#EB912F"/>
<path d="M150.142 244.968C150.009 245.058 149.876 245.147 149.741 245.237C147.886 246.462 145.884 247.574 143.745 248.569C141.229 249.739 138.522 250.746 135.647 251.581C131.265 252.854 126.481 253.732 121.428 254.192C115.542 254.728 110.635 254.562 108.106 254.402C108.079 253.891 108.054 253.38 108.03 252.869C110.444 253.029 115.371 253.214 121.325 252.67C126.276 252.217 130.957 251.356 135.241 250.11C140.135 248.687 144.517 246.755 148.284 244.362C148.624 244.146 148.957 243.927 149.287 243.705C149.516 243.55 149.8 243.535 150.035 243.644C150.037 243.644 150.038 243.645 150.039 243.645C150.086 243.667 150.131 243.695 150.172 243.726C150.238 243.775 150.297 243.836 150.346 243.909C150.583 244.258 150.491 244.732 150.142 244.968Z" fill="#EB912F"/>
<path d="M152.918 246.679C152.657 246.8 152.339 246.768 152.105 246.571C151.782 246.3 151.74 245.818 152.012 245.496C152.131 245.354 164.026 231.136 171.271 216.45C171.457 216.071 171.915 215.917 172.292 216.104C172.671 216.29 172.825 216.748 172.638 217.125C165.309 231.98 153.3 246.335 153.179 246.479C153.106 246.567 153.016 246.634 152.917 246.68L152.918 246.679Z" fill="#EB912F"/>
<path d="M165.726 248.96C160.922 252.727 155.644 255.953 149.983 258.585C148.397 259.322 146.782 260.013 145.139 260.656C139.134 263.005 132.744 264.725 126.147 265.77C118.314 267.01 112.136 267.003 109 266.873C108.955 266.368 108.909 265.858 108.866 265.345C110.244 265.406 112.037 265.428 114.137 265.366C117.455 265.267 121.537 264.958 125.958 264.254C132.441 263.225 138.717 261.532 144.613 259.223C151.974 256.34 158.76 252.484 164.784 247.759C165.116 247.499 165.596 247.557 165.855 247.889C166.116 248.22 166.057 248.7 165.726 248.96Z" fill="#EB912F"/>
<path d="M178.429 251.554C178.481 251.789 178.421 252.045 178.248 252.236C171.884 259.196 164.256 264.907 155.576 269.209C154.966 269.512 154.348 269.808 153.728 270.096C147.293 273.088 140.307 275.336 132.928 276.787C122.394 278.859 113.753 278.744 110.224 278.571C110.164 278.067 110.104 277.555 110.044 277.035C113.297 277.209 121.992 277.388 132.684 275.28C140.634 273.712 148.118 271.206 154.927 267.828C163.381 263.633 170.815 258.076 177.026 251.311L177.121 251.205C177.406 250.895 177.888 250.874 178.2 251.157C178.319 251.268 178.396 251.407 178.429 251.554Z" fill="#EB912F"/>
<path d="M186.968 258.97C176.559 268.247 166.147 275.532 155.992 280.642C155.03 281.126 154.067 281.592 153.109 282.038C145.478 285.586 137.996 287.904 130.826 288.936C126.848 289.508 120.818 289.969 114.675 288.908C113.408 288.689 112.341 288.441 111.484 288.208C111.409 287.684 111.331 287.133 111.252 286.554C112.169 286.827 113.441 287.151 115.043 287.423C118.334 287.982 123.729 288.431 130.744 287.405C138.64 286.251 146.936 283.501 155.401 279.231C165.492 274.142 175.849 266.87 186.213 257.6L186.968 258.97Z" fill="#EB912F"/>
<path d="M276.416 263.331C276.338 263.368 276.251 263.391 276.159 263.399C275.74 263.435 275.37 263.123 275.334 262.703L269.701 196.451C269.665 196.031 269.976 195.662 270.396 195.626C270.816 195.59 271.185 195.902 271.221 196.322L276.855 262.574C276.883 262.902 276.698 263.2 276.417 263.331L276.416 263.331Z" fill="#EDAC59"/>
<path d="M299.004 263.504C298.803 263.597 298.563 263.603 298.349 263.499C294.94 261.844 291.384 260.999 287.78 260.99C284.89 260.982 281.957 261.507 279.063 262.551C274.103 264.34 270.938 267.068 270.906 267.096C270.867 267.13 270.823 267.161 270.778 267.187L241.785 283.45C241.415 283.657 240.953 283.525 240.746 283.158C240.539 282.791 240.671 282.326 241.038 282.119L269.966 265.892C270.458 265.476 273.608 262.907 278.491 261.136C281.558 260.023 284.673 259.461 287.748 259.464C291.597 259.469 295.388 260.365 299.016 262.127C299.395 262.311 299.553 262.768 299.369 263.147C299.289 263.311 299.157 263.434 299.004 263.505L299.004 263.504Z" fill="#EDAC59"/>
<path d="M296.039 305.545C293.289 306.823 290.338 308.086 287.192 309.328C272.327 315.2 258.073 318.636 257.93 318.67C257.52 318.769 257.109 318.516 257.01 318.106C256.912 317.696 257.165 317.285 257.575 317.186C257.716 317.152 271.878 313.737 286.646 307.903C295.296 304.485 302.454 300.921 307.922 297.308C314.663 292.853 318.81 288.34 320.245 283.893C320.373 283.492 320.804 283.272 321.205 283.402C321.607 283.532 321.826 283.961 321.697 284.362C320.152 289.149 315.798 293.934 308.757 298.585C305.197 300.937 300.939 303.266 296.039 305.545Z" fill="#EDAC59"/>
</g>
</svg>
