<svg width="45" height="46" viewBox="0 0 45 46" fill="none" xmlns="http://www.w3.org/2000/svg">
<g clip-path="url(#clip0_19_1914)">
<path d="M4.00808 16.4126C4.00808 15.6845 3.4178 15.0942 2.68972 15.0942H1.31836C0.590273 15.0942 0 15.6845 0 16.4126C0 17.1407 0.590273 17.7309 1.31836 17.7309H2.68972C3.4178 17.7309 4.00808 17.1407 4.00808 16.4126ZM4.69512 5.82985C5.88164 5.82985 6.47279 4.36638 5.5945 3.54733L4.59158 2.612C4.05905 2.11551 3.22479 2.14469 2.7283 2.67704C2.23172 3.20957 2.2609 4.04374 2.79334 4.54032C3.60369 5.20179 3.89065 5.82985 4.69512 5.82985ZM3.79626 27.165L2.79334 28.1003C2.26081 28.5969 2.23172 29.4311 2.72821 29.9636C3.22497 30.4962 4.05905 30.5252 4.59158 30.0287L5.5945 29.0934C6.12703 28.5969 6.15612 27.7626 5.65963 27.2302C5.16296 26.6976 4.32879 26.6685 3.79626 27.165ZM43.6816 14.9097H42.3103C41.5822 14.9097 40.9919 15.5 40.9919 16.2281C40.9919 16.9562 41.5822 17.5465 42.3103 17.5465H43.6816C44.4097 17.5465 45 16.9562 45 16.2281C45 15.5 44.4097 14.9097 43.6816 14.9097ZM41.2037 27.165C40.6712 26.6686 39.837 26.6977 39.3404 27.2302C38.8439 27.7627 38.873 28.5969 39.4055 29.0934L40.4084 30.0287C40.9421 30.5262 41.7762 30.495 42.2718 29.9636C42.7683 29.431 42.7392 28.5969 42.2067 28.1003L41.2037 27.165ZM41.2037 5.47565L42.2067 4.54041C42.7392 4.04383 42.7683 3.20957 42.2717 2.67713C41.7751 2.14469 40.9409 2.11542 40.4084 2.61209L39.4055 3.54733C38.873 4.04391 38.8439 4.87817 39.3405 5.41061C39.8371 5.94314 40.6714 5.97215 41.2037 5.47565ZM15.0293 36.2275C15.0293 37.8674 16.0334 39.2768 17.4589 39.875H27.5411C28.9666 39.2768 29.9707 37.8674 29.9707 36.2275V34.3379H15.0293V36.2275ZM17.666 44.1816C17.666 44.9094 18.2566 45.5 18.9844 45.5H26.0156C26.7434 45.5 27.334 44.9094 27.334 44.1816V42.5117H17.666V44.1816ZM37.7532 16.3203C41.5045 12.491 39.337 6.03244 34.0876 5.19634C32.7698 0.8149 27.4747 -0.929202 23.8184 1.8216V32.1846H27.7734C30.7493 32.1846 33.2885 30.23 34.1007 27.4422C39.3216 26.6001 41.5115 20.1568 37.7532 16.3203ZM26.4551 8.49804C26.4551 7.76995 27.0454 7.17968 27.7734 7.17968C28.5015 7.17968 29.0918 7.76995 29.0918 8.49804C29.0918 9.84812 29.6036 10.0954 30.6231 10.5881C31.5883 11.0544 33.0469 11.7591 33.0469 13.7715C33.0469 14.4996 32.4566 15.0898 31.7285 15.0898C31.0004 15.0898 30.4102 14.4996 30.4102 13.7715C30.4102 13.4822 30.4102 13.4135 29.4761 12.9622C28.3462 12.4163 26.4551 11.5026 26.4551 8.49804ZM34.2748 20.936C32.757 23.0392 30.4124 23.9119 29.7447 23.9119C29.1711 23.9119 28.6434 23.5347 28.4778 22.9558C28.2776 22.2557 28.6828 21.526 29.3829 21.3258C30.4727 21.0141 31.4578 20.3337 32.1367 19.393C32.5628 18.8025 33.3868 18.6694 33.9772 19.0954C34.5676 19.5215 34.7009 20.3455 34.2748 20.936ZM21.1816 32.1846V1.8216C17.5255 -0.929114 12.2303 0.814724 10.9125 5.19634C5.66007 6.03297 3.49717 12.4927 7.24685 16.3203C3.48724 20.158 5.68099 26.6004 10.8994 27.4422C11.7142 30.2391 14.2587 32.1846 17.2267 32.1846H21.1816ZM14.3769 10.5881C15.3964 10.0954 15.9082 9.84821 15.9082 8.49804C15.9082 7.76995 16.4985 7.17968 17.2266 7.17968C17.9546 7.17968 18.5449 7.76995 18.5449 8.49804C18.5449 11.5026 16.6538 12.4163 15.5239 12.9622C14.5898 13.4135 14.5898 13.4822 14.5898 13.7715C14.5898 14.4996 13.9996 15.0898 13.2715 15.0898C12.5434 15.0898 11.9531 14.4996 11.9531 13.7715C11.9531 11.7591 13.4117 11.0544 14.3769 10.5881ZM16.5222 22.9558C16.3567 23.5346 15.8289 23.9119 15.2553 23.9119C14.5674 23.9119 12.376 23.046 10.9165 21.1899C10.4665 20.6175 10.5657 19.7886 11.138 19.3386C11.7105 18.8886 12.5393 18.9878 12.9893 19.5601C13.6459 20.3953 14.5709 21.0266 15.6171 21.3257C16.3172 21.526 16.7224 22.2557 16.5222 22.9558Z" fill="#51B4D1"/>
</g>
<defs>
<clipPath id="clip0_19_1914">
<rect width="45" height="45" fill="white" transform="translate(0 0.5)"/>
</clipPath>
</defs>
</svg>
