<svg width="60" height="60" viewBox="0 0 60 60" fill="none" xmlns="http://www.w3.org/2000/svg">
<path d="M56.5455 39.6088V33.3935C57.0316 33.2517 57.4588 32.9565 57.7634 32.5519C58.0679 32.1474 58.2334 31.6552 58.2352 31.1488C58.2345 30.5254 57.9866 29.9277 57.5457 29.4868C57.1049 29.046 56.5072 28.798 55.8838 28.7973H41.857V27.8118C41.8565 27.3614 41.6774 26.9297 41.359 26.6112C41.0406 26.2928 40.6088 26.1137 40.1585 26.1132H39.0238V14.8844H50.9038C51.7552 14.8844 52.4479 14.1918 52.4479 13.3403V5.45293C52.4479 4.60234 51.7552 3.90881 50.9038 3.90881H39.0229C39.0208 3.32514 38.7876 2.76606 38.3744 2.35383C37.9612 1.94161 37.4016 1.7098 36.8179 1.70911C36.2331 1.70981 35.6724 1.94244 35.2589 2.35597C34.8453 2.7695 34.6127 3.33017 34.612 3.91499V26.115H33.4764C33.0264 26.1157 32.595 26.2948 32.2768 26.613C31.9585 26.9312 31.7795 27.3626 31.7788 27.8126V28.7982H17.3011C13.0526 28.7982 9.59641 32.2544 9.59641 36.502C9.59665 37.7621 9.906 39.0029 10.4973 40.1156C11.0887 41.2282 11.944 42.1789 12.9882 42.8841H9.46935C5.22083 42.8823 1.76465 46.3394 1.76465 50.587C1.76465 54.8356 5.22083 58.2918 9.46935 58.2918H48.052C48.6754 58.2911 49.2731 58.0431 49.714 57.6022C50.1548 57.1614 50.4028 56.5637 50.4035 55.9403C50.4017 55.4339 50.2361 54.9417 49.9316 54.5372C49.6271 54.1326 49.1999 53.8374 48.7138 53.6956V47.4794C49.1999 47.3376 49.6271 47.0424 49.9316 46.6378C50.2361 46.2332 50.4017 45.7411 50.4035 45.2347C50.4035 44.8641 50.3099 44.5182 50.1564 44.2068H55.8838C56.5072 44.2061 57.1049 43.9581 57.5457 43.5173C57.9866 43.0764 58.2345 42.4787 58.2352 41.8553C58.2337 41.3487 58.0683 40.8561 57.7637 40.4512C57.4592 40.0464 57.0318 39.7508 56.5455 39.6088ZM17.3011 39.5029C15.6458 39.5029 14.2994 38.1565 14.2994 36.5012C14.2994 34.8459 15.6458 33.5003 17.3011 33.5003H55.222V35.8394H25.087C24.9115 35.8394 24.7432 35.9091 24.6191 36.0332C24.495 36.1573 24.4252 36.3257 24.4252 36.5012C24.4252 36.6767 24.495 36.845 24.6191 36.9691C24.7432 37.0932 24.9115 37.1629 25.087 37.1629H55.222V39.5029H17.3011ZM56.9117 31.1488C56.9117 31.7153 56.4511 32.1768 55.8838 32.1768H19.3764V30.1209H55.8838C56.4511 30.1209 56.9117 30.5815 56.9117 31.1488ZM51.1244 5.45293V13.3412C51.1244 13.3997 51.1011 13.4558 51.0597 13.4971C51.0184 13.5385 50.9623 13.5618 50.9038 13.5618H39.0238V5.23234H50.9038C50.9623 5.23234 51.0184 5.25558 51.0597 5.29695C51.1011 5.33832 51.1244 5.39443 51.1244 5.45293ZM35.9355 3.91411C35.9457 3.68692 36.0431 3.47241 36.2075 3.31523C36.3718 3.15806 36.5905 3.07034 36.8179 3.07034C37.0453 3.07034 37.264 3.15806 37.4283 3.31523C37.5927 3.47241 37.6901 3.68692 37.7002 3.91411V26.1141H35.9355V3.91411ZM33.1023 27.8118C33.1023 27.6044 33.2699 27.4368 33.4764 27.4368H40.1585C40.3658 27.4368 40.5335 27.6044 40.5335 27.8118V28.7965H33.1023V27.8118ZM10.9199 36.5003C10.9199 32.9823 13.7823 30.12 17.3011 30.12H18.0529V32.1759H17.3011C14.9161 32.1759 12.9758 34.1162 12.9758 36.5003C12.9758 38.8844 14.9161 40.8256 17.3011 40.8256H18.0529V42.8815H17.3011C13.7823 42.8815 10.9199 40.0191 10.9199 36.5003ZM3.08818 50.587C3.08818 47.0691 5.95053 44.2068 9.46935 44.2068H10.2211V46.2626H9.46935C8.32273 46.2638 7.22338 46.7198 6.41251 47.5305C5.60164 48.3412 5.14546 49.4404 5.14406 50.587C5.14546 51.7338 5.60161 52.8331 6.41246 53.6439C7.2233 54.4548 8.32265 54.9109 9.46935 54.9123H10.2211V56.9682H9.46935C5.95053 56.9682 3.08818 54.1059 3.08818 50.587ZM47.3902 49.9253H17.2552C17.0797 49.9253 16.9114 49.995 16.7873 50.1191C16.6632 50.2432 16.5935 50.4115 16.5935 50.587C16.5935 50.7626 16.6632 50.9309 16.7873 51.055C16.9114 51.1791 17.0797 51.2488 17.2552 51.2488H47.3902V53.5888H9.46935C7.81406 53.5888 6.46759 52.2423 6.46759 50.587C6.46759 48.9318 7.81406 47.5862 9.46935 47.5862H47.3902V49.9253ZM49.0799 55.9403C49.0799 56.5076 48.6194 56.9682 48.052 56.9682H11.5446V54.9123H48.0529C48.6202 54.9123 49.0799 55.3738 49.0799 55.9403ZM49.0799 45.2347C49.0799 45.8012 48.6194 46.2626 48.052 46.2626H11.5446V44.2059H48.0529C48.6202 44.2059 49.0808 44.6665 49.0808 45.2338L49.0799 45.2347ZM55.8838 42.8832H19.3764V40.8265H55.8838C56.1513 40.8343 56.4052 40.9461 56.5917 41.1381C56.7782 41.3301 56.8825 41.5872 56.8825 41.8548C56.8825 42.1225 56.7782 42.3796 56.5917 42.5716C56.4052 42.7636 56.1513 42.8754 55.8838 42.8832Z" fill="#1F1F1F"/>
</svg>
