<svg width="45" height="51" viewBox="0 0 45 51" fill="none" xmlns="http://www.w3.org/2000/svg">
<path d="M22.5 50.5785L21.6017 50.3539C-1.97782 40.6975 0.0432836 10.1564 0.0432836 9.70725L0.267851 7.68615H2.28896C12.619 7.68615 21.1526 1.39827 21.1526 1.39827L22.5 0.5L23.8474 1.39827C23.8474 1.39827 32.381 7.68615 42.711 7.68615H44.7322L44.9567 9.70725C44.9567 9.93182 46.9778 40.6975 23.3983 50.1293L22.5 50.5785ZM4.53463 12.1775C4.53463 18.4654 5.88203 38.4519 22.5 45.8626C39.118 38.6764 40.4654 18.6899 40.4654 12.1775C32.1564 11.5038 25.1948 7.68615 22.5 5.88961C19.8052 7.68615 12.8436 11.5038 4.53463 12.1775Z" fill="#4D84EE"/>
<path d="M22.5001 41.3712C7.67863 35.0833 9.02603 14.6477 9.02603 14.6477C16.4367 14.6477 22.5001 9.93182 22.5001 9.93182C22.5001 9.93182 28.5634 14.6477 35.9741 14.6477C35.9741 14.6477 37.3215 35.0833 22.5001 41.3712Z" fill="#4D84EE"/>
</svg>
