<svg width="45" height="42" viewBox="0 0 45 42" fill="none" xmlns="http://www.w3.org/2000/svg">
<path d="M22.4872 4.23429C12.6786 -4.34476 0.207042 3.19304 0.00253599 13.4118C-0.0495792 16.016 0.70218 18.5528 2.19858 20.8915H11.8978L13.623 18.0161C14.1239 17.1813 15.3362 17.1544 15.8655 17.9866L19.5054 23.7064L24.8112 12.5055C25.2739 11.5281 26.6529 11.4971 27.1632 12.4449L31.7114 20.8915H42.7758C50.9721 8.0815 34.7736 -6.51172 22.4872 4.23429Z" fill="#DD524C"/>
<path d="M29.7633 22.8347L26.0778 15.9902L20.8662 26.9924C20.4229 27.9284 19.1187 28.0097 18.5627 27.1358L14.7863 21.2016L13.7745 22.8879C13.6574 23.0831 13.4917 23.2446 13.2936 23.3568C13.0955 23.4689 12.8718 23.5279 12.6442 23.5279H4.28394C4.54601 23.8022 3.14927 22.4083 21.5574 40.721C22.0715 41.2326 22.9026 41.2326 23.4168 40.721C41.5416 22.69 40.4287 23.8017 40.6902 23.5279H30.924C30.686 23.5279 30.4524 23.4635 30.248 23.3414C30.0437 23.2194 29.8762 23.0443 29.7633 22.8347Z" fill="#DD524C"/>
</svg>
