<svg width="60" height="58" viewBox="0 0 60 58" fill="none" xmlns="http://www.w3.org/2000/svg">
<path d="M19.5469 24.6594C19.6864 24.8516 19.8938 24.9837 20.1269 25.0289C20.3601 25.0741 20.6018 25.0292 20.8031 24.9031C20.9979 24.7633 21.1317 24.5542 21.177 24.3188C21.2223 24.0834 21.1758 23.8396 21.0469 23.6375C20.6747 23.0686 20.1934 22.5792 19.6307 22.1978C19.0681 21.8163 18.4353 21.5502 17.7691 21.4151C17.1029 21.2799 16.4165 21.2783 15.7496 21.4104C15.0828 21.5424 14.4488 21.8055 13.8844 22.1844C13.745 22.3395 13.6614 22.5367 13.6468 22.7448C13.6321 22.9528 13.6872 23.1598 13.8034 23.333C13.9196 23.5062 14.0902 23.6357 14.2882 23.701C14.4863 23.7664 14.7005 23.7638 14.8969 23.6937C15.2651 23.4503 15.6779 23.2822 16.1114 23.199C16.5449 23.1158 16.9906 23.1191 17.4228 23.2089C17.855 23.2986 18.2652 23.473 18.6298 23.7219C18.9943 23.9709 19.306 24.2895 19.5469 24.6594ZM15.6188 37.9531C15.1866 37.8639 14.7763 37.6901 14.4115 37.4417C14.0468 37.1933 13.7348 36.8753 13.4934 36.5058C13.252 36.1364 13.0861 35.7229 13.0052 35.2891C12.9243 34.8552 12.9299 34.4097 13.0219 33.9781C12.9958 33.7783 12.9061 33.5922 12.766 33.4474C12.6259 33.3025 12.4428 33.2067 12.244 33.1741C12.0451 33.1415 11.8411 33.1738 11.662 33.2663C11.483 33.3587 11.3385 33.5064 11.25 33.6875C11.1107 34.3532 11.105 35.04 11.2332 35.708C11.3614 36.376 11.621 37.0119 11.9969 37.5787C12.3728 38.1456 12.8575 38.6322 13.4229 39.0103C13.9883 39.3884 14.6232 39.6504 15.2906 39.7812H15.4688C15.6709 39.7455 15.8558 39.6444 15.995 39.4934C16.1341 39.3424 16.2199 39.15 16.2391 38.9455C16.2582 38.7411 16.2097 38.536 16.1011 38.3618C15.9924 38.1876 15.8295 38.0539 15.6375 37.9812L15.6188 37.9531ZM20.625 34.0625C20.6409 33.9196 20.6238 33.7749 20.5749 33.6397C20.526 33.5045 20.4466 33.3823 20.3429 33.2827C20.2393 33.183 20.114 33.1086 19.977 33.065C19.8399 33.0215 19.6947 33.0101 19.5525 33.0317C19.4104 33.0533 19.2751 33.1073 19.1571 33.1895C19.0392 33.2718 18.9417 33.38 18.8723 33.506C18.8029 33.6319 18.7633 33.7721 18.7568 33.9157C18.7502 34.0594 18.7767 34.2026 18.8344 34.3344C18.9952 35.5657 19.5967 36.6971 20.5274 37.5192C21.4581 38.3414 22.6551 38.7986 23.8969 38.8062C24.1477 38.8093 24.3984 38.7936 24.6469 38.7594C24.8824 38.7179 25.0931 38.5881 25.236 38.3964C25.3789 38.2047 25.4432 37.9656 25.4156 37.7281C25.3742 37.4926 25.2443 37.2819 25.0526 37.139C24.8609 36.9961 24.6219 36.9318 24.3844 36.9594C23.5017 37.0736 22.6098 36.8327 21.9048 36.2894C21.1998 35.7462 20.7395 34.9451 20.625 34.0625Z" fill="#1F1F1F"/>
<path d="M56.5782 35.4968C55.8306 35.4986 55.1041 35.7452 54.5098 36.199C53.9156 36.6527 53.4863 37.2886 53.2876 38.0093H50.147L45.3845 32.5437C45.2979 32.4478 45.1924 32.3707 45.0746 32.3175C44.9568 32.2643 44.8293 32.2359 44.7001 32.2343H32.0157V25.7937H44.7001C44.8293 25.7921 44.9568 25.7638 45.0746 25.7106C45.1924 25.6573 45.2979 25.5803 45.3845 25.4843L50.147 20.0187H53.2876C53.5077 20.8196 54.0108 21.5134 54.7036 21.9715C55.3964 22.4296 56.2319 22.6208 57.055 22.5098C57.8781 22.3987 58.6329 21.9929 59.1795 21.3676C59.7262 20.7422 60.0274 19.9399 60.0274 19.1093C60.0274 18.2788 59.7262 17.4764 59.1795 16.8511C58.6329 16.2258 57.8781 15.82 57.055 15.7089C56.2319 15.5978 55.3964 15.7891 54.7036 16.2472C54.0108 16.7053 53.5077 17.3991 53.2876 18.2H49.7345C49.6052 18.2016 49.4777 18.2299 49.36 18.2831C49.2422 18.3364 49.1367 18.4134 49.0501 18.5093L44.2876 23.975H32.0157V20.5625H43.9032C44.0338 20.5633 44.1629 20.5352 44.2813 20.4801C44.3996 20.425 44.5043 20.3442 44.5876 20.2437L47.9063 16.3437C48.0484 16.18 48.1252 15.9698 48.122 15.7531V12.125C48.9151 11.905 49.6017 11.4051 50.0545 10.7177C50.5073 10.0304 50.6956 9.20227 50.5846 8.38671C50.4737 7.57115 50.0709 6.82345 49.4509 6.2821C48.8309 5.74076 48.0357 5.44246 47.2126 5.44246C46.3895 5.44246 45.5943 5.74076 44.9743 6.2821C44.3543 6.82345 43.9515 7.57115 43.8406 8.38671C43.7296 9.20227 43.9179 10.0304 44.3707 10.7177C44.8235 11.4051 45.5101 11.905 46.3032 12.125V15.4437L43.4907 18.7437H32.0157V14.3937H36.1688C36.3192 14.3945 36.4675 14.3592 36.6013 14.2906C36.7351 14.2221 36.8504 14.1224 36.9376 14L38.1001 12.125C38.4044 12.2171 38.7198 12.2676 39.0376 12.275C39.7158 12.2786 40.3799 12.0812 40.946 11.7077C41.5121 11.3342 41.9548 10.8012 42.2182 10.1762C42.4816 9.55124 42.5538 8.8622 42.4258 8.19616C42.2978 7.53012 41.9753 6.91695 41.499 6.43411C41.0227 5.95127 40.414 5.62041 39.7497 5.48333C39.0855 5.34625 38.3956 5.40909 37.767 5.66392C37.1385 5.91875 36.5996 6.35414 36.2183 6.91508C35.8371 7.47603 35.6307 8.13738 35.6251 8.81559C35.6289 9.67915 35.9646 10.5082 36.5626 11.1312L35.6251 12.575H32.0157V5.55309C32.0248 5.48778 32.0248 5.42152 32.0157 5.35621C31.4741 3.80144 30.4599 2.45492 29.1151 1.50513C27.7703 0.555344 26.1621 0.0498268 24.5157 0.0593358C22.9918 0.0705321 21.503 0.517939 20.2254 1.34863C18.9478 2.17933 17.9349 3.35856 17.3063 4.74684C16.1238 4.37802 14.8712 4.29233 13.6495 4.49667C12.4278 4.70101 11.2712 5.18967 10.273 5.92321C9.27491 6.65675 8.46318 7.61465 7.90334 8.71961C7.3435 9.82456 7.05122 11.0456 7.0501 12.2843C7.04561 13.0107 7.14666 13.7339 7.3501 14.4312C6.23504 14.7887 5.21285 15.3883 4.35673 16.1872C3.50062 16.9861 2.83179 17.9644 2.39814 19.0521C1.9645 20.1398 1.77678 21.3099 1.84843 22.4787C1.92008 23.6474 2.24934 24.7859 2.8126 25.8125C1.81416 26.5885 1.03742 27.6136 0.560333 28.7847C0.0832484 29.9558 -0.0773954 31.2319 0.0945255 32.4847C0.266446 33.7375 0.764883 34.9231 1.53981 35.9224C2.31474 36.9218 3.33889 37.6997 4.50947 38.1781C3.79284 39.3122 3.37595 40.6096 3.29787 41.9489C3.2198 43.2881 3.4831 44.6252 4.0631 45.8349C4.6431 47.0445 5.52079 48.0871 6.61388 48.8648C7.70697 49.6425 8.97965 50.1299 10.3126 50.2812C10.3597 51.4905 10.7105 52.6684 11.3326 53.7064C11.9546 54.7444 12.828 55.6092 13.8722 56.2209C14.9163 56.8326 16.0976 57.1717 17.3073 57.2068C18.5169 57.2419 19.716 56.972 20.7938 56.4218C22.0602 57.4105 23.6217 57.9453 25.2282 57.9406C26.6879 57.9337 28.1117 57.4873 29.314 56.6595C30.5164 55.8318 31.4415 54.6611 31.9688 53.3C31.9771 53.2283 31.9771 53.156 31.9688 53.0843C31.9734 53.047 31.9734 53.0092 31.9688 52.9718V45.4718H35.6251L36.5626 46.9156C35.9646 47.5386 35.6289 48.3676 35.6251 49.2312C35.6232 49.9102 35.8229 50.5746 36.1988 51.1401C36.5747 51.7056 37.1099 52.1468 37.7368 52.408C38.3636 52.6691 39.0538 52.7384 39.72 52.607C40.3862 52.4757 40.9985 52.1497 41.4793 51.6702C41.9601 51.1907 42.2878 50.5793 42.421 49.9134C42.5541 49.2476 42.4867 48.5572 42.2273 47.9297C41.9679 47.3022 41.5281 46.7657 40.9636 46.3883C40.3992 46.0108 39.7354 45.8093 39.0564 45.8093C38.7385 45.8167 38.4231 45.8672 38.1189 45.9593L36.9376 44C36.8546 43.8706 36.7411 43.7636 36.6071 43.6884C36.473 43.6132 36.3225 43.5721 36.1688 43.5687H32.0157V39.3125H43.4813L46.2938 42.6125V45.875C45.4879 46.0952 44.7892 46.6004 44.3276 47.2969C43.866 47.9933 43.6728 48.8336 43.7839 49.6617C43.895 50.4898 44.3028 51.2495 44.9317 51.7996C45.5606 52.3497 46.3677 52.653 47.2032 52.653C48.0388 52.653 48.8459 52.3497 49.4748 51.7996C50.1036 51.2495 50.5115 50.4898 50.6226 49.6617C50.7337 48.8336 50.5405 47.9933 50.0789 47.2969C49.6173 46.6004 48.9186 46.0952 48.1126 45.875V42.2187C48.1158 42.002 48.039 41.7918 47.897 41.6281L44.5782 37.7468C44.4949 37.6463 44.3903 37.5656 44.2719 37.5105C44.1535 37.4553 44.0244 37.4272 43.8938 37.4281H32.0157V34.0531H44.2876L49.0501 39.5187C49.1367 39.6147 49.2422 39.6917 49.36 39.7449C49.4777 39.7982 49.6052 39.8265 49.7345 39.8281H53.2876C53.4571 40.4431 53.7953 40.9985 54.2638 41.4316C54.7323 41.8646 55.3125 42.1581 55.939 42.2788C56.5654 42.3995 57.2132 42.3427 57.809 42.1147C58.4049 41.8868 58.9252 41.4968 59.3111 40.9888C59.6971 40.4808 59.9333 39.875 59.9932 39.2398C60.0531 38.6047 59.9342 37.9654 59.65 37.3942C59.3657 36.8231 58.9275 36.3427 58.3847 36.0074C57.8419 35.6722 57.2162 35.4953 56.5782 35.4968ZM56.5782 17.4687C56.8971 17.4687 57.2089 17.5633 57.4741 17.7405C57.7393 17.9177 57.9459 18.1695 58.068 18.4641C58.19 18.7588 58.222 19.083 58.1597 19.3958C58.0975 19.7086 57.9439 19.9959 57.7184 20.2214C57.4929 20.4469 57.2056 20.6005 56.8928 20.6627C56.58 20.7249 56.2558 20.693 55.9611 20.571C55.6665 20.4489 55.4147 20.2422 55.2375 19.9771C55.0603 19.7119 54.9657 19.4001 54.9657 19.0812C54.9657 18.6535 55.1356 18.2434 55.438 17.941C55.7404 17.6386 56.1506 17.4687 56.5782 17.4687ZM45.6095 8.81559C45.6076 8.49587 45.7009 8.18283 45.8773 7.91622C46.0538 7.64961 46.3055 7.44148 46.6006 7.31828C46.8956 7.19507 47.2206 7.16235 47.5342 7.22427C47.8479 7.28619 48.1361 7.43995 48.3622 7.66603C48.5882 7.8921 48.742 8.18028 48.8039 8.49395C48.8658 8.80761 48.8331 9.1326 48.7099 9.42763C48.5867 9.72266 48.3786 9.9744 48.112 10.1509C47.8454 10.3273 47.5323 10.4206 47.2126 10.4187C46.7882 10.4163 46.3819 10.2466 46.0817 9.94645C45.7816 9.64633 45.6119 9.24 45.6095 8.81559ZM39.047 7.20309C39.3659 7.20309 39.6777 7.29766 39.9428 7.47484C40.208 7.65203 40.4147 7.90386 40.5367 8.19851C40.6588 8.49316 40.6907 8.81738 40.6285 9.13017C40.5663 9.44296 40.4127 9.73028 40.1872 9.9558C39.9617 10.1813 39.6744 10.3349 39.3616 10.3971C39.0488 10.4593 38.7245 10.4274 38.4299 10.3053C38.1353 10.1833 37.8834 9.97662 37.7062 9.71144C37.529 9.44627 37.4345 9.13451 37.4345 8.81559C37.4345 8.60304 37.4765 8.39259 37.5581 8.19634C37.6397 8.00008 37.7593 7.82191 37.9101 7.67205C38.0608 7.52219 38.2397 7.40361 38.4364 7.32313C38.6331 7.24265 38.8438 7.20185 39.0564 7.20309H39.047ZM30.1876 13.4843V17.75C29.3852 17.352 28.492 17.1728 27.5982 17.2304C26.7044 17.288 25.8416 17.5804 25.097 18.0781C24.9022 18.2179 24.7684 18.427 24.7231 18.6624C24.6778 18.8978 24.7243 19.1416 24.8532 19.3437C24.9928 19.5359 25.2001 19.668 25.4333 19.7133C25.6665 19.7585 25.9082 19.7135 26.1095 19.5875C26.7266 19.1691 27.4691 18.9761 28.2118 19.041C28.9546 19.1059 29.6523 19.4247 30.1876 19.9437V28.5875C29.3862 28.1842 28.4915 28.0028 27.5963 28.0621C26.7011 28.1215 25.8381 28.4194 25.097 28.925C24.9552 29.0805 24.8699 29.2792 24.8548 29.489C24.8397 29.6989 24.8956 29.9078 25.0136 30.082C25.1315 30.2563 25.3047 30.3858 25.5052 30.4497C25.7057 30.5136 25.9218 30.5082 26.1188 30.4343C26.7319 30.0126 27.4719 29.8158 28.2134 29.8773C28.955 29.9388 29.6524 30.2548 30.1876 30.7718V52.7562C29.8938 53.4825 29.445 54.136 28.8725 54.6708C28.3 55.2057 27.6176 55.6091 26.873 55.8528C26.1284 56.0966 25.3395 56.1748 24.5615 56.082C23.7836 55.9892 23.0352 55.7276 22.3688 55.3156C23.202 54.5726 23.7673 53.576 23.9774 52.4797C24.1875 51.3833 24.0308 50.2483 23.5313 49.25C23.5028 49.109 23.4423 48.9766 23.3543 48.8628C23.2664 48.749 23.1535 48.657 23.0244 48.5938C22.8952 48.5306 22.7532 48.498 22.6095 48.4985C22.4657 48.499 22.3239 48.5325 22.1952 48.5965C22.0664 48.6605 21.9541 48.7533 21.8669 48.8676C21.7798 48.982 21.7201 49.1148 21.6924 49.2559C21.6648 49.397 21.67 49.5426 21.7077 49.6814C21.7453 49.8201 21.8144 49.9484 21.9095 50.0562C22.1014 50.4535 22.2127 50.8848 22.2368 51.3254C22.261 51.7659 22.1976 52.2068 22.0502 52.6227C21.9029 53.0385 21.6745 53.4211 21.3784 53.7481C21.0823 54.0752 20.7243 54.3403 20.3251 54.5281C20.2537 54.5736 20.1876 54.6271 20.1282 54.6875C19.3202 55.1468 18.4068 55.3885 17.4774 55.3892C16.5479 55.3898 15.6342 55.1493 14.8256 54.6911C14.0169 54.2329 13.3409 53.5728 12.8638 52.7752C12.3866 51.9776 12.1246 51.0698 12.1032 50.1406C13.697 49.6812 16.7063 48.5281 17.147 46.2593C17.1863 46.0227 17.1333 45.7799 16.999 45.5811C16.8647 45.3823 16.6593 45.2425 16.4251 45.1906C16.1965 45.155 15.9628 45.2052 15.7689 45.3315C15.5751 45.4579 15.4348 45.6514 15.3751 45.875C15.1032 47.225 12.272 48.2281 11.147 48.4718C9.976 48.4557 8.83447 48.1026 7.85898 47.4546C6.8835 46.8067 6.11538 45.8913 5.64656 44.8182C5.17774 43.745 5.02807 42.5595 5.21547 41.4035C5.40287 40.2476 5.91939 39.17 6.70322 38.3C6.8173 38.1758 6.89579 38.0232 6.93044 37.8583C6.96509 37.6933 6.95461 37.522 6.9001 37.3625C6.84554 37.2114 6.75309 37.0769 6.63161 36.9718C6.51013 36.8668 6.3637 36.7947 6.20635 36.7625C5.13594 36.5525 4.15442 36.0228 3.39144 35.2432C2.62846 34.4636 2.11993 33.4709 1.93303 32.3963C1.74613 31.3216 1.88965 30.2155 2.34464 29.2241C2.79963 28.2327 3.54468 27.4027 4.48135 26.8437C4.84678 26.598 5.25734 26.4272 5.68925 26.3413C6.12115 26.2555 6.5658 26.2561 6.99745 26.3433C7.42909 26.4305 7.83913 26.6025 8.20382 26.8493C8.56851 27.0962 8.88059 27.4129 9.12197 27.7812C9.20731 27.9011 9.31967 27.9992 9.44997 28.0676C9.58026 28.136 9.72483 28.1728 9.87197 28.175C10.0558 28.1735 10.2351 28.1181 10.3876 28.0156C10.5808 27.8744 10.7127 27.6647 10.7563 27.4294C10.7999 27.194 10.7518 26.951 10.622 26.75C9.95412 25.7454 8.95463 25.0073 7.79802 24.6646C6.6414 24.3219 5.40116 24.3964 4.29385 24.875C3.86277 24.0711 3.61852 23.1805 3.57928 22.2692C3.54004 21.3579 3.70682 20.4495 4.06721 19.6117C4.42759 18.7738 4.9723 18.0279 5.6608 17.4297C6.3493 16.8314 7.16386 16.3961 8.04385 16.1562C8.40097 16.745 8.90298 17.2325 9.502 17.5723C10.101 17.912 10.7771 18.0926 11.4657 18.0968C11.936 18.0989 12.4028 18.0164 12.8438 17.8531C12.9864 17.8396 13.1239 17.7937 13.2459 17.7188C13.368 17.644 13.4712 17.5422 13.5478 17.4212C13.6244 17.3002 13.6722 17.1633 13.6877 17.021C13.7032 16.8787 13.6858 16.7347 13.637 16.6001C13.5882 16.4655 13.5092 16.3439 13.4061 16.2446C13.303 16.1453 13.1786 16.0709 13.0423 16.0271C12.906 15.9834 12.7614 15.9714 12.6198 15.9921C12.4781 16.0129 12.3431 16.0658 12.2251 16.1468C11.673 16.3364 11.0684 16.3011 10.5421 16.0485C10.0158 15.7958 9.61004 15.3462 9.4126 14.7968C9.41613 14.7688 9.41613 14.7405 9.4126 14.7125C8.92648 13.5849 8.79292 12.3366 9.02947 11.1316C9.26603 9.9267 9.86162 8.82155 10.738 7.96143C11.6143 7.1013 12.7304 6.52647 13.9396 6.31248C15.1487 6.09849 16.3943 6.25535 17.5126 6.76246H17.7001C20.297 7.26871 21.0657 9.64996 20.6626 11.7781C20.6259 12.0133 20.6801 12.2537 20.8142 12.4504C20.9482 12.6472 21.1521 12.7855 21.3845 12.8375H21.5532C21.7712 12.8423 21.9841 12.771 22.1552 12.6358C22.3263 12.5007 22.445 12.3101 22.4907 12.0968C23.0813 8.92809 21.722 6.26559 19.1345 5.26246C19.6365 4.23896 20.4138 3.37568 21.3793 2.76956C22.3448 2.16344 23.4601 1.8385 24.6001 1.83121C25.8395 1.82914 27.0497 2.20737 28.0673 2.91484C29.0849 3.62232 29.861 4.62497 30.2907 5.78746L30.1876 13.4843ZM39.047 47.5812C39.3663 47.5812 39.6784 47.676 39.9438 47.8536C40.2092 48.0312 40.4158 48.2836 40.5376 48.5788C40.6594 48.874 40.6908 49.1987 40.6278 49.5118C40.5648 49.8248 40.4103 50.1121 40.1838 50.3372C39.9574 50.5624 39.6692 50.7152 39.3558 50.7764C39.0424 50.8375 38.7178 50.8042 38.4234 50.6808C38.1289 50.5573 37.8777 50.3491 37.7017 50.0827C37.5256 49.8163 37.4326 49.5037 37.4345 49.1843C37.4357 48.9726 37.4786 48.7631 37.5608 48.568C37.643 48.3728 37.7628 48.1957 37.9134 48.0469C38.064 47.898 38.2424 47.7803 38.4386 47.7004C38.6347 47.6205 38.8446 47.58 39.0564 47.5812H39.047ZM48.8157 49.1843C48.8176 49.5037 48.7246 49.8163 48.5485 50.0827C48.3725 50.3491 48.1213 50.5573 47.8268 50.6808C47.5323 50.8042 47.2078 50.8375 46.8944 50.7764C46.581 50.7152 46.2928 50.5624 46.0664 50.3372C45.8399 50.1121 45.6854 49.8248 45.6224 49.5118C45.5594 49.1987 45.5908 48.874 45.7126 48.5788C45.8344 48.2836 46.041 48.0312 46.3064 47.8536C46.5718 47.676 46.8839 47.5812 47.2032 47.5812C47.415 47.58 47.6249 47.6205 47.821 47.7004C48.0171 47.7803 48.1956 47.898 48.3462 48.0469C48.4968 48.1957 48.6166 48.3728 48.6988 48.568C48.7809 48.7631 48.8239 48.9726 48.8251 49.1843H48.8157ZM56.5689 40.5312C56.2495 40.5331 55.9369 40.4401 55.6705 40.264C55.404 40.088 55.1959 39.8368 55.0724 39.5423C54.9489 39.2478 54.9157 38.9233 54.9768 38.6099C55.038 38.2965 55.1908 38.0083 55.4159 37.7819C55.6411 37.5554 55.9284 37.4009 56.2414 37.3379C56.5545 37.2749 56.8792 37.3063 57.1744 37.4281C57.4696 37.5498 57.722 37.7565 57.8996 38.0219C58.0772 38.2873 58.172 38.5994 58.172 38.9187C58.172 39.3431 58.0047 39.7505 57.7063 40.0523C57.408 40.3542 57.0026 40.5263 56.5782 40.5312H56.5689Z" fill="#1F1F1F"/>
</svg>
