<svg width="45" height="46" viewBox="0 0 45 46" fill="none" xmlns="http://www.w3.org/2000/svg">
<path d="M13.1839 11.6621H21.9724C22.3913 11.6621 22.7828 11.4613 23.0339 11.126C24.9542 8.56229 25.9277 5.7265 25.9277 2.69727V1.81836C25.9277 1.09027 25.3375 0.5 24.6094 0.5C22.1678 0.5 18.9831 2.08133 17.5781 2.85072C16.1732 2.08133 12.9885 0.5 10.5469 0.5C9.81879 0.5 9.22852 1.09027 9.22852 1.81836V2.69727C9.22852 5.7265 10.2021 8.56229 12.1223 11.126C12.3734 11.4613 12.7651 11.6621 13.1839 11.6621ZM18.5987 31.0394V34.772C19.2722 34.4085 19.6723 33.7373 19.7793 33.1011C19.8557 32.6466 19.8869 31.5557 18.5987 31.0394ZM15.7388 26.2805C15.6464 26.7709 15.7653 27.2279 16.0416 27.4446C16.1497 27.5294 16.2713 27.6124 16.4014 27.6938V25.2124C16.0176 25.4808 15.8086 25.9104 15.7388 26.2805Z" fill="#8463EE"/>
<path d="M24.7852 33.7519V27.211C24.7852 25.384 26.0993 23.8456 27.9099 23.5529C28.8462 23.4016 29.6608 22.8175 30.1089 21.9842C28.2203 19.3721 25.9968 16.9397 23.7924 14.6938C23.6697 14.5687 23.5233 14.4694 23.3618 14.4016C23.2002 14.3338 23.0268 14.2988 22.8516 14.2988H12.3047C12.1295 14.2988 11.956 14.3338 11.7945 14.4016C11.633 14.4694 11.4865 14.5687 11.3638 14.6937C5.74444 20.4189 0 27.3553 0 35.3926L8.78906e-05 35.4871C0.0123926 41.0083 4.5784 45.5 10.1787 45.5H24.9776C26.5433 45.5 28.0281 45.1486 29.3553 44.522C26.498 41.7624 24.7852 37.9089 24.7852 33.7519ZM21.9461 33.4654C21.7784 34.4628 21.2767 35.3883 20.5332 36.0714C19.9772 36.5822 19.3206 36.9318 18.5987 37.1086V37.9414C18.5987 38.5482 18.1069 39.04 17.5001 39.04C16.8933 39.04 16.4014 38.5482 16.4014 37.9414V37.2112C15.4811 37.1352 14.7237 36.8923 13.6464 36.1876C13.1387 35.8555 12.9963 35.1746 13.3284 34.6669C13.6606 34.159 14.3414 34.0167 14.8492 34.3489C15.4722 34.7563 15.8698 34.9303 16.4014 35.0008V30.1745C15.6726 29.8418 15.13 29.5222 14.6856 29.1735C13.7571 28.4453 13.3332 27.1808 13.5795 25.8736C13.8482 24.448 14.8402 23.3139 16.1684 22.9138C16.2456 22.8905 16.3233 22.8688 16.4014 22.8485V22.1211C16.4014 21.5143 16.8933 21.0225 17.5001 21.0225C18.1069 21.0225 18.5987 21.5143 18.5987 22.1211V22.7267C19.7009 22.911 20.4791 23.4515 20.8545 23.8822C21.2531 24.3396 21.2055 25.0336 20.748 25.4322C20.2927 25.8288 19.6031 25.7835 19.2037 25.3322C19.1776 25.3055 18.9802 25.1142 18.5987 24.9827V28.7006C18.8063 28.7778 19.0137 28.8526 19.2174 28.9246C21.2198 29.6323 22.2909 31.4147 21.9461 33.4654Z" fill="#8463EE"/>
<path d="M44.0912 26.1558C43.1997 26.0115 42.3554 25.657 41.6281 25.1217C40.9008 24.5863 40.3114 23.8855 39.9087 23.0773C39.7965 22.8522 39.5632 22.7131 39.3116 22.7131H33.1102C32.8587 22.7131 32.6254 22.8522 32.5132 23.0773C32.1104 23.8856 31.521 24.5863 30.7937 25.1217C30.0664 25.657 29.2221 26.0115 28.3307 26.1558C27.8092 26.2401 27.4219 26.6827 27.4219 27.2109V33.7518C27.4219 39.0516 30.8046 43.7406 35.7933 45.4312C36.0642 45.5229 36.3578 45.5229 36.6287 45.4312C41.6173 43.7407 45 39.0516 45 33.7518V27.2109C45 26.6827 44.6127 26.2401 44.0912 26.1558ZM40.872 32.5851L35.9002 37.5569C35.6428 37.8143 35.3054 37.9431 34.9681 37.9431C34.6308 37.9431 34.2933 37.8144 34.0359 37.5569L31.55 35.071C31.0351 34.5561 31.0351 33.7214 31.55 33.2066C32.0648 32.6917 32.8996 32.6917 33.4144 33.2066L34.9682 34.7602L39.0078 30.7207C39.5226 30.2058 40.3574 30.2058 40.8722 30.7207C41.3869 31.2356 41.3869 32.0703 40.872 32.5851Z" fill="#8463EE"/>
</svg>
