<svg width="357" height="286" viewBox="0 0 357 286" fill="none" xmlns="http://www.w3.org/2000/svg">
<path d="M357 0H0V286H357V0Z" fill="#FFF8E5"/>
<path d="M215.757 48.6915L227.295 52.1378L228.723 59.9599L255.955 72.6726C255.741 72.358 243.174 43.043 243.174 43.043L217.627 35.2209L208.488 38.6958L198.649 42.4281C198.649 42.4281 198.264 51.8232 215.757 48.6915Z" fill="#883725"/>
<path d="M198.649 42.4281C198.649 42.4281 199.72 45.6742 205.261 44.8448C210.759 44.0297 208.517 38.7673 208.474 38.6958L198.649 42.4281Z" fill="#F0775C"/>
<path d="M173.573 90.7335C173.573 90.7335 169.004 100.486 144.585 88.6171L126.835 90.9909L89.4642 190.876L87.9934 194.795L84.0092 197.526L67.0446 209.18L61.4183 213.041L23.6334 238.996L20.7631 240.969L0 255.241V184.87C21.4628 162.477 58.3338 122.136 77.1691 90.7335L110.741 68.9975H144.899L173.573 90.7335Z" fill="#883725"/>
<path d="M77.1689 90.7335C77.1689 90.7335 98.5033 59.3736 101.045 57.7577C103.587 56.1418 127.634 61.0038 129.02 61.919C130.405 62.8485 140.958 71.4142 140.958 71.4142L77.1689 90.7335Z" fill="#883725"/>
<path d="M93.5055 78.793C93.3912 78.793 93.2913 78.7358 93.2199 78.65C93.1056 78.4927 93.1342 78.2639 93.2913 78.1495C93.7911 77.792 105.486 69.2406 108.942 67.9679C112.426 66.6952 136.96 68.5685 138.002 68.6543C138.202 68.6686 138.345 68.8402 138.33 69.0404C138.316 69.2406 138.145 69.3836 137.945 69.3693C137.688 69.355 112.512 67.4102 109.185 68.64C105.829 69.8698 93.8339 78.6357 93.7197 78.7358C93.6626 78.7787 93.5769 78.793 93.5055 78.793Z" fill="#02181B"/>
<path d="M162.235 82.1392C162.235 82.1392 159.165 86.5436 163.349 89.9184C167.519 93.2932 173.588 90.7478 173.588 90.7478L162.235 82.1392Z" fill="#F0775C"/>
<path d="M97.0612 121.078C97.0469 121.078 97.0326 121.078 97.0184 121.078C96.8184 121.05 96.6899 120.878 96.7042 120.678L101.202 84.7418C101.231 84.5559 101.374 84.4272 101.559 84.4272C101.559 84.4272 101.559 84.4272 101.574 84.4272C101.745 84.4272 105.829 84.5559 109.028 88.2453C112.155 91.8489 113.283 97.4688 112.398 104.962C112.369 105.162 112.198 105.305 111.998 105.277C111.798 105.248 111.655 105.076 111.684 104.876C112.541 97.5975 111.47 92.1492 108.485 88.7172C105.986 85.8429 102.859 85.2852 101.874 85.1708L97.4182 120.764C97.3896 120.949 97.2326 121.078 97.0612 121.078Z" fill="#02181B"/>
<path d="M101.559 84.7847L100.074 96.6251L100.131 96.1389C104.087 96.6966 106.357 87.0155 101.559 84.7847Z" fill="#F0775C"/>
<path d="M357 195.281V262.262L356.243 261.733L353.53 259.874L318.873 236.079L315.974 234.091L308.134 228.714L305.321 226.784L299.866 223.037L291.469 217.274L264.68 198.87L259.154 195.066L252.214 122.093L195.208 92.2493C177.986 100.701 173.588 91.0052 173.588 91.0052L202.262 69.2692H236.42L269.992 91.0052C292.198 128.014 339.45 177.449 357 195.281Z" fill="#883725"/>
<path d="M240.29 286H189.468C187.283 267.782 178.486 191.634 181.871 172C185.712 149.65 198.036 133.076 198.036 133.076C198.036 133.076 193.109 135.764 192.152 130.673C192.152 130.673 187.954 131.56 187.583 127.642C187.583 127.642 184.855 128.671 183.598 126.097C182.342 123.509 186.397 117.832 191.338 114.743C196.279 111.64 203.276 110.167 211.302 111.497C214.8 112.069 218.042 114.472 220.769 117.317C223.44 120.106 225.61 123.323 227.067 125.74C227.552 126.541 227.938 127.241 228.252 127.813C230.465 131.875 229.951 150.465 229.066 152.081C228.223 153.625 220.341 166.052 218.699 176.391C218.613 176.948 218.542 177.492 218.484 178.035C217.542 188.074 238.077 276.533 240.29 286Z" fill="#F0775C"/>
<path d="M216.542 143.358C216.342 143.358 216.185 143.2 216.185 143C216.185 142.843 215.985 126.598 215.5 124.367C215.285 123.352 212.715 120.149 209.788 117.217C206.475 113.9 203.676 111.883 202.662 112.083C201.891 112.226 201.305 112.827 201.034 113.771C200.52 115.558 201.177 118.476 203.833 120.949C203.876 120.992 203.904 121.05 203.933 121.107L205.632 126.269C205.689 126.455 205.604 126.641 205.418 126.712C205.375 126.727 201.577 128.285 198.321 133.262C198.207 133.433 197.992 133.476 197.821 133.362C197.65 133.247 197.607 133.033 197.721 132.861C200.606 128.457 203.847 126.655 204.847 126.169L203.276 121.378C200.448 118.719 199.763 115.53 200.349 113.542C200.691 112.341 201.491 111.54 202.533 111.354C204.318 111.025 208.16 114.557 210.302 116.688C213.015 119.405 215.914 122.851 216.199 124.196C216.699 126.498 216.899 142.299 216.899 142.971C216.913 143.2 216.742 143.358 216.542 143.358Z" fill="#02181B"/>
<path d="M192.137 131.031C191.966 131.031 191.809 130.902 191.78 130.716C191.751 130.516 191.894 130.345 192.08 130.316C192.123 130.316 196.835 129.615 197.935 127.213C198.02 127.027 198.235 126.955 198.406 127.041C198.592 127.127 198.663 127.342 198.577 127.513C197.321 130.287 192.38 131.002 192.166 131.031C192.166 131.017 192.151 131.031 192.137 131.031Z" fill="#02181B"/>
<path d="M187.568 127.999C187.41 127.999 187.268 127.899 187.225 127.728C187.182 127.542 187.296 127.341 187.482 127.299C187.553 127.284 194.036 125.597 195.464 123.595C195.579 123.438 195.807 123.395 195.964 123.509C196.121 123.623 196.164 123.852 196.05 124.01C194.465 126.212 187.939 127.913 187.667 127.985C187.625 127.999 187.596 127.999 187.568 127.999Z" fill="#02181B"/>
<path d="M275.29 190.905L263.167 168.955C263.167 168.955 264.023 131.717 260.182 125.726C256.355 119.734 226.781 88.6314 226.781 88.6314L195.208 92.2493L177.001 109.509C177.001 109.509 180.614 114.758 189.553 111.712C198.492 108.651 200.62 105.892 201.263 105.677C201.905 105.463 220.626 108.237 220.626 108.237C220.626 108.237 215.214 113.614 227.067 125.726L229.066 152.066C229.066 152.066 211.687 162.348 221.697 189.203C231.708 216.059 237.448 219.891 237.862 219.248C238.276 218.604 275.29 190.905 275.29 190.905Z" fill="#FFC79C"/>
<path d="M252.213 139.64C252.085 139.64 251.971 139.568 251.899 139.454L238.719 116.188L224.01 105.334C223.439 105.691 221.711 106.821 220.926 108.38C220.84 108.551 220.626 108.623 220.44 108.537C220.269 108.451 220.198 108.237 220.283 108.051C221.326 105.977 223.753 104.647 223.853 104.59C223.982 104.519 224.125 104.533 224.239 104.619L239.19 115.658C239.233 115.687 239.261 115.73 239.29 115.773L252.513 139.096C252.613 139.268 252.556 139.482 252.385 139.582C252.328 139.625 252.271 139.64 252.213 139.64Z" fill="#02181B"/>
<path d="M231.122 112.484C227.652 114.271 218.212 108.065 215.856 102.717C213.486 97.3544 237.262 109.323 231.122 112.484Z" fill="#75192E"/>
<path d="M188.568 101.959C189.239 105.806 180.514 112.984 174.702 113.642C168.89 114.3 187.397 95.1522 188.568 101.959Z" fill="#75192E"/>
<path d="M357 241.799V286H254.227C253.598 285.056 252.984 284.098 252.413 283.126C251.899 282.268 251.413 281.41 250.956 280.537C243.759 267.095 241.332 251.666 240.589 240.612C240.518 239.568 240.461 238.553 240.418 237.594C240.104 230.43 240.475 225.725 240.475 225.725C230.864 223.538 230.336 217.117 232.635 213.413C233.563 211.926 234.963 210.868 236.405 210.71C241.432 210.167 247.144 208.666 248.158 200.472C248.943 194.237 255.055 196.511 259.125 195.081C260.396 194.637 261.481 193.822 262.123 192.278C264.851 185.786 266.55 186.472 272.148 185.256C277.731 184.041 275.418 177.592 282.587 178.278C289.741 178.964 282.587 196.711 282.587 196.711C284.315 196.282 286.042 196.01 287.785 195.881C288.741 195.81 289.698 195.781 290.655 195.796C307.648 195.996 325.241 208.837 338.436 221.435C339.293 222.251 340.121 223.051 340.935 223.866C348.146 230.988 353.815 237.78 357 241.799Z" fill="#75192E"/>
<path d="M171.874 286H121.223C124.736 270.871 143.557 189.232 142.671 179.594C141.686 168.969 132.975 155.269 132.09 153.639C131.204 152.023 130.69 133.419 132.904 129.372C135.117 125.311 141.814 114.4 149.854 113.07C154.052 112.384 157.965 112.455 161.449 113.113C163.463 113.499 165.334 114.085 167.033 114.843C168.018 115.287 168.961 115.773 169.817 116.316C174.758 119.419 178.814 125.096 177.557 127.685C176.301 130.273 173.573 129.229 173.573 129.229C173.202 133.147 169.004 132.261 169.004 132.261C168.047 137.352 163.12 134.663 163.12 134.663C163.12 134.663 175.43 151.237 179.285 173.588C182.584 192.693 174.33 265.337 171.874 286Z" fill="#F0775C"/>
<path d="M144.599 144.945C144.399 144.945 144.242 144.787 144.242 144.587C144.256 143.915 144.442 128.114 144.942 125.811C145.228 124.467 148.126 121.021 150.84 118.304C152.967 116.173 156.823 112.641 158.608 112.97C159.65 113.156 160.45 113.957 160.793 115.158C161.364 117.146 160.678 120.334 157.865 122.994L156.295 127.785C157.294 128.271 160.536 130.073 163.42 134.477C163.534 134.649 163.477 134.863 163.32 134.978C163.163 135.092 162.935 135.035 162.82 134.878C159.55 129.887 155.752 128.342 155.723 128.328C155.552 128.257 155.452 128.071 155.509 127.885L157.208 122.694C157.223 122.637 157.266 122.58 157.308 122.537C159.964 120.063 160.636 117.146 160.107 115.358C159.836 114.414 159.25 113.814 158.479 113.671C157.451 113.485 154.652 115.501 151.354 118.804C148.426 121.736 145.87 124.939 145.642 125.954C145.156 128.185 144.956 144.43 144.956 144.587C144.956 144.787 144.799 144.945 144.599 144.945Z" fill="#02181B"/>
<path d="M169.004 132.604C168.99 132.604 168.975 132.604 168.961 132.604C168.747 132.575 163.806 131.846 162.549 129.086C162.464 128.9 162.549 128.7 162.721 128.614C162.906 128.528 163.106 128.614 163.192 128.786C164.291 131.202 169.004 131.889 169.047 131.889C169.247 131.917 169.375 132.103 169.347 132.289C169.332 132.475 169.189 132.604 169.004 132.604Z" fill="#02181B"/>
<path d="M173.574 129.587C173.545 129.587 173.516 129.587 173.488 129.572C173.217 129.501 166.676 127.799 165.106 125.597C164.991 125.44 165.034 125.211 165.191 125.096C165.348 124.982 165.577 125.025 165.691 125.182C167.119 127.17 173.616 128.872 173.674 128.886C173.859 128.929 173.973 129.129 173.931 129.315C173.888 129.472 173.745 129.587 173.574 129.587Z" fill="#02181B"/>
<path d="M78.3398 193.279L90.4636 171.328C90.4636 171.328 89.6068 134.091 93.4481 128.099C97.2751 122.108 126.849 91.0052 126.849 91.0052L158.422 94.6231L176.643 111.883C176.643 111.883 173.031 117.131 164.091 114.085C155.152 111.025 153.024 108.265 152.382 108.051C151.739 107.836 133.018 110.611 133.018 110.611C133.018 110.611 138.43 115.987 126.578 128.099L127.492 146.046C127.492 146.046 141.957 164.722 131.961 191.563C121.965 218.404 116.21 222.251 115.796 221.607C115.382 220.964 78.3398 193.279 78.3398 193.279Z" fill="#FFC79C"/>
<path d="M101.416 142.013C101.359 142.013 101.302 141.999 101.245 141.97C101.074 141.87 101.017 141.656 101.117 141.484L114.34 118.161C114.368 118.118 114.397 118.075 114.44 118.046L129.391 107.007C129.505 106.921 129.648 106.921 129.777 106.978C129.876 107.035 132.304 108.365 133.347 110.439C133.432 110.61 133.361 110.825 133.189 110.925C133.018 111.011 132.804 110.939 132.704 110.768C131.919 109.209 130.191 108.065 129.619 107.722L114.911 118.576L101.731 141.842C101.673 141.942 101.545 142.013 101.416 142.013Z" fill="#02181B"/>
<path d="M122.508 114.858C125.978 116.645 135.417 110.439 137.773 105.091C140.144 99.7282 116.368 111.697 122.508 114.858Z" fill="#75192E"/>
<path d="M165.063 104.333C164.392 108.179 173.117 115.358 178.929 116.016C184.741 116.674 166.234 97.526 165.063 104.333Z" fill="#75192E"/>
<path d="M113.155 228.099C113.155 228.099 113.54 232.804 113.212 239.968C113.169 240.926 113.112 241.942 113.04 242.986C112.598 249.535 111.57 257.629 109.299 265.937C109.056 266.852 108.785 267.768 108.499 268.683C107.029 273.488 105.129 278.307 102.673 282.911C102.202 283.784 101.716 284.656 101.217 285.499C101.117 285.671 101.017 285.828 100.917 286H0V240.04C3.22728 236.193 7.5684 231.288 12.6949 226.212C13.5089 225.411 14.3371 224.596 15.1939 223.781C18.5926 220.535 22.2768 217.288 26.1752 214.228C26.9321 213.628 27.7032 213.041 28.4743 212.469C35.957 206.878 44.1252 202.145 52.3933 199.785C53.5072 199.471 54.621 199.185 55.7348 198.956C58.1482 198.455 60.5758 198.169 62.9748 198.141C63.9316 198.127 64.8883 198.155 65.8451 198.227C67.5872 198.355 69.3294 198.627 71.043 199.056C71.043 199.056 63.8887 181.31 71.043 180.623C78.1973 179.937 75.8839 186.386 81.4817 187.602C85.6229 188.503 87.6221 188.36 89.4928 190.862C90.1496 191.734 90.7922 192.936 91.492 194.623C94.2194 201.115 104.444 194.637 105.472 202.817C106.5 211.011 112.198 212.512 117.225 213.056C118.667 213.213 120.066 214.257 120.994 215.758C123.294 219.476 122.765 225.911 113.155 228.099Z" fill="#75192E"/>
<path d="M338.451 221.407C338.322 222.765 337.994 224.124 337.394 225.425C336.309 227.828 334.009 229.844 331.41 230.673C329.397 231.317 327.412 231.16 325.841 230.244C325.499 230.044 325.156 229.815 324.785 229.558C323.514 228.686 321.943 227.599 320.015 227.942C317.145 228.428 316.06 231.403 315.96 234.105C315.945 234.377 315.945 234.649 315.96 234.92C315.96 235.078 315.974 235.221 315.974 235.378C316.045 237.28 316.131 239.253 315.046 240.168C314.075 240.998 312.361 240.669 311.19 240.011C308.705 238.624 307.149 235.664 307.392 232.818C307.449 232.132 307.606 231.417 307.763 230.659C307.891 230.03 308.034 229.372 308.12 228.7C308.277 227.499 308.277 226.255 307.777 225.025C306.406 221.55 302.279 220.635 299.566 220.034C297.681 219.619 294.468 218.575 294.211 216.373C294.068 215.143 294.868 213.842 295.739 212.455C296.653 210.982 297.681 209.338 297.681 207.464C297.681 207.078 297.638 206.678 297.538 206.278C297.01 204.061 295.311 202.774 293.811 201.63C292.683 200.772 291.612 199.971 291.155 198.884C290.784 197.998 290.627 196.868 290.684 195.767C289.727 195.753 288.77 195.781 287.814 195.853C287.771 197.311 287.999 198.77 288.528 200C289.284 201.787 290.77 202.917 292.083 203.904C292.726 204.39 293.326 204.848 293.797 205.319C294.268 205.806 294.625 206.32 294.768 206.921C295.054 208.137 294.254 209.424 293.326 210.925C292.298 212.584 291.127 214.471 291.384 216.688C291.412 216.874 291.441 217.06 291.484 217.246C292.083 219.934 294.654 221.836 298.966 222.794C299.281 222.866 299.58 222.937 299.88 223.009C302.336 223.595 304.478 224.353 305.15 226.054C305.235 226.283 305.292 226.512 305.335 226.755C305.478 227.742 305.25 228.871 304.992 230.044C304.821 230.845 304.65 231.689 304.578 232.547C304.236 236.536 306.349 240.526 309.833 242.485C310.862 243.057 312.204 243.5 313.575 243.5C314.746 243.5 315.931 243.171 316.931 242.313C318.83 240.698 318.958 238.224 318.901 236.05C318.887 235.764 318.887 235.492 318.873 235.221C318.873 235.063 318.858 234.92 318.858 234.777C318.801 233.276 319.215 230.959 320.543 230.731C321.329 230.602 322.243 231.231 323.228 231.889C323.628 232.16 324.028 232.432 324.456 232.69C326.741 234.019 329.54 234.277 332.339 233.376C335.68 232.304 338.636 229.715 340.05 226.598C340.464 225.683 340.778 224.753 340.992 223.824C340.136 223.023 339.293 222.222 338.451 221.407Z" fill="#FFF8E5"/>
<path d="M282.287 255.112C280.631 251.237 275.59 250.336 271.463 251.437C271.163 251.523 270.863 251.608 270.563 251.694C269.564 251.995 268.621 252.266 267.75 252.223C266.979 252.18 266.065 251.709 265.98 251.094C265.865 250.25 267.108 249.263 268.05 248.605C270.192 247.118 272.406 245.459 273.948 243.1C275.747 240.34 276.133 237.051 274.933 234.52C274.191 232.933 272.705 231.674 270.978 231.131C269.435 230.659 267.893 230.802 266.622 231.546C265.166 232.389 264.252 233.848 263.452 235.135C262.467 236.694 261.81 237.666 260.839 237.695C260.824 237.695 260.81 237.695 260.796 237.695C259.896 237.695 259.054 236.679 258.754 235.693C258.454 234.692 258.468 233.548 258.468 232.346C258.468 231.96 258.483 231.546 258.468 231.145C258.454 230.659 258.44 229.658 257.797 228.843C256.983 227.828 255.698 227.699 255.084 227.642C253.099 227.456 250.8 227.327 248.729 228.314C246.345 229.443 244.945 231.717 243.717 233.719L243.617 233.876C242.832 235.149 241.789 236.837 240.433 237.58C240.475 238.538 240.533 239.554 240.604 240.597C240.704 240.569 240.818 240.526 240.918 240.497C243.446 239.582 245.002 237.051 246.045 235.378L246.145 235.221C247.23 233.476 248.329 231.674 249.957 230.902C251.357 230.23 253.128 230.33 254.813 230.502C255.298 230.545 255.484 230.602 255.569 230.645C255.584 230.702 255.612 230.859 255.627 231.202C255.627 231.574 255.627 231.932 255.627 232.318C255.612 233.676 255.598 235.092 256.026 236.508C256.612 238.467 258.354 240.54 260.796 240.54C260.839 240.54 260.882 240.54 260.924 240.54C263.466 240.469 264.794 238.352 265.865 236.651C266.565 235.55 267.222 234.506 268.064 234.005C268.836 233.548 269.692 233.719 270.135 233.848C271.106 234.148 271.949 234.863 272.363 235.721C273.291 237.68 272.563 239.997 271.577 241.513C270.321 243.443 268.35 244.902 266.437 246.232C265.351 246.99 262.795 248.777 263.166 251.451C263.466 253.668 265.694 254.955 267.636 255.055C268.993 255.112 270.221 254.754 271.392 254.411C271.677 254.325 271.949 254.24 272.22 254.168C275.09 253.396 278.674 253.839 279.688 256.199C280.245 257.486 279.874 259.245 278.774 260.575C277.803 261.747 276.29 262.691 274.162 263.449L274.062 263.477C273.362 263.721 272.477 264.035 271.82 264.793C270.549 266.237 270.892 268.297 271.792 269.698C272.234 270.37 272.748 270.913 273.248 271.428C273.562 271.757 273.862 272.072 274.119 272.386C275.49 274.131 275.604 276.834 274.376 278.678C273.148 280.523 270.621 281.481 268.479 280.895C267.208 280.552 266.008 279.722 264.737 278.85C262.867 277.563 260.924 276.233 258.44 276.233H258.425C255.212 276.233 253.042 278.335 250.971 280.466C251.443 281.338 251.928 282.21 252.428 283.054L252.742 282.725C254.641 280.766 256.283 279.079 258.425 279.079H258.44C260.053 279.079 261.538 280.108 263.124 281.195C264.537 282.153 265.98 283.154 267.722 283.626C271.049 284.527 274.847 283.111 276.747 280.223C278.646 277.348 278.489 273.287 276.361 270.585C276.018 270.141 275.647 269.769 275.29 269.398C274.862 268.954 274.462 268.554 274.191 268.111C273.848 267.567 273.748 266.895 273.976 266.638C274.148 266.438 274.59 266.28 275.019 266.137L275.119 266.109C277.746 265.179 279.66 263.949 280.974 262.362C282.73 260.274 283.258 257.4 282.287 255.112Z" fill="#FFF8E5"/>
<path d="M353.516 259.874C352.588 260.403 351.745 261.032 351.003 261.776C348.675 264.107 345.591 267.224 342.135 267.224C341.721 267.224 341.307 267.181 340.878 267.081C338.679 266.595 336.98 264.807 335.18 262.92C334.566 262.291 333.952 261.633 333.295 261.018C330.468 258.387 326.998 256.528 323.242 255.627C321.1 255.112 319.372 255.083 317.845 255.541C315.674 256.17 314.032 257.858 313.66 259.817C313.132 262.577 315.074 264.965 316.902 266.18C317.93 266.867 319.015 267.339 320.072 267.796C320.843 268.139 321.586 268.454 322.271 268.84C322.371 268.897 322.685 269.083 322.771 269.198C322.857 269.326 322.728 269.812 322.357 270.141C321.957 270.499 321.386 270.756 320.772 271.028C320.486 271.157 320.186 271.285 319.887 271.443C317.587 272.615 315.86 274.574 315.131 276.848C314.332 279.379 314.874 282.225 316.531 284.112C317.273 284.942 318.144 285.542 319.087 285.986H330.925C329.169 285.113 327.112 284.827 325.199 284.541C322.571 284.17 320.086 283.812 318.673 282.211C317.673 281.067 317.345 279.308 317.845 277.706C318.33 276.162 319.544 274.803 321.157 273.988C321.4 273.874 321.643 273.759 321.914 273.631C322.657 273.302 323.485 272.93 324.213 272.286C325.441 271.2 326.184 269.198 325.127 267.61C324.727 266.995 324.156 266.624 323.656 266.338C322.843 265.88 322 265.508 321.186 265.151C320.201 264.722 319.273 264.321 318.459 263.778C317.273 262.991 316.202 261.633 316.445 260.346C316.645 259.302 317.687 258.544 318.63 258.272C319.087 258.144 319.587 258.072 320.144 258.072C320.843 258.072 321.643 258.187 322.571 258.401C325.841 259.173 328.869 260.803 331.339 263.091C331.939 263.649 332.51 264.235 333.11 264.879C335.123 266.981 337.208 269.155 340.25 269.841C340.907 269.984 341.549 270.056 342.163 270.056C346.776 270.056 350.474 266.338 353.03 263.764C353.902 262.877 355.015 262.176 356.229 261.704C356.486 261.604 356.729 261.518 356.986 261.447V258.487C355.786 258.801 354.601 259.259 353.516 259.874Z" fill="#FFF8E5"/>
<path d="M89.778 239.811C89.0926 237.108 87.4075 234.82 85.1656 233.562C84.2802 233.061 83.352 232.718 82.4666 232.389C81.5527 232.046 80.6816 231.717 79.9391 231.26C78.8538 230.573 77.9684 229.172 78.4397 228.257C78.6253 227.899 79.0252 227.556 79.4678 227.184C79.6535 227.027 79.8391 226.855 80.039 226.684C81.7955 225.039 82.8236 222.68 82.9236 220.063C83.0236 217.56 82.2382 215.043 80.7673 213.156C77.897 209.481 72.6991 207.822 67.8011 209.023C67.5583 209.08 67.3156 209.152 67.0728 209.223C66.7015 209.338 66.3302 209.452 65.959 209.552C64.0883 210.124 62.3318 210.668 61.0038 209.967C59.5615 209.209 59.1617 207.708 58.6762 205.319C58.3906 203.889 58.0764 202.402 57.3338 201.101C56.8912 200.329 56.3485 199.614 55.7345 198.97C54.6206 199.199 53.5068 199.471 52.393 199.8C53.3354 200.486 54.1922 201.387 54.8634 202.545C55.3775 203.432 55.6202 204.633 55.8773 205.891C56.12 207.107 56.3914 208.394 56.934 209.567C57.4766 210.739 58.3049 211.783 59.69 212.498C60.2755 212.798 60.861 212.984 61.4608 213.07C63.2886 213.356 65.1307 212.784 66.8158 212.269C67.4012 212.083 67.9582 211.912 68.5008 211.783C72.2564 210.868 76.3834 212.141 78.5254 214.9C80.753 217.76 80.5531 222.279 78.097 224.582C77.9542 224.71 77.7971 224.853 77.6257 224.996C77.026 225.511 76.3548 226.083 75.9121 226.941C74.6698 229.372 76.212 232.275 78.4397 233.676C79.425 234.291 80.4817 234.692 81.4813 235.063C82.3096 235.364 83.0807 235.664 83.7661 236.05C85.3369 236.937 86.5222 238.567 87.022 240.526C87.5218 242.485 87.2647 244.473 86.308 246.017C85.3655 247.547 83.6804 248.677 81.7098 249.092C79.7392 249.506 77.7542 249.178 76.2548 248.162C75.1267 247.39 74.0557 246.217 73.0276 245.088C70.9141 242.771 68.5294 240.154 64.9879 240.512C60.6611 240.955 58.5334 245.588 57.9907 249.778C57.9336 250.221 57.8765 250.665 57.8336 251.108C57.4909 254.04 57.1339 257.085 55.1918 258.744C54.2494 259.545 52.9356 259.917 51.5076 259.774C49.7369 259.602 47.9662 258.658 46.9094 257.314C45.0102 254.926 44.4961 251.222 45.5386 247.433C45.6814 246.918 45.8384 246.375 46.0241 245.817C46.8666 243.086 47.8234 239.997 46.2954 237.18C45.1816 235.135 43.0681 233.919 40.3549 233.762C40.1407 233.748 39.9122 233.748 39.698 233.748C37.7131 233.748 35.5283 234.263 33.6005 235.206C32.8008 235.593 32.0011 236.022 31.23 236.451C28.631 237.852 26.1749 239.182 23.6759 239.01C23.5188 238.996 23.3617 238.982 23.2046 238.967C22.8476 238.91 22.7191 238.853 22.6906 238.824C22.6763 238.781 22.6192 238.624 22.6049 238.167C22.562 233.276 26.0464 228.528 30.7159 227.098C31.1158 226.97 31.5442 226.855 32.0011 226.741C34.6286 226.026 37.8988 225.139 38.6128 221.965C39.2125 219.276 37.2704 216.845 35.0713 215.644C34.1288 215.129 33.1721 214.772 32.2296 214.429C31.3014 214.085 30.416 213.771 29.6449 213.313C29.2308 213.07 28.831 212.784 28.474 212.455C27.7028 213.027 26.9317 213.613 26.1749 214.214C26.7889 214.829 27.4601 215.358 28.2026 215.787C29.2022 216.359 30.2304 216.745 31.23 217.103C32.1011 217.417 32.9293 217.718 33.6719 218.132C34.9285 218.819 36.0566 220.134 35.7996 221.321C35.4997 222.694 33.7147 223.28 31.23 223.952C30.773 224.081 30.3161 224.21 29.8591 224.338C27.0174 225.211 24.4327 227.084 22.562 229.615C20.7056 232.146 19.6918 235.192 19.7203 238.167C19.7203 238.939 19.8203 239.925 20.5343 240.712C20.6057 240.798 20.6914 240.869 20.777 240.941C21.5196 241.584 22.4478 241.713 22.7762 241.756C26.3748 242.271 29.5164 240.569 32.558 238.939C33.3434 238.524 34.0717 238.124 34.8286 237.752C37.6274 236.393 42.2684 235.736 43.7821 238.538C44.7389 240.283 44.0392 242.557 43.2966 244.945C43.1252 245.502 42.9396 246.089 42.7825 246.646C41.5116 251.323 42.2113 255.956 44.6675 259.059C46.224 261.018 48.6659 262.333 51.2363 262.577C51.5219 262.605 51.8218 262.62 52.1074 262.62C53.9923 262.62 55.7202 262.005 57.0625 260.875C59.8614 258.487 60.3041 254.712 60.6896 251.394C60.7325 250.951 60.7896 250.522 60.8467 250.093C61.2323 247.133 62.6317 243.572 65.3021 243.3C67.4155 243.086 69.0434 244.873 70.9427 246.961C72.0851 248.219 73.2703 249.521 74.684 250.479C76.8118 251.923 79.5964 252.409 82.3238 251.823C85.0513 251.237 87.3932 249.649 88.7498 247.462C90.0922 245.331 90.4634 242.514 89.778 239.811Z" fill="#FFF8E5"/>
<path d="M109.142 265.88C106.614 265.179 103.772 266.409 101.331 269.283C101.016 269.655 100.702 270.041 100.402 270.413C99.2029 271.9 98.0747 273.302 96.5753 273.888C96.1327 274.06 95.9756 274.017 95.9756 274.002C95.9042 273.974 95.6186 273.602 95.6329 272.344L95.6471 271.757C95.7043 268.497 95.7614 264.807 93.7051 261.862C90.7491 257.629 85.0514 257.114 80.7959 257.414C78.5397 257.572 75.9693 257.972 74.0558 259.702C72.5992 261.018 71.7995 262.92 71.8138 265.079C71.8281 267.81 73.1133 270.642 75.1839 272.458C75.5409 272.773 75.9122 273.073 76.2692 273.359C77.3545 274.217 78.3683 275.018 78.5683 276.019C78.8253 277.32 77.5401 278.664 76.2121 279.279C75.2553 279.722 74.17 279.965 73.0419 280.209C72.1708 280.409 71.2569 280.609 70.3715 280.909C69.5147 281.195 68.2867 281.71 67.4156 282.783C66.8587 283.469 66.4874 284.341 66.2732 285.442C66.2303 285.628 66.2018 285.828 66.1875 286.014H69.0863C69.0863 286 69.0863 286 69.0863 285.986C69.2149 285.357 69.3862 284.899 69.6433 284.584C69.9574 284.198 70.4715 283.898 71.2997 283.612C72.0566 283.355 72.842 283.183 73.6845 282.997C74.9126 282.725 76.1835 282.439 77.4259 281.867C79.7392 280.809 81.9669 278.35 81.3957 275.461C80.9959 273.43 79.4393 272.201 78.0685 271.114C77.7257 270.842 77.3973 270.57 77.0974 270.313C75.6551 269.04 74.7127 266.981 74.6984 265.065C74.6984 264.121 74.9126 262.805 75.9836 261.833C77.2545 260.689 79.2394 260.403 81.0244 260.274C81.5956 260.231 82.1811 260.203 82.7951 260.203C85.9796 260.203 89.5496 260.875 91.3917 263.506C92.9197 265.68 92.8625 268.754 92.8197 271.714L92.8054 272.301C92.7626 275.261 93.9907 276.319 95.0331 276.705C95.8042 276.977 96.6753 276.934 97.6321 276.562C99.8455 275.704 101.345 273.859 102.659 272.215C102.958 271.843 103.244 271.486 103.544 271.142C104.172 270.413 106.357 268.068 108.413 268.64C108.456 268.654 108.499 268.668 108.542 268.683C108.828 267.768 109.085 266.852 109.342 265.937C109.256 265.909 109.199 265.894 109.142 265.88Z" fill="#FFF8E5"/>
<path d="M269.977 91.0052C269.977 91.0052 248.643 59.6453 246.101 58.0294C243.559 56.4135 219.512 61.2755 218.127 62.1907C216.741 63.1059 206.188 71.6859 206.188 71.6859L269.977 91.0052Z" fill="#883725"/>
<path d="M26.9035 283.097C27.7603 283.927 28.2744 284.942 28.5314 286H25.5184C25.3756 285.685 25.1756 285.399 24.9186 285.156C24.5045 284.756 23.9333 284.441 23.3192 284.098C22.2768 283.512 21.0916 282.854 20.349 281.596C18.9924 279.265 20.1634 276.462 20.5489 275.547C21.2058 273.974 22.0198 272.444 22.9622 271.028C23.2193 270.642 23.4906 270.256 23.7476 269.87C24.5473 268.711 25.3184 267.624 25.7326 266.438C26.161 265.222 26.1895 263.52 25.2328 262.648C24.0904 261.59 21.9769 262.062 20.5918 263.049C19.6207 263.735 18.7925 264.636 17.9071 265.594C17.2217 266.338 16.4934 267.11 15.6937 267.81C13.6802 269.541 10.5244 270.914 7.72548 269.526C6.26892 268.797 5.355 267.539 4.55532 266.409C4.38396 266.18 4.22688 265.951 4.0698 265.737C2.97024 264.264 1.5708 263.063 0 262.148V258.916C2.54184 260.117 4.74096 261.862 6.3546 264.007C6.54024 264.25 6.7116 264.493 6.88296 264.736C7.55412 265.665 8.19672 266.552 9.01068 266.967C10.5529 267.739 12.5807 266.738 13.8373 265.651C14.5228 265.065 15.1511 264.378 15.8222 263.663C16.7647 262.648 17.7358 261.59 18.9496 260.732C21.32 259.059 24.9043 258.458 27.1748 260.56C28.8599 262.119 29.3597 264.807 28.4315 267.41C27.8746 268.969 26.9749 270.27 26.0896 271.528C25.8325 271.9 25.5755 272.258 25.347 272.615C24.5045 273.888 23.7762 275.261 23.1764 276.662C22.5053 278.278 22.3768 279.422 22.8052 280.166C23.1479 280.752 23.8619 281.152 24.6901 281.61C25.4327 281.996 26.2324 282.439 26.9035 283.097Z" fill="#FFF8E5"/>
<path d="M253.641 79.0647C253.57 79.0647 253.499 79.0361 253.427 78.9932C253.313 78.9074 241.318 70.1415 237.962 68.8974C234.635 67.6676 209.445 69.5981 209.202 69.6267C209.002 69.641 208.831 69.498 208.816 69.2978C208.802 69.0976 208.945 68.926 209.145 68.9117C210.187 68.8259 234.735 66.9526 238.205 68.2253C241.66 69.498 253.356 78.0494 253.856 78.4069C254.013 78.5213 254.055 78.7501 253.927 78.9074C253.87 79.0075 253.756 79.0647 253.641 79.0647Z" fill="#02181B"/>
<path d="M184.926 82.3966C184.926 82.3966 187.996 86.801 183.812 90.1758C179.642 93.5506 173.573 91.0052 173.573 91.0052L184.926 82.3966Z" fill="#F0775C"/>
<path d="M249.043 112.941C248.871 112.941 248.714 112.813 248.686 112.627L245.287 85.4997C244.445 85.7285 242.331 86.4006 240.303 87.802C236.848 90.1758 235.234 93.4362 235.491 97.4688C235.505 97.669 235.348 97.8406 235.163 97.8549C234.963 97.8692 234.791 97.7119 234.777 97.526C234.506 93.2646 236.276 89.7039 239.918 87.2014C242.645 85.3281 245.401 84.7275 245.516 84.6989C245.616 84.6846 245.716 84.6989 245.801 84.7561C245.887 84.8133 245.93 84.8991 245.944 84.9992L249.386 112.527C249.414 112.727 249.271 112.898 249.071 112.927C249.071 112.941 249.057 112.941 249.043 112.941Z" fill="#02181B"/>
<path d="M245.602 85.0564C240.804 87.2872 243.074 96.9683 247.03 96.4106L247.087 96.8968L245.602 85.0564Z" fill="#F0775C"/>
<path d="M127.492 52.0949L115.953 55.5269L114.525 63.349L87.3076 76.076C87.5218 75.7614 100.088 46.4464 100.088 46.4464L125.635 38.6243L134.774 42.0992L144.613 45.8315C144.599 45.8315 144.985 55.2123 127.492 52.0949Z" fill="#883725"/>
<path d="M91.4781 70.6849C91.4067 70.6849 91.3353 70.6563 91.2639 70.6134C91.1069 70.499 91.0783 70.2702 91.1925 70.1129C92.1065 68.8831 100.146 58.0866 102.474 57.3573C104.816 56.628 114.983 58.4441 115.411 58.5156C115.611 58.5442 115.74 58.7301 115.697 58.9303C115.668 59.1305 115.483 59.2592 115.283 59.2163C111.684 58.5728 104.43 57.486 102.688 58.0294C100.903 58.5871 94.2056 67.2386 91.7637 70.5276C91.6923 70.6277 91.5924 70.6849 91.4781 70.6849Z" fill="#02181B"/>
<path d="M144.599 45.8315C144.599 45.8315 143.528 49.0776 137.987 48.2482C132.489 47.4331 134.731 42.1707 134.774 42.0992L144.599 45.8315Z" fill="#F0775C"/>
<path d="M253.113 66.8811C252.999 66.8811 252.885 66.8239 252.813 66.7095C252.756 66.6237 247.701 58.5728 243.731 58.0437C239.661 57.5003 228.908 60.2745 228.808 60.3031C228.623 60.346 228.423 60.2316 228.38 60.0457C228.337 59.8598 228.451 59.6596 228.637 59.6167C229.08 59.5023 239.618 56.7853 243.831 57.343C248.144 57.915 253.213 65.9945 253.427 66.3377C253.527 66.5093 253.484 66.7238 253.313 66.8239C253.242 66.8668 253.184 66.8811 253.113 66.8811Z" fill="#02181B"/>
</svg>
