<svg width="14" height="14" viewBox="0 0 14 14" fill="none" xmlns="http://www.w3.org/2000/svg">
<path d="M7.00283 3.85537C5.26377 3.85537 3.86103 5.25811 3.86103 6.99717C3.86103 8.73623 5.26377 10.139 7.00283 10.139C8.74189 10.139 10.1446 8.73623 10.1446 6.99717C10.1446 5.25811 8.74189 3.85537 7.00283 3.85537ZM7.00283 9.03975C5.879 9.03975 4.96025 8.12373 4.96025 6.99717C4.96025 5.87061 5.87627 4.95459 7.00283 4.95459C8.12939 4.95459 9.04541 5.87061 9.04541 6.99717C9.04541 8.12373 8.12666 9.03975 7.00283 9.03975ZM11.006 3.72686C11.006 4.13428 10.6778 4.45967 10.2731 4.45967C9.86572 4.45967 9.54033 4.13154 9.54033 3.72686C9.54033 3.32217 9.86846 2.99404 10.2731 2.99404C10.6778 2.99404 11.006 3.32217 11.006 3.72686ZM13.0868 4.47061C13.0403 3.48896 12.8161 2.61943 12.097 1.90303C11.3806 1.18662 10.511 0.962402 9.5294 0.913184C8.51768 0.855762 5.48525 0.855762 4.47354 0.913184C3.49463 0.959668 2.6251 1.18389 1.90596 1.90029C1.18682 2.6167 0.965332 3.48623 0.916113 4.46787C0.858691 5.47959 0.858691 8.51201 0.916113 9.52373C0.962598 10.5054 1.18682 11.3749 1.90596 12.0913C2.6251 12.8077 3.49189 13.0319 4.47354 13.0812C5.48525 13.1386 8.51768 13.1386 9.5294 13.0812C10.511 13.0347 11.3806 12.8104 12.097 12.0913C12.8134 11.3749 13.0376 10.5054 13.0868 9.52373C13.1442 8.51201 13.1442 5.48232 13.0868 4.47061ZM11.7798 10.6093C11.5665 11.1452 11.1536 11.5581 10.6149 11.7741C9.8083 12.094 7.89424 12.0202 7.00283 12.0202C6.11143 12.0202 4.19463 12.0913 3.39072 11.7741C2.85479 11.5608 2.44189 11.1479 2.22588 10.6093C1.90596 9.80264 1.97979 7.88857 1.97979 6.99717C1.97979 6.10576 1.90869 4.18896 2.22588 3.38506C2.43916 2.84912 2.85205 2.43623 3.39072 2.22021C4.19736 1.90029 6.11143 1.97412 7.00283 1.97412C7.89424 1.97412 9.81104 1.90303 10.6149 2.22021C11.1509 2.4335 11.5638 2.84639 11.7798 3.38506C12.0997 4.1917 12.0259 6.10576 12.0259 6.99717C12.0259 7.88857 12.0997 9.80537 11.7798 10.6093Z" fill="white"/>
</svg>
