<svg width="14" height="14" viewBox="0 0 14 14" fill="none" xmlns="http://www.w3.org/2000/svg">
<path d="M13.7812 7C13.7812 10.7461 10.7461 13.7812 7 13.7812C6.3 13.7812 5.62734 13.6746 4.99297 13.4777C5.26914 13.0266 5.68203 12.2883 5.83516 11.7004C5.91719 11.3832 6.25625 10.0871 6.25625 10.0871C6.47773 10.5082 7.12305 10.8664 7.80938 10.8664C9.85469 10.8664 11.3285 8.98516 11.3285 6.64727C11.3285 4.40781 9.49922 2.73164 7.14766 2.73164C4.22187 2.73164 2.66602 4.69492 2.66602 6.83594C2.66602 7.83125 3.19648 9.06992 4.04141 9.46367C4.16992 9.52383 4.23828 9.49648 4.26836 9.37344C4.29023 9.28047 4.40508 8.81836 4.45703 8.60508C4.47344 8.53672 4.46523 8.47656 4.41055 8.41094C4.13438 8.06914 3.91016 7.4457 3.91016 6.86328C3.91016 5.36758 5.04219 3.92109 6.97266 3.92109C8.63789 3.92109 9.80547 5.05586 9.80547 6.68008C9.80547 8.51484 8.87852 9.78633 7.67266 9.78633C7.0082 9.78633 6.50781 9.23672 6.66914 8.56133C6.86055 7.75469 7.22969 6.88516 7.22969 6.30273C7.22969 5.7832 6.95078 5.34844 6.37109 5.34844C5.69023 5.34844 5.14336 6.05117 5.14336 6.99453C5.14336 7.59609 5.3457 8.00078 5.3457 8.00078C5.3457 8.00078 4.67578 10.8391 4.55273 11.3695C4.41602 11.9547 4.4707 12.7805 4.52813 13.3164C2.00703 12.3293 0.21875 9.87383 0.21875 7C0.21875 3.25391 3.25391 0.21875 7 0.21875C10.7461 0.21875 13.7812 3.25391 13.7812 7Z" fill="white"/>
</svg>
