<svg width="20" height="21" viewBox="0 0 20 21" fill="none" xmlns="http://www.w3.org/2000/svg">
<path d="M10 6.54846V18.2151" stroke="#111827" stroke-width="1.66667" stroke-linecap="round" stroke-linejoin="round"/>
<path d="M2.49984 15.7151C2.27882 15.7151 2.06686 15.6273 1.91058 15.471C1.7543 15.3147 1.6665 15.1028 1.6665 14.8818V4.04842C1.6665 3.82741 1.7543 3.61545 1.91058 3.45917C2.06686 3.30289 2.27882 3.21509 2.49984 3.21509H6.6665C7.55056 3.21509 8.39841 3.56628 9.02353 4.1914C9.64865 4.81652 9.99984 5.66437 9.99984 6.54842C9.99984 5.66437 10.351 4.81652 10.9761 4.1914C11.6013 3.56628 12.4491 3.21509 13.3332 3.21509H17.4998C17.7209 3.21509 17.9328 3.30289 18.0891 3.45917C18.2454 3.61545 18.3332 3.82741 18.3332 4.04842V14.8818C18.3332 15.1028 18.2454 15.3147 18.0891 15.471C17.9328 15.6273 17.7209 15.7151 17.4998 15.7151H12.4998C11.8368 15.7151 11.2009 15.9785 10.7321 16.4473C10.2632 16.9162 9.99984 17.552 9.99984 18.2151C9.99984 17.552 9.73645 16.9162 9.2676 16.4473C8.79876 15.9785 8.16288 15.7151 7.49984 15.7151H2.49984Z" stroke="#111827" stroke-width="1.66667" stroke-linecap="round" stroke-linejoin="round"/>
</svg>
