<svg width="20" height="21" viewBox="0 0 20 21" fill="none" xmlns="http://www.w3.org/2000/svg">
<path d="M9.99984 19.0484C14.6022 19.0484 18.3332 15.3174 18.3332 10.715C18.3332 6.11267 14.6022 2.38171 9.99984 2.38171C5.39746 2.38171 1.6665 6.11267 1.6665 10.715C1.6665 15.3174 5.39746 19.0484 9.99984 19.0484Z" stroke="#111827" stroke-width="1.66667" stroke-linecap="round" stroke-linejoin="round"/>
<path d="M10 15.7151C12.7614 15.7151 15 13.4765 15 10.7151C15 7.95366 12.7614 5.71509 10 5.71509C7.23858 5.71509 5 7.95366 5 10.7151C5 13.4765 7.23858 15.7151 10 15.7151Z" stroke="#111827" stroke-width="1.66667" stroke-linecap="round" stroke-linejoin="round"/>
<path d="M10.0002 12.3818C10.9206 12.3818 11.6668 11.6356 11.6668 10.7151C11.6668 9.79465 10.9206 9.04846 10.0002 9.04846C9.07969 9.04846 8.3335 9.79465 8.3335 10.7151C8.3335 11.6356 9.07969 12.3818 10.0002 12.3818Z" stroke="#111827" stroke-width="1.66667" stroke-linecap="round" stroke-linejoin="round"/>
</svg>
