<svg width="75" height="76" viewBox="0 0 75 76" fill="none" xmlns="http://www.w3.org/2000/svg">
<path d="M37.5 8.07324C27.3926 8.07324 19.1895 16.2764 19.1895 26.3838C19.1895 36.4912 27.3779 44.6943 37.5 44.6943C47.6221 44.6943 55.8105 36.5059 55.8105 26.3838C55.8105 16.2617 47.6074 8.07324 37.5 8.07324ZM46.5088 38.1611C46.5088 38.9814 45.835 39.6553 45.0146 39.6553H30.6152C29.7949 39.6553 29.1211 38.9814 29.1211 38.1611V34.7627C29.1211 34.0156 29.6924 33.3711 30.4248 33.2832L33.4131 32.917V20.4512L30.5566 20.4219C29.7363 20.4072 29.0771 19.748 29.0771 18.9277V15.7051C29.0771 14.9727 29.6045 14.3574 30.3223 14.2256L40.4736 12.5117C40.5615 12.4971 40.6348 12.4971 40.7227 12.4971C41.0742 12.4971 41.4111 12.6143 41.6895 12.8486C42.0264 13.127 42.2168 13.5518 42.2168 13.9912V32.9023L45.2051 33.2686C45.9521 33.3564 46.5088 34.001 46.5088 34.748V38.1611ZM40.7227 13.9912L30.5859 15.6904V18.9131L34.9219 18.957V34.2354L30.6152 34.7627V38.1611H45.0293V34.7627L40.7227 34.2354V13.9912ZM37.5 8.07324C27.3926 8.07324 19.1895 16.2764 19.1895 26.3838C19.1895 36.4912 27.3779 44.6943 37.5 44.6943C47.6221 44.6943 55.8105 36.5059 55.8105 26.3838C55.8105 16.2617 47.6074 8.07324 37.5 8.07324ZM46.5088 38.1611C46.5088 38.9814 45.835 39.6553 45.0146 39.6553H30.6152C29.7949 39.6553 29.1211 38.9814 29.1211 38.1611V34.7627C29.1211 34.0156 29.6924 33.3711 30.4248 33.2832L33.4131 32.917V20.4512L30.5566 20.4219C29.7363 20.4072 29.0771 19.748 29.0771 18.9277V15.7051C29.0771 14.9727 29.6045 14.3574 30.3223 14.2256L40.4736 12.5117C40.5615 12.4971 40.6348 12.4971 40.7227 12.4971C41.0742 12.4971 41.4111 12.6143 41.6895 12.8486C42.0264 13.127 42.2168 13.5518 42.2168 13.9912V32.9023L45.2051 33.2686C45.9521 33.3564 46.5088 34.001 46.5088 34.748V38.1611ZM40.7227 13.9912L30.5859 15.6904V18.9131L34.9219 18.957V34.2354L30.6152 34.7627V38.1611H45.0293V34.7627L40.7227 34.2354V13.9912ZM59.458 40.1387C59.3555 41.1641 58.96 42.1455 58.3008 42.9658C58.2129 43.083 58.1104 43.2002 58.0078 43.3174L66.416 57.8779C66.5625 58.127 66.5479 58.4199 66.4014 58.6543C66.2402 58.8887 65.9766 59.0205 65.6982 58.9912L55.6934 57.8486L51.6797 67.0918C51.5625 67.3555 51.3135 67.5312 51.0352 67.5459H50.9912C50.7275 67.5459 50.4785 67.3994 50.3467 67.1797L41.2793 51.4766C40.5908 52.1504 39.7266 52.6338 38.7891 52.8535L51.4453 74.7676L57.4512 60.9248L72.4512 62.6533L59.458 40.1387ZM33.7207 51.4473L24.6533 67.1504C24.5215 67.3848 24.2725 67.5166 24.0088 67.5166H23.9648C23.6865 67.502 23.4375 67.3262 23.3203 67.0625L19.3066 57.8193L9.30176 58.9619C9.02344 58.9912 8.74512 58.8594 8.59863 58.625C8.45215 58.3906 8.4375 58.083 8.56934 57.8486L16.9775 43.2881C16.875 43.1709 16.7725 43.0684 16.6699 42.9365C16.0107 42.1162 15.6152 41.1348 15.5127 40.1094L2.54883 62.624L17.5488 60.8955L23.5547 74.7383L36.2109 52.8242C35.2734 52.6045 34.4238 52.1357 33.7207 51.4473ZM31.5088 50.2021C31.1719 50.2021 30.835 50.2754 30.5127 50.4219C29.8096 50.7441 29.0625 50.9053 28.3008 50.9053C25.8252 50.9053 23.6719 49.2353 23.0566 46.833C22.793 45.793 21.8555 45.0459 20.7715 45.0166C19.834 44.9873 18.9404 44.7236 18.1641 44.2695L10.6201 57.3359L19.7021 56.2959H19.79C20.083 56.2959 20.3613 56.4717 20.4785 56.75L24.1113 65.1289L32.5781 50.4512C32.2559 50.29 31.8897 50.2021 31.5088 50.2021ZM56.8359 44.2549C56.0596 44.709 55.166 44.9727 54.2285 45.0019C53.1592 45.0312 52.207 45.7783 51.9434 46.8184C51.3281 49.2207 49.1748 50.8906 46.6992 50.8906C45.9375 50.8906 45.1904 50.7295 44.4873 50.4072C44.1797 50.2607 43.8428 50.1875 43.4912 50.1875C43.1104 50.1875 42.7441 50.2754 42.4219 50.4365L50.8887 65.1143L54.5215 56.7354C54.6533 56.4277 54.9609 56.252 55.2979 56.2959L64.3799 57.3359L56.8359 44.2549ZM60.5127 26.3691C60.5127 25.5342 60.7764 24.7139 61.3037 24.0107C61.8457 23.293 62.0947 22.4727 62.0947 21.6523C62.0947 20.2461 61.333 18.8691 59.9707 18.166C58.6523 17.4922 57.8467 16.1299 57.8467 14.6797C57.8467 14.4307 57.876 14.167 57.9199 13.9033C58.4033 11.5156 56.6162 9.28906 54.1846 9.21582C52.4414 9.17188 50.9326 7.9707 50.4932 6.27148C50.0391 4.46973 48.4277 3.32715 46.6992 3.32715C46.1719 3.32715 45.6152 3.44434 45.0879 3.67871C44.5752 3.91309 44.0186 4.03027 43.4766 4.03027C42.3486 4.03027 41.2354 3.53223 40.4736 2.63867C39.6973 1.71582 38.584 1.24707 37.4854 1.24707C36.3721 1.24707 35.2734 1.71582 34.4824 2.63867C33.7207 3.54688 32.6074 4.03027 31.4795 4.03027C30.9375 4.03027 30.3955 3.91309 29.8828 3.67871C29.3555 3.44434 28.8135 3.32715 28.2861 3.32715C26.5576 3.32715 24.9463 4.46973 24.4922 6.27148C24.2725 7.12109 23.7891 7.83887 23.1445 8.36621C22.5 8.87891 21.6797 9.20117 20.8008 9.21582C18.6328 9.27441 16.9922 11.0469 16.9922 13.127C16.9922 13.3906 17.0215 13.6396 17.0654 13.9033C17.124 14.167 17.1387 14.416 17.1387 14.6797C17.1387 16.1299 16.333 17.4775 15.0146 18.166C12.8467 19.2793 12.2168 22.0625 13.6816 24.0107C14.7363 25.4023 14.7363 27.3359 13.6816 28.7275C12.2168 30.6611 12.8467 33.459 15.0146 34.5723C16.5674 35.3779 17.4023 37.1064 17.0654 38.8203C17.0068 39.084 16.9922 39.3477 16.9922 39.5967C16.9922 41.6621 18.6475 43.4492 20.8008 43.4932C21.6797 43.5225 22.4854 43.8301 23.1445 44.3428C23.7891 44.8555 24.2871 45.5879 24.4922 46.4375C24.9463 48.2393 26.5576 49.3818 28.2861 49.3818C28.8135 49.3818 29.3701 49.2646 29.8828 49.0303C31.4795 48.3125 33.3545 48.7373 34.4824 50.085C35.2588 51.0225 36.3721 51.4766 37.4707 51.4766C38.5693 51.4766 39.6826 51.0078 40.4736 50.085C41.2354 49.1768 42.3486 48.6934 43.4766 48.6934C44.0186 48.6934 44.5605 48.8105 45.0879 49.0449C47.2998 50.041 49.8779 48.7959 50.4785 46.4375C50.918 44.7383 52.4121 43.5371 54.1699 43.4932C56.6016 43.4346 58.3887 41.1934 57.9053 38.8057C57.8467 38.542 57.832 38.293 57.832 38.0293C57.832 36.5791 58.6377 35.2314 59.9561 34.543C61.3184 33.8398 62.0801 32.4629 62.0801 31.0566C62.0801 30.2363 61.8311 29.416 61.2891 28.6982C60.7764 28.0391 60.5127 27.2041 60.5127 26.3691ZM37.5 46.1738C26.5869 46.1738 17.6953 37.2969 17.6953 26.3691C17.6953 15.4414 26.5869 6.5791 37.5 6.5791C48.4131 6.5791 57.3047 15.4561 57.3047 26.3838C57.3047 37.3115 48.4131 46.1738 37.5 46.1738ZM37.5 8.07324C27.3926 8.07324 19.1895 16.2617 19.1895 26.3838C19.1895 36.5059 27.3779 44.6943 37.5 44.6943C47.6221 44.6943 55.8105 36.5059 55.8105 26.3838C55.8105 16.2617 47.6074 8.07324 37.5 8.07324ZM46.5088 38.1611C46.5088 38.9814 45.835 39.6553 45.0146 39.6553H30.6152C29.7949 39.6553 29.1211 38.9814 29.1211 38.1611V34.7627C29.1211 34.0156 29.6924 33.3711 30.4248 33.2832L33.4131 32.917V20.4512L30.5566 20.4219C29.7363 20.4072 29.0771 19.748 29.0771 18.9277V15.7051C29.0771 14.9727 29.6045 14.3574 30.3223 14.2256L40.4736 12.5117C40.5615 12.4971 40.6348 12.4971 40.7227 12.4971C41.0742 12.4971 41.4111 12.6143 41.6895 12.8486C42.0264 13.127 42.2168 13.5518 42.2168 13.9912V32.9023L45.2051 33.2686C45.9521 33.3564 46.5088 34.001 46.5088 34.748V38.1611ZM40.7227 13.9912L30.5859 15.6904V18.9131L34.9219 18.957V34.2207L30.6152 34.748V38.1465H45.0293V34.748L40.7227 34.2207V13.9912ZM40.7227 34.2207V13.9912L30.5859 15.6904V18.9131L34.9219 18.957V34.2207L30.6152 34.748V38.1465H45.0293V34.748L40.7227 34.2207ZM40.7227 34.2207V13.9912L30.5859 15.6904V18.9131L34.9219 18.957V34.2207L30.6152 34.748V38.1465H45.0293V34.748L40.7227 34.2207Z" fill="url(#paint0_linear_604_1349)"/>
<defs>
<linearGradient id="paint0_linear_604_1349" x1="10.8675" y1="17.6699" x2="64.1364" y2="70.9388" gradientUnits="userSpaceOnUse">
<stop stop-color="#FFDE00"/>
<stop offset="1" stop-color="#FD5C00"/>
</linearGradient>
</defs>
</svg>
