<svg width="75" height="75" viewBox="0 0 75 75" fill="none" xmlns="http://www.w3.org/2000/svg">
<g clip-path="url(#clip0_604_934)">
<path d="M66.7694 74.9502H8.22944C6.69575 74.9502 5.45312 73.7074 5.45312 72.1739V27.4097H69.5463V72.1739C69.5463 73.7074 68.3028 74.9502 66.7694 74.9502Z" fill="#FFC73B"/>
<path d="M5.45312 27.4097H69.5463V36.7247H5.45312V27.4097Z" fill="#EFB025"/>
<path d="M75 17.6989V29.239C75 30.4717 73.9998 31.47 72.7673 31.47H2.23096C0.998438 31.47 0 30.4717 0 29.239V17.699C0 16.4663 0.998438 15.4679 2.23096 15.4679H72.7673C73.9998 15.4679 75 16.4663 75 17.6989Z" fill="#FFC73B"/>
<path d="M34.9499 20.7734C34.4632 21.3399 33.9861 21.9144 33.5187 22.4968C31.7866 24.6526 30.1945 26.9173 28.7522 29.2768C28.3105 29.9997 27.8826 30.7309 27.4687 31.4701H12.2578C13.1469 29.4532 14.1207 27.4747 15.1767 25.5399C17.0963 22.0204 19.2828 18.6532 21.717 15.4679C22.3004 14.7042 22.8976 13.9512 23.5085 13.2094C23.8748 12.7619 24.2473 12.3207 24.6249 11.8812L28.7889 15.4679C29.0041 15.6522 29.2192 15.8386 29.4338 16.0235C31.0726 17.4346 32.7114 18.8449 34.3496 20.2578C34.5504 20.4283 34.7495 20.6017 34.9499 20.7734ZM57.6451 31.4701H42.4332C42.0199 30.7306 41.592 29.9993 41.1497 29.2768C39.7067 26.9177 38.1146 24.6531 36.3831 22.4968C35.9146 21.9146 35.4368 21.34 34.9499 20.7733C35.1505 20.6017 35.3498 20.4295 35.5506 20.2578C37.1906 18.8449 38.8293 17.4328 40.4676 16.0235C40.6827 15.8386 40.8979 15.6522 41.113 15.4679C42.5013 14.272 43.8899 13.0773 45.277 11.8812C45.6544 12.3191 46.0265 12.7614 46.3932 13.2082C47.0048 13.95 47.6021 14.7033 48.1849 15.4679C50.6191 18.6535 52.806 22.0206 54.7264 25.5399C55.7823 27.4747 56.7561 29.4532 57.6451 31.4701Z" fill="#EFB025"/>
<path d="M37.4982 20.7744C37.0111 21.3404 36.5338 21.9148 36.0666 22.4974C34.3345 24.6535 32.7424 26.9184 31.3 29.2781C26.7168 36.7697 23.6976 45.1115 22.4241 53.8011C20.5021 51.2518 18.7283 48.4938 17.1323 45.5446C14.3251 47.3757 11.5813 49.47 8.93945 51.8263C10.2901 42.6136 13.2648 33.7136 17.7251 25.5403C20.1057 21.1757 22.8953 17.0471 26.0564 13.2099C26.4233 12.7629 26.7954 12.3201 27.1727 11.8818C28.7761 13.2625 30.3783 14.6433 31.9822 16.0241C33.6205 17.435 35.2592 18.8455 36.898 20.2583C37.0983 20.4288 37.2974 20.6023 37.4982 20.7744ZM66.058 51.8262C63.4163 49.47 60.6725 47.3757 57.8652 45.5446C56.2694 48.4938 54.4955 51.2516 52.5735 53.8009C51.3002 45.1113 48.2809 36.7694 43.6974 29.278C42.2547 26.9185 40.6626 24.6537 38.931 22.4974C38.4627 21.9154 37.9851 21.341 37.4983 20.7744C37.6984 20.6023 37.8977 20.43 38.0985 20.2583C39.7384 18.8455 41.3772 17.4334 43.016 16.0241C44.6192 14.6415 46.2232 13.2625 47.8248 11.8818C48.2022 12.3196 48.5743 12.762 48.9411 13.2088C52.1029 17.0462 54.8931 21.1752 57.2742 25.5403C61.7335 33.7139 64.7076 42.6138 66.0581 51.8263L66.058 51.8262Z" fill="#FF4440"/>
<path d="M31.5273 20.7744H43.4699V31.4701H31.5273V20.7744Z" fill="#FF4440"/>
<path d="M57.274 25.5403L43.6974 29.278C42.2546 26.9185 40.6625 24.6537 38.9308 22.4973L38.0983 20.2583L37.498 18.6435L43.0158 16.024L48.9411 13.2086C52.1029 17.0461 54.893 21.1752 57.274 25.5403Z" fill="#EA2F2F"/>
<path d="M37.4996 18.6435L36.8995 20.2583L36.068 22.4974C34.3359 24.6535 32.7438 26.9184 31.3014 29.2781L17.7266 25.5403C20.1071 21.1757 22.8967 17.0471 26.0579 13.21L31.9836 16.0239L37.4996 18.6435Z" fill="#EA2F2F"/>
<path d="M59.168 0.519022L37.5004 10.809L41.6626 22.003L64.79 15.6372C67.8146 14.8046 69.4763 11.5585 68.3828 8.618L66.4741 3.48533C65.381 0.544803 62.0022 -0.826877 59.168 0.519022ZM15.8327 0.519022L37.5004 10.809L33.3382 22.003L10.2114 15.6372C7.18675 14.8046 5.52503 11.5585 6.61854 8.618L8.52679 3.48533C9.6203 0.544803 12.9985 -0.826877 15.8327 0.519022Z" fill="#FF4440"/>
<path d="M42.6737 15.3076C42.4731 15.308 42.2755 15.2576 42.0995 15.1613C41.9234 15.065 41.7746 14.9257 41.6667 14.7565C41.5821 14.6245 41.5245 14.4771 41.4969 14.3227C41.4694 14.1684 41.4725 14.0101 41.5062 13.8569C41.5398 13.7038 41.6033 13.5588 41.693 13.4302C41.7827 13.3016 41.8968 13.1919 42.0289 13.1074C42.1931 13.0028 46.0956 10.5193 50.576 8.70718C57.0349 6.09448 61.3483 6.23467 63.3945 9.12378C63.4853 9.25176 63.5499 9.39637 63.5847 9.54934C63.6195 9.70231 63.6238 9.86064 63.5974 10.0153C63.571 10.1699 63.5143 10.3178 63.4307 10.4506C63.3471 10.5833 63.2381 10.6983 63.1101 10.7889C62.9821 10.8795 62.8376 10.9441 62.6847 10.9788C62.5317 11.0136 62.3735 11.0179 62.2189 10.9915C62.0644 10.9651 61.9165 10.9085 61.7838 10.825C61.6511 10.7414 61.5362 10.6325 61.4456 10.5045C58.6714 6.58843 47.1376 12.6778 43.3158 15.12C43.1241 15.2426 42.9013 15.3077 42.6737 15.3076ZM32.2082 15.3076C31.9806 15.3077 31.7578 15.2426 31.5661 15.12C27.7443 12.6778 16.2105 6.58843 13.4365 10.5044C13.2534 10.7629 12.975 10.9381 12.6628 10.9914C12.3505 11.0447 12.0298 10.9718 11.7713 10.7887C11.5128 10.6055 11.3378 10.3272 11.2846 10.0149C11.2313 9.70268 11.3043 9.38207 11.4875 9.12363C13.5338 6.23467 17.8464 6.09434 24.3061 8.70703C28.7864 10.5187 32.6888 13.0027 32.853 13.1074C33.1197 13.278 33.3077 13.5476 33.3758 13.8568C33.4438 14.166 33.3863 14.4896 33.2158 14.7564C33.1077 14.9255 32.9587 15.0647 32.7826 15.161C32.6064 15.2573 32.4089 15.3078 32.2082 15.3076Z" fill="#EA2F2F"/>
<path d="M40.8973 6.96136H34.1019C32.2421 6.96136 30.7344 8.46913 30.7344 10.3295V20.2016C30.7344 22.062 32.2421 23.5696 34.1019 23.5696H40.8973C42.7571 23.5696 44.2648 22.0619 44.2648 20.2016V10.3295C44.2648 8.46913 42.7571 6.96136 40.8973 6.96136Z" fill="#EA2F2F"/>
<path d="M31.5293 31.4701H43.4719V74.9502H31.5293V31.4701Z" fill="#FF4440"/>
<path d="M31.5293 31.4701H43.4719V36.7246H31.5293V31.4701Z" fill="#EA2F2F"/>
</g>
<defs>
<clipPath id="clip0_604_934">
<rect width="75" height="75" fill="white"/>
</clipPath>
</defs>
</svg>
