<svg width="75" height="75" viewBox="0 0 75 75" fill="none" xmlns="http://www.w3.org/2000/svg">
<path d="M58.5938 28.125H56.25V18.75C56.25 8.40938 47.8406 0 37.5 0C27.1594 0 18.75 8.40938 18.75 18.75V28.125H16.4062C14.5422 28.1275 12.7552 28.8691 11.4371 30.1871C10.1191 31.5052 9.37748 33.2922 9.375 35.1562V67.9688C9.375 71.8469 12.5312 75 16.4062 75H58.5938C62.4688 75 65.625 71.8469 65.625 67.9688V35.1562C65.625 31.2781 62.4688 28.125 58.5938 28.125ZM25 18.75C25 11.8562 30.6062 6.25 37.5 6.25C44.3937 6.25 50 11.8562 50 18.75V28.125H25V18.75ZM40.625 52.2562V59.375C40.625 60.2038 40.2958 60.9987 39.7097 61.5847C39.1237 62.1708 38.3288 62.5 37.5 62.5C36.6712 62.5 35.8763 62.1708 35.2903 61.5847C34.7042 60.9987 34.375 60.2038 34.375 59.375V52.2562C32.5156 51.1719 31.25 49.1781 31.25 46.875C31.25 43.4281 34.0531 40.625 37.5 40.625C40.9469 40.625 43.75 43.4281 43.75 46.875C43.75 49.1781 42.4844 51.1719 40.625 52.2562Z" fill="#F59E0B"/>
</svg>
