<svg width="75" height="75" viewBox="0 0 75 75" fill="none" xmlns="http://www.w3.org/2000/svg">
<path d="M66.6238 35.7387C68.8398 32.6022 69.9358 28.8112 69.7351 24.9762C69.4691 20.066 67.1956 15.6504 63.3331 12.5426C56.5468 7.08397 46.6281 7.76835 40.2613 14.1351L37.5003 16.8973L34.7382 14.1351C28.3714 7.76835 18.4527 7.08397 11.6675 12.5437C7.80501 15.6504 5.53157 20.066 5.26556 24.9762C5.06487 28.8114 6.16126 32.6025 8.37806 35.7387C7.96321 36.4792 7.63976 37.2674 7.41478 38.0859C6.94953 39.7458 7.09977 41.5179 7.83782 43.0758C9.23587 46.0043 11.5609 49.3547 14.2492 52.3465C13.6902 56.2582 14.8632 59.6015 17.705 62.0308C20.8503 64.7203 25.9222 66.1172 31.546 66.1172C33.5007 66.1172 35.5222 65.9461 37.5531 65.6051C39.6261 65.9461 41.6546 66.1172 43.5917 66.1172C49.7324 66.1172 54.9824 64.4426 58.0152 61.3629C60.3343 59.0086 61.2624 55.8984 60.7538 52.35C63.8452 48.9164 66.0003 45.518 67.1687 43.0758C67.9093 41.5194 68.0589 39.7467 67.5894 38.0883C67.3646 37.2686 67.0403 36.4795 66.6238 35.7387ZM9.67181 38.7129C10.246 36.6527 11.2515 35.366 12.7468 34.7777C14.6288 34.0301 16.9585 34.8879 18.1562 36.7605C19.2999 38.5769 20.9124 41.0625 21.6952 42.0949C21.836 42.2819 22.0296 42.4223 22.2511 42.4981C22.4725 42.5738 22.7116 42.5814 22.9374 42.5198C23.1632 42.4582 23.3653 42.3303 23.5176 42.1526C23.6699 41.9749 23.7654 41.7556 23.7917 41.523L24.2253 37.841C24.2583 37.5474 24.3978 37.2761 24.6175 37.0784C24.8371 36.8808 25.1217 36.7706 25.4171 36.7687L25.4863 36.7676C26.0699 36.7922 26.5503 37.214 26.6511 37.7801L27.0038 39.9223C27.2922 41.5942 27.2444 43.3069 26.8632 44.9601L26.4062 46.9875C26.3218 47.3648 26.4284 47.7598 26.6909 48.0433C28.4722 49.9605 30.8324 51.5988 33.6132 52.8832C27.5429 54.0539 20.9734 53.5418 16.1921 51.007C13.5613 48.1195 11.2913 44.8723 9.95072 42.0644C9.45712 41.0173 9.35808 39.8272 9.67181 38.7129ZM56.3441 59.7176C53.9113 62.1867 49.5472 63.5988 44.4202 63.7453C50.1273 61.6031 54.8488 58.2164 58.5413 54.6316C58.4464 56.6133 57.7187 58.3207 56.3441 59.7176ZM65.0535 42.0633C63.9156 44.4433 61.7804 47.7844 58.7066 51.1312C58.6984 51.1383 58.6878 51.143 58.6808 51.1512L58.6843 51.1547C54.8757 55.2961 49.6257 59.4422 43.0023 61.7859C34.1394 64.9219 23.9195 64.2597 19.2273 60.2484C17.2562 58.5633 16.3245 56.3777 16.4452 53.7375C26.3394 58.0687 41.3277 55.5269 48.3097 48.0504C48.4405 47.9105 48.5349 47.7406 48.5848 47.5557C48.6346 47.3708 48.6384 47.1765 48.5956 46.9898L48.1316 44.9578C47.752 43.304 47.7038 41.5913 47.9898 39.9187L48.3519 37.7812C48.4468 37.2152 48.9331 36.7863 49.5074 36.7629C50.1085 36.7383 50.6992 37.2105 50.773 37.8422L51.2066 41.5266C51.2338 41.7587 51.3298 41.9775 51.4822 42.1547C51.6347 42.3319 51.8367 42.4594 52.0623 42.5209C52.2878 42.5824 52.5266 42.575 52.7479 42.4997C52.9692 42.4245 53.163 42.2847 53.3042 42.0984C54.0788 41.0765 55.6574 38.6344 56.8445 36.7676C58.041 34.8867 60.3706 34.0324 62.248 34.7754C63.7445 35.3648 64.7534 36.6551 65.3312 38.7187C65.6476 39.8426 65.548 41.0297 65.0535 42.0633Z" fill="#FC5854"/>
</svg>
