<svg width="75" height="75" viewBox="0 0 75 75" fill="none" xmlns="http://www.w3.org/2000/svg">
<path fill-rule="evenodd" clip-rule="evenodd" d="M61.9194 29.7481C63.9658 27.5361 65.1685 24.7178 65.3721 21.731H61.9399C61.6089 21.731 61.3057 21.5449 61.1562 21.249C61.0828 21.1042 61.0508 20.9418 61.064 20.78C61.0772 20.6181 61.135 20.4631 61.231 20.332C61.5093 19.9512 61.6572 19.4971 61.6572 19.0225C61.6572 17.7964 60.6597 16.7988 59.4336 16.7988C58.209 16.7988 57.2114 17.7964 57.2114 19.0225C57.2114 19.4971 57.3579 19.9497 57.6377 20.332C57.7333 20.4632 57.7909 20.6182 57.8041 20.78C57.8173 20.9418 57.7856 21.1041 57.7124 21.249C57.6389 21.3938 57.5267 21.5154 57.3885 21.6004C57.2502 21.6855 57.0911 21.7306 56.9287 21.731H53.1743V24.1231C53.4819 24.0483 53.7998 24.0088 54.1235 24.0088C56.3193 24.0088 58.105 25.7944 58.105 27.9902C58.105 30.186 56.3193 31.9717 54.1235 31.9717C53.7998 31.9717 53.4819 31.9321 53.1743 31.8574V37.2422H58.1357C58.9868 37.2422 59.6797 36.5493 59.6797 35.6983V35.4624C59.6797 33.2769 60.4341 31.355 61.9194 29.7481ZM4.09766 72.0234H43.9883L42.4136 66.9976C41.9316 65.4624 40.8696 64.3887 39.3389 63.8921L32.9346 61.8164C30.6172 61.065 28.9385 59.2808 28.3306 56.9209L27.6787 54.3838C27.5923 54.0498 27.7095 53.6953 27.979 53.48C29.5215 52.2407 30.4092 50.4038 30.4106 48.4439C30.4111 48.211 30.504 47.9879 30.6687 47.8235C30.8335 47.659 31.0567 47.5665 31.2896 47.5664C31.3848 47.5664 31.4478 47.5181 31.4741 47.4316L32.2344 44.8799H32.0586C31.7612 44.8799 31.4844 44.7305 31.3232 44.4815C31.2433 44.3589 31.1953 44.2183 31.1836 44.0725C31.1718 43.9267 31.1966 43.7803 31.2559 43.6465C34.3159 36.731 31.0566 35.231 29.9873 34.7388C29.8796 34.6897 29.783 34.6191 29.7034 34.5315C29.6239 34.4439 29.563 34.3409 29.5244 34.229C28.3906 30.9712 25.0317 30.4497 22.2075 31.3784C18.1118 32.7246 14.6284 37.169 16.6616 43.7446C16.7437 44.0112 16.6953 44.3013 16.5298 44.5254C16.3643 44.7495 16.102 44.8828 15.8223 44.8828H15.6465L16.4067 47.4346C16.4331 47.521 16.4976 47.5693 16.5869 47.5693C17.0718 47.5693 17.4702 47.9619 17.4702 48.4468C17.4731 50.4815 18.415 52.3609 20.0527 53.6001C20.1911 53.7046 20.2954 53.8477 20.3525 54.0115C20.4096 54.1752 20.4169 54.3522 20.3735 54.52L19.7554 56.9238C19.1475 59.2837 17.4702 61.0679 15.1514 61.8193L8.74707 63.8965C7.21631 64.3931 6.15283 65.4668 5.67236 67.002L4.09766 72.0234ZM52.2954 43.6509C54.5352 43.6509 56.356 41.8286 56.356 39.5903V39.0029H48.2349V39.5903C48.2349 41.8286 50.0557 43.6509 52.2954 43.6509ZM70.4258 30.3047L68.0395 28.9277C67.6206 28.6846 67.083 28.8296 66.8369 29.2485C66.5981 29.669 66.7417 30.2066 67.1592 30.4497L69.5454 31.8267C69.6831 31.9072 69.8325 31.9439 69.9819 31.9439C70.2866 31.9439 70.5796 31.7857 70.748 31.5044C70.9868 31.084 70.8433 30.5479 70.4258 30.3047ZM68.5171 16.5044C68.5676 16.6912 68.6782 16.8562 68.8317 16.9739C68.9852 17.0917 69.1732 17.1558 69.3667 17.1563C69.4443 17.1563 69.522 17.146 69.5938 17.1255L72.2554 16.4136C72.7212 16.2876 73.0024 15.8057 72.8779 15.3369C72.752 14.8682 72.2686 14.5899 71.8013 14.7158L69.1396 15.4292C68.6724 15.5537 68.3911 16.0357 68.5171 16.5044ZM36.5498 28.9277C36.7517 28.8112 36.9915 28.7796 37.2167 28.8397C37.4419 28.8998 37.6341 29.0469 37.751 29.2485C37.9941 29.669 37.8491 30.2066 37.4287 30.4497L35.0454 31.8267C34.9062 31.9072 34.7554 31.9439 34.6074 31.9439C34.4528 31.9441 34.3009 31.9036 34.1669 31.8264C34.033 31.7493 33.9217 31.6382 33.8442 31.5044C33.728 31.3023 33.6967 31.0624 33.7571 30.8372C33.8175 30.612 33.9647 30.42 34.1665 30.3032L36.5498 28.9277ZM35.4497 15.4292L32.7896 14.7173C32.6782 14.6873 32.562 14.6796 32.4476 14.6946C32.3332 14.7096 32.2229 14.747 32.1231 14.8047C32.0232 14.8624 31.9357 14.9392 31.8655 15.0308C31.7954 15.1224 31.744 15.2269 31.7144 15.3384C31.6844 15.4499 31.6768 15.5661 31.6918 15.6806C31.7068 15.795 31.7442 15.9054 31.8019 16.0054C31.8596 16.1053 31.9364 16.193 32.0279 16.2633C32.1195 16.3336 32.224 16.3851 32.3354 16.415L34.9941 17.127C35.0718 17.1475 35.148 17.1577 35.2227 17.1577C35.6108 17.1577 35.9653 16.8984 36.0708 16.5059C36.1953 16.0371 35.9185 15.5537 35.4497 15.4292ZM44.2197 5.10645L42.8428 2.72169C42.6011 2.30128 42.0635 2.15772 41.6431 2.39942C41.4413 2.51621 41.2941 2.70824 41.2337 2.9334C41.1733 3.15856 41.2046 3.39849 41.3208 3.60059L42.6978 5.98389C42.8603 6.26661 43.1562 6.42335 43.4595 6.42335C43.6089 6.42335 43.7598 6.38526 43.8975 6.30616C43.9975 6.24864 44.0852 6.17195 44.1555 6.08049C44.2259 5.98903 44.2775 5.88459 44.3074 5.77315C44.3374 5.66172 44.345 5.54547 44.33 5.43107C44.3149 5.31666 44.2775 5.20635 44.2197 5.10645ZM60.3696 5.10645C60.1279 5.52686 60.2715 6.06446 60.6919 6.30616C60.8296 6.38673 60.9805 6.42335 61.1299 6.42335C61.4346 6.42335 61.729 6.26661 61.8916 5.98389L63.2715 3.60059C63.5103 3.18018 63.3667 2.64259 62.9492 2.39942C62.5273 2.15772 61.9897 2.30128 61.748 2.72169L60.3696 5.10645ZM53.1743 16.2202C53.1744 16.0579 53.1296 15.8987 53.0447 15.7603C52.9599 15.6219 52.8383 15.5097 52.6936 15.4361C52.5489 15.3625 52.3867 15.3305 52.2248 15.3435C52.063 15.3565 51.908 15.414 51.7769 15.5098C51.3945 15.7896 50.9419 15.9375 50.4673 15.9375C49.2412 15.9375 48.2437 14.9399 48.2437 13.7139C48.2437 12.4878 49.2412 11.4902 50.4673 11.4902C50.9419 11.4902 51.3945 11.6382 51.7769 11.918C51.908 12.0137 52.063 12.0713 52.2248 12.0843C52.3867 12.0973 52.5489 12.0652 52.6936 11.9917C52.8383 11.9181 52.9599 11.8059 53.0447 11.6675C53.1296 11.5291 53.1744 11.3699 53.1743 11.2075V7.77686C59.7017 8.21046 64.9355 13.4458 65.3721 19.9732H63.3022C63.374 19.6655 63.4165 19.3477 63.4165 19.0239C63.4165 16.8281 61.6294 15.0425 59.4336 15.0425C57.2393 15.0425 55.4536 16.8281 55.4536 19.0239C55.4536 19.3477 55.4917 19.6655 55.5664 19.9732H53.1743V16.2202ZM47.6636 19.9732H51.4165V17.5811C51.1089 17.6558 50.791 17.6939 50.4673 17.6939C48.2715 17.6939 46.4858 15.9082 46.4858 13.7139C46.4858 11.5181 48.2715 9.73243 50.4673 9.73243C50.791 9.73243 51.1089 9.77052 51.4165 9.84669V7.77686C44.8892 8.21046 39.6538 13.4458 39.2202 19.9732H42.6509C42.8132 19.9731 42.9724 20.0179 43.1108 20.1028C43.2492 20.1876 43.3614 20.3091 43.435 20.4538C43.5086 20.5985 43.5406 20.7608 43.5276 20.9226C43.5146 21.0844 43.4571 21.2395 43.3613 21.3706C43.0815 21.7529 42.9336 22.2056 42.9336 22.6802C42.9336 23.9063 43.9312 24.9024 45.1572 24.9024C46.3833 24.9024 47.3809 23.9048 47.3809 22.6802C47.3809 22.2056 47.2329 21.7515 46.9531 21.3706C46.8574 21.2395 46.7998 21.0844 46.7868 20.9226C46.7738 20.7608 46.8059 20.5985 46.8794 20.4538C46.953 20.3091 47.0652 20.1876 47.2036 20.1028C47.342 20.0179 47.5012 19.9731 47.6636 19.9732ZM56.3472 27.9917C56.3472 29.2178 55.3496 30.2153 54.1235 30.2153C53.6489 30.2153 53.1963 30.0674 52.814 29.7876C52.6828 29.6919 52.5278 29.6343 52.366 29.6211C52.2042 29.608 52.0419 29.6397 51.897 29.7129C51.7524 29.7865 51.6309 29.8986 51.5461 30.0369C51.4613 30.1753 51.4165 30.3343 51.4165 30.4966V37.2437H46.4551C45.604 37.2437 44.9111 36.5508 44.9111 35.6997V35.4639C44.9111 33.2769 44.1582 31.3535 42.6729 29.7481C40.6265 27.5361 39.4209 24.7178 39.2231 21.731H41.29C41.2139 22.0386 41.1758 22.3565 41.1758 22.6802C41.1758 24.876 42.9614 26.6616 45.1572 26.6616C47.3516 26.6616 49.1387 24.876 49.1387 22.6802C49.1387 22.3565 49.0991 22.0386 49.0244 21.731H51.4165V25.4839C51.4165 25.815 51.6025 26.1182 51.897 26.2676C52.1929 26.417 52.5474 26.3892 52.814 26.1943C53.1963 25.9146 53.6489 25.7666 54.1235 25.7666C55.3496 25.7681 56.3472 26.7656 56.3472 27.9917Z" fill="url(#paint0_linear_603_858)"/>
<defs>
<linearGradient id="paint0_linear_603_858" x1="38.5024" y1="2.28341" x2="38.5024" y2="72.024" gradientUnits="userSpaceOnUse">
<stop stop-color="#A03A8D"/>
<stop offset="1" stop-color="#1F3C8D"/>
</linearGradient>
</defs>
</svg>
