<svg width="75" height="75" viewBox="0 0 75 75" fill="none" xmlns="http://www.w3.org/2000/svg">
<g clip-path="url(#clip0_597_854)">
<path d="M50.8301 26.6602C37.5028 26.6602 26.6602 37.5028 26.6602 50.8301C26.6602 64.1574 37.5028 75 50.8301 75C64.1574 75 75 64.1574 75 50.8301C75 37.5028 64.1574 26.6602 50.8301 26.6602ZM50.8301 48.6328C54.4649 48.6328 57.4219 51.5897 57.4219 55.2246C57.4219 58.0854 55.5794 60.5016 53.0273 61.4117V66.2109H48.6328V61.4117C46.0808 60.5016 44.2383 58.0854 44.2383 55.2246H48.6328C48.6328 56.4369 49.6178 57.4219 50.8301 57.4219C52.0424 57.4219 53.0273 56.4369 53.0273 55.2246C53.0273 54.0123 52.0424 53.0273 50.8301 53.0273C47.1952 53.0273 44.2383 50.0704 44.2383 46.4355C44.2383 43.5747 46.0808 41.1586 48.6328 40.2485V35.4492H53.0273V40.2485C55.5794 41.1586 57.4219 43.5747 57.4219 46.4355H53.0273C53.0273 45.2232 52.0424 44.2383 50.8301 44.2383C49.6178 44.2383 48.6328 45.2232 48.6328 46.4355C48.6328 47.6479 49.6178 48.6328 50.8301 48.6328ZM24.4629 26.6602C38.0156 26.6602 48.6328 20.8687 48.6328 13.4766C48.6328 6.08437 38.0156 0 24.4629 0C10.9102 0 0 6.08437 0 13.4766C0 20.8687 10.9102 26.6602 24.4629 26.6602ZM0 49.4471V53.0273C0 60.4195 10.9102 66.2109 24.4629 66.2109C25.2316 66.2109 25.9765 66.1402 26.7334 66.1031C25.0249 63.4188 23.78 60.4662 23.0508 57.369C13.2502 57.0984 4.74053 54.0869 0 49.4471ZM22.3712 52.9154C22.3208 52.2243 22.2656 51.5339 22.2656 50.8301C22.2656 48.5395 22.5658 46.3226 23.0776 44.1866C13.2649 43.9207 4.74478 40.9075 0 36.2635V39.8438C0 46.8438 9.85283 52.345 22.3712 52.9154ZM24.4629 39.8438L24.4696 39.8435C25.9089 36.404 28.0053 33.2785 30.6415 30.6419C28.657 30.8927 26.6063 31.0547 24.4629 31.0547C14.0307 31.0547 4.96963 27.9438 0 23.0799V26.6602C0 34.0523 10.9102 39.8438 24.4629 39.8438Z" fill="#6B21A8"/>
</g>
<defs>
<clipPath id="clip0_597_854">
<rect width="75" height="75" fill="white"/>
</clipPath>
</defs>
</svg>
