<svg width="75" height="75" viewBox="0 0 75 75" fill="none" xmlns="http://www.w3.org/2000/svg">
<g clip-path="url(#clip0_595_734)">
<path d="M37.4981 70.543C55.7473 70.543 70.5412 55.7492 70.5412 37.5C70.5412 19.2508 55.7473 4.45691 37.4981 4.45691C19.249 4.45691 4.45508 19.2508 4.45508 37.5C4.45508 55.7492 19.249 70.543 37.4981 70.543Z" fill="#E8EDF1"/>
<path d="M70.542 37.5C70.542 55.7197 55.7192 70.5425 37.4995 70.5425C36.5122 70.5425 35.5352 70.4985 34.5684 70.4121C51.4214 68.9253 64.6797 54.7324 64.6797 37.5C64.6797 20.2676 51.4214 6.07471 34.5684 4.58789C35.5352 4.50146 36.5122 4.45752 37.4995 4.45752C55.7192 4.45752 70.542 19.2803 70.542 37.5Z" fill="#C5D3DD"/>
<path d="M37.4982 61.8732C50.9592 61.8732 61.8715 50.9609 61.8715 37.5C61.8715 24.039 50.9592 13.1267 37.4982 13.1267C24.0373 13.1267 13.125 24.039 13.125 37.5C13.125 50.9609 24.0373 61.8732 37.4982 61.8732Z" fill="#FB3A82"/>
<path d="M61.873 37.5C61.873 50.9399 50.9395 61.8735 37.4995 61.8735C36.5078 61.8735 35.5293 61.8135 34.5684 61.6978C46.6313 60.2446 56.0093 49.9468 56.0093 37.5C56.0093 25.0532 46.6313 14.7554 34.5684 13.3022C35.5293 13.1865 36.5078 13.1265 37.4995 13.1265C50.9395 13.1265 61.873 24.0601 61.873 37.5Z" fill="#E01058"/>
<path d="M37.4983 53.2035C46.1711 53.2035 53.2018 46.1728 53.2018 37.5C53.2018 28.8273 46.1711 21.7966 37.4983 21.7966C28.8256 21.7966 21.7949 28.8273 21.7949 37.5C21.7949 46.1728 28.8256 53.2035 37.4983 53.2035Z" fill="#E8EDF1"/>
<path d="M53.2026 37.5C53.2026 46.1733 46.1729 53.2031 37.4995 53.2031C36.4976 53.2031 35.5176 53.1094 34.5684 52.9292C41.8398 51.5566 47.3403 45.1714 47.3403 37.5C47.3403 29.8286 41.8398 23.4434 34.5684 22.0708C35.5176 21.8906 36.4976 21.7969 37.4995 21.7969C46.1729 21.7969 53.2026 28.8267 53.2026 37.5Z" fill="#C5D3DD"/>
<path d="M37.5 42.0194C39.996 42.0194 42.0194 39.996 42.0194 37.5C42.0194 35.0039 39.996 32.9805 37.5 32.9805C35.0039 32.9805 32.9805 35.0039 32.9805 37.5C32.9805 39.996 35.0039 42.0194 37.5 42.0194Z" fill="#FB3A82"/>
<path d="M42.019 37.5C42.019 39.9961 39.9961 42.019 37.5 42.019C36.7617 42.019 36.0659 41.8418 35.4492 41.5283C36.9141 40.7798 37.9175 39.2578 37.9175 37.5C37.9175 35.7422 36.9141 34.2202 35.4492 33.4717C36.0844 33.1484 36.7872 32.9802 37.5 32.981C39.9961 32.981 42.019 35.0039 42.019 37.5Z" fill="#E01058"/>
<path d="M60.3033 13.6101C54.3686 7.94233 46.3329 4.45703 37.4981 4.45703C19.2783 4.45703 4.45508 19.2801 4.45508 37.5C4.45508 55.7198 19.2783 70.5429 37.4981 70.5429C55.718 70.5429 70.5412 55.7198 70.5412 37.5C70.5412 29.8438 67.9231 22.7881 63.5362 17.1792" stroke="black" stroke-width="2.19727" stroke-miterlimit="10" stroke-linecap="round" stroke-linejoin="round"/>
<path d="M32.3953 61.3341C34.0726 61.6929 35.783 61.8736 37.4982 61.8732C50.9377 61.8732 61.8715 50.9395 61.8715 37.5C61.8715 24.0604 50.9377 13.1267 37.4982 13.1267C24.0587 13.1267 13.125 24.0604 13.125 37.5C13.125 47.4993 19.1785 56.1101 27.8125 59.8639" stroke="black" stroke-width="2.19727" stroke-miterlimit="10" stroke-linecap="round" stroke-linejoin="round"/>
<path d="M22.2792 33.6169C21.9568 34.8861 21.7941 36.1906 21.7949 37.5C21.7949 46.1728 28.8256 53.2035 37.4983 53.2035C46.1711 53.2035 53.2018 46.1728 53.2018 37.5C53.2018 28.8273 46.1711 21.7966 37.4983 21.7966C31.8707 21.7966 26.9355 24.7575 24.1628 29.206" stroke="black" stroke-width="2.19727" stroke-miterlimit="10" stroke-linecap="round" stroke-linejoin="round"/>
<path d="M37.5 42.0194C39.996 42.0194 42.0194 39.996 42.0194 37.5C42.0194 35.0039 39.996 32.9805 37.5 32.9805C35.0039 32.9805 32.9805 35.0039 32.9805 37.5C32.9805 39.996 35.0039 42.0194 37.5 42.0194Z" stroke="black" stroke-width="2.19727" stroke-miterlimit="10" stroke-linecap="round" stroke-linejoin="round"/>
<path d="M37.499 1.09863V25.9806M37.499 49.0194V73.9014M73.9004 37.5H49.0184M25.9796 37.5H1.09766" stroke="black" stroke-width="2.19727" stroke-miterlimit="10" stroke-linecap="round" stroke-linejoin="round"/>
</g>
<defs>
<clipPath id="clip0_595_734">
<rect width="75" height="75" fill="white"/>
</clipPath>
</defs>
</svg>
